<svg width="65" height="25" viewBox="0 0 65 25" fill="none" xmlns="http://www.w3.org/2000/svg">
<path d="M2 6.87V1.45H0V0.2H5.33V1.45H3.39V6.87H2ZM5.17 4.45C5.15798 4.12789 5.20991 3.80659 5.32278 3.50467C5.43564 3.20274 5.60721 2.92617 5.82758 2.69093C6.04794 2.45569 6.31273 2.26644 6.60665 2.13412C6.90057 2.0018 7.21779 1.92902 7.54 1.92H7.72C8.04181 1.90523 8.36339 1.95407 8.6663 2.06372C8.96922 2.17338 9.24754 2.3417 9.48532 2.55905C9.72311 2.7764 9.91569 3.03851 10.0521 3.33039C10.1884 3.62226 10.2659 3.93816 10.28 4.26V4.45C10.3076 5.08844 10.0846 5.71239 9.65869 6.18877C9.23275 6.66515 8.63753 6.95625 8 7H7.72C7.07174 7.02711 6.43919 6.79597 5.96114 6.35729C5.48308 5.9186 5.19856 5.3082 5.17 4.66V4.45ZM9 4.45C9.01676 4.28662 9.00089 4.12154 8.95333 3.96435C8.90576 3.80715 8.82744 3.66097 8.72291 3.53429C8.61839 3.40762 8.48974 3.30296 8.34443 3.22641C8.19913 3.14986 8.04007 3.10294 7.87648 3.08837C7.71289 3.0738 7.54804 3.09187 7.3915 3.14154C7.23495 3.1912 7.08983 3.27147 6.96456 3.37768C6.83929 3.48389 6.73637 3.61393 6.66177 3.76024C6.58717 3.90656 6.54238 4.06623 6.53 4.23C6.52 4.30299 6.52 4.37701 6.53 4.45C6.47828 4.77754 6.5588 5.11221 6.75384 5.38039C6.94887 5.64857 7.24246 5.82828 7.57 5.88C7.89754 5.93172 8.23221 5.8512 8.50039 5.65616C8.76857 5.46113 8.94828 5.16754 9 4.84C9.02008 4.71078 9.02008 4.57923 9 4.45ZM11.37 8.11L11.94 7.19C12.1333 7.39323 12.3685 7.55212 12.6292 7.6557C12.8898 7.75929 13.1699 7.80511 13.45 7.79C13.7573 7.83 14.0679 7.74754 14.3149 7.56044C14.5619 7.37334 14.7253 7.09661 14.77 6.79C14.775 6.72343 14.775 6.65657 14.77 6.59V6.08C14.5966 6.31252 14.372 6.50201 14.1136 6.6338C13.8553 6.76559 13.57 6.83615 13.28 6.84C12.07 6.84 11.15 5.99 11.15 4.38C11.1106 4.09822 11.1272 3.81142 11.1989 3.53608C11.2706 3.26074 11.396 3.00228 11.5679 2.77555C11.7398 2.54882 11.9549 2.35829 12.2006 2.2149C12.4464 2.07151 12.718 1.97809 13 1.94H13.29C13.5789 1.93844 13.8641 2.00456 14.1229 2.13306C14.3816 2.26157 14.6067 2.44888 14.78 2.68V2H16.06V6.5C16.06 8.34 14.64 8.79 13.45 8.79C12.6947 8.84153 11.949 8.59772 11.37 8.11ZM14.78 5.16V3.6C14.6592 3.42048 14.4972 3.2724 14.3076 3.16804C14.1181 3.06369 13.9063 3.00608 13.69 3C13.3725 2.99458 13.0655 3.11422 12.8354 3.33311C12.6053 3.552 12.4705 3.85258 12.46 4.17C12.4547 4.2232 12.4547 4.2768 12.46 4.33C12.414 4.6427 12.4932 4.96092 12.6804 5.21556C12.8677 5.4702 13.1478 5.64069 13.46 5.69H13.66C13.8747 5.69278 14.0872 5.64647 14.2813 5.55462C14.4754 5.46277 14.646 5.3278 14.78 5.16ZM17.26 4.45C17.2507 4.12692 17.3051 3.80516 17.4202 3.50312C17.5353 3.20109 17.7088 2.92469 17.9307 2.68973C18.1527 2.45477 18.4188 2.26586 18.7138 2.13378C19.0088 2.00171 19.3269 1.92906 19.65 1.92H19.76C20.0782 1.91736 20.3937 1.97775 20.6884 2.09768C20.9831 2.21761 21.2512 2.39471 21.4771 2.61876C21.703 2.84282 21.8823 3.10938 22.0047 3.40309C22.127 3.6968 22.19 4.01182 22.19 4.33C22.195 4.41326 22.195 4.49674 22.19 4.58V4.86H18.59C18.6326 5.19518 18.8032 5.50093 19.0659 5.71336C19.3286 5.9258 19.6633 6.02849 20 6C20.4719 5.99024 20.9265 5.82106 21.29 5.52L21.85 6.34C21.2864 6.79806 20.5758 7.03612 19.85 7.01C19.2016 7.04827 18.5645 6.82749 18.0788 6.39619C17.5932 5.96489 17.2986 5.35839 17.26 4.71V4.45ZM19.76 2.93C19.4622 2.92141 19.1725 3.02773 18.9509 3.22694C18.7294 3.42614 18.593 3.70295 18.57 4H21C20.9896 3.7038 20.8632 3.42356 20.6481 3.21967C20.4329 3.01578 20.1463 2.90457 19.85 2.91L19.76 2.93ZM23.6 5.67V3.15H22.8V2H23.6V0.72H24.88V2H25.88V3.15H24.88V5.33C24.88 5.63 25.04 5.86 25.32 5.86C25.4789 5.86876 25.6354 5.81894 25.76 5.72L26.03 6.72C25.7299 6.93076 25.3655 7.02982 25 7C24.8431 7.02572 24.6826 7.02024 24.5278 6.98389C24.3729 6.94754 24.2268 6.88103 24.0977 6.78815C23.9686 6.69527 23.8591 6.57786 23.7754 6.44262C23.6917 6.30738 23.6355 6.15698 23.61 6C23.5935 5.8908 23.5901 5.78 23.6 5.67ZM30.25 6.87V3.93C30.25 3.26 29.9 3.05 29.35 3.05C29.1355 3.05572 28.9251 3.10999 28.7346 3.20871C28.544 3.30743 28.3784 3.44805 28.25 3.62V6.87H27V0.2H28.27V2.67C28.4865 2.42675 28.7535 2.23363 29.0522 2.1041C29.351 1.97457 29.6745 1.91174 30 1.92C30.3646 1.87165 30.7334 1.96973 31.0258 2.19277C31.3182 2.41581 31.5103 2.74563 31.56 3.11C31.5749 3.21949 31.5749 3.33051 31.56 3.44V6.87H30.25ZM32.72 4.45C32.7107 4.12692 32.7651 3.80516 32.8802 3.50312C32.9953 3.20109 33.1688 2.92469 33.3907 2.68973C33.6127 2.45477 33.8788 2.26586 34.1738 2.13378C34.4688 2.00171 34.7869 1.92906 35.11 1.92H35.22C35.5382 1.91736 35.8537 1.97775 36.1484 2.09768C36.4431 2.21761 36.7112 2.39471 36.9371 2.61876C37.163 2.84282 37.3423 3.10938 37.4647 3.40309C37.587 3.6968 37.65 4.01182 37.65 4.33C37.655 4.41326 37.655 4.49674 37.65 4.58V4.86H34.05C34.0902 5.19248 34.2572 5.49661 34.5162 5.70898C34.7751 5.92136 35.1061 6.02561 35.44 6C35.9119 5.99024 36.3665 5.82106 36.73 5.52L37.29 6.34C36.7264 6.79806 36.0158 7.03612 35.29 7.01C34.6433 7.04273 34.01 6.81812 33.5284 6.38526C33.0468 5.9524 32.7562 5.34651 32.72 4.7V4.45ZM35.22 2.93C34.9178 2.91599 34.6218 3.01962 34.3944 3.21912C34.1669 3.41863 34.0255 3.69851 34 4H36.38C36.3748 3.85289 36.3407 3.70824 36.2796 3.57432C36.2185 3.4404 36.1316 3.31984 36.0239 3.21954C35.9161 3.11923 35.7897 3.04115 35.6518 2.98975C35.5138 2.93836 35.3671 2.91465 35.22 2.92V2.93ZM38.81 6.87V2H40.08V2.66C40.2659 2.42732 40.4996 2.23726 40.7653 2.10269C41.0309 1.96813 41.3224 1.89218 41.62 1.88V3.16C41.5036 3.14977 41.3864 3.14977 41.27 3.16C41.0444 3.16431 40.8221 3.21542 40.6173 3.31009C40.4124 3.40477 40.2295 3.54094 40.08 3.71V6.87H38.81ZM49.71 6.87L48.71 3.58L47.71 6.87H46.31L44.84 2H46.16L47.06 5.25L48.12 2H49.25L50.31 5.25L51.21 2H52.53L51.06 6.87H49.71ZM53.28 0.76C53.28 0.609687 53.3246 0.462748 53.4081 0.337767C53.4916 0.212786 53.6103 0.115375 53.7492 0.0578519C53.888 0.000329297 54.0408 -0.0147212 54.1883 0.0146035C54.3357 0.0439283 54.4711 0.116311 54.5774 0.222599C54.6837 0.328887 54.7561 0.464306 54.7854 0.611732C54.8147 0.759157 54.7997 0.911968 54.7421 1.05084C54.6846 1.18971 54.5872 1.30841 54.4622 1.39192C54.3373 1.47543 54.1903 1.52 54.04 1.52C53.8392 1.51741 53.6474 1.43651 53.5055 1.29454C53.3635 1.15257 53.2826 0.960759 53.28 0.76ZM53.41 6.87V2H54.68V6.87H53.41ZM56.44 5.67V3.15H55.64V2H56.44V0.72H57.72V2H58.72V3.15H57.72V5.33C57.72 5.63 57.88 5.86 58.16 5.86C58.3189 5.86876 58.4754 5.81894 58.6 5.72L58.87 6.72C58.5607 6.93526 58.1853 7.03441 57.81 7C57.4965 7.04356 57.1784 6.96361 56.9228 6.77703C56.6672 6.59044 56.4941 6.31182 56.44 6C56.4287 5.89029 56.4287 5.77971 56.44 5.67ZM63.09 6.87V3.93C63.09 3.26 62.74 3.05 62.19 3.05C61.9755 3.05572 61.7651 3.10999 61.5746 3.20871C61.384 3.30743 61.2184 3.44805 61.09 3.62V6.87H59.82V0.2H61.09V2.67C61.3019 2.42907 61.5638 2.23718 61.8573 2.10766C62.1509 1.97814 62.4692 1.9141 62.79 1.92C63.1546 1.87165 63.5234 1.96973 63.8158 2.19277C64.1082 2.41581 64.3003 2.74563 64.35 3.11C64.3649 3.21949 64.3649 3.33051 64.35 3.44V6.87H63.09ZM48.33 11.08H44.88L42.03 18.3L39.33 11.16H35.86L33.59 24.58H37.07L38.22 16.85L40.42 22.41L41.25 24.59H42.63L45.88 16.77L46.86 24.59H50.34L48.33 11.08ZM30.31 11.11C30.0473 11.102 29.7857 11.1458 29.5399 11.239C29.2942 11.3322 29.0693 11.4729 28.878 11.6531C28.6866 11.8333 28.5327 12.0494 28.425 12.2891C28.3172 12.5287 28.2578 12.7873 28.25 13.05V22.62C28.25 23.1663 28.467 23.6903 28.8534 24.0766C29.2397 24.463 29.7637 24.68 30.31 24.68C30.8563 24.68 31.3803 24.463 31.7666 24.0766C32.153 23.6903 32.37 23.1663 32.37 22.62V13.07C32.37 12.5396 32.1593 12.0309 31.7842 11.6558C31.4091 11.2807 30.9004 11.07 30.37 11.07L30.31 11.11ZM59.95 11.15V11.14L56.15 11.15L51 24.57H54.68L55.59 22.23H60.41L61.28 24.57H65L59.95 11.15ZM8.95 11.18L8.96 11.17L5.15 11.18L0 24.6H3.68L4.6 22.26H9.42L10.28 24.6H14L8.95 11.18ZM24.89 17.11H20.37V19.64H23.1C23.0517 20.1756 22.8306 20.681 22.47 21.08C22.202 21.3281 21.8869 21.5198 21.5432 21.6435C21.1996 21.7672 20.8346 21.8204 20.47 21.8C20.0497 21.8175 19.6304 21.7465 19.2393 21.5914C18.8482 21.4364 18.4941 21.2008 18.2 20.9C17.8204 20.5002 17.5234 20.0294 17.326 19.5146C17.1287 18.9998 17.0349 18.4511 17.05 17.9C17.0506 17.3217 17.1592 16.7485 17.37 16.21C17.5477 15.5574 17.9407 14.9839 18.4853 14.5828C19.0299 14.1816 19.694 13.9762 20.37 14C21.0281 13.9924 21.6694 14.2074 22.19 14.61C22.5957 14.9741 22.9136 15.4254 23.12 15.93L26.26 14.64C25.8224 13.6916 25.1681 12.8593 24.35 12.21C23.2382 11.4022 21.8941 10.9776 20.52 11C19.5377 10.9452 18.5555 11.1108 17.6455 11.4845C16.7354 11.8582 15.9203 12.4307 15.26 13.16C14.1378 14.4524 13.5418 16.1191 13.59 17.83C13.5376 19.4094 14.0361 20.9578 15 22.21C15.6459 23.0083 16.4724 23.6414 17.4114 24.057C18.3504 24.4726 19.3748 24.6587 20.4 24.6C20.9615 24.6001 21.5214 24.5397 22.07 24.42C22.8024 24.2634 23.5003 23.9754 24.13 23.57C25.2306 22.834 26.0569 21.7546 26.48 20.5C26.8423 19.4072 27.0181 18.2612 27 17.11H24.89Z" fill="white"/>
</svg>
