<svg width="283" height="74" viewBox="0 0 283 74" fill="none" xmlns="http://www.w3.org/2000/svg">
<path d="M111.976 42.2691H106.667V33.1453H108.697V36.8778H111.976C113.538 36.8778 114.787 38.0842 114.787 39.5923C114.787 41.1004 113.498 42.2691 111.976 42.2691ZM108.658 40.6103H111.625C112.21 40.6103 112.718 40.1578 112.718 39.5546C112.718 38.9891 112.249 38.4989 111.625 38.4989H108.658V40.6103Z" fill="#0B0B0B"/>
<path d="M149.373 42.2691H147.344V33.1453H154.917V34.8042H149.373V42.2691Z" fill="#0B0B0B"/>
<path d="M161.865 42.2691H159.64C157.376 42.2691 155.58 40.4971 155.58 38.3481V37.0663C155.58 34.8796 157.415 33.1453 159.64 33.1453H161.865C164.129 33.1453 165.925 34.9173 165.925 37.0663V38.3481C165.925 40.4971 164.129 42.2691 161.865 42.2691ZM159.952 34.8042C158.664 34.8042 157.61 35.8221 157.61 37.0663V38.3481C157.61 39.5923 158.664 40.6103 159.952 40.6103H161.553C162.841 40.6103 163.895 39.5923 163.895 38.3481V37.0663C163.895 35.8221 162.841 34.8042 161.553 34.8042H159.952V34.8042Z" fill="#0B0B0B"/>
<path d="M205.743 42.2691H203.518C201.254 42.2691 199.458 40.4971 199.458 38.3481V37.0663C199.458 34.8796 201.293 33.1453 203.518 33.1453H205.743C208.007 33.1453 209.803 34.9173 209.803 37.0663V38.3481C209.803 40.4971 208.007 42.2691 205.743 42.2691ZM203.83 34.8042C202.542 34.8042 201.488 35.8221 201.488 37.0663V38.3481C201.488 39.5923 202.542 40.6103 203.83 40.6103H205.431C206.719 40.6103 207.773 39.5923 207.773 38.3481V37.0663C207.773 35.8221 206.719 34.8042 205.431 34.8042H203.83V34.8042Z" fill="#0B0B0B"/>
<path d="M169.946 42.2691H167.916V33.1453H173.264C175.177 33.1453 176.699 34.6533 176.699 36.463C176.699 38.2727 175.138 39.7808 173.264 39.7808H169.946V42.2691ZM169.946 38.1219H172.952C173.889 38.1219 174.669 37.3679 174.669 36.463C174.669 35.5582 173.889 34.8042 172.952 34.8042H169.946V38.1219Z" fill="#0B0B0B"/>
<path d="M181.345 42.2691H178.027V33.1453H180.057V40.6103H180.291L184.156 33.1453H187.474V42.2691H185.444V34.8042H185.21L181.345 42.2691Z" fill="#0B0B0B"/>
<path d="M197.038 37.4434C197.389 36.991 197.584 36.4254 197.584 35.8222C197.584 34.3518 196.335 33.1077 194.774 33.1077H189.621V34.7666H194.461C195.047 34.7666 195.554 35.219 195.554 35.8222C195.554 36.3877 195.086 36.8779 194.461 36.8779H191.69V38.5367H195.008C195.593 38.5367 196.101 38.9892 196.101 39.5924C196.101 40.1579 195.632 40.6481 195.008 40.6481H189.426V42.3069H195.32C196.882 42.3069 198.131 41.1005 198.131 39.5924C198.131 38.6876 197.701 37.9335 197.038 37.4434Z" fill="#0B0B0B"/>
<path d="M219.211 33.1453V36.8778H213.824V33.1453H211.794V42.2691H213.824V38.5366H219.211V42.2691H221.241V33.1453H219.211Z" fill="#0B0B0B"/>
<path d="M231 33.1453H227.799H225.769H222.568V34.8042H225.769V42.2691H227.799V34.8042H231V33.1453Z" fill="#0B0B0B"/>
<path d="M125.6 33.1453H123.57H121.54H119.51C117.597 33.1453 116.075 34.6533 116.075 36.463C116.075 38.2727 117.636 39.7808 119.51 39.7808H121.54V42.2691H123.57V39.7808H125.6C127.513 39.7808 129.035 38.2727 129.035 36.463C129.035 34.6533 127.513 33.1453 125.6 33.1453ZM121.54 38.1219H119.823C118.886 38.1219 118.105 37.3679 118.105 36.463C118.105 35.5582 118.886 34.8042 119.823 34.8042H121.54V38.1219ZM125.288 38.1219H123.57V34.8042H125.288C126.225 34.8042 127.005 35.5582 127.005 36.463C127.005 37.3679 126.264 38.1219 125.288 38.1219Z" fill="#0B0B0B"/>
<path d="M90.4666 33.1453H90.2324H86.4067H86.1725L83.0105 42.2691H83.2447H85.0404L85.9383 39.7054H90.6618L91.5596 42.2691H93.3553H93.5896L90.4666 33.1453ZM86.5629 38.0465L87.695 34.8042H89.0222L90.1543 38.0465H86.5629V38.0465Z" fill="#0B0B0B"/>
<path d="M137.116 33.1453H136.882H133.056H132.822L129.66 42.2691H129.894H131.69L132.587 39.7054H137.311L138.209 42.2691H140.004H140.239L137.116 33.1453ZM133.212 38.0465L134.344 34.8042H135.671L136.803 38.0465H133.212V38.0465Z" fill="#0B0B0B"/>
<path d="M101.943 33.1453H101.709H97.8836H97.6493L94.5264 42.2691H94.7216H96.5563L99.1327 34.8042H100.46L103.036 42.2691H104.871H105.066L101.943 33.1453Z" fill="#0B0B0B"/>
<path d="M70.2453 31.7882L68.6057 27H58.2219L51 48H57.4411L63.0625 31.7882H70.2453Z" fill="#0B0B0B"/>
<path d="M72.9777 39.7431L72.197 37.481H65.912L64.2725 42.2691H72.0799L70.128 47.9998H75.8274L72.9777 39.7431Z" fill="#0B0B0B"/>
</svg>
