<svg width="103" height="103" viewBox="0 0 103 103" fill="none" xmlns="http://www.w3.org/2000/svg">
<circle cx="51.5" cy="51.5" r="51.5" fill="white"/>
<path d="M47.6922 37.0361H46.2422V55.549H47.6922V37.0361Z" fill="#0B0B0B"/>
<path d="M51.368 37.0361H49.918V50.1536H51.368V37.0361Z" fill="#0B0B0B"/>
<path d="M55.2467 44.387H53.7967V50.1533H55.2467V44.387Z" fill="#0B0B0B"/>
<path d="M59.1219 45.4663H57.6719V51.2326H59.1219V45.4663Z" fill="#0B0B0B"/>
<path d="M61.5867 58.4487H60.1367V62.6301H61.5867V58.4487Z" fill="#0B0B0B"/>
<path d="M60.1375 62.5967H58.6875V65.3618H60.1375V62.5967Z" fill="#0B0B0B"/>
<path d="M49.2469 62.5967H47.7969V65.3618H49.2469V62.5967Z" fill="#0B0B0B"/>
<path d="M47.7938 59.7642H46.3438V62.5293H47.7938V59.7642Z" fill="#0B0B0B"/>
<path d="M46.3443 56.999H44.8943V59.7641H46.3443V56.999Z" fill="#0B0B0B"/>
<path d="M44.9266 54.166H43.4766V56.9311H44.9266V54.166Z" fill="#0B0B0B"/>
<path d="M43.4773 52.7163H42.0273V54.1663H43.4773V52.7163Z" fill="#0B0B0B"/>
<path d="M46.2105 49.9849H45.0977V51.4349H46.2105V49.9849Z" fill="#0B0B0B"/>
<path d="M42.0281 48.5686H40.5781V52.7163H42.0281V48.5686Z" fill="#0B0B0B"/>
<path d="M63.0047 48.5688H61.5547V58.4491H63.0047V48.5688Z" fill="#0B0B0B"/>
<path d="M57.674 44.3872H55.2461V45.8372H57.674V44.3872Z" fill="#0B0B0B"/>
<path d="M60.1388 65.3613H47.7969V66.8113H60.1388V65.3613Z" fill="#0B0B0B"/>
<path d="M60.339 45.4663H59.125V46.9163H60.339V45.4663Z" fill="#0B0B0B"/>
<path d="M61.5538 46.916H60.3398V48.5683H61.5538V46.916Z" fill="#0B0B0B"/>
<path d="M53.7951 42.937H51.3672V44.387H53.7951V42.937Z" fill="#0B0B0B"/>
<path d="M45.1297 48.5688H42.0273V50.0189H45.1297V48.5688Z" fill="#0B0B0B"/>
<path d="M49.9546 35.5859H47.6953V37.0359H49.9546V35.5859Z" fill="#0B0B0B"/>
</svg>
