<svg width="103" height="103" viewBox="0 0 103 103" fill="none" xmlns="http://www.w3.org/2000/svg">
<circle cx="51.5" cy="51.5" r="51.5" fill="white"/>
<path d="M53.857 47.4464C54.1929 47.5917 54.5546 47.6679 54.9206 47.6707C55.2866 47.6735 55.6494 47.6027 55.9875 47.4625C56.3256 47.3223 56.632 47.1156 56.8887 46.8547C57.1453 46.5937 57.3469 46.2839 57.4815 45.9435C57.778 45.2635 57.7925 44.4937 57.5217 43.803C57.251 43.1124 56.7172 42.5574 56.0376 42.26C55.7017 42.1148 55.34 42.0385 54.974 42.0357C54.608 42.0329 54.2452 42.1038 53.9071 42.2439C53.569 42.3841 53.2625 42.5908 53.0059 42.8518C52.7492 43.1127 52.5476 43.4225 52.413 43.7629C52.1367 44.445 52.1324 45.2071 52.401 45.8924C52.6696 46.5776 53.1907 47.1337 53.857 47.4464ZM37.0897 61.4732C37.0015 61.4316 36.9054 61.4095 36.808 61.4081C36.7105 61.4068 36.6139 61.4263 36.5246 61.4654C36.4352 61.5045 36.3553 61.5622 36.2902 61.6347C36.225 61.7072 36.1761 61.7928 36.1467 61.8857C36.1054 61.9761 36.0834 62.0741 36.0821 62.1734C36.0808 62.2728 36.1001 62.3713 36.1389 62.4627C36.1777 62.5542 36.2351 62.6366 36.3075 62.7047C36.3798 62.7727 36.4656 62.825 36.5593 62.8582C36.6498 62.8985 36.7476 62.9198 36.8467 62.9207C36.9458 62.9216 37.044 62.9021 37.1352 62.8634C37.2264 62.8247 37.3087 62.7676 37.3769 62.6957C37.4451 62.6239 37.4978 62.5387 37.5317 62.4456C37.5742 62.2575 37.554 62.0606 37.4742 61.8851C37.3944 61.7095 37.2593 61.5648 37.0897 61.4732ZM47.4624 35.0698C47.5529 35.1102 47.6508 35.1315 47.7498 35.1324C47.8489 35.1333 47.9471 35.1138 48.0384 35.0751C48.1296 35.0364 48.2119 34.9793 48.2801 34.9074C48.3483 34.8356 48.401 34.7504 48.4349 34.6573C48.4761 34.5669 48.4981 34.4689 48.4995 34.3696C48.5008 34.2702 48.4815 34.1717 48.4427 34.0802C48.4039 33.9888 48.3464 33.9064 48.2741 33.8383C48.2017 33.7702 48.116 33.718 48.0223 33.6848C47.9322 33.6417 47.8339 33.6182 47.7341 33.6159C47.6342 33.6136 47.535 33.6326 47.443 33.6717C47.351 33.7107 47.2684 33.7688 47.2006 33.8422C47.1328 33.9156 47.0814 34.0026 47.0499 34.0974C46.976 34.2811 46.978 34.4866 47.0553 34.6688C47.1326 34.8511 47.279 34.9953 47.4624 35.0698ZM55.1241 69.459C54.9874 69.404 54.8375 69.3908 54.6933 69.421C54.549 69.4511 54.417 69.5234 54.3138 69.6285C54.2106 69.7337 54.1409 69.8671 54.1135 70.0118C54.086 70.1566 54.1021 70.3062 54.1596 70.4419C54.2172 70.5775 54.3136 70.6931 54.4368 70.7739C54.5599 70.8548 54.7043 70.8973 54.8516 70.8962C54.999 70.8951 55.1427 70.8504 55.2646 70.7676C55.3865 70.6849 55.4812 70.5679 55.5366 70.4314C55.5868 70.2465 55.5734 70.0502 55.4986 69.8738C55.4238 69.6975 55.2919 69.5514 55.1241 69.459ZM67.5596 42.319C67.4229 42.264 67.273 42.2508 67.1288 42.281C66.9845 42.3111 66.8525 42.3834 66.7493 42.4885C66.6461 42.5937 66.5764 42.7271 66.549 42.8718C66.5215 43.0166 66.5376 43.1662 66.5951 43.3019C66.6527 43.4375 66.7491 43.553 66.8723 43.6339C66.9954 43.7148 67.1398 43.7573 67.2871 43.7562C67.4344 43.7551 67.5781 43.7103 67.7001 43.6276C67.822 43.5449 67.9167 43.4279 67.9721 43.2914C68.0207 43.1065 68.0066 42.9107 67.9319 42.7347C67.8573 42.5587 67.7263 42.4125 67.5596 42.319Z" fill="#0B0B0B"/>
<path d="M65.5582 42.8196C65.4066 42.7471 65.2414 42.7072 65.0733 42.7024C64.9053 42.6977 64.7381 42.7282 64.5826 42.7921C64.4271 42.856 64.2867 42.9517 64.1705 43.0732C64.0543 43.1947 63.9649 43.3392 63.908 43.4974C63.7813 43.7971 63.7708 44.1333 63.8785 44.4404C63.6804 44.0424 63.3719 43.7098 62.9899 43.4824C62.6079 43.255 62.1685 43.1423 61.7242 43.1579C61.2799 43.1734 60.8494 43.3165 60.4842 43.57C60.119 43.8236 59.8345 44.1769 59.6646 44.5877C59.4854 45.0158 59.4342 45.4867 59.5173 45.9433C58.1618 47.5345 56.5705 48.5364 55.156 48.7132C54.8719 48.7428 54.5855 48.7428 54.3014 48.7132C54.0052 48.6839 53.7162 48.6042 53.4469 48.4775C52.0913 47.8587 51.2662 46.2379 51.0894 44.1162C51.0354 43.6664 51.0256 43.2124 51.06 42.7607C51.06 42.5544 51.0894 42.3482 51.0894 42.1713C51.4895 41.9127 51.8066 41.5445 52.0029 41.1105C52.2503 40.5353 52.2623 39.8861 52.0364 39.3021C51.8106 38.7181 51.3648 38.246 50.7948 37.9869C50.2959 37.7521 49.7253 37.7204 49.2035 37.8985C49.3536 37.8383 49.4891 37.7466 49.6009 37.6297C49.7128 37.5128 49.7983 37.3734 49.8518 37.2207C49.9242 37.0669 49.964 36.8997 49.9688 36.7297C49.9736 36.5597 49.9433 36.3906 49.8796 36.2329C49.816 36.0752 49.7205 35.9324 49.5991 35.8133C49.4776 35.6943 49.3329 35.6016 49.174 35.541C49.0224 35.4685 48.8572 35.4286 48.6891 35.4238C48.5211 35.4191 48.3539 35.4496 48.1984 35.5135C48.0429 35.5774 47.9025 35.6731 47.7863 35.7946C47.6701 35.9161 47.5807 36.0606 47.5238 36.2188C47.4514 36.3727 47.4115 36.5398 47.4067 36.7098C47.402 36.8798 47.4323 37.0489 47.496 37.2066C47.5596 37.3643 47.6551 37.5072 47.7765 37.6262C47.898 37.7453 48.0427 37.838 48.2016 37.8985C48.4603 38.0147 48.7492 38.0456 49.0267 37.9869C48.7421 38.1036 48.4835 38.2758 48.266 38.4933C48.0484 38.7108 47.8763 38.9694 47.7596 39.254C47.5538 39.7456 47.5144 40.291 47.6474 40.8071C47.7804 41.3231 48.0785 41.7815 48.4963 42.1124C48.4726 42.2783 48.4627 42.4459 48.4668 42.6134C48.4319 43.183 48.4417 43.7544 48.4963 44.3225C48.6731 46.5031 49.4392 48.3891 50.7064 49.6857C49.3508 49.7741 47.9364 50.4224 46.5808 51.5127C44.9896 52.7798 43.4572 54.7542 42.2196 57.1411C41.8178 57.196 41.4375 57.3556 41.1168 57.6039C40.7961 57.8521 40.5464 58.1803 40.3926 58.5555C40.1477 59.138 40.1371 59.7925 40.3631 60.3826C40.2088 60.1455 39.9956 59.9525 39.7443 59.8227C39.5926 59.7501 39.4274 59.7102 39.2594 59.7054C39.0913 59.7007 38.9242 59.7312 38.7687 59.7951C38.6131 59.859 38.4728 59.9548 38.3566 60.0762C38.2404 60.1977 38.1509 60.3422 38.0941 60.5004C38.0216 60.6543 37.9818 60.8215 37.977 60.9914C37.9722 61.1614 38.0026 61.3306 38.0662 61.4883C38.1298 61.6459 38.2254 61.7888 38.3468 61.9079C38.4682 62.0269 38.6129 62.1196 38.7718 62.1801C38.9235 62.2527 39.0887 62.2926 39.2567 62.2973C39.4247 62.3021 39.5919 62.2715 39.7474 62.2077C39.9029 62.1438 40.0433 62.048 40.1595 61.9265C40.2757 61.8051 40.3651 61.6605 40.422 61.5023C40.5488 61.2026 40.5593 60.8664 40.4515 60.5594C40.6496 60.9574 40.9581 61.2899 41.3401 61.5173C41.7222 61.7448 42.1616 61.8574 42.6059 61.8419C43.0502 61.8264 43.4806 61.6833 43.8458 61.4297C44.211 61.1762 44.4956 60.8229 44.6654 60.412C44.8649 59.9264 44.9061 59.3902 44.7833 58.8797C45.7852 56.6991 47.0818 54.9899 48.4668 53.8701C49.6455 52.8977 50.7653 52.4557 51.5609 52.8388C52.0049 53.0744 52.3499 53.4612 52.5334 53.9291C52.6512 54.1943 52.7396 54.5184 52.8575 54.872C53.2701 56.7285 52.9459 59.3217 51.8851 62.0033C51.5056 62.2268 51.1943 62.5497 50.985 62.9372C50.7757 63.3248 50.6763 63.7621 50.6976 64.202C50.7188 64.642 50.8599 65.0677 51.1055 65.4333C51.3512 65.7988 51.6921 66.0903 52.0913 66.2762C52.5902 66.511 53.1608 66.5427 53.6826 66.3646C53.5325 66.4248 53.397 66.5164 53.2852 66.6333C53.1733 66.7502 53.0878 66.8897 53.0343 67.0423C52.9619 67.1962 52.9221 67.3633 52.9173 67.5333C52.9125 67.7033 52.9428 67.8725 53.0065 68.0301C53.0701 68.1878 53.1656 68.3307 53.287 68.4497C53.4085 68.5688 53.5532 68.6615 53.7121 68.722C53.8637 68.7946 54.0289 68.8345 54.197 68.8392C54.365 68.844 54.5322 68.8134 54.6877 68.7496C54.8432 68.6857 54.9836 68.5899 55.0998 68.4684C55.216 68.3469 55.3054 68.2024 55.3623 68.0442C55.4347 67.8904 55.4746 67.7232 55.4794 67.5532C55.4841 67.3833 55.4538 67.2141 55.3901 67.0564C55.3265 66.8987 55.231 66.7559 55.1096 66.6368C54.9882 66.5178 54.8434 66.4251 54.6845 66.3646C54.4258 66.2484 54.1369 66.2174 53.8594 66.2762C54.144 66.1594 54.4026 65.9873 54.6201 65.7698C54.8377 65.5522 55.0098 65.2937 55.1266 65.009C55.2864 64.6275 55.3486 64.2121 55.3074 63.8004C55.2663 63.3888 55.1231 62.9939 54.8908 62.6516C55.9811 59.5869 56.3053 56.4928 55.8338 54.1648C55.7257 53.6435 55.5779 53.1313 55.3918 52.6325C55.1698 52.132 54.8931 51.6576 54.5667 51.218C54.9031 51.2338 55.2401 51.2041 55.5686 51.1296C57.6313 50.8644 59.753 49.5973 61.5211 47.5935C62.0408 47.6741 62.5725 47.5787 63.0317 47.3224C63.4909 47.0661 63.8512 46.6636 64.0554 46.179C64.3002 45.5965 64.3108 44.942 64.0848 44.352C64.2314 44.5956 64.4467 44.7904 64.7036 44.9119C64.8553 44.9844 65.0205 45.0244 65.1885 45.0291C65.3566 45.0338 65.5238 45.0033 65.6793 44.9394C65.8348 44.8756 65.9751 44.7798 66.0913 44.6583C66.2075 44.5368 66.297 44.3923 66.3539 44.2341C66.4688 43.91 66.1741 43.1143 65.5582 42.8196Z" fill="#0B0B0B"/>
</svg>
