<svg width="103" height="103" viewBox="0 0 103 103" fill="none" xmlns="http://www.w3.org/2000/svg">
<circle cx="51.5" cy="51.5" r="51.5" fill="white"/>
<path d="M57.124 47.909L53.2579 44.0429L49.3919 47.909H47.1828L55.329 39.7627H46.7685L38.6223 47.909H35.5156V48.4613H68.9982V47.909H57.124Z" fill="#0B0B0B"/>
<path d="M35.5154 57.16H47.2516L51.1176 60.957L54.9837 57.16H57.0548L48.9775 65.2372H57.538L61.8183 61.026L65.6843 57.16H68.998V56.6077H35.5154V57.16Z" fill="#0B0B0B"/>
<path d="M42.0072 51.4297C42.1452 51.4297 42.3523 51.4297 42.4904 51.4987C42.6285 51.5678 42.7666 51.5678 42.9046 51.6368L43.2498 50.8084C42.9046 50.6013 42.4904 50.5322 42.0762 50.5322C41.731 50.5322 41.3858 50.6013 41.1097 50.7393C40.8335 50.8774 40.6264 51.1536 40.4884 51.4297C40.3503 51.7058 40.2812 52.051 40.2812 52.4652C40.2812 53.0866 40.4193 53.5698 40.7645 53.915C41.0406 54.2602 41.5239 54.3983 42.0762 54.3983C42.4904 54.3983 42.8356 54.3292 43.1808 54.1911V53.2937C43.0427 53.3627 42.8356 53.4317 42.6975 53.4317C42.5594 53.5008 42.3523 53.5008 42.2143 53.5008C41.662 53.5008 41.3858 53.1556 41.3858 52.3962C41.3858 52.051 41.4549 51.7749 41.5929 51.5678C41.731 51.3607 41.731 51.4297 42.0072 51.4297Z" fill="#0B0B0B"/>
<path d="M46.563 53.639C46.3559 53.639 46.2178 53.639 46.0107 53.5699C45.8036 53.5009 45.5965 53.4319 45.3893 53.3628V54.2603C45.5965 54.3293 45.7345 54.3984 45.9416 54.4674C46.0797 54.5364 46.3559 54.5364 46.563 54.5364C46.8391 54.5364 47.1153 54.4674 47.3224 54.3984C47.5295 54.3293 47.7366 54.1222 47.8056 53.9842C47.9437 53.777 48.0127 53.5699 48.0127 53.3628C48.0127 53.0867 47.9437 52.8796 47.8056 52.7415C47.6675 52.6034 47.4604 52.3963 47.1153 52.2582C46.7701 52.1202 46.563 51.9821 46.4939 51.9131C46.4249 51.844 46.3559 51.775 46.3559 51.706C46.3559 51.6369 46.3559 51.5679 46.4249 51.4988C46.4939 51.4298 46.563 51.4298 46.701 51.4298C46.9772 51.4298 47.2533 51.4988 47.5985 51.706L47.9437 50.9466C47.5295 50.7394 47.1153 50.6704 46.7701 50.6704C46.3559 50.6704 45.9416 50.7394 45.7345 50.9466C45.4584 51.1537 45.3203 51.4298 45.3203 51.775C45.3203 51.9821 45.3203 52.1202 45.3893 52.2582C45.4584 52.3963 45.5274 52.5344 45.6655 52.6034C45.8036 52.7415 45.9416 52.8105 46.2178 52.9486C46.4939 53.0867 46.632 53.1557 46.701 53.2248C46.7701 53.2938 46.8391 53.2938 46.8391 53.3628C46.8391 53.4319 46.9081 53.4319 46.9081 53.5009C46.9081 53.5699 46.8391 53.639 46.7701 53.708C46.8391 53.639 46.701 53.639 46.563 53.639Z" fill="#0B0B0B"/>
<path d="M51.395 53.639C51.1879 53.639 51.0498 53.639 50.8427 53.5699C50.6356 53.5009 50.4285 53.4319 50.2214 53.3628V54.2603C50.4285 54.3293 50.5666 54.3984 50.7737 54.4674C50.9117 54.5364 51.1879 54.5364 51.395 54.5364C51.6711 54.5364 51.9473 54.4674 52.1544 54.3984C52.3615 54.3293 52.5686 54.1222 52.6376 53.9842C52.7757 53.777 52.8448 53.5699 52.8448 53.3628C52.8448 53.0867 52.7757 52.8796 52.6376 52.7415C52.4996 52.6034 52.2925 52.3963 51.9473 52.2582C51.6021 52.1202 51.395 51.9821 51.326 51.9131C51.2569 51.844 51.1879 51.775 51.1879 51.706C51.1879 51.6369 51.1879 51.5679 51.2569 51.4988C51.326 51.4298 51.395 51.4298 51.5331 51.4298C51.8092 51.4298 52.0854 51.4988 52.4305 51.706L52.7757 50.9466C52.3615 50.7394 51.9473 50.6704 51.6021 50.6704C51.1879 50.6704 50.7737 50.7394 50.5666 50.9466C50.2904 51.1537 50.1523 51.4298 50.1523 51.775C50.1523 51.9821 50.1523 52.1202 50.2214 52.2582C50.2904 52.3963 50.3595 52.5344 50.4975 52.6034C50.6356 52.7415 50.7737 52.8105 51.0498 52.9486C51.326 53.0867 51.464 53.1557 51.5331 53.2248C51.6021 53.2938 51.6711 53.2938 51.6711 53.3628C51.6711 53.4319 51.7402 53.4319 51.7402 53.5009C51.7402 53.5699 51.6711 53.639 51.6021 53.708C51.6711 53.639 51.5331 53.639 51.395 53.639Z" fill="#0B0B0B"/>
<path d="M58.4335 52.4655C58.4335 51.8442 58.2954 51.43 57.9502 51.0848C57.605 50.7396 57.1218 50.6016 56.5695 50.6016H55.2578V54.3986H56.5005C57.1218 54.3986 57.605 54.2605 57.9502 53.9153C58.2264 53.5701 58.4335 53.0869 58.4335 52.4655ZM57.1218 53.363C56.9837 53.5701 56.7766 53.6392 56.4314 53.6392H56.2243V51.499H56.5005C56.7766 51.499 56.9837 51.5681 57.1218 51.7752C57.2599 51.9133 57.3289 52.1894 57.3289 52.5346C57.3289 52.8798 57.2599 53.1559 57.1218 53.363Z" fill="#0B0B0B"/>
<path d="M62.9918 53.7082L63.1989 54.3986H64.3034L63.0608 50.6016H61.6801L60.4374 54.3986H61.542L61.7491 53.7082H62.9918ZM62.3014 51.7061C62.3704 51.499 62.3704 51.361 62.3704 51.2919C62.3704 51.361 62.4395 51.5681 62.5085 51.7752C62.5775 51.9823 62.5775 52.1894 62.6466 52.3275L62.7846 52.9488H61.9562C62.1633 52.3275 62.2324 51.9133 62.3014 51.7061Z" fill="#0B0B0B"/>
</svg>
