<svg width="103" height="103" viewBox="0 0 103 103" fill="none" xmlns="http://www.w3.org/2000/svg">
<circle cx="51.5" cy="51.5" r="51.5" fill="white"/>
<path d="M45.9065 43.4932C46.6823 43.4932 47.399 43.5523 48.0566 43.7296C48.7143 43.8478 49.2537 44.0917 49.7339 44.3872C50.2142 44.6828 50.5689 45.1039 50.8127 45.6433C51.0492 46.1827 51.1748 46.8403 51.1748 47.5571C51.1748 48.392 50.9974 49.1087 50.5763 49.6481C50.2142 50.1875 49.6231 50.6678 48.899 51.0225C49.9187 51.318 50.6945 51.8574 51.1674 52.5741C51.6403 53.2909 51.9432 54.1849 51.9432 55.2046C51.9432 56.0395 51.7659 56.7563 51.4629 57.3548C51.1674 57.9533 50.6871 58.4927 50.1477 58.8473C49.6083 59.2094 48.9507 59.505 48.234 59.6823C47.5173 59.8596 46.8005 59.9778 46.0838 59.9778L38.0742 59.9926V43.4932H45.9065ZM45.4262 50.1875C46.0838 50.1875 46.6232 50.0102 47.037 49.7072C47.4508 49.4043 47.6355 48.8723 47.6355 48.2147C47.6355 47.8526 47.5764 47.498 47.4581 47.2615C47.3399 47.0251 47.1626 46.8403 46.9188 46.663C46.6823 46.5448 46.4385 46.4266 46.1429 46.3675C45.8474 46.3083 45.5444 46.3083 45.1897 46.3083H41.7243V50.1949C41.7243 50.1875 45.4262 50.1875 45.4262 50.1875ZM45.6035 57.2439C45.9656 57.2439 46.3203 57.1848 46.6232 57.1257C46.9188 57.0666 47.2217 56.9484 47.4581 56.7637C47.6946 56.5789 47.8793 56.4016 48.0566 56.106C48.1749 55.8105 48.2931 55.4484 48.2931 55.0273C48.2931 54.1923 48.0566 53.5938 47.5764 53.1726C47.0961 52.8106 46.4385 52.6333 45.6626 52.6333H41.7243V57.2366H45.6035V57.2439Z" fill="#0B0B0B"/>
<path d="M57.1452 57.1849C57.6255 57.6652 58.3422 57.9016 59.2954 57.9016C59.953 57.9016 60.5515 57.7243 61.0318 57.4213C61.512 57.0593 61.8076 56.7046 61.9258 56.3425H64.8518C64.3715 57.776 63.6548 58.7957 62.7016 59.4533C61.7485 60.0518 60.6106 60.4064 59.2362 60.4064C58.2831 60.4064 57.4407 60.2291 56.6649 59.9262C55.8891 59.6306 55.2906 59.2094 54.7512 58.6109C54.2118 58.0715 53.798 57.4139 53.5542 56.6381C53.2586 55.8623 53.133 55.0273 53.133 54.0668C53.133 53.1727 53.2512 52.3304 53.5542 51.5545C53.8571 50.7787 54.2709 50.1211 54.8103 49.5226C55.3497 48.9832 56.0073 48.5029 56.724 48.2073C57.4998 47.9118 58.2757 47.7271 59.2362 47.7271C60.2559 47.7271 61.15 47.9044 61.9258 48.3256C62.7016 48.7467 63.3001 49.2196 63.7804 49.9363C64.2607 50.594 64.6154 51.3698 64.8592 52.2047C64.9774 53.0397 65.0365 53.882 64.9774 54.8352H56.3102C56.3102 55.8105 56.6649 56.7046 57.1452 57.1849ZM60.9135 50.9043C60.4924 50.4831 59.8347 50.2467 59.0589 50.2467C58.5195 50.2467 58.1057 50.3649 57.7437 50.5422C57.3816 50.7196 57.1452 50.9634 56.9087 51.1999C56.6723 51.4363 56.5467 51.7392 56.4876 52.0348C56.4285 52.3304 56.3693 52.5742 56.3693 52.8106H61.7485C61.6303 51.924 61.3273 51.3255 60.9135 50.9043ZM55.6526 44.6311H62.347V46.2419H55.6526V44.6311Z" fill="#0B0B0B"/>
</svg>
