<svg width="283" height="74" viewBox="0 0 283 74" fill="none" xmlns="http://www.w3.org/2000/svg">
<g clip-path="url(#clip0_258_3324)">
<path d="M167.612 36.6387C167.692 55.4698 152.853 70.5107 134.3 70.5905C115.867 70.6903 100.889 55.789 100.809 36.9578C100.709 18.1067 115.568 2.74661 133.961 2.66682C152.534 2.58702 167.512 17.8075 167.612 36.6387Z" fill="#0B0B0B"/>
<path d="M166.214 36.6388C166.294 54.6121 152.135 69.1145 134.281 69.1943C116.567 69.2741 102.268 54.9114 102.188 36.938C102.108 18.825 116.267 4.16306 133.981 4.06332C151.835 3.98352 166.135 18.5258 166.214 36.6388Z" fill="white"/>
<path d="M165.414 36.6585C165.494 54.0933 151.654 68.2565 134.279 68.3363C117.044 68.3962 103.065 54.3726 102.985 36.9378C102.905 19.3435 116.745 5.04058 133.98 4.96078C151.354 4.88099 165.334 19.0442 165.414 36.6585Z" fill="#0B0B0B"/>
<path d="M117.366 36.7982C117.326 27.3228 124.875 19.6028 134.041 19.5629C143.368 19.523 150.997 27.1831 151.037 36.6585C151.077 45.9544 143.528 53.6943 134.201 53.7342C125.035 53.7542 117.406 46.094 117.366 36.7982ZM115.309 36.7982C115.349 47.2112 123.936 55.8487 134.221 55.7889C144.646 55.749 153.154 47.0316 153.094 36.6186C153.054 26.0261 144.466 17.4085 134.041 17.4484C123.756 17.5082 115.269 26.2256 115.309 36.7982Z" fill="#0B0B0B"/>
<path d="M151.275 36.7184C151.315 46.1739 143.607 53.9138 134.12 53.9537C124.794 53.9936 117.165 46.3335 117.125 36.878C117.085 27.243 124.634 19.3635 133.961 19.3236C143.447 19.2637 151.235 27.0834 151.275 36.7184Z" fill="white"/>
<path d="M169.59 52.3579C168.352 52.3579 167.413 52.5973 166.734 52.7968C166.794 52.8766 166.874 52.9364 166.954 53.0162C166.954 53.0362 166.974 53.0362 166.974 53.0362C168.452 54.5323 169.69 55.9087 171.647 57.4248C173.265 58.4421 176.141 58.6616 178.597 58.6616C179.775 58.6616 180.854 58.6017 181.653 58.5419C181.693 58.5419 181.732 58.5419 181.772 58.5419C181.872 58.5419 181.972 58.5219 182.072 58.5219C176.42 53.4551 172.326 52.3579 169.59 52.3579Z" fill="#0B0B0B"/>
<path d="M151.895 48.9265C151.316 48.9265 150.817 48.9864 150.438 49.0462C150.497 49.126 150.557 49.2058 150.617 49.2856C150.617 49.3056 150.637 49.3056 150.637 49.3255C151.815 51.0012 152.774 52.6768 154.571 54.6517C156.668 56.3074 161.981 56.6665 164.437 56.6864C164.477 56.6864 164.497 56.6864 164.537 56.6864C164.637 56.6864 164.757 56.6864 164.836 56.6864C158.985 49.9838 154.532 48.9066 151.895 48.9265Z" fill="#0B0B0B"/>
<path d="M159.762 51.0612C159.862 51.0811 159.961 51.1011 160.061 51.121H160.081C161.18 51.3006 162.358 51.4602 163.696 51.4602C164.555 51.4602 165.493 51.3804 166.532 51.2008C169.048 50.742 173.402 46.5729 175.199 44.7376C175.239 44.6977 175.259 44.6778 175.299 44.6379C175.379 44.5581 175.439 44.4783 175.519 44.4185C164.794 44.6379 161.02 48.9866 159.762 51.0612Z" fill="#0B0B0B"/>
<path d="M149.957 49.0265C150.057 49.0464 150.157 49.0464 150.257 49.0664C150.257 49.0664 150.277 49.0664 150.296 49.0664C151.475 49.2459 152.633 49.4055 153.951 49.4055C154.79 49.4055 155.709 49.3257 156.747 49.1462C159.443 48.6874 163.837 44.7376 165.614 42.6829C165.634 42.663 165.654 42.6231 165.674 42.6031C165.754 42.5234 165.814 42.4436 165.874 42.3638C154.99 42.6031 151.055 47.271 149.957 49.0265Z" fill="#0B0B0B"/>
<path d="M167.11 52.8565C164.654 52.8565 161.978 52.4176 159.142 51.5199C154.968 50.0438 150.535 49.3057 146.021 49.3057C137.873 49.3057 131.982 51.7394 131.482 51.9588L131.043 51.2207C131.582 50.9813 137.374 48.4878 145.901 48.4878C150.614 48.4878 155.268 49.2658 159.741 50.8018C162.377 51.6596 164.894 52.0785 167.21 52.0785C171.704 52.0785 174.06 50.4427 174.3 50.2632L175.019 50.7021C174.699 50.9614 172.203 52.8565 167.11 52.8565Z" fill="#0B0B0B"/>
<path d="M145.903 48.528C150.616 48.528 155.269 49.306 159.742 50.842C162.379 51.6998 164.895 52.1187 167.212 52.1187C169.688 52.1187 171.505 51.62 172.584 51.2011C173.582 50.8021 174.161 50.4231 174.321 50.3034L174.96 50.7024C174.501 51.0615 172.005 52.8169 167.112 52.8169C164.655 52.8169 161.979 52.3781 159.163 51.4804C154.969 50.0042 150.556 49.2661 146.022 49.2661C138.034 49.2661 132.183 51.62 131.504 51.8993L131.104 51.241C131.843 50.9218 137.575 48.528 145.903 48.528ZM145.903 48.4482C137.175 48.4482 131.204 51.1014 130.984 51.2011L131.464 51.999C131.464 51.999 137.455 49.3459 146.002 49.3459C149.937 49.3459 154.43 49.9045 159.123 51.5602C162.259 52.5376 164.915 52.8967 167.112 52.8967C172.304 52.8967 174.88 50.9019 175.1 50.6824L174.301 50.2037C174.301 50.2037 171.985 52.019 167.212 52.019C165.175 52.019 162.698 51.6799 159.762 50.7423C154.75 49.0267 150.017 48.4482 145.903 48.4482Z" fill="#0B0B0B"/>
<path d="M186.644 46.2339C177.538 46.2738 174.382 49.7049 173.523 51.3406C173.623 51.3606 173.723 51.3606 173.823 51.3805H173.843C175.401 51.6199 176.899 51.8393 178.836 51.8393C179.295 51.8393 179.794 51.8194 180.314 51.7995C182.99 51.6399 187.204 48.3285 188.741 46.593C188.761 46.573 188.781 46.5531 188.801 46.5331C188.881 46.4533 188.941 46.3735 189.001 46.2937C188.182 46.2339 187.383 46.2339 186.644 46.2339Z" fill="#0B0B0B"/>
<path d="M140.591 35.5617V34.9233C141.23 35.2425 141.649 35.4819 142.428 35.4819C142.747 35.4819 142.947 35.422 143.127 35.3821C143.926 35.2225 144.864 34.5643 145.803 33.7663C146.282 33.9259 146.841 34.0655 147.481 34.0655C148.439 34.0655 149.597 33.7464 150.696 33.108C150.936 33.2876 151.015 33.3474 151.115 33.3674C151.595 33.507 151.774 33.5469 152.194 33.5469C153.072 33.5469 153.731 33.1878 153.871 33.108C154.49 32.729 155.209 32.2902 155.768 31.8114C156.388 32.3101 156.987 32.5096 157.646 32.5096C157.845 32.5096 158.065 32.4896 158.305 32.4497C159.723 32.2902 160.821 31.4723 161.46 30.5148C161.78 31.1731 162.898 31.4723 163.937 31.4523C166.213 31.3925 168.29 29.2181 170.008 27.6422C172.604 29.1583 174.561 26.8443 174.561 24.8495C174.561 22.735 173.243 21.558 171.086 21.558C170.267 21.558 169.588 21.7375 167.851 22.715L169.129 17.2292C169.129 17.2292 160.601 19.0844 158.744 20.1217C158.425 20.2813 157.965 20.6005 157.646 20.9197C157.746 20.6204 158.045 19.5033 158.245 18.7453C158.245 18.7054 158.265 18.6655 158.285 18.6256C158.385 18.2666 158.445 18.0272 158.445 18.0272L152.453 20.1417C152.453 20.1417 152.453 20.3013 152.453 20.4609C151.674 20.6204 150.696 20.8399 149.937 21.1192C148.639 21.5979 147.72 22.5754 146.782 23.5329C146.662 23.3334 146.522 23.0142 146.302 22.735C145.903 22.1764 145.024 21.5979 143.606 21.7774C142.967 21.8572 142.028 22.4158 141.09 23.0741C140.73 22.8347 140.311 22.6951 139.852 22.6951C139.692 22.6951 139.512 22.715 139.352 22.735C138.574 22.8347 137.615 23.2536 136.836 23.892C136.836 23.892 136.517 23.7523 136.457 23.7324C135.238 23.3135 133.681 23.7922 132.562 24.5702C132.562 24.5702 132.083 24.8894 131.763 25.2085C131.624 25.049 131.624 25.029 131.444 24.8894C131.124 24.65 130.465 24.5502 129.686 24.5502C128.388 24.5502 126.651 25.0091 124.973 26.5251C124.814 26.6847 124.654 26.8443 124.494 27.0039C124.694 26.0264 124.774 25.6275 124.774 25.6275C117.984 27.4228 118.163 27.343 118.163 27.343L118.004 28.1409C117.684 27.8218 117.205 27.5026 116.426 27.343C116.586 27.0238 116.725 26.6847 116.725 26.2259C116.785 24.6101 115.887 23.1539 112.971 23.094C112.611 23.094 109.017 23.4132 107.239 26.1062C106.82 26.7446 106.46 27.6622 106.021 28.5C105.961 28.5997 105.861 28.6396 105.821 28.6795L106.38 26.6249C105.122 26.4054 104.583 26.3855 103.744 26.4054C99.9499 26.4254 97.5134 27.5624 95.3765 29.8764C93.7389 31.572 93 33.5269 93 35.4619C93 36.4194 93.1598 37.2174 93.6391 38.0352C94.2981 39.0925 95.2767 39.7109 96.3152 39.7109C96.5348 39.7109 96.7545 39.691 96.9742 39.6311C98.3921 39.1324 99.3308 38.1749 99.3308 36.8982C100.09 37.7959 102.506 37.9355 103.125 37.6762C102.965 37.9954 102.666 37.9954 102.666 37.9954L101.248 38.3145L99.6902 44.8974C99.89 44.7977 103.625 42.9625 103.625 42.9625C104.244 42.6433 105.202 42.1446 106.94 42.1446C107.739 42.1446 108.358 41.985 108.837 41.985C107.04 42.9026 106.82 46.8125 109.336 47.8298C106.82 51.5402 105.721 52.757 105.262 53.2358C103.844 52.7171 101.468 53.3355 101.667 56.228C101.767 57.6244 102.846 59.5394 105.462 59.1604C106.56 59.0008 107.679 58.3425 108.777 57.2254C109.057 57.006 112.472 52.2583 113.49 50.7822C113.35 52.0389 111.533 54.5125 110.854 55.3902C111.074 55.3703 113.989 55.1907 115.248 55.1109C116.026 55.0511 117.265 54.8716 118.563 54.1335C119.182 53.7744 122.197 53.7943 122.197 53.7943C122.197 53.7943 122.197 53.6348 122.197 53.4752C123.396 54.1335 125.193 53.4353 126.631 52.1785C127.869 53.1959 129.427 52.5775 130.405 51.7596C130.405 51.9192 130.405 51.9791 130.405 51.9791C130.625 51.9392 137.036 50.6625 137.036 50.6625C137.036 50.6625 137.196 49.705 137.196 49.5454C137.295 49.6451 137.355 49.705 137.355 49.705C137.875 50.2236 138.613 50.5428 139.412 50.5428C139.572 50.5428 139.732 50.5228 139.892 50.5029C139.991 50.463 140.071 50.443 140.131 50.4231C140.371 50.2835 140.99 50.1837 143.207 48.2487C143.207 48.2487 143.666 48.7474 143.846 48.8871C144.385 49.3259 144.944 49.4257 145.563 49.4257C145.763 49.4257 145.983 49.4257 146.222 49.3658C146.722 49.2462 148.12 48.3884 148.898 47.75C149.538 48.2288 150.177 48.3884 150.796 48.3884H150.955C151.894 48.2288 152.873 47.7101 153.831 46.7327C153.991 46.8524 153.951 46.8125 154.111 46.9122C154.71 47.2713 155.389 47.4508 156.028 47.4508C156.248 47.4508 156.447 47.4309 156.647 47.391C157.286 47.2314 158.544 46.5731 159.643 45.456L159.803 45.6156C159.902 45.7153 160.122 45.8948 160.162 45.9148C160.841 46.3736 161.88 46.3537 161.88 46.3537C162.119 46.3537 162.379 46.2938 162.638 46.2539C163.677 46.0544 165.175 44.7977 167.052 43.1819C167.372 42.8627 167.851 42.5435 168.15 42.2044C168.63 42.5635 169.189 42.743 169.848 42.743C170.068 42.743 170.287 42.7231 170.527 42.6832C171.466 42.5236 172.584 41.5461 172.724 40.1099C172.744 39.9503 172.744 39.7907 172.744 39.6311C172.744 38.2547 172.065 37.2772 170.966 36.7386C170.427 36.4793 169.948 36.3197 169.409 36.3197C169.089 36.3197 168.77 36.3596 168.43 36.4194C167.491 36.579 166.153 37.2174 166.153 37.2174C166.233 36.958 167.172 32.0907 167.172 32.0907C161.78 32.9086 158.484 34.0855 156.887 34.8834C156.308 35.1827 155.509 35.7412 155.509 35.7412C155.549 35.6215 155.968 33.8262 155.968 33.8262L149.438 36.0803L149.318 36.6987C148.679 36.0604 147.96 35.801 147.161 35.821C146.382 35.821 145.503 36.2599 144.884 36.599C144.924 36.4593 145.044 36.1003 145.044 36.1003C139.253 37.4169 138.913 37.4966 138.893 37.4966C138.594 38.6536 138.494 38.893 138.494 38.893L138.314 38.8531C138.114 38.6137 137.435 37.8557 136.257 37.8757C135.418 37.9754 134.919 38.2148 133.721 38.9728C133.721 38.9529 133.82 38.3744 133.82 38.3744C128.948 39.5314 127.57 39.8505 127.57 39.8505C127.57 39.8505 127.47 40.2495 127.33 40.9876C127.01 40.6684 126.771 39.9902 125.413 39.9303C123.895 39.9702 122.657 41.1871 122.657 41.1871C122.817 40.3891 122.936 39.3518 123.196 37.9555C124.714 39.4316 127.969 38.7733 129.507 37.377C129.966 37.2772 134.899 36.4992 134.899 36.4992C134.919 36.6189 134.919 36.5591 134.919 36.6788C134.739 36.6788 140.591 35.5617 140.591 35.5617ZM130.925 30.794C130.925 30.9536 130.925 31.1132 130.765 31.4324C130.765 31.1132 130.286 30.6345 130.286 30.6345L130.605 30.4749C130.765 30.6345 130.925 30.794 130.925 30.794ZM128.388 30.4749C128.708 30.6345 129.027 30.6345 129.327 30.6345C129.167 30.6345 128.229 31.6119 128.229 31.6119C128.069 31.7715 128.069 31.7715 127.909 31.9311C128.089 31.2927 128.229 30.794 128.388 30.4749ZM156.507 25.6873H156.348L156.507 25.5277V25.6873ZM167.631 23.1539C167.611 23.1539 167.631 23.1539 167.631 23.1539C167.611 23.1539 167.611 23.1539 167.631 23.1539C167.611 23.1539 167.611 23.1539 167.631 23.1539Z" fill="#0B0B0B"/>
<path d="M131.625 43.6406C132.085 43.7204 133.063 43.9598 133.063 43.9598C132.584 44.4385 131.965 45.1566 131.166 45.8947C131.326 45.2364 131.485 44.4385 131.625 43.6406ZM142.849 41.5061C143.328 41.6657 143.787 41.9849 143.787 41.9849H143.947C143.468 42.4636 142.849 43.1219 142.21 43.6007C142.389 42.9623 142.529 42.1445 142.849 41.5061ZM121.041 45.9346C121.36 46.0942 121.52 46.2538 121.68 46.2538C121.68 46.2538 121.999 46.4134 122.159 46.4134C121.839 47.5305 121.7 48.6675 121.54 49.3059C121.26 49.4056 121.22 49.4256 120.901 49.4655C120.901 48.1888 121.061 47.0517 121.041 45.9346ZM112.813 43.5807C112.972 43.5807 113.132 43.4212 113.452 43.2616C113.292 43.5807 113.132 43.7403 112.972 44.0595C112.972 43.8999 112.813 43.7403 112.813 43.7403V43.5807ZM116.747 38.8929C117.066 38.5737 117.246 38.4141 117.526 38.2546C117.666 38.3344 117.506 38.5139 117.765 38.4939C117.326 38.7134 117.066 38.7333 116.747 38.8929ZM126.692 33.4071C126.692 32.7688 127.611 30.2354 127.751 29.7367C127.911 29.5771 128.09 29.3776 128.09 29.3776C128.09 29.3776 128.41 29.3776 128.729 29.3776C129.368 29.6968 129.988 29.5372 130.467 29.5372L130.766 29.3776C131.086 29.6968 131.406 29.8564 131.406 29.8564C131.406 29.8564 131.885 30.1755 132.045 30.1755C131.725 31.133 131.585 32.2701 131.266 33.2276L129.828 31.3126C128.889 32.1105 127.311 33.5667 126.832 33.7263H126.672C126.692 33.7263 126.692 33.5667 126.692 33.4071ZM161.881 23.1338C162.041 22.9742 162.36 22.8146 162.66 22.8146C162.66 22.9742 162.5 23.1338 162.5 23.1338C162.34 23.2934 162.041 23.2934 161.701 23.2934L161.881 23.1338ZM151.117 25.8468C151.097 27.2431 150.058 28.3204 150.058 28.3204C149.899 28.4799 149.699 28.7393 149.539 28.7393C149.859 27.2232 149.839 26.545 151.117 25.8468ZM159.165 20.6602C157.907 21.4582 156.988 22.675 157.008 23.9517C157.008 24.59 157.248 25.5874 158.186 26.0463C158.186 26.2058 157.647 27.1634 157.647 27.1634C157.328 26.8442 156.928 26.4053 156.369 26.3654C156.07 26.3455 155.59 26.545 155.271 26.7045C155.57 24.9292 157.128 19.3237 157.128 19.3237C154.572 20.1815 153.334 20.5804 153.334 20.5804C153.294 20.6802 153.294 20.6802 153.194 20.9395C152.395 21.2587 151.117 21.4981 150.198 21.917C147.462 23.1737 146.104 25.7869 145.645 27.3828C145.805 26.5849 146.104 25.2882 146.104 24.969C146.104 24.1711 145.944 23.6924 145.625 23.1937C144.027 21.8372 142.15 23.2136 141.031 24.0115C141.031 24.0115 140.073 23.3732 139.294 23.3732C138.495 23.5328 137.716 24.0115 136.618 24.8294C136.618 24.6698 135.839 24.1711 135.839 24.1711C134.381 23.832 132.184 25.8069 131.725 26.126C131.565 25.9665 131.405 25.8069 131.086 25.4877C130.447 25.1685 127.911 24.8494 125.554 26.9639C124.136 28.4201 123.038 30.3351 122.578 31.9509C122.578 32.1105 122.419 32.2701 122.099 32.5893C122.439 31.0533 123.377 26.7245 123.377 26.7245C120.222 27.6022 119.024 27.9812 119.024 27.9812C118.984 28.3403 117.845 32.9483 117.845 32.9483C117.686 33.5867 117.306 33.9457 116.987 34.4445C117.446 31.6118 117.765 30.2154 117.765 29.8763C117.765 29.5571 117.666 28.839 117.346 28.5198C117.026 28.2007 115.928 27.5623 114.35 28.7393C114.171 28.8789 113.072 29.597 112.293 30.2354C112.613 29.2779 112.952 28.3004 113.112 27.8017C114.61 28.6395 115.768 27.1634 115.768 26.0463C115.768 24.7696 114.969 24.2908 114.33 23.9716C113.532 23.8121 112.253 23.832 112.253 23.832C110.676 24.1512 108.958 25.1286 108.02 26.4053C107.081 27.682 106.302 29.617 105.683 32.1903C104.764 33.447 103.686 32.8286 103.686 32.8286C103.846 32.5095 105.304 27.1235 105.304 27.1235C103.926 26.9639 103.107 27.0038 101.449 27.2631C99.2324 27.6022 97.435 28.6794 96.0171 30.2952C94.5992 31.911 93.9801 33.5069 93.8203 35.2823C93.8203 36.0802 93.9202 36.8582 94.4194 37.4965C95.0585 38.454 95.8973 38.8131 96.8559 38.474C97.9543 38.1548 98.4336 37.4965 98.5934 36.539C98.5934 35.9007 98.2738 35.4219 97.7945 34.9432C97.6347 34.7836 97.6347 34.4644 97.6347 34.4644C97.6347 33.6665 98.5934 32.0507 99.512 31.5719C99.1925 32.5494 98.9528 33.6066 98.9528 33.9457C98.9528 34.1053 99.1925 35.9007 100.471 36.3794C101.269 36.8582 102.428 36.6986 103.706 36.5989C104.025 36.5789 104.385 36.4193 104.764 36.3595C104.764 36.5191 104.585 37.1175 104.585 37.1175C103.626 39.0924 102.088 38.9328 102.088 38.9328C101.928 39.5113 101.15 42.9424 101.15 42.9424C102.947 42.1046 102.847 42.1445 103.366 41.8851C104.065 41.5261 105.044 40.9675 107.001 40.9875C109.857 41.0274 111.115 40.01 111.275 39.8504C111.435 39.6908 112.074 35.4818 112.074 35.4818C112.074 35.4818 111.175 36.3395 110.776 36.6388C111.095 35.3621 111.235 34.225 111.554 33.1079C111.874 33.2675 112.952 33.8261 112.952 33.8261C112.633 35.1027 112.233 37.2771 112.213 37.7559C112.154 40.1297 114.131 39.8305 114.43 39.8305C111.435 41.167 109.757 41.9649 109.398 42.4038C108.838 43.102 108.719 43.5209 108.719 44.3188C108.719 44.4784 108.798 46.9919 110.995 46.8921C108.958 49.7846 106.602 53.3354 105.663 54.1333C104.864 53.6546 103.586 53.6346 102.967 54.4525C102.588 54.8515 102.328 56.0484 102.987 57.0458C103.466 57.8437 104.585 58.3424 105.383 58.1828C106.322 58.0232 107.401 57.5046 108.299 56.4872C109.238 55.41 112.932 49.8844 114.969 46.8722C114.969 47.5105 114.47 51.4403 113.831 52.5175C113.192 53.6147 112.573 54.4126 112.573 54.4126C115.269 54.0735 115.149 54.0934 115.149 54.0934C115.948 53.9339 117.206 53.7543 118.145 53.116C119.083 52.6372 120.521 52.6173 120.521 52.6173H121.32C121.48 51.8194 121.48 51.181 121.48 51.0214C121.64 51.3406 121.72 51.939 122.039 52.2582C122.359 52.5774 123.617 53.6346 126.852 50.8419C126.852 51.0015 127.371 51.56 127.531 51.58C129.608 51.8592 130.806 50.3432 131.905 49.3657C131.905 49.5253 131.665 50.5427 131.665 50.5427C133.083 50.2235 136.199 49.5054 136.199 49.5054C136.338 48.867 136.798 47.0916 137.097 45.4958C137.417 45.4958 137.417 45.4958 137.716 45.4958C137.517 46.4533 137.437 46.932 137.417 47.2512C137.237 49.2061 139.374 49.625 140.193 49.3458C141.011 49.0665 142.31 47.71 143.568 46.5929C143.608 47.2113 143.867 47.5903 144.207 47.8696C145.225 48.7074 146.444 48.4481 149.08 46.3336C149.559 46.8123 150.058 47.351 150.837 47.1914C151.776 47.0318 152.734 46.3735 153.833 45.2564C156.07 47.7898 158.925 45.416 159.824 43.4611C159.824 45.3362 161.581 45.4359 162.36 45.2165C163.319 44.9572 164.717 43.7603 166.614 42.1445C167.233 41.6657 167.872 41.0074 168.192 40.8478C168.352 40.8478 168.352 40.8478 168.511 40.8478C169.57 42.324 171.886 41.6458 171.986 39.7108C171.986 38.5937 171.507 37.6362 170.708 37.317C170.069 36.9978 169.45 36.8382 168.651 37.0178C167.073 37.3369 165.815 38.3144 164.557 39.2719C164.717 39.1123 165.915 33.0281 165.915 33.0281C164.657 33.1877 158.686 34.6439 157.428 35.4618C155.85 36.2797 155.071 37.3768 155.071 38.6535C155.071 38.8131 155.41 40.5885 156.509 40.9276C156.349 41.2468 156.03 41.566 155.89 41.8851C155.89 41.4064 155.59 41.2667 155.391 41.1471C154.332 40.4888 153.733 41.3864 153.433 41.546C153.893 39.9502 154.871 34.8833 154.871 34.8833C153.733 35.2823 150.318 36.5789 150.318 36.5789C149.459 40.3092 149.239 41.1072 149.239 41.1072C149.08 41.5859 148.76 42.0647 148.301 42.723C149.239 38.7134 149.239 38.3942 149.239 38.2346C149.259 36.7584 147.921 36.4193 147.442 36.3794C146.164 36.2398 144.327 37.9354 143.528 38.7533C143.528 38.5937 143.767 37.1973 143.767 37.1973C140.732 37.9553 139.454 38.3144 139.454 38.3144C139.294 38.9528 138.795 40.5486 138.475 41.9849C138.315 41.9849 138.056 42.2043 137.836 42.1644C137.996 41.0473 138.136 40.5486 138.136 40.5486V40.389C138.136 40.2294 138.136 39.5911 137.497 38.9528C135.839 38.0551 133.682 40.0499 132.444 41.0673C132.444 40.9077 132.744 39.2919 132.744 39.2919L128.31 40.2693C128.15 40.9077 127.531 43.481 126.912 45.416C126.752 45.8947 126.593 46.3735 126.133 46.6927C126.912 43.481 127.072 42.8427 127.072 42.6831C127.072 41.8851 126.752 41.0872 126.113 40.768C125.215 40.2893 124.216 40.9476 121.38 43.2017C121.52 41.4263 122.299 37.5763 122.459 36.938C122.618 36.7784 122.938 36.6188 123.098 36.4592C123.577 36.938 124.176 37.696 125.454 37.696C127.511 38.0152 130.387 35.5416 131.166 34.6639C131.006 34.8235 130.806 36.1201 130.806 36.1201C131.066 36.1201 135.02 35.3421 135.02 35.3421C135.22 34.4445 135.839 30.8139 136.378 30.4748C136.079 32.4097 135.46 35.5416 135.46 35.5416C136.977 35.1825 139.873 34.7836 139.873 34.7836C139.873 33.9856 140.173 32.8486 140.332 31.8911C140.332 32.0507 140.332 32.2103 140.332 32.2103C140.332 32.689 140.532 33.2875 140.972 33.8061C141.81 34.8235 143.767 34.7437 145.805 32.5893C147.642 33.846 149.599 32.8885 150.697 32.0706C152.175 32.9284 153.254 32.4297 153.573 32.2502C154.372 31.931 155.011 31.2527 155.79 30.5944C156.429 31.2328 157.248 31.6118 158.366 31.4522C159.944 31.133 160.803 30.1556 161.581 28.859C161.741 29.6569 162.32 30.1157 162.78 30.2753C164.857 31.1131 167.912 28.1408 169.011 27.0636C169.23 26.904 169.989 26.0463 169.989 26.0463C170.309 26.525 171.287 26.924 171.906 26.924C172.705 26.7644 173.424 26.4452 173.804 24.6299C173.644 23.5128 173.165 23.0341 172.685 22.7149C171.747 22.0766 170.808 22.0367 169.989 22.3558C169.19 22.675 167.633 23.6924 166.534 24.4903C166.854 23.054 168.032 18.0869 168.032 18.0869C168.032 18.0869 159.804 20.1815 159.165 20.6602Z" fill="#0B0B0B"/>
<path d="M104.884 58.422C104.005 58.422 103.286 58.023 102.747 57.2052C102.268 56.487 102.228 55.4298 102.627 54.6917C103.126 53.7741 104.205 53.4948 105.523 54.0334C106.282 53.3352 107.879 51.0212 109.437 48.807C109.817 48.2484 110.216 47.6899 110.595 47.1513C109.697 47.1114 108.938 46.3932 108.638 45.2961C108.319 44.1191 108.618 42.5831 109.996 41.7852C110.516 41.486 111.215 41.107 113.671 40.0896C112.972 40.0497 111.973 39.6507 111.973 37.8355C111.973 37.3367 112.393 35.2222 112.692 33.9655C112.453 33.8458 111.914 33.5665 111.574 33.4069C111.414 34.0453 111.254 34.6836 111.115 35.3419C111.035 35.6411 110.975 35.9603 110.895 36.2795C111.314 35.9005 111.914 35.3818 111.934 35.3619C111.993 35.322 112.053 35.302 112.113 35.3419C112.173 35.3818 112.213 35.4417 112.193 35.5015L111.434 39.8103C111.434 39.8303 111.414 39.8702 111.394 39.8901L111.235 40.0497C111.215 40.0497 110.076 41.1868 106.921 41.2067C105.064 41.2067 103.046 42.1443 101.149 43.1417C101.089 43.1616 101.029 43.1616 100.989 43.1217C100.93 43.0818 100.91 43.022 100.93 42.9621C100.93 42.9621 101.708 39.6108 101.868 38.9525C101.888 38.8927 101.948 38.8329 102.008 38.8329C102.008 38.8329 102.228 38.8129 102.767 38.6733C103.526 38.4738 104.504 37.3168 104.584 36.5787C104.005 36.7981 103.066 36.8779 102.387 36.8779C101.948 36.8779 101.169 36.858 100.65 36.6585C99.8711 36.3593 99.3319 35.8606 99.0523 35.1823C98.7128 34.3844 98.7328 33.367 99.1122 32.1702C98.553 32.7088 97.854 33.5865 97.7542 34.544C97.7342 34.6437 97.7542 34.7834 97.874 34.9031C98.2934 35.322 98.7128 35.8406 98.7128 36.6186C98.7128 37.5761 98.0737 38.3142 96.8755 38.7132C95.8969 39.0323 94.9782 38.6334 94.2593 37.616C93.7201 36.858 93.6602 36.0601 93.6602 35.3818C93.8199 33.5466 94.5189 31.9308 95.8969 30.295C97.5944 28.2603 100.67 26.9437 103.745 26.9238C104.285 26.9238 104.844 26.9637 105.363 27.0435C105.403 27.0435 105.443 27.0834 105.463 27.1233C105.483 27.1632 105.503 27.203 105.483 27.2429C105.423 27.4624 103.965 32.4893 103.865 32.8284C103.865 32.8683 103.885 32.9082 104.065 32.9282C104.444 33.008 104.864 32.7886 105.523 32.1901C106.222 29.3176 106.941 27.5222 107.879 26.3852C109.178 24.8093 110.276 24.2707 111.734 23.8517C113.132 23.4528 114.51 23.772 115.329 24.6497C115.748 25.0885 115.948 25.6271 115.928 26.1458C115.848 27.3227 115.009 28.2603 114.03 28.2603C113.771 28.2603 113.511 28.2005 113.272 28.0608C113.212 28.2404 113.132 28.4797 113.032 28.7391C112.912 29.0782 112.772 29.4572 112.632 29.8562C113.551 29.138 114.989 28.1007 115.568 27.9411C116.367 27.7417 117.086 27.9411 117.545 28.4598C117.905 28.8588 118.065 29.4173 118.005 29.9759C117.965 30.2352 117.765 31.472 117.246 33.9455C117.426 33.7062 117.605 33.367 117.705 32.9481C117.745 32.7686 118.744 28.6593 118.943 27.981C118.943 27.9411 118.963 27.9012 119.103 27.8414V27.8214C119.123 27.8214 119.123 27.8214 119.143 27.8214C119.522 27.6818 120.561 27.3826 123.437 26.6046C123.497 26.5847 123.557 26.6046 123.577 26.6445C123.616 26.6844 123.636 26.7442 123.616 26.7841C123.616 26.824 122.997 29.7165 122.518 31.6914C122.977 30.2751 123.956 28.3201 125.454 26.9038C127.091 25.3479 128.809 25.1085 129.688 25.1085C130.327 25.1085 130.906 25.2282 131.185 25.4277C131.445 25.6271 131.585 25.7867 131.705 25.9264C131.725 25.9463 131.725 25.9463 131.745 25.9663C132.344 25.4676 134.221 24.0113 135.559 24.0113C136.078 24.0113 136.458 24.2308 136.677 24.6297H136.697C137.736 23.8717 138.475 23.3131 139.294 23.2733C140.432 23.1935 140.891 23.5924 141.091 23.8318C142.249 22.9341 143.228 22.4953 144.087 22.4953C144.846 22.4953 145.365 22.8344 145.724 23.1336C146.303 23.5924 146.303 24.6696 146.164 25.667C146.863 24.2707 148.081 22.595 150.158 21.7971C150.717 21.5777 151.416 21.3582 152.035 21.1787C152.414 21.059 152.794 20.9393 153.093 20.8396C153.173 20.6002 153.213 20.5403 153.213 20.5204C153.233 20.4805 153.273 20.4606 153.293 20.4606L157.108 19.2038C157.168 19.1839 157.227 19.2038 157.267 19.2437C157.307 19.2836 157.327 19.3435 157.307 19.4033L156.848 20.9992L156.648 21.7971C156.249 23.3131 155.79 25.0486 155.51 26.4849C155.83 26.3453 156.229 26.2256 156.509 26.2256H156.548C156.988 26.2455 157.347 26.6046 157.647 26.9437C157.807 26.6644 158.006 26.3453 158.086 26.1657C157.188 25.6471 156.868 24.6896 156.868 24.0113C156.868 22.6748 157.867 21.1986 159.245 20.5004C160.623 19.8023 167.732 18.1067 168.032 18.0269C168.092 18.0069 168.152 18.0269 168.172 18.0668C168.211 18.1067 168.231 18.1665 168.211 18.2064C168.191 18.2463 167.233 22.4155 166.853 24.1909C167.972 23.3929 169.05 22.6948 169.27 22.5551C169.769 22.2359 170.368 22.0564 170.987 22.0564C172.425 22.0564 173.923 23.0139 173.923 24.6696C173.923 26.0062 173.104 27.0235 171.906 27.1432C171.247 27.203 170.348 26.9038 170.049 26.3453L169.929 26.4849C169.21 27.1632 167.532 28.759 165.735 29.9958C165.156 30.3948 164.457 30.6142 163.738 30.6142C162.979 30.6142 162.3 30.3748 161.901 29.9559C161.721 29.7564 161.601 29.537 161.521 29.2777C160.822 30.3349 159.884 31.3922 158.366 31.6914C158.206 31.7113 158.046 31.7313 157.906 31.7313C157.148 31.7313 156.469 31.4321 155.81 30.8336C154.891 31.9707 153.293 32.8284 152.095 32.8484C151.516 32.8484 151.056 32.6689 150.737 32.3098C150.078 32.9282 148.74 33.4269 147.621 33.4269C146.863 33.4269 146.243 33.2274 145.844 32.8085C144.726 34.0253 143.547 34.7036 142.489 34.7036C141.85 34.7036 141.291 34.4642 140.831 33.9854C140.592 33.7261 140.412 33.2873 140.312 32.8683C140.312 32.8883 140.312 32.9082 140.292 32.9282C140.172 33.6064 140.053 34.3046 139.993 34.8632C139.993 34.943 139.933 35.0028 139.853 35.0028C139.813 35.0028 136.997 35.4217 135.479 35.7409C135.419 35.7409 135.379 35.7409 135.339 35.701C135.299 35.6611 135.279 35.6012 135.299 35.5614C135.299 35.5414 135.639 33.6862 135.939 31.9507C135.759 32.7686 135.559 33.6463 135.399 34.3445C135.299 34.8233 135.2 35.2222 135.16 35.4417C135.14 35.5015 135.1 35.5414 135.04 35.5614C135 35.5614 132.044 36.1598 130.826 36.3393C130.786 36.3393 130.726 36.3194 130.686 36.2994C130.646 36.2595 130.646 36.1997 130.646 36.1598C130.646 36.1399 130.746 35.701 130.826 35.302C129.508 36.6386 127.471 37.9152 125.654 37.9352C124.635 37.9352 123.756 37.5562 123.037 36.7782C122.957 36.838 122.898 36.8779 122.818 36.9378C122.718 36.9976 122.618 37.0575 122.558 37.1373C122.398 37.8554 121.839 41.2466 121.559 42.9621C123.956 41.1469 124.136 41.0471 124.535 40.8277L124.615 40.7878C125.334 40.3888 126.193 40.5484 126.712 41.1668C127.091 41.6256 127.271 42.2241 127.171 42.8425C127.131 43.1217 126.852 44.3386 126.372 46.3134C126.532 46.0741 126.632 45.7948 126.732 45.4956C127.391 43.4608 128.05 40.6681 128.13 40.3689C128.15 40.309 128.19 40.2691 128.25 40.2492L132.683 39.2717C132.743 39.2717 132.783 39.2717 132.823 39.3116C132.863 39.3515 132.883 39.4114 132.863 39.4513C132.763 39.93 132.683 40.4686 132.623 40.8077C133.921 39.7505 135.04 38.8927 135.779 38.7132C136.677 38.4937 137.396 38.6733 137.816 39.2318C138.275 39.8502 138.335 40.8476 137.996 42.1443C138.015 42.1443 138.055 42.1243 138.075 42.1243C138.135 42.1044 138.195 42.1044 138.235 42.0844C138.475 41.2266 138.714 40.3689 138.934 39.6707C139.094 39.1121 139.234 38.6533 139.314 38.3541C139.334 38.3142 139.373 38.2544 139.433 38.2344C139.453 38.2344 141.071 37.7956 143.787 37.1173C143.847 37.0974 143.907 37.1173 143.947 37.1572C143.987 37.1971 144.007 37.257 143.987 37.3168C143.987 37.3168 143.867 37.6958 143.687 38.4339C143.727 38.394 143.767 38.3541 143.807 38.3142C144.746 37.4764 145.904 36.4391 146.982 36.3194C147.781 36.2196 148.44 36.479 148.9 37.0375C149.239 37.4365 149.399 37.9751 149.319 38.394C149.319 38.4139 149.319 38.4339 149.299 38.4538C149.279 38.6733 149.199 39.2917 148.56 42.1044C148.78 41.7652 148.92 41.486 149.019 41.2067C149.019 41.2067 149.299 40.2891 150.158 36.6386C150.178 36.5787 150.198 36.5388 150.258 36.5388C150.298 36.5189 153.293 35.3619 154.771 34.8432C154.831 34.8233 154.891 34.8432 154.931 34.8831C154.971 34.923 154.991 34.9829 154.971 35.0427C154.951 35.0826 154.052 39.3515 153.613 41.2665C154.032 40.9474 154.392 40.8875 154.651 40.8875C155.21 40.8875 155.67 41.2466 155.849 41.6655C155.949 41.5059 156.049 41.3463 156.169 41.1668C155.51 40.8875 154.971 40.0497 154.871 39.1121C154.791 38.4139 154.891 36.6585 157.267 35.4816C158.645 34.6836 164.537 33.1875 165.835 33.0279C165.875 33.0279 165.935 33.0479 165.975 33.0678C166.015 33.1077 166.015 33.1676 166.015 33.2075C165.975 33.4069 165.056 37.616 164.717 39.0523C165.855 38.1945 167.053 37.3367 168.531 37.0375C169.669 36.7981 170.668 37.0575 171.327 37.7557C171.846 38.2943 172.106 39.0722 172.046 39.9101C171.966 41.3064 170.927 41.9448 169.949 41.9448C169.25 41.9448 168.631 41.6655 168.331 41.2067C168.291 41.2067 168.251 41.2067 168.211 41.2067C168.152 41.2067 168.112 41.2067 168.052 41.1868C167.492 41.7453 163.778 45.0767 162.54 45.4557C162.28 45.5355 162.001 45.5754 161.741 45.5754C160.702 45.5754 159.943 45.0567 159.684 44.1191C158.665 45.9544 157.207 46.3932 156.708 46.5329C156.409 46.6127 156.109 46.6725 155.83 46.6725C154.991 46.6725 154.292 46.3334 153.852 45.695C152.814 46.7124 151.755 47.3507 150.777 47.5103C150.677 47.5303 150.557 47.5502 150.437 47.5502C149.758 47.5502 149.299 47.0914 148.999 46.6925C148.021 47.4106 146.483 48.428 145.984 48.5476C145.824 48.5875 145.644 48.6075 145.445 48.6075C144.806 48.6075 144.167 48.3681 143.767 47.9691C143.527 47.7098 143.368 47.4106 143.308 47.0715C143.148 47.2111 142.988 47.3707 142.808 47.5303C141.71 48.5476 140.572 49.5849 139.833 49.7246C139.733 49.7445 139.633 49.7445 139.513 49.7445C138.934 49.7445 138.075 49.5251 137.536 48.9067C137.137 48.4479 137.017 47.8495 137.117 47.1513C137.157 46.9717 137.217 46.7324 137.277 46.4531C137.336 46.2337 137.396 45.9943 137.436 45.7549C137.356 45.7549 137.297 45.7748 137.237 45.7748C137.177 45.7748 137.117 45.7748 137.057 45.7748C136.737 47.4106 136.378 49.0264 136.238 49.6647C136.218 49.7246 136.178 49.7645 136.118 49.7844C136.118 49.7844 133.003 50.4826 131.585 50.8018C131.525 50.8217 131.485 50.8018 131.445 50.7619C131.405 50.722 131.385 50.6821 131.405 50.6223C131.405 50.6223 131.465 50.3031 131.545 49.964C130.486 51.0013 129.088 51.9588 127.97 51.9588C127.391 51.9588 126.932 51.6995 126.652 51.2207C125.454 52.3179 124.156 52.9761 123.117 52.9761C122.338 52.9761 121.739 52.6171 121.42 51.9388C121.4 52.1782 121.36 52.4575 121.34 52.7567C121.34 52.8365 121.24 52.8964 121.18 52.8964H121.12C120.761 52.8964 118.903 52.9363 118.105 53.3751C116.507 54.2528 115.049 54.3925 112.433 54.6119C112.373 54.6119 112.313 54.572 112.273 54.5321C112.253 54.4723 112.253 54.4124 112.293 54.3526C113.751 52.7368 114.41 50.8616 114.63 47.5901C112.632 50.6622 109.297 55.5894 108.598 56.3873C107.8 57.285 106.322 58.4021 104.884 58.422ZM104.225 54.0534C103.466 54.0534 103.086 54.4723 102.907 54.8313C102.567 55.4697 102.607 56.4272 103.007 57.0256C103.486 57.7438 104.125 58.1028 104.884 58.1028C106.202 58.1028 107.6 57.0456 108.399 56.128C109.118 55.3101 112.792 49.8642 114.709 46.872C114.749 46.8121 114.829 46.7723 114.889 46.8121C114.949 46.8321 115.009 46.8919 114.989 46.9717C114.809 50.5026 114.21 52.5173 112.792 54.2329C115.189 54.0334 116.467 53.8738 117.945 53.0759C118.764 52.6171 120.521 52.5772 121.04 52.5572C121.12 51.879 121.18 51.2606 121.18 51.101C121.18 51.0212 121.24 50.9414 121.32 50.9414C121.4 50.9414 121.48 50.9813 121.5 51.0611C121.679 52.0785 122.258 52.5971 123.137 52.5971C124.136 52.5971 125.434 51.9189 126.612 50.7818C126.652 50.7419 126.712 50.722 126.752 50.7419C126.812 50.7419 126.852 50.7818 126.872 50.8417C127.111 51.3404 127.471 51.5997 128.01 51.5997C129.168 51.5997 130.766 50.4028 131.745 49.2857C131.785 49.2259 131.864 49.2059 131.944 49.2458C132.004 49.2857 132.044 49.3456 132.024 49.4254C131.984 49.6049 131.884 50.1036 131.805 50.3829C133.143 50.0837 135.499 49.5451 135.998 49.4453C136.158 48.7272 136.498 47.0914 136.817 45.5355C136.837 45.4756 136.877 45.4357 136.937 45.4158C136.997 45.4158 137.097 45.3958 137.257 45.3958C137.356 45.3958 137.496 45.3759 137.656 45.3759C137.696 45.3759 137.756 45.3958 137.796 45.4158C137.836 45.4557 137.836 45.4956 137.836 45.5554C137.776 45.8945 137.696 46.2137 137.616 46.473C137.556 46.7523 137.496 46.9717 137.456 47.1513C137.356 47.7497 137.476 48.2484 137.796 48.6274C138.315 49.2259 139.274 49.4453 139.793 49.3456C140.452 49.2259 141.59 48.1686 142.609 47.2311C142.868 46.9917 143.108 46.7723 143.348 46.5528C143.388 46.5129 143.468 46.5129 143.527 46.5329C143.587 46.5528 143.627 46.6127 143.627 46.6725C143.627 47.0715 143.747 47.4106 144.007 47.6899C144.346 48.029 144.905 48.2484 145.445 48.2484C145.604 48.2484 145.764 48.2285 145.904 48.1886C146.343 48.0689 147.861 47.0914 148.94 46.2735C148.979 46.2536 149.019 46.2337 149.059 46.2536C149.099 46.2536 149.139 46.2735 149.159 46.3134C149.639 47.0116 150.118 47.251 150.697 47.1313C151.656 46.9717 152.714 46.3134 153.733 45.2562C153.773 45.2163 153.812 45.1963 153.872 45.2163C153.912 45.2163 153.972 45.2562 153.992 45.2961C154.352 45.9344 155.011 46.2935 155.79 46.2935C156.049 46.2935 156.309 46.2536 156.588 46.1738C157.088 46.0142 158.605 45.5754 159.584 43.5007C159.624 43.4409 159.684 43.401 159.744 43.421C159.824 43.421 159.864 43.4808 159.884 43.5606C160.023 45.0368 161.202 45.1963 161.701 45.1963C161.941 45.1963 162.2 45.1564 162.42 45.0966C163.558 44.7575 167.433 41.2865 167.852 40.8676C167.872 40.8476 167.912 40.8277 167.972 40.8277C168.052 40.8277 168.132 40.8277 168.211 40.8277C168.331 40.8277 168.491 40.8077 168.551 40.9075C168.771 41.3064 169.33 41.5658 169.949 41.5658C170.728 41.5658 171.666 41.107 171.726 39.8303C171.766 39.0722 171.547 38.3741 171.087 37.8953C170.508 37.2969 169.609 37.0575 168.591 37.2769C167.033 37.616 165.775 38.5735 164.557 39.5111C164.497 39.551 164.417 39.551 164.377 39.5111C164.317 39.4712 164.297 39.4114 164.317 39.3316C164.397 39.0722 165.196 35.4018 165.655 33.3072C164.038 33.5865 158.665 34.9829 157.407 35.701C155.21 36.7782 155.111 38.394 155.19 39.0124C155.29 39.9101 155.83 40.708 156.449 40.8676C156.509 40.8875 156.548 40.9075 156.548 40.9673C156.568 41.0272 156.568 41.0671 156.528 41.107C156.329 41.4062 156.189 41.6256 156.049 41.845L155.909 42.0645C155.869 42.1243 155.81 42.1443 155.75 42.1243C155.69 42.1044 155.63 42.0645 155.63 41.9847C155.59 41.5658 155.19 41.1269 154.631 41.1269C154.252 41.1269 153.832 41.3463 153.453 41.7652C153.413 41.8251 153.333 41.8251 153.273 41.8051C153.213 41.7652 153.173 41.7054 153.193 41.6256C153.493 40.2691 154.372 36.2795 154.591 35.1823C153.193 35.681 150.877 36.5787 150.437 36.7383C149.579 40.3489 149.319 41.2067 149.299 41.2466C149.139 41.7453 148.82 42.2241 148.34 42.9023C148.3 42.9621 148.221 42.9821 148.141 42.9422C148.081 42.9023 148.041 42.8425 148.061 42.7627C148.86 39.2917 148.94 38.5935 148.979 38.3741C148.979 38.3342 148.979 38.3142 148.999 38.2743C149.059 37.9352 148.92 37.5163 148.64 37.1772C148.261 36.7183 147.681 36.4989 147.002 36.5787C146.024 36.6984 144.905 37.6958 144.007 38.4937C143.827 38.6533 143.667 38.8129 143.507 38.9326C143.448 38.9725 143.388 38.9725 143.328 38.9525C143.268 38.9127 143.248 38.8528 143.268 38.773C143.428 38.1347 143.547 37.6958 143.607 37.4365C141.391 37.995 139.973 38.3741 139.613 38.4738C139.533 38.773 139.393 39.2119 139.254 39.7106C139.034 40.4487 138.774 41.3264 138.535 42.2241C138.515 42.2839 138.475 42.3238 138.415 42.3437C138.335 42.3637 138.255 42.3836 138.155 42.3836C138.035 42.4036 137.936 42.4235 137.816 42.4435C137.756 42.4435 137.716 42.4235 137.676 42.3836C137.636 42.3437 137.636 42.2839 137.656 42.244C138.035 40.9474 138.015 39.93 137.596 39.3715C137.257 38.9127 136.657 38.773 135.899 38.9725C135.14 39.152 133.941 40.1095 132.543 41.2665C132.504 41.3064 132.424 41.3064 132.384 41.2865C132.324 41.2665 132.284 41.2067 132.284 41.1469C132.284 41.0072 132.464 40.0697 132.543 39.5909L128.449 40.5085C128.29 41.1868 127.691 43.6603 127.071 45.5754C126.912 46.0741 126.752 46.5927 126.233 46.9518C126.173 46.9917 126.113 46.9917 126.053 46.9518C125.993 46.9119 125.973 46.852 125.993 46.7922C126.732 43.7202 126.892 42.9621 126.912 42.7826C126.992 42.264 126.852 41.7254 126.512 41.3463C126.073 40.8277 125.394 40.708 124.795 41.0272L124.715 41.0671C124.315 41.2865 124.136 41.3862 121.46 43.421C121.4 43.4608 121.34 43.4608 121.28 43.421C121.22 43.3811 121.2 43.3212 121.2 43.2614C121.619 40.6481 122.139 37.5761 122.278 36.9976C122.278 36.9777 122.298 36.9378 122.318 36.9178C122.398 36.8181 122.538 36.7383 122.658 36.6585C122.778 36.5787 122.878 36.4989 122.957 36.4391C122.977 36.4191 123.037 36.3992 123.077 36.3992C123.117 36.3992 123.157 36.4191 123.197 36.459C123.856 37.237 124.695 37.616 125.673 37.616C127.591 37.616 129.787 36.08 131.006 34.6437C131.046 34.5839 131.126 34.5839 131.205 34.6038C131.265 34.6437 131.305 34.7235 131.285 34.7834C131.225 35.0228 131.086 35.6611 131.006 35.9803C132.164 35.8007 134.381 35.3619 134.88 35.2621C134.92 35.0427 135 34.7036 135.1 34.2847C135.319 33.2673 135.619 31.8909 135.879 30.8137C135.899 30.7339 135.958 30.674 136.078 30.5743C136.118 30.5344 136.178 30.4945 136.178 30.4746C136.198 30.3948 136.278 30.3549 136.358 30.3748C136.438 30.3948 136.498 30.4945 136.478 30.5743C136.218 32.1702 135.779 34.6437 135.639 35.4018C136.997 35.1424 139.154 34.8033 139.673 34.7235C139.733 34.1849 139.853 33.5266 139.953 32.8883C140.013 32.5691 140.072 32.2499 140.112 31.9507C140.132 31.8709 140.192 31.8111 140.272 31.8111C140.352 31.8111 140.412 31.8909 140.412 31.9707C140.412 32.1502 140.592 33.3471 141.011 33.786C141.411 34.2049 141.89 34.4044 142.449 34.4044C143.448 34.4044 144.586 33.7261 145.684 32.4893C145.724 32.4494 145.764 32.4295 145.804 32.4295C145.844 32.4295 145.904 32.4494 145.924 32.4893C146.343 33.0279 147.042 33.1277 147.582 33.1277C148.8 33.1277 150.118 32.5292 150.577 31.9906C150.617 31.9507 150.657 31.9308 150.697 31.9308C150.737 31.9308 150.797 31.9507 150.817 31.9906C151.076 32.3696 151.496 32.5492 152.035 32.5492C153.193 32.5492 154.771 31.6515 155.61 30.5344C155.63 30.4945 155.67 30.4746 155.73 30.4746C155.77 30.4746 155.83 30.4945 155.849 30.5145C156.588 31.2725 157.347 31.5518 158.246 31.4121C159.824 31.093 160.742 29.8761 161.441 28.7391C161.481 28.6792 161.541 28.6593 161.621 28.6792C161.681 28.6992 161.741 28.759 161.741 28.8388C161.721 29.1979 161.841 29.4971 162.08 29.7564C162.42 30.1155 163.019 30.3349 163.698 30.3349C164.357 30.3349 164.996 30.1354 165.515 29.7764C167.273 28.5595 168.95 26.9836 169.649 26.3054L169.829 26.1258C169.869 26.0859 169.949 26.0261 170.029 26.0261C170.089 26.0261 170.189 26.0461 170.229 26.1857C170.408 26.6445 171.227 26.9437 171.806 26.8839C172.825 26.7841 173.544 25.8865 173.524 24.7295C173.524 23.2932 172.186 22.4354 170.908 22.4354C170.348 22.4354 169.809 22.595 169.35 22.8942C169.11 23.0538 167.852 23.8517 166.614 24.7694C166.554 24.8093 166.494 24.8093 166.434 24.7694C166.374 24.7295 166.354 24.6696 166.374 24.6098C166.634 23.373 167.532 19.4831 167.772 18.4657C166.474 18.7849 160.523 20.2212 159.304 20.8396C158.026 21.4779 157.108 22.8543 157.108 24.0712C157.108 24.6896 157.427 25.5673 158.286 26.0062C158.366 26.0461 158.386 26.1258 158.366 26.2056C158.306 26.3852 157.787 27.2629 157.727 27.3626C157.707 27.4025 157.647 27.4225 157.607 27.4424C157.547 27.4424 157.507 27.4225 157.467 27.3826L157.427 27.3227C157.148 27.0036 156.808 26.6046 156.449 26.5847C156.129 26.5847 155.65 26.7841 155.33 26.9038L155.27 26.9238C155.21 26.9437 155.15 26.9437 155.111 26.9038C155.071 26.8639 155.051 26.8041 155.051 26.7442C155.31 25.2282 155.81 23.373 156.229 21.7572L156.449 20.9593L156.828 19.6427L153.373 20.7797C153.353 20.8196 153.313 20.9194 153.273 21.059C153.253 21.0989 153.213 21.1388 153.173 21.1587C152.854 21.2784 152.454 21.3981 152.035 21.5178C151.436 21.6973 150.737 21.9168 150.178 22.1362C147.222 23.2533 146.064 26.2655 145.704 27.5023C145.684 27.5821 145.604 27.622 145.525 27.622C145.445 27.602 145.385 27.5222 145.405 27.4424C145.425 27.3427 145.445 27.203 145.485 27.0435C145.704 26.0461 146.184 24.0113 145.425 23.4129C145.105 23.1536 144.646 22.8543 143.987 22.8543C143.168 22.8543 142.209 23.3131 141.051 24.2507C141.011 24.2906 140.951 24.2906 140.911 24.2707C140.851 24.2507 140.811 24.2108 140.811 24.1709C140.811 24.151 140.552 23.5525 139.234 23.6523C138.515 23.6922 137.796 24.2308 136.817 24.9489L136.637 25.0686C136.598 25.0885 136.538 25.1085 136.498 25.0885C136.438 25.0686 136.418 25.0287 136.398 24.9888C136.238 24.5699 135.939 24.3704 135.479 24.3704C134.441 24.3704 132.823 25.4476 131.745 26.3453C131.685 26.4051 131.585 26.4051 131.525 26.3453C131.465 26.2854 131.425 26.2256 131.365 26.1657C131.265 26.0461 131.145 25.8865 130.906 25.7269C130.726 25.5872 130.247 25.4676 129.588 25.4676C128.749 25.4676 127.131 25.7069 125.574 27.1831C124.036 28.6593 123.037 30.694 122.638 32.1103C122.478 32.4095 122.438 32.4494 122.139 32.8085C122.099 32.8683 122.019 32.8683 121.939 32.8484C121.879 32.8085 121.839 32.7487 121.859 32.6689C122.258 31.1727 122.957 27.9611 123.157 27.0435C120.142 27.8813 119.343 28.1007 119.123 28.1805C118.923 28.9186 117.905 33.0479 117.905 33.0878C117.685 34.0253 117.126 34.5041 116.966 34.6238C116.906 34.6637 116.846 34.6637 116.786 34.6238C116.727 34.5839 116.707 34.524 116.727 34.4642C117.326 31.6316 117.545 30.2352 117.585 29.9759C117.645 29.517 117.505 29.0383 117.206 28.7191C117.006 28.4997 116.647 28.2204 116.048 28.2204C115.888 28.2204 115.708 28.2404 115.528 28.2803C114.989 28.4199 113.311 29.6367 112.293 30.4546C112.233 30.4945 112.153 30.4945 112.113 30.4746C112.053 30.4347 112.033 30.3549 112.053 30.295C112.233 29.7365 112.453 29.138 112.613 28.6593C112.732 28.3002 112.852 28.001 112.912 27.8015C112.932 27.7616 112.972 27.7217 113.012 27.7018C113.052 27.6818 113.112 27.7018 113.152 27.7217C113.391 27.8813 113.651 27.9611 113.911 27.9611C114.729 27.9611 115.428 27.1432 115.508 26.1258C115.528 25.7069 115.349 25.2481 115.009 24.8691C114.27 24.0911 113.012 23.8119 111.734 24.1709C110.316 24.5699 109.297 25.0885 108.039 26.6046C107.121 27.7018 106.422 29.4771 105.723 32.3297C105.723 32.3696 105.703 32.3896 105.683 32.4095C104.924 33.1077 104.404 33.3471 103.905 33.2673C103.765 33.2474 103.586 33.1875 103.486 33.0479C103.446 32.988 103.426 32.8883 103.466 32.7487C103.566 32.4494 104.764 28.2603 105.024 27.3427C104.564 27.2828 104.105 27.2629 103.626 27.2629C100.63 27.2828 97.6543 28.5595 96.0167 30.5145C94.6986 32.1103 93.9997 33.6663 93.8599 35.4018C93.8599 36.2994 94.0196 36.8979 94.419 37.4564C95.0581 38.3741 95.837 38.7132 96.6758 38.4339C97.4147 38.1945 98.3134 37.6958 98.2934 36.6585C98.2934 36.1399 98.0737 35.701 97.5345 35.1624C97.3148 34.943 97.3148 34.6836 97.3348 34.544C97.4946 33.1676 98.7328 31.9906 99.272 31.5518C99.3319 31.5119 99.4118 31.4919 99.4717 31.5518C99.5316 31.5917 99.5516 31.6714 99.5316 31.7313C98.9724 33.1277 98.8726 34.2647 99.252 35.1225C99.5116 35.7209 99.9909 36.1598 100.69 36.4391C101.029 36.5787 101.629 36.6585 102.308 36.6386C103.266 36.6386 104.185 36.479 104.584 36.2595C104.624 36.2396 104.684 36.2396 104.724 36.2595C104.764 36.2795 104.804 36.3194 104.804 36.3792C104.964 37.2171 103.765 38.773 102.767 39.0323C102.407 39.1321 102.188 39.172 102.068 39.1919C101.908 39.8702 101.429 41.9448 101.229 42.7627C103.066 41.8051 105.004 40.9474 106.841 40.9474C109.817 40.9274 110.915 39.8901 110.915 39.8901L111.035 39.7704L111.115 39.3316L111.714 35.9803C111.374 36.2994 110.855 36.7582 110.635 36.8979C110.575 36.9378 110.516 36.9378 110.456 36.8979C110.396 36.858 110.376 36.7981 110.396 36.7183C110.516 36.2396 110.615 35.7808 110.715 35.322C110.875 34.5839 111.035 33.8857 111.235 33.1875C111.254 33.1476 111.274 33.1077 111.314 33.0878C111.354 33.0678 111.414 33.0678 111.454 33.0878C111.774 33.2474 112.852 33.786 112.852 33.786C112.912 33.8259 112.952 33.8857 112.932 33.9655C112.613 35.322 112.193 37.4365 112.193 37.8753C112.193 39.172 112.732 39.8303 113.751 39.8103C114.19 39.8103 114.61 39.6906 114.809 39.6108C114.889 39.5709 114.989 39.6108 115.009 39.7106C115.029 39.7904 115.009 39.8901 114.929 39.9101C111.454 41.3463 110.655 41.7652 110.056 42.1044C108.738 42.8624 108.578 44.2787 108.858 45.2562C109.158 46.3334 109.916 46.9917 110.795 46.872C110.855 46.852 110.915 46.8919 110.955 46.9518C110.995 47.0116 110.995 47.0715 110.955 47.1313C110.516 47.7497 110.076 48.408 109.617 49.0463C107.939 51.4601 106.342 53.7541 105.583 54.4124C105.543 54.4523 105.483 54.4723 105.423 54.4324C105.024 54.1531 104.604 54.0534 104.225 54.0534ZM120.88 49.6448C120.841 49.6448 120.801 49.6248 120.781 49.6049C120.741 49.585 120.721 49.5251 120.721 49.4852C120.741 48.6274 120.781 47.8495 120.821 47.0715C120.841 46.6925 120.86 46.3334 120.86 45.9544C120.86 45.8945 120.9 45.8546 120.94 45.8147C120.98 45.7948 121.04 45.7948 121.1 45.8147C121.32 45.9145 121.659 46.0741 121.919 46.1738C122.039 46.2137 122.139 46.2735 122.199 46.2935C122.258 46.3334 122.298 46.3932 122.298 46.473C122.139 47.2111 121.999 47.9093 121.859 48.5277C121.799 48.8668 121.719 49.166 121.679 49.4254C121.659 49.4852 121.619 49.5451 121.559 49.5451C121.46 49.565 121.38 49.5849 121.32 49.5849C121.18 49.6049 121.1 49.6248 120.88 49.6448ZM121.16 46.1938C121.14 46.493 121.14 46.7922 121.12 47.0914C121.1 47.8096 121.06 48.5277 121.04 49.3057C121.12 49.2857 121.18 49.2857 121.24 49.2658C121.28 49.2658 121.32 49.2458 121.38 49.2458C121.44 49.0065 121.48 48.7272 121.539 48.4479C121.659 47.8694 121.779 47.2311 121.939 46.5329C121.879 46.5129 121.839 46.493 121.779 46.473C121.579 46.3932 121.36 46.2935 121.16 46.1938ZM131.126 46.0741C131.086 46.0741 131.066 46.0741 131.046 46.0541C130.986 46.0142 130.966 45.9544 130.986 45.8746C131.145 45.2362 131.285 44.4184 131.445 43.6404C131.445 43.6005 131.485 43.5406 131.525 43.5207C131.565 43.5007 131.625 43.5007 131.665 43.5207C131.904 43.6404 132.743 43.78 133.043 43.8199C133.103 43.8199 133.143 43.8598 133.163 43.9197C133.183 43.9795 133.163 44.0393 133.123 44.0792C132.983 44.2189 132.823 44.3984 132.643 44.5979C132.244 45.0368 131.765 45.5754 131.205 46.0342C131.205 46.0541 131.165 46.0741 131.126 46.0741ZM131.705 43.8798C131.585 44.4383 131.485 44.9969 131.385 45.4756C131.765 45.1166 132.104 44.7375 132.424 44.3785C132.523 44.2787 132.603 44.179 132.703 44.0792C132.404 44.0393 132.004 43.9596 131.705 43.8798ZM112.932 44.2388C112.852 44.2388 112.812 44.1989 112.792 44.1391C112.712 43.9396 112.632 43.6404 112.632 43.6404C112.613 43.5805 112.652 43.5007 112.712 43.4608C112.852 43.3811 112.932 43.3412 113.052 43.2813L113.331 43.1217C113.391 43.0818 113.471 43.1018 113.511 43.1417C113.551 43.2015 113.571 43.2614 113.531 43.3212C113.431 43.5007 113.351 43.6204 113.272 43.7601C113.212 43.8598 113.152 43.9795 113.052 44.1191C113.052 44.1989 112.992 44.2189 112.932 44.2388ZM142.189 43.78C142.169 43.78 142.129 43.78 142.11 43.7601C142.05 43.7202 142.03 43.6404 142.05 43.5805L142.189 43.1217C142.329 42.643 142.489 42.1243 142.689 41.486C142.709 41.4461 142.729 41.4062 142.769 41.3862C142.808 41.3663 142.848 41.3663 142.888 41.3862L144.007 41.865C144.047 41.8849 144.087 41.9248 144.107 41.9847C144.107 42.0445 144.107 42.0844 144.047 42.1243C143.867 42.3039 143.687 42.4634 143.487 42.6629C143.168 42.9821 142.789 43.3412 142.309 43.7401C142.249 43.7601 142.209 43.78 142.189 43.78ZM142.908 41.7453C142.749 42.264 142.609 42.7228 142.489 43.1417C142.769 42.8823 143.008 42.643 143.248 42.4235C143.388 42.3039 143.507 42.1642 143.627 42.0445L142.908 41.7453ZM116.707 39.0722C116.647 39.0722 116.607 39.0523 116.567 38.9924C116.527 38.9326 116.527 38.8329 116.587 38.793C116.826 38.5935 116.986 38.4738 117.106 38.3741C117.226 38.2943 117.286 38.2344 117.366 38.1546C117.425 38.1147 117.505 38.0948 117.565 38.1347L117.645 38.1746C117.725 38.2145 117.765 38.2344 117.905 38.3142C117.965 38.3342 118.005 38.394 118.005 38.4538C118.005 38.5137 117.965 38.5735 117.905 38.5935C117.585 38.7331 117.406 38.793 117.186 38.8927L116.766 39.0722C116.746 39.0722 116.727 39.0722 116.707 39.0722ZM160.023 38.2344C159.963 38.2344 159.884 38.1945 159.864 38.1347C159.844 38.0549 159.864 37.9751 159.944 37.9352C160.103 37.8554 160.203 37.8155 160.263 37.7756C160.383 37.7158 160.423 37.6958 160.583 37.616C160.623 37.5961 160.662 37.5961 160.722 37.616C160.762 37.636 160.802 37.6759 160.802 37.7158C160.822 37.7557 160.822 37.7956 160.842 37.8155C160.862 37.8953 160.902 37.9751 160.862 38.0549C160.842 38.0948 160.782 38.1347 160.742 38.1347C160.343 38.1945 160.043 38.2344 160.023 38.2344ZM126.692 33.9057C126.512 33.9057 126.492 33.766 126.492 33.7461C126.492 33.7261 126.492 33.7062 126.492 33.7062C126.512 33.5665 127.171 30.3349 127.711 29.5769C127.87 29.3575 128.07 29.2777 128.11 29.2777C128.11 29.2777 128.13 29.2777 128.15 29.2777C128.15 29.2777 128.37 29.2577 128.689 29.2577C128.709 29.2577 128.749 29.2577 128.769 29.2777C129.288 29.537 129.807 29.5968 130.307 29.4771C130.347 29.4572 130.526 29.3575 130.666 29.2777C130.706 29.2577 130.746 29.2378 130.786 29.2577C130.826 29.2577 130.866 29.2976 130.886 29.3375C131.106 29.7165 131.825 30.0556 132.004 30.0556C132.044 30.0556 132.104 30.0756 132.144 30.1155C132.184 30.1554 132.184 30.2152 132.184 30.2551C132.064 30.7139 131.964 31.093 131.864 31.4919C131.745 32.0106 131.605 32.5292 131.385 33.3072C131.365 33.3671 131.325 33.4069 131.265 33.4269C131.205 33.4269 131.145 33.4069 131.106 33.367L129.768 31.5917C129.548 31.7911 129.308 31.9906 129.069 32.23C127.97 33.2274 127.211 33.8857 126.832 33.9455C126.772 33.9057 126.732 33.9057 126.692 33.9057ZM128.19 29.5769C128.15 29.5968 128.05 29.6567 127.97 29.7564C127.531 30.3549 126.992 32.8284 126.832 33.5665C127.211 33.4269 128.15 32.5691 128.849 31.9507C129.148 31.6715 129.448 31.4121 129.688 31.2126C129.728 31.1927 129.768 31.1727 129.807 31.1727C129.847 31.1727 129.887 31.1927 129.927 31.2326L131.165 32.8883C131.325 32.2699 131.445 31.831 131.545 31.3922C131.625 31.0531 131.705 30.7139 131.805 30.315C131.465 30.2152 130.966 29.936 130.686 29.5968C130.586 29.6567 130.447 29.7365 130.367 29.7564C129.807 29.8961 129.208 29.8362 128.649 29.5569C128.409 29.5569 128.25 29.5769 128.19 29.5769ZM149.559 28.8189C149.539 28.8189 149.499 28.7989 149.479 28.7989C149.439 28.779 149.399 28.7191 149.399 28.6593C149.399 28.1606 149.698 27.1432 149.698 27.1033C150.018 26.3652 150.377 25.9663 151.036 25.6271C151.096 25.6072 151.156 25.6072 151.196 25.6471C151.236 25.687 151.276 25.7269 151.256 25.7867C151.196 26.2854 151.056 26.9836 150.777 27.602C150.677 27.8015 150.218 28.4797 149.599 28.7989C149.599 28.8189 149.579 28.8189 149.559 28.8189ZM149.998 27.223C149.998 27.223 149.798 27.8813 149.738 28.38C150.118 28.0808 150.437 27.6619 150.517 27.4823C150.717 27.0235 150.857 26.5049 150.917 26.066C150.497 26.3453 150.218 26.6844 149.998 27.223ZM162.04 23.4129C161.821 23.4129 161.701 23.353 161.661 23.2334C161.641 23.1735 161.621 23.0538 161.721 22.9341C161.861 22.7147 162.26 22.5152 162.54 22.5152C162.699 22.5152 162.799 22.5751 162.839 22.6349C162.899 22.6948 162.919 22.7745 162.919 22.8543C162.899 23.0538 162.64 23.2533 162.58 23.2932C162.42 23.373 162.22 23.4129 162.04 23.4129ZM161.981 23.0937C162.001 23.0937 162.02 23.0937 162.04 23.0937C162.16 23.0937 162.3 23.0538 162.4 23.0139C162.44 22.994 162.52 22.8942 162.56 22.8543C162.54 22.8543 162.54 22.8543 162.52 22.8543C162.34 22.8344 162.08 22.994 161.981 23.0937Z" fill="white"/>
<path d="M110.635 39.3914C110.675 39.3715 110.695 39.3116 110.695 39.2717C110.695 39.172 110.855 38.394 110.995 37.6958C111.015 37.636 110.975 37.5562 110.915 37.5362C110.855 37.4964 110.795 37.4964 110.735 37.5562C110.216 37.9751 109.796 38.2344 109.457 38.3142C111.015 31.452 112.073 28.3202 112.592 27.0036C113.012 27.2629 113.331 27.4025 113.811 27.4025C113.811 27.4025 113.811 27.4025 113.83 27.4025C114.509 27.2828 114.909 26.824 114.909 26.1259C114.909 25.667 114.789 25.1883 114.01 24.8691C113.591 24.6896 112.992 24.5499 112.173 24.7095C110.535 25.0885 109.317 25.8466 108.458 27.0435C107.6 28.2803 106.841 30.1155 106.102 32.6689C105.283 33.5067 104.464 33.766 103.845 33.8857C103.386 33.9655 103.006 33.8857 102.827 33.6663C102.727 33.5266 102.687 33.3471 102.747 33.1277C103.406 30.6741 104.284 28.0209 104.304 28.001C104.324 27.9611 104.324 27.9012 104.284 27.8613C104.244 27.8215 104.205 27.8015 104.165 27.8015C104.005 27.8015 102.008 28.001 101.289 28.1406C99.3716 28.4997 97.7939 29.4173 96.4758 30.9334C95.1977 32.4095 94.5586 33.9057 94.5586 35.3818C94.5586 35.9404 94.6185 36.5987 94.978 37.1572C95.2576 37.5761 95.6171 37.9951 96.2361 37.9951C96.3759 37.9951 96.5157 37.9751 96.6555 37.9352C97.1348 37.7956 97.714 37.4764 97.714 36.6585C97.714 36.2995 97.5343 35.9404 97.1947 35.5813C96.9152 35.302 96.7554 34.8632 96.7554 34.564C96.7554 33.6463 97.2147 32.7088 98.1134 31.7712C98.8723 30.9932 99.7111 30.4546 100.59 30.1354C100.25 31.2326 99.5713 33.5067 99.5913 34.0653C99.6112 34.6438 99.9707 35.4616 100.969 35.8805C101.329 36.0401 101.748 36.1 102.247 36.1C102.607 36.1 103.026 36.0601 103.585 35.9803C104.284 35.8406 104.983 35.5614 105.682 35.1624L105.283 37.0575C104.704 39.3316 102.807 39.6707 102.727 39.6707C102.647 39.6907 102.587 39.7505 102.587 39.8303C102.587 40.0697 102.367 41.0471 102.287 41.3863C102.267 41.4461 102.287 41.5059 102.347 41.5458C102.367 41.5658 102.407 41.5857 102.447 41.5857C102.467 41.5857 102.487 41.5857 102.507 41.5658C102.607 41.5259 102.707 41.4661 102.827 41.3863C103.545 40.9873 104.724 40.2891 106.861 40.2891C109.457 40.2293 110.595 39.4313 110.635 39.3914ZM109.996 29.0782C109.337 31.3722 108.758 34.2049 108.239 36.7982C108.119 37.3767 107.999 37.9552 107.899 38.4938H107.6C107.62 38.414 107.64 38.2943 107.679 38.1546C108.678 33.4269 109.437 30.6541 109.996 29.0782Z" fill="white"/>
<path d="M120.518 50.3032L120.079 50.4029C120.139 46.6926 120.398 41.7255 121.377 38.6335C121.417 38.5138 121.437 38.454 121.437 38.4141C121.437 38.3542 121.397 38.2944 121.337 38.2744C121.277 38.2545 121.217 38.2744 121.157 38.3143C121.077 38.3941 120.478 38.6135 119.959 38.7532C119.919 38.7731 119.879 38.7931 119.859 38.833C118.661 41.4262 118.361 49.6649 118.321 50.8019L118.002 50.8817C117.842 42.9623 119.34 38.9726 119.36 38.9527C119.38 38.8928 119.36 38.813 119.32 38.7731C119.28 38.7332 119.2 38.7133 119.14 38.7532C119.08 38.7931 118.581 38.9726 118.022 39.192C114.347 40.5884 110.872 41.9449 110.433 42.5035C109.594 43.2615 109.474 44.0594 109.514 44.598C109.554 45.2563 109.874 45.775 110.153 45.9545C110.772 46.3734 111.471 46.3335 111.911 45.8548C112.17 45.5755 112.31 45.1965 112.29 44.8374C112.27 44.3985 112.051 43.9796 111.971 43.84C111.991 43.5807 112.13 43.3014 112.39 43.0221C112.77 42.6231 114.347 41.9649 115.486 41.5858C115.066 42.1643 114.427 43.1418 113.628 44.3187C111.312 47.7897 106.479 54.991 105.62 55.011C105.6 54.991 105.081 54.632 104.482 54.632C104.102 54.632 103.783 54.7716 103.503 55.0708C103.064 55.7491 103.164 56.2478 103.323 56.547C103.643 57.1455 104.442 57.4048 104.901 57.4048H104.921C105.979 57.3848 106.818 56.946 107.717 55.8887C108.476 55.011 112.13 49.7447 114.168 46.533C114.407 46.1739 114.647 45.8348 114.906 45.4558C115.226 45.0169 115.546 44.5581 115.845 44.0794C115.825 44.3387 115.785 44.598 115.765 44.8573C115.645 46.0343 115.526 47.4905 115.306 49.1462C115.166 52.0786 114.267 53.0561 114.267 53.0561C114.227 53.096 114.207 53.1758 114.227 53.2356C114.247 53.2954 114.307 53.3353 114.367 53.3353C115.765 53.3353 116.864 53.0361 117.603 52.4975C118.821 51.8791 120.358 51.8592 120.378 51.8592C120.458 51.8592 120.538 51.7993 120.538 51.6996C120.538 51.0812 120.678 50.4628 120.678 50.4428C120.698 50.383 120.678 50.3232 120.638 50.2833C120.618 50.3032 120.578 50.2833 120.518 50.3032Z" fill="white"/>
<path d="M170.366 38.0551C170.147 37.9553 169.568 37.8157 169.028 37.8357C168.889 37.8357 168.749 37.8556 168.629 37.8756C167.251 38.1947 166.133 38.8331 164.655 40.1895L163.317 41.4463C163.516 40.5686 163.916 38.7533 164.275 37.1175C164.575 35.7211 164.834 34.5043 164.914 34.245C164.934 34.1851 164.914 34.1452 164.874 34.1053C164.834 34.0654 164.775 34.0455 164.735 34.0654C163.956 34.225 158.883 35.5017 157.725 36.1999C157.006 36.6388 155.588 37.6362 155.768 38.9328C155.987 39.9701 156.547 40.3491 156.986 40.4888C157.166 40.5486 157.405 40.6085 157.705 40.6284C157.585 40.7281 157.465 40.8279 157.425 40.8678C157.006 41.2867 156.806 41.6857 156.586 42.1844L156.447 42.4636C156.247 42.8826 155.788 43.1818 155.548 43.3015C155.468 43.0421 155.288 42.5434 155.189 42.2243C155.109 42.0048 154.989 41.6458 154.609 41.6458C154.47 41.6458 154.31 41.6857 154.13 41.7854C153.671 42.0248 152.652 43.082 152.093 43.6605C152.393 42.324 153.251 38.7134 153.85 36.18C153.87 36.1201 153.85 36.0603 153.811 36.0204C153.771 35.9805 153.711 35.9605 153.671 35.9805C153.032 36.1401 151.055 36.938 150.975 36.9579C150.935 36.9779 150.895 37.0178 150.875 37.0577L149.776 41.4064C149.637 42.1046 149.277 42.7629 148.558 43.5807C148.079 44.1193 147.64 44.4186 147.22 44.4784C147.48 43.3015 148.498 38.5338 148.498 38.2147C148.498 37.6162 147.6 37.0976 147.06 37.0976C146.581 37.0976 146.182 37.2173 145.543 37.7958C145.043 38.2346 142.727 40.1895 142.707 40.2095C142.667 40.2294 142.647 40.2893 142.647 40.3292C142.647 40.3691 142.667 40.4289 142.707 40.4489C143.186 40.768 143.965 41.2468 143.985 41.2468C144.045 41.2867 144.125 41.2668 144.185 41.2269C144.304 41.1072 144.983 40.4688 145.403 40.0898C145.343 40.4688 145.243 40.9875 145.023 41.8452C144.065 42.9623 141.948 44.9173 140.989 45.7152C141.249 44.4984 142.148 40.8279 142.767 38.2745C142.787 38.2147 142.767 38.1548 142.727 38.1349C142.687 38.095 142.627 38.075 142.567 38.095C141.928 38.2546 140.031 38.7533 140.031 38.7533C139.971 38.7732 139.911 38.8331 139.911 38.8929C139.891 39.0724 139.272 41.2269 138.852 42.6232C137.674 42.8227 137.135 42.8826 136.895 42.9025C136.995 42.5235 137.055 42.2243 137.115 41.9849C137.335 41.1072 137.375 40.9476 137.375 40.3691C137.375 40.01 137.235 39.1323 135.937 39.252C134.958 39.3318 131.922 42.2043 131.583 42.5235C131.543 42.5634 131.523 42.6232 131.543 42.6631C131.543 42.723 131.583 42.7629 131.643 42.7828C132.362 43.082 133.061 43.2616 133.101 43.2616C133.161 43.2815 133.221 43.2616 133.261 43.2217C133.68 42.8028 133.959 42.5035 134.159 42.3041L133.8 44.3188C133.021 45.2364 130.664 47.2512 129.786 48.0092C130.065 46.7525 131.044 43.0222 131.723 40.4289C131.743 40.3691 131.723 40.3092 131.683 40.2893C131.643 40.2494 131.583 40.2294 131.523 40.2494C130.884 40.409 129.007 40.9077 129.007 40.9077C128.947 40.9276 128.887 40.9875 128.887 41.0473C128.867 41.2269 128.128 43.9199 127.649 45.6554C127.149 47.1914 125.492 48.4481 124.873 48.8072C124.973 48.3683 125.152 47.5305 125.352 46.6927C125.831 44.5582 126.191 42.9225 126.211 42.6631C126.231 42.344 126.251 41.5859 125.791 41.3864C125.452 41.2269 125.252 41.2468 124.733 41.4463C124.433 41.566 121.238 44.1193 120.599 44.638C120.559 44.6579 120.539 44.7178 120.539 44.7776C120.539 44.8175 120.559 44.8774 120.599 44.8973C121.078 45.2165 121.857 45.5357 121.897 45.5556C121.957 45.5756 122.017 45.5556 122.077 45.5157C122.117 45.4559 122.297 45.3162 122.496 45.1367C122.716 44.9372 122.995 44.6978 123.235 44.4784C122.856 46.0344 121.997 50.0639 121.997 50.3831C121.997 50.8818 122.157 51.2409 122.516 51.6199C122.676 51.7795 122.916 51.8593 123.235 51.8593C123.355 51.8593 123.475 51.8393 123.615 51.8194C124.373 51.6797 126.151 50.403 126.89 49.7647C126.93 50.044 127.05 50.4429 127.449 50.6624C127.948 50.9416 128.208 50.9217 128.527 50.8219C129.446 50.5427 131.243 48.9668 133.141 47.1914C132.861 48.089 132.601 49.4256 132.582 49.4854C132.582 49.5453 132.582 49.5852 132.621 49.6251C132.661 49.6649 132.721 49.665 132.781 49.665C133.4 49.5054 135.437 49.0067 135.477 49.0067C135.537 48.9867 135.597 48.9269 135.597 48.867C135.617 48.7074 136.136 46.3934 136.496 44.8175L138.533 44.5383C138.393 45.2364 138.253 45.8149 138.153 46.2538C138.034 46.7725 137.954 47.0717 137.954 47.2512C137.954 47.8098 138.493 48.8271 139.571 48.6875C140.111 48.6077 141.409 47.4906 143.506 45.6554C143.805 45.396 144.085 45.1367 144.384 44.8774C144.344 45.0769 144.304 45.2963 144.244 45.4958C144.165 45.8349 144.125 46.0144 144.125 46.0942C144.125 46.5131 144.185 47.0517 144.684 47.351C145.103 47.6103 145.423 47.6103 145.742 47.5305C146.122 47.4307 148.418 45.8149 149.237 45.2364C149.337 45.7152 149.677 46.6528 150.635 46.553C151.414 46.4732 152.373 45.775 154.05 44.0794V44.0994C154.31 44.638 154.51 45.017 154.789 45.2165C155.189 45.4958 155.668 45.6155 156.167 45.5556C156.906 45.4559 158.284 44.7178 159.123 43.0421C159.702 41.8851 160.081 41.187 160.361 40.8079C160.541 40.5686 160.681 40.4489 160.82 40.409C160.541 41.5061 160.421 42.5035 160.421 42.8028C160.421 43.4212 160.541 43.8401 160.8 44.0396C161.3 44.4385 161.679 44.5383 162.218 44.3787C163.057 44.1393 164.535 42.8626 165.853 41.7256C166.692 41.0074 167.67 40.2893 167.85 40.1696C168.249 39.9701 168.709 40.1098 168.968 40.409C169.288 40.8079 169.667 40.8478 169.927 40.8478C170.067 40.8478 170.207 40.8279 170.326 40.788C170.586 40.7281 171.205 40.4489 171.305 39.5113C171.365 38.7732 170.886 38.2745 170.366 38.0551ZM161.839 36.6587L161.16 38.7333C161.1 38.7333 161.02 38.7533 160.94 38.7732C160.661 38.8131 160.281 38.873 159.902 38.873C158.983 38.873 158.923 38.5139 158.903 38.3743C158.843 38.0152 159.123 37.7359 159.622 37.3968C160.002 37.1574 161.28 36.7784 161.839 36.6587Z" fill="white"/>
<path d="M172.924 24.5899C172.805 23.5925 172.166 23.034 171.167 23.034C170.628 23.034 169.989 23.2135 169.509 23.5127C168.431 24.171 166.214 25.7469 165.355 26.3454C165.715 24.7695 166.853 19.543 166.873 19.4832C166.893 19.4233 166.873 19.3635 166.833 19.3236C166.793 19.2837 166.733 19.2837 166.694 19.2837C166.594 19.3236 166.334 19.3635 165.975 19.4433C164.177 19.8422 160.463 20.6801 159.544 21.2586C158.406 21.9568 157.747 22.9542 157.747 23.9715C157.747 24.4702 158.066 25.2083 158.945 25.5474C159.105 25.6272 159.264 25.6671 159.424 25.707C158.865 26.1658 158.525 26.9239 158.246 27.6021C157.786 28.6793 157.707 28.6594 157.447 28.6394C157.167 28.6195 157.048 28.3202 156.888 27.9213C156.808 27.6819 156.728 27.4625 156.568 27.3627C156.488 27.3029 156.369 27.263 156.249 27.263C155.59 27.263 154.511 28.4399 153.812 28.9187C154.112 27.6021 155.13 23.5127 155.809 20.8197C155.829 20.7599 155.809 20.7 155.769 20.6801C155.729 20.6402 155.67 20.6202 155.61 20.6402C154.811 20.8197 153.932 21.0591 153.912 21.0591C153.872 21.079 153.832 21.099 153.812 21.1588C153.772 21.2586 153.672 21.4979 153.633 21.6376C153.153 21.7373 151.516 22.256 150.317 22.7148C147.202 23.9117 146.283 27.3627 145.984 28.4998C145.944 28.6195 145.904 28.779 145.924 28.779L144.985 29.8962C144.666 30.2353 144.286 30.6342 143.907 30.9335C144.027 30.3949 144.306 29.4174 144.546 28.5197C144.985 26.9039 145.245 25.9265 145.245 25.707C145.385 24.8094 145.305 24.191 145.005 23.8119C144.785 23.5526 144.446 23.413 143.947 23.4329C143.847 23.4329 143.747 23.4329 143.647 23.4529C142.948 23.5127 141.37 24.6498 140.771 25.1086C140.632 24.6697 140.212 24.1311 139.373 24.2907C138.535 24.4303 137.536 25.0687 136.358 26.2257C136.378 25.9663 136.358 25.6871 136.238 25.4676C136.138 25.2881 135.998 25.1684 135.779 25.1086C135.699 25.0886 135.579 25.0288 135.359 25.0288C134.84 25.0288 134.161 25.348 133.282 25.9464C132.803 26.2855 132.104 26.884 131.485 27.5024C131.485 27.1433 131.365 26.6645 130.606 26.2656C130.366 26.1459 129.987 26.086 129.568 26.086C128.849 26.086 127.391 26.3055 125.853 27.7617C124.056 29.5969 123.397 31.492 123.157 32.4695C122.897 32.8684 121.459 34.5241 120.76 35.342C121.08 33.9855 121.899 30.5145 122.478 28.0809C122.498 28.021 122.478 27.9612 122.438 27.9412C122.398 27.9013 122.338 27.8814 122.278 27.9013C121.659 28.0609 119.682 28.6993 119.582 28.7192C119.522 28.7392 119.482 28.779 119.482 28.8389L118.384 33.1876C118.024 35.0627 116.587 36.0203 115.928 36.4392C116.207 35.0029 117.086 30.3151 117.086 30.0158C117.086 29.6368 116.726 28.8189 115.648 28.8987C115.328 28.9386 114.869 29.178 114.15 29.7366C113.671 30.0557 111.394 32.0705 111.294 32.1702C111.254 32.2101 111.234 32.27 111.234 32.3099C111.254 32.3697 111.294 32.4096 111.334 32.4296C111.794 32.5892 112.592 32.8884 112.592 32.9083C112.652 32.9283 112.712 32.9083 112.772 32.8684C112.832 32.7886 113.172 32.5493 113.451 32.3298C113.631 32.1902 113.771 32.0705 113.891 31.9907C113.851 32.3697 113.731 32.8684 113.551 33.6863L113.451 34.1651C113.192 35.2223 112.672 37.5164 112.672 37.8954C112.672 38.434 112.872 38.813 113.251 38.9925C113.511 39.0723 113.791 39.1322 114.07 39.1322C114.749 39.1322 115.448 38.8729 116.247 38.3143C116.567 38.0749 116.846 37.8156 117.126 37.5762C117.345 37.3967 117.545 37.1972 117.785 37.0177C117.845 37.3368 117.965 37.8156 118.084 37.9552C118.264 38.1747 118.524 38.2744 118.823 38.2744C120.181 38.2744 122.378 35.9604 123.017 35.2423C123.317 36.0003 124.076 36.7384 125.454 36.8381C127.591 36.9977 130.506 34.0055 130.626 33.8858C130.686 33.826 130.686 33.7262 130.626 33.6664L129.667 32.5493C129.628 32.5094 129.608 32.4894 129.548 32.4894C129.508 32.4894 129.468 32.5094 129.428 32.5293L129.148 32.8086C128.19 33.7861 127.511 34.5042 126.692 34.584C126.392 34.6039 126.233 34.6039 126.093 34.5042C125.873 34.3446 125.753 33.9456 125.753 33.4669C125.753 32.7288 126.892 29.6169 127.131 29.2179C127.351 28.8788 127.65 28.6594 127.95 28.6394C128.09 28.6394 128.389 28.6394 128.849 28.779L128.929 28.799C129.208 28.8987 129.488 28.9985 129.787 28.9985C130.007 28.9985 130.187 28.9586 130.347 28.8389C130.466 28.7591 130.646 28.6195 130.766 28.5397C131.105 28.9785 131.625 29.3775 131.665 29.3974C131.724 29.4373 131.784 29.4373 131.824 29.4174C132.044 29.2977 132.583 28.799 133.083 28.3003C132.823 29.557 132.024 32.9682 131.465 35.342C131.445 35.4019 131.465 35.4418 131.505 35.4817C131.545 35.5216 131.585 35.5415 131.645 35.5216C132.384 35.4019 134.321 35.0228 134.341 35.0228C134.421 35.0029 134.461 34.9431 134.461 34.8633C134.461 34.4842 135.539 29.4373 135.838 28.9785C136.158 28.3003 137.157 27.6221 137.676 27.3029L136.198 34.3446C136.198 34.3845 136.198 34.4443 136.238 34.4842C136.278 34.5241 136.318 34.5441 136.378 34.5441C136.937 34.4842 138.834 34.2249 138.914 34.205C138.994 34.185 139.034 34.1252 139.054 34.0653C139.114 33.5666 140.432 28.2205 140.711 27.9013C140.731 27.8814 140.731 27.8614 140.751 27.8415C140.951 27.2031 141.77 26.5448 142.249 26.2057C141.93 27.6221 140.931 31.9907 140.931 32.27C140.931 32.7487 141.251 33.7462 142.189 33.7462C142.309 33.7462 142.429 33.7262 142.549 33.7063C143.707 33.427 145.065 32.1703 145.864 31.3125C145.984 31.6915 146.243 32.0107 146.523 32.2101C146.683 32.3298 147.002 32.3498 147.242 32.3498C148.181 32.3498 149.638 31.9708 150.757 30.9534C150.897 31.512 151.296 31.8311 151.915 31.8311C152.314 31.8311 152.734 31.6915 152.993 31.5718C153.832 31.1728 154.971 30.2353 155.69 29.4772C156.049 30.3949 156.968 30.9135 158.006 30.7539C159.164 30.5744 160.103 29.7964 160.802 28.42C160.902 28.2205 161.002 28.0011 161.102 27.7816C161.461 26.9638 161.841 26.1259 162.599 25.8467C162.22 26.7643 161.98 27.4425 162.08 28.3601C162.18 29.2379 162.699 29.6967 163.578 29.6967C164.137 29.6967 164.656 29.4972 164.836 29.3974C165.955 28.7591 167.333 27.5223 168.351 26.6047C168.89 26.106 169.35 25.6871 169.589 25.5474C169.929 25.328 170.148 25.4676 170.448 25.6871C170.528 25.7469 170.608 25.8068 170.708 25.8666C170.927 26.0062 171.187 26.0661 171.447 26.0661C171.886 26.0661 172.285 25.8866 172.545 25.5873C172.865 25.2881 172.964 24.949 172.924 24.5899ZM163.698 21.7174L163.139 23.8319C162.819 23.9516 162.14 24.171 161.621 24.171C161.421 24.171 161.261 24.1311 161.162 24.0713C161.062 24.0114 160.962 23.8319 160.942 23.5327C160.922 23.3531 160.942 22.9143 161.321 22.5951C161.861 22.1363 163.119 21.7772 163.698 21.7174ZM148.74 29.7765C148.68 29.3775 148.56 28.2803 149.199 26.9638C149.938 25.4477 151.635 24.4902 152.195 24.2309C152.175 24.9889 151.975 27.5024 150.377 29.0384C149.938 29.4772 149.079 29.6967 148.74 29.7765Z" fill="white"/>
<path d="M123.615 11.7631C123.236 11.6035 122.817 11.5835 122.437 11.6833C122.177 11.7431 121.758 11.9227 121.159 12.2418C120.66 12.5012 120.14 12.7804 119.641 13.0597C119.541 13.1196 119.461 13.2193 119.421 13.339C119.401 13.4587 119.421 13.5784 119.481 13.6781C120.36 15.0346 121.219 16.411 122.018 17.7675C122.098 17.9071 122.237 17.9869 122.397 17.9869C122.477 17.9869 122.537 17.967 122.617 17.9271C122.916 17.7675 123.196 17.6079 123.496 17.4483C123.595 17.3885 123.675 17.2887 123.715 17.189C123.755 17.0693 123.735 16.9496 123.675 16.8499C123.456 16.4509 123.216 16.0719 122.996 15.6729C123.056 15.633 123.116 15.6131 123.176 15.5732C123.655 15.3338 123.955 15.1543 124.175 14.9747C124.354 14.8152 124.514 14.6356 124.654 14.3962C124.794 14.1569 124.854 13.8975 124.874 13.5784C124.874 13.2791 124.794 12.96 124.614 12.6208C124.354 12.2019 124.015 11.9227 123.615 11.7631ZM121.898 13.7778C122.217 13.5983 122.437 13.5185 122.517 13.4786C122.597 13.4587 122.657 13.4387 122.757 13.4786C122.777 13.4786 122.817 13.4986 122.856 13.5784C122.876 13.6183 122.876 13.6382 122.896 13.6781C122.896 13.718 122.876 13.7579 122.836 13.7978C122.836 13.8177 122.737 13.8975 122.257 14.1569L122.177 14.1968C122.157 14.2167 122.138 14.2167 122.118 14.2367C122.038 14.097 121.958 13.9574 121.858 13.8177C121.878 13.7778 121.878 13.7778 121.898 13.7778Z" fill="#0B0B0B"/>
<path d="M118.623 14.1767C118.464 14.0171 118.204 13.9972 118.024 14.1368C116.966 14.9946 115.927 15.8923 114.929 16.8099C114.829 16.8897 114.789 17.0094 114.789 17.1291C114.789 17.2488 114.829 17.3684 114.929 17.4482C116.087 18.5653 117.206 19.7223 118.284 20.8793C118.364 20.9791 118.484 21.019 118.604 21.019C118.703 21.019 118.803 20.9791 118.903 20.8993C119.143 20.6798 119.382 20.4804 119.642 20.2609C119.722 20.1811 119.782 20.0814 119.782 19.9617C119.782 19.842 119.762 19.7223 119.682 19.6425C118.883 18.7449 118.064 17.8871 117.226 17.0293C117.505 16.7899 117.785 16.5506 118.064 16.3112C118.883 17.1889 119.702 18.0866 120.481 18.9843C120.641 19.1638 120.9 19.1837 121.1 19.0441C121.359 18.8446 121.599 18.6252 121.859 18.4257C121.959 18.3459 122.019 18.2462 122.019 18.1265C122.038 18.0068 121.999 17.8871 121.919 17.8073C120.84 16.5705 119.742 15.3537 118.623 14.1767Z" fill="#0B0B0B"/>
<path d="M151.794 14.8154C150.675 14.0175 149.497 13.2395 148.319 12.4815C148.119 12.3618 147.879 12.4017 147.74 12.5812C147.58 12.8007 147.4 13.0201 147.24 13.2395C147.16 13.3393 147.141 13.459 147.16 13.5787C147.18 13.6983 147.26 13.7981 147.36 13.8779C147.66 14.0574 147.959 14.2569 148.259 14.4564C147.54 15.4139 146.821 16.3914 146.162 17.3489C146.102 17.4486 146.062 17.5683 146.102 17.688C146.122 17.8077 146.202 17.9074 146.302 17.9673C146.581 18.1468 146.861 18.3263 147.141 18.5059C147.22 18.5657 147.3 18.5857 147.38 18.5857C147.52 18.5857 147.66 18.5258 147.74 18.4061C148.419 17.4486 149.158 16.4712 149.896 15.5336C150.196 15.753 150.496 15.9525 150.795 16.1719C150.995 16.3116 151.254 16.2717 151.394 16.0921C151.574 15.8727 151.734 15.6732 151.914 15.4538C151.993 15.354 152.033 15.2344 152.013 15.1147C151.953 14.995 151.874 14.8952 151.794 14.8154Z" fill="#0B0B0B"/>
<path d="M136.275 12.9203C136.255 11.7434 136.255 10.5664 136.235 9.36952C136.235 9.13015 136.036 8.93066 135.796 8.93066C134.518 8.93066 133.24 8.95061 131.981 9.01046C131.862 9.01046 131.762 9.0703 131.682 9.15009C131.602 9.22989 131.562 9.34958 131.562 9.46927L131.582 9.96797C131.622 10.7659 131.622 11.4441 131.582 11.9628C131.562 12.3418 131.482 12.7009 131.362 13.0201C131.302 13.0201 131.243 13.0201 131.203 13.0201C131.143 13.0201 131.083 13.04 131.043 13.0599C131.083 12.6809 131.043 12.282 130.943 11.8631C130.703 10.9853 130.244 10.347 129.545 9.96797C128.866 9.6089 128.047 9.52911 127.168 9.74854C126.689 9.88818 126.27 10.0677 125.95 10.3071C125.691 10.5066 125.451 10.746 125.291 11.0452C125.131 11.3444 125.012 11.6436 124.972 11.9628C124.912 12.4017 124.972 12.8605 125.151 13.3991C125.431 14.2169 125.91 14.8154 126.589 15.1545C127.248 15.4936 128.007 15.5535 128.826 15.334C129.665 15.1346 130.284 14.6957 130.683 14.0773C130.743 13.9975 130.783 13.9177 130.823 13.8379L130.923 15.2941C130.943 15.5335 131.143 15.7131 131.362 15.7131C131.382 15.7131 131.382 15.7131 131.382 15.7131C131.662 15.6931 131.942 15.6732 132.221 15.6732C132.341 15.6732 132.441 15.6133 132.521 15.5335C132.601 15.4338 132.641 15.334 132.641 15.2144L132.601 14.6159C133.379 14.596 134.158 14.576 134.937 14.5561V15.1545C134.937 15.3939 135.137 15.5934 135.377 15.5934C135.656 15.5934 135.936 15.5934 136.235 15.5934C136.355 15.5934 136.455 15.5535 136.555 15.4737C136.635 15.3939 136.675 15.2742 136.675 15.1545V13.3193C136.715 13.1198 136.515 12.9203 136.275 12.9203ZM127.049 12.8405C126.909 12.4416 126.909 12.1224 127.029 11.9029C127.149 11.6835 127.348 11.5439 127.668 11.4641C127.788 11.4242 127.887 11.4242 128.007 11.4242C128.187 11.4242 128.347 11.4641 128.507 11.5439C128.746 11.6835 128.926 11.9628 129.026 12.3618C129.146 12.7807 129.146 13.0998 129.006 13.3392C128.886 13.5587 128.686 13.7182 128.387 13.7781C128.287 13.798 128.187 13.818 128.087 13.818C127.907 13.818 127.748 13.7781 127.608 13.6783C127.368 13.5188 127.168 13.2395 127.049 12.8405ZM134.318 12.9403C134.018 12.9403 133.699 12.9602 133.379 12.9602C133.519 12.3618 133.559 11.5838 133.559 10.6662C133.799 10.6662 134.038 10.6462 134.298 10.6462C134.298 11.4042 134.318 12.1822 134.318 12.9403Z" fill="#0B0B0B"/>
<path d="M142.509 10.2471C142.469 10.1074 142.329 9.98773 142.189 9.94784C141.81 9.86804 141.43 9.78825 141.071 9.70846C140.911 9.66856 140.731 9.74835 140.632 9.86804C140.272 10.3468 139.913 10.8256 139.553 11.3243C139.413 10.7657 139.254 10.1872 139.074 9.56882C139.034 9.40923 138.894 9.28955 138.714 9.24965C138.315 9.16986 137.896 9.11001 137.496 9.05017C137.356 9.03022 137.197 9.09006 137.097 9.20975C136.997 9.32944 136.977 9.48903 137.017 9.64861C137.436 10.8256 137.836 11.9826 138.215 13.1396C138.135 13.2592 138.095 13.2792 138.095 13.2792C138.095 13.2792 138.075 13.2991 138.015 13.2991C137.955 13.2991 137.896 13.2991 137.856 13.2792L137.736 13.2393C137.656 13.2193 137.556 13.1994 137.456 13.1794C137.336 13.1595 137.217 13.1794 137.117 13.2393C137.017 13.2991 136.937 13.4188 136.917 13.5186C136.877 13.7579 136.817 13.9973 136.777 14.2367C136.737 14.4362 136.857 14.6556 137.057 14.7354C137.256 14.8152 137.516 14.875 137.836 14.9349C137.935 14.9548 138.035 14.9748 138.135 14.9748C138.435 14.9748 138.714 14.875 138.974 14.7155C139.254 14.516 139.513 14.2367 139.833 13.8577C140.672 12.8004 141.53 11.7432 142.429 10.7059C142.529 10.5662 142.549 10.4066 142.509 10.2471Z" fill="#0B0B0B"/>
<path d="M146.323 13.2196L146.462 13.2794C146.682 13.3792 146.942 13.2994 147.042 13.08L147.361 12.4416C147.421 12.3419 147.421 12.2022 147.381 12.0825C147.341 11.9629 147.241 11.8831 147.122 11.8232L146.982 11.7634C146.502 11.5639 146.143 11.4641 145.823 11.4641C145.763 11.4641 145.724 11.4641 145.684 11.4641C145.304 11.504 144.885 11.7434 144.385 12.1823C144.366 12.2022 144.346 12.2222 144.326 12.2421C144.465 11.9429 144.605 11.6437 144.745 11.3445C144.805 11.2447 144.805 11.1051 144.745 10.9854C144.705 10.8657 144.605 10.7859 144.505 10.7261C144.166 10.5864 143.826 10.4667 143.487 10.3271C143.267 10.2473 143.027 10.347 142.928 10.5665C142.269 12.0227 141.63 13.4989 141.01 14.995C140.97 15.0947 140.97 15.2344 141.01 15.3341C141.07 15.4338 141.15 15.5336 141.25 15.5735C141.57 15.6932 141.889 15.8129 142.209 15.9326C142.428 16.0123 142.688 15.9126 142.768 15.6932C142.928 15.3341 143.087 14.9551 143.247 14.596V14.616C143.247 14.6359 143.247 14.6559 143.247 14.6758V14.7157V14.7357C143.267 15.1945 143.287 15.6533 143.307 16.0921C143.307 16.2717 143.427 16.4113 143.587 16.4911C143.946 16.6507 144.326 16.7903 144.685 16.9499C144.745 16.9699 144.805 16.9898 144.865 16.9898C144.945 16.9898 145.045 16.9699 145.124 16.91C145.244 16.8302 145.324 16.6706 145.304 16.531C145.284 16.0522 145.244 15.5535 145.224 15.0548C145.204 14.6359 145.164 14.3167 145.084 14.0574C145.065 13.9776 145.045 13.9178 145.005 13.8579C145.005 13.8579 145.005 13.8579 145.025 13.8579C145.164 13.7582 145.324 13.6385 145.464 13.4989C145.704 13.2595 145.863 13.1398 145.923 13.0999C145.963 13.08 145.983 13.06 146.023 13.06C146.063 13.1398 146.143 13.1398 146.323 13.2196Z" fill="#0B0B0B"/>
<path d="M115.207 17.1291C116.206 16.2314 117.224 15.3337 118.303 14.476C119.441 15.6529 120.519 16.8697 121.558 18.0866C121.298 18.2861 121.039 18.5055 120.779 18.705C119.9 17.6876 119.001 16.6902 118.063 15.7327C117.544 16.1516 117.044 16.5905 116.545 17.0293C117.504 17.9868 118.422 18.9643 119.321 19.9617C119.081 20.1812 118.822 20.3806 118.582 20.6001C117.504 19.4032 116.385 18.2661 115.207 17.1291ZM122.417 17.528C121.598 16.1516 120.759 14.7752 119.88 13.4187C120.379 13.1394 120.879 12.8801 121.378 12.6008C121.957 12.3016 122.357 12.1221 122.556 12.0822C122.876 12.0024 123.175 12.0223 123.475 12.142C123.775 12.2617 124.034 12.4811 124.234 12.8203C124.374 13.0796 124.454 13.319 124.434 13.5384C124.434 13.7578 124.374 13.9773 124.274 14.1568C124.174 14.3363 124.054 14.476 123.894 14.5956C123.695 14.7353 123.395 14.9348 122.976 15.1343C122.776 15.234 122.576 15.3537 122.377 15.4534C122.696 15.9721 122.996 16.4907 123.295 17.0293C122.996 17.2089 122.716 17.3685 122.417 17.528ZM121.238 13.6182C121.478 14.0172 121.718 14.3962 121.957 14.7951C122.117 14.6954 122.297 14.6156 122.456 14.5358C122.816 14.3363 123.056 14.1967 123.155 14.0969C123.255 13.9972 123.315 13.8775 123.335 13.7379C123.335 13.5982 123.315 13.4785 123.235 13.3589C123.135 13.1993 123.036 13.0995 122.856 13.0596C122.696 12.9998 122.536 13.0197 122.357 13.0596C122.237 13.0995 121.997 13.2192 121.658 13.3788C121.538 13.4586 121.378 13.5384 121.238 13.6182ZM125.592 13.299C125.432 12.8402 125.392 12.4213 125.432 12.0622C125.472 11.8029 125.552 11.5436 125.712 11.3042C125.852 11.0648 126.031 10.8653 126.251 10.7057C126.531 10.5063 126.89 10.3467 127.329 10.227C128.088 10.0275 128.787 10.0873 129.366 10.3866C129.946 10.7057 130.345 11.2443 130.545 12.0024C130.744 12.7604 130.664 13.3788 130.345 13.9174C130.005 14.4361 129.486 14.7951 128.767 14.9747C128.028 15.1542 127.389 15.1143 126.83 14.835C126.231 14.5358 125.832 14.0371 125.592 13.299ZM126.63 12.9798C126.79 13.4985 127.05 13.8576 127.389 14.057C127.729 14.2565 128.108 14.2964 128.508 14.1967C128.907 14.0969 129.207 13.8775 129.386 13.5384C129.566 13.1993 129.586 12.7804 129.446 12.2418C129.286 11.7231 129.047 11.3441 128.727 11.1646C128.388 10.9651 127.988 10.9252 127.569 11.0249C127.13 11.1446 126.83 11.364 126.65 11.7032C126.451 12.0223 126.451 12.4412 126.63 12.9798ZM132.003 9.46895C133.261 9.40911 134.539 9.38916 135.797 9.38916C135.797 10.7057 135.797 12.0423 135.817 13.3788C135.977 13.3788 136.117 13.3788 136.276 13.3788C136.276 13.9972 136.276 14.6156 136.276 15.234C135.997 15.234 135.717 15.234 135.418 15.234C135.418 14.8949 135.418 14.5358 135.418 14.1967C134.339 14.1967 133.261 14.2166 132.182 14.2765C132.202 14.6156 132.222 14.9747 132.242 15.3138C131.963 15.3337 131.663 15.3337 131.383 15.3537C131.343 14.7353 131.304 14.1368 131.264 13.5184C131.403 13.4985 131.563 13.4985 131.703 13.4985C131.883 13.0796 132.003 12.6008 132.042 12.0622C132.082 11.5236 132.082 10.8454 132.042 10.0076C132.022 9.80807 132.022 9.64849 132.003 9.46895ZM133.101 10.227C133.161 11.6832 133.041 12.7405 132.801 13.4187C133.46 13.3988 134.119 13.3788 134.778 13.3788C134.759 12.3216 134.739 11.2643 134.719 10.207C134.179 10.207 133.64 10.207 133.101 10.227ZM137.435 9.4889C137.834 9.54875 138.253 9.62854 138.653 9.68838C138.892 10.5661 139.132 11.4638 139.352 12.3415C139.871 11.6034 140.41 10.8653 140.969 10.1272C141.349 10.207 141.708 10.2868 142.088 10.3666C141.189 11.4039 140.31 12.4612 139.472 13.5384C139.192 13.8975 138.952 14.1368 138.713 14.3164C138.473 14.476 138.213 14.5358 137.914 14.476C137.594 14.4161 137.375 14.3563 137.215 14.2964C137.255 14.057 137.315 13.8177 137.355 13.5982C137.495 13.6381 137.634 13.6581 137.754 13.678C137.994 13.7179 138.174 13.7179 138.293 13.6581C138.413 13.5982 138.553 13.4387 138.713 13.1993C138.293 11.9625 137.874 10.7257 137.435 9.4889ZM143.346 10.8055C143.685 10.9252 144.025 11.0648 144.364 11.2044C144.065 11.8228 143.785 12.4412 143.506 13.0596C143.745 13.1195 143.905 13.1394 144.025 13.0796C144.145 13.0197 144.364 12.8602 144.704 12.541C145.123 12.162 145.483 11.9425 145.742 11.9226C146.002 11.9026 146.362 11.9824 146.821 12.1819C146.841 12.1819 146.901 12.2019 146.961 12.2418C146.861 12.4612 146.741 12.6607 146.641 12.8801C146.601 12.8602 146.541 12.8402 146.501 12.8203C146.302 12.7405 146.142 12.7006 146.022 12.7006C145.902 12.7006 145.802 12.7405 145.703 12.8003C145.603 12.8602 145.423 13.0197 145.183 13.2591C145.043 13.3788 144.924 13.4785 144.804 13.5583C144.684 13.6381 144.524 13.678 144.305 13.698C144.504 13.8376 144.624 14.0371 144.684 14.2565C144.744 14.476 144.784 14.7951 144.804 15.1741C144.824 15.6529 144.864 16.1516 144.884 16.6304C144.524 16.4708 144.145 16.3311 143.785 16.1716C143.765 15.7128 143.745 15.2739 143.725 14.8151C143.725 14.7951 143.725 14.7552 143.705 14.6954C143.705 14.6754 143.685 14.5956 143.685 14.4361C143.666 14.1767 143.606 13.9972 143.566 13.9174C143.506 13.8376 143.406 13.7578 143.246 13.698C142.967 14.3363 142.667 14.9747 142.407 15.633C142.088 15.5133 141.768 15.3936 141.449 15.2739C142.048 13.7379 142.687 12.2617 143.346 10.8055ZM146.501 17.6078C147.26 16.5107 148.059 15.4335 148.878 14.3563C148.459 14.077 148.019 13.7977 147.58 13.5184C147.74 13.299 147.919 13.0796 148.079 12.8602C149.257 13.5982 150.416 14.3762 151.534 15.1741C151.354 15.3936 151.195 15.5931 151.015 15.8125C150.595 15.5133 150.176 15.234 149.757 14.9348C148.918 15.992 148.119 17.0692 147.34 18.1464C147.061 17.9669 146.781 17.7874 146.501 17.6078Z" fill="white"/>
<path fill-rule="evenodd" clip-rule="evenodd" d="M119.759 60.8359L120.698 59.1004L120.119 59.0206L120.698 58.083L121.217 58.3623L122.295 56.7665L121.796 56.4872L122.875 54.8115L120.338 55.031L120.119 55.4698L119.759 55.2504L118.681 56.9061L119.04 57.1255C119.04 57.1255 118.042 58.6416 117.962 58.7812C116.744 60.9955 119.759 60.8359 119.759 60.8359Z" fill="#0B0B0B"/>
<path fill-rule="evenodd" clip-rule="evenodd" d="M121.48 56.926L120.981 57.6442L120.541 57.3649C120.541 57.3649 119.323 59.2201 119.343 59.4195C119.343 59.4993 119.603 59.5392 119.762 59.5392L119.403 60.2574C119.183 60.2574 118.924 60.2973 118.704 60.1576C118.564 60.0778 118.285 59.7986 118.384 59.4594C118.424 59.3198 119.822 56.926 119.822 56.926L119.523 56.7864L119.942 56.0682L120.242 56.2877L120.681 55.5695L121.759 55.4897L120.961 56.6467L121.48 56.926Z" fill="white"/>
<path fill-rule="evenodd" clip-rule="evenodd" d="M130.006 60.2174C129.647 60.6563 129.447 61.2946 129.447 62.0327C129.387 62.691 129.447 63.3293 129.707 63.848C129.946 64.3467 130.366 64.7257 131.065 64.7656C131.384 64.7856 131.624 64.626 131.924 64.4863V64.7656H133.162L133.641 58.3423L131.764 58.2026C131.764 58.2026 131.704 59.1402 131.704 59.6389C131.025 59.4195 130.366 59.7187 130.006 60.2174ZM131.105 62.5913C131.145 62.7508 131.245 62.8107 131.324 62.8107C131.404 62.8107 131.464 62.7309 131.544 62.5913C131.624 62.4915 131.624 61.933 131.624 61.6936C131.624 61.5739 131.464 61.4343 131.384 61.4343C131.304 61.4343 131.205 61.4941 131.165 61.6537C131.145 61.7135 131.065 62.4516 131.105 62.5913Z" fill="#0B0B0B"/>
<path fill-rule="evenodd" clip-rule="evenodd" d="M130.826 62.8705C130.906 63.1498 131.105 63.4091 131.325 63.4091C131.764 63.4091 131.964 62.7309 131.984 62.2322C132.004 61.7933 132.024 61.514 131.944 61.2946C131.864 61.0752 131.684 60.9555 131.485 60.9355C131.265 60.8956 131.065 61.0552 130.946 61.2148C130.766 61.4143 130.746 62.6511 130.826 62.8705ZM132.643 64.1671H131.924L131.984 63.5886C131.844 63.8081 131.185 64.1671 131.045 64.1671C130.686 64.1671 130.366 63.9876 130.147 63.5487C129.927 63.1897 129.887 62.6511 129.947 61.9928C130.007 61.3345 130.167 60.8358 130.386 60.5565C130.666 60.1974 130.966 60.0378 131.325 60.1176C131.684 60.1176 131.904 60.3371 132.124 60.6961L132.264 58.7412L133.062 58.8011L132.643 64.1671Z" fill="white"/>
<path fill-rule="evenodd" clip-rule="evenodd" d="M138.332 62.7113H138.252C138.252 61.9134 138.252 61.0556 137.813 60.3375C137.513 59.8387 136.874 59.4797 136.295 59.4797C134.777 59.4597 134.278 61.0755 134.278 62.2325C134.218 63.4693 134.718 64.9654 136.315 64.9654C136.755 64.9654 137.174 64.8258 137.533 64.5266C138.053 64.0079 138.192 63.3496 138.332 62.7113ZM136.016 62.7113H136.655C136.675 63.3496 135.956 63.2898 136.016 62.7113Z" fill="#0B0B0B"/>
<path fill-rule="evenodd" clip-rule="evenodd" d="M136.876 61.8532C136.876 61.5739 136.796 60.8558 136.297 60.8358C135.678 60.8358 135.658 61.5739 135.658 61.8532H136.876ZM136.816 62.9304L137.615 63.1498C137.535 63.5887 137.375 63.848 137.116 64.0874C136.876 64.2869 136.616 64.3866 136.317 64.3866C135.738 64.3866 135.338 64.2071 135.079 63.6685C134.899 63.3094 134.799 62.8107 134.819 62.2322C134.859 61.5141 134.979 60.9954 135.198 60.6364C135.478 60.1975 135.838 60.0579 136.277 60.0579C136.716 60.0579 137.056 60.2773 137.295 60.6364C137.575 61.0752 137.675 61.6537 137.675 62.5115H135.638C135.638 62.8706 135.738 63.5887 136.297 63.5887C136.656 63.5688 136.816 63.1498 136.816 62.9304Z" fill="white"/>
<path fill-rule="evenodd" clip-rule="evenodd" d="M142.588 58.3822L142.428 58.083L141.27 58.6615L143.466 63.2695L144.964 62.6112L143.686 59.8185C143.686 59.8185 143.546 59.5392 143.726 59.4394C143.866 59.3596 143.986 59.6988 143.986 59.6988L145.264 62.4716L146.602 61.8731L145.384 59.0804C145.384 59.0804 145.204 58.8011 145.384 58.7213C145.543 58.6615 145.623 58.9208 145.623 58.9208L146.921 61.6736C147.421 61.4542 147.92 61.2348 148.439 61.0153L147.061 58.1428C146.901 57.7837 146.762 57.5045 146.542 57.285C146.322 57.0656 146.103 56.8661 145.743 56.7863C145.164 56.6467 144.365 56.926 144.145 57.5842C143.486 57.3848 142.867 57.7039 142.568 58.3622L142.588 58.3822Z" fill="#0B0B0B"/>
<path fill-rule="evenodd" clip-rule="evenodd" d="M142.008 58.9207L142.647 58.5616L142.867 59.0603C142.926 58.5616 143.146 58.2424 143.446 58.1227C143.645 58.0429 143.785 58.0031 143.945 58.0429C144.165 58.0828 144.304 58.1826 144.524 58.3222C144.524 58.0429 144.584 57.8834 144.664 57.6639C144.724 57.5043 144.884 57.4246 145.023 57.3647C145.323 57.245 145.543 57.2251 145.702 57.245C145.922 57.2849 146.002 57.3647 146.182 57.5642C146.282 57.6839 147.7 60.6562 147.7 60.6562L147.001 60.9953L145.962 58.8608C145.822 58.5018 145.583 57.9432 145.163 58.1427C144.844 58.3023 144.884 58.6613 144.944 58.801C144.944 58.9406 146.102 61.4341 146.102 61.4341L145.263 61.8132C145.263 61.8132 144.105 59.2598 144.045 59.18C143.945 59.0603 143.785 58.8808 143.586 58.9606C143.166 59.1202 143.266 59.4593 143.306 59.6189C143.366 59.8183 144.444 62.1922 144.444 62.1922L143.745 62.5113L142.008 58.9207Z" fill="white"/>
<path fill-rule="evenodd" clip-rule="evenodd" d="M152.953 53.3153C152.793 53.1159 153.172 52.7369 153.452 52.6571L152.573 51.3604C152.573 51.3604 152.353 51.3405 152.214 51.3604C151.635 51.4203 151.135 51.8791 151.135 52.4376L150.995 52.298L150.137 53.2356L153.831 56.7464L155.129 55.37C155.129 55.4099 153.452 53.8938 152.953 53.3153Z" fill="#0B0B0B"/>
<path fill-rule="evenodd" clip-rule="evenodd" d="M154.352 55.41L153.853 55.9885L150.957 53.2556L151.456 52.7369L151.816 53.096C151.736 52.7967 151.676 52.5973 151.676 52.5175C151.676 52.3778 151.756 52.2382 151.816 52.1584C151.956 52.0188 152.095 51.939 152.315 51.939L152.814 52.7369C152.675 52.7369 152.515 52.8167 152.455 52.8765C152.395 52.9563 152.335 53.3553 152.535 53.5947C152.655 53.7742 154.352 55.41 154.352 55.41Z" fill="white"/>
<path fill-rule="evenodd" clip-rule="evenodd" d="M152.135 48.5674C151.776 49.0861 151.516 49.5449 151.137 50.0835L156.509 53.8138L157.587 52.2977L157.288 52.0783L157.647 52.1581L158.366 51.2205L158.007 50.3628L155.61 49.8641L154.731 47.4902L153.433 49.4452L152.135 48.5674Z" fill="#0B0B0B"/>
<path fill-rule="evenodd" clip-rule="evenodd" d="M156.349 53.0958L151.855 49.944L152.295 49.2857L154.691 50.9414L154.032 49.4254L154.591 48.6274L155.191 50.2831L157.867 50.8417L157.427 51.5798L155.55 51.1409L155.77 51.7194L156.788 52.4376L156.349 53.0958Z" fill="white"/>
<path fill-rule="evenodd" clip-rule="evenodd" d="M151.535 58.4621C151.615 58.5419 151.675 58.6017 151.755 58.6815L152.394 58.2426L153.033 57.8038C152.673 57.5844 152.314 57.3649 152.014 57.0856C151.655 56.5869 151.295 55.9287 150.916 55.4299C150.616 54.9911 150.476 54.7118 150.197 54.4924C149.917 54.3527 149.618 54.2729 149.338 54.2729C148.979 54.2729 148.619 54.4325 148.26 54.632C147.9 54.9312 147.641 55.1706 147.481 55.7092C147.381 56.3675 147.561 56.946 147.86 57.5046L148.499 57.1455C148.499 57.1455 148.419 57.3051 148.4 57.3649C148.32 57.5844 148.32 57.7439 148.34 57.8636C148.4 58.2227 148.519 58.4421 148.659 58.7214C148.879 59.0805 149.218 59.4395 149.538 59.5193C149.977 59.639 150.556 59.5792 150.916 59.2999C151.255 59.1004 151.475 58.8211 151.535 58.4621ZM150.237 57.1654C150.237 57.1654 149.997 57.2851 149.957 57.4846C149.917 57.6641 150.017 57.7838 150.097 57.8237C150.277 57.9035 150.437 57.6641 150.377 57.4447C150.357 57.3649 150.237 57.1654 150.237 57.1654Z" fill="#0B0B0B"/>
<path fill-rule="evenodd" clip-rule="evenodd" d="M150.155 56.6467C150.095 56.7265 149.736 57.2651 149.676 57.3449C149.596 57.5244 149.596 57.7837 149.716 57.9433C149.895 58.1827 150.235 58.1627 150.375 58.1029C150.535 58.0431 150.694 57.6441 150.634 57.4047C150.594 57.305 150.155 56.6467 150.155 56.6467ZM148.777 56.527L148.058 56.7464C147.898 56.3874 147.898 56.0881 147.978 55.8089C148.058 55.5096 148.178 55.2703 148.517 55.0508C148.817 54.8514 149.117 54.7915 149.336 54.7915C149.476 54.7915 149.716 54.8314 149.836 54.9311C149.995 55.0508 150.195 55.2902 150.495 55.7291C150.654 55.9884 151.154 56.7464 151.154 56.7464C151.393 57.0656 151.873 57.684 152.032 57.8236L151.393 58.2625C151.313 58.1827 151.094 57.9034 151.094 57.9034C151.034 58.1827 151.034 58.3423 150.954 58.4819C150.814 58.7013 150.774 58.8011 150.594 58.9208C149.816 59.4195 149.336 58.7811 149.157 58.5218C149.037 58.3622 148.737 57.7638 148.897 57.3848C148.997 57.1853 149.077 56.9659 149.276 56.7664C149.556 56.4672 149.716 56.2477 149.776 56.1081C149.776 56.1081 149.496 55.7091 149.416 55.6692C149.276 55.6094 149.097 55.6293 148.877 55.7889C148.797 55.8488 148.717 55.9485 148.697 56.1081C148.697 56.148 148.697 56.3076 148.777 56.527Z" fill="white"/>
<path fill-rule="evenodd" clip-rule="evenodd" d="M126.591 63.8279C126.571 63.9277 126.571 64.0274 126.552 64.1271L127.29 64.3665L128.029 64.586C127.969 64.167 127.91 63.7481 127.949 63.3492C128.109 62.7507 128.389 62.0525 128.549 61.4541C128.708 60.9554 128.828 60.6561 128.828 60.2971C128.768 59.9779 128.628 59.7186 128.449 59.4991C128.229 59.2199 127.89 59.0204 127.49 58.8808C127.031 58.781 126.691 58.7411 126.152 58.9406C125.573 59.2797 125.233 59.7784 124.974 60.3569L125.653 60.6362C125.653 60.6362 125.473 60.6761 125.413 60.696C125.193 60.7758 125.074 60.8756 124.994 60.9753C124.754 61.2546 124.654 61.474 124.514 61.7533C124.375 62.1523 124.315 62.631 124.455 62.9303C124.654 63.3492 125.034 63.7481 125.493 63.8479C125.912 64.0075 126.272 64.0075 126.591 63.8279ZM126.791 62.0126C126.791 62.0126 126.552 61.9129 126.372 61.9927C126.212 62.0725 126.172 62.2121 126.192 62.3119C126.252 62.5113 126.532 62.4714 126.671 62.2919C126.711 62.2321 126.791 62.0126 126.791 62.0126Z" fill="#0B0B0B"/>
<path fill-rule="evenodd" clip-rule="evenodd" d="M127.131 61.6338C127.031 61.6338 126.392 61.6737 126.292 61.7136C126.112 61.7535 125.913 61.9131 125.853 62.1125C125.773 62.4118 126.012 62.6511 126.152 62.7309C126.292 62.8107 126.711 62.691 126.851 62.4915C126.911 62.3719 127.131 61.6338 127.131 61.6338ZM126.372 60.4768L125.753 60.0579C125.933 59.7187 126.152 59.5392 126.432 59.4195C126.691 59.2998 126.971 59.24 127.37 59.3597C127.71 59.4594 127.95 59.6788 128.069 59.8384C128.169 59.9581 128.269 60.1576 128.269 60.3172C128.269 60.5167 128.209 60.8358 128.069 61.3146C127.97 61.5939 127.69 62.4517 127.69 62.4517C127.59 62.8307 127.41 63.6087 127.39 63.8081L126.651 63.5688C126.671 63.469 126.751 63.1099 126.751 63.1099C126.472 63.2296 126.372 63.3294 126.212 63.3693C125.952 63.3892 125.833 63.4291 125.653 63.3693C124.774 63.07 124.974 62.312 125.054 61.9928C125.114 61.7934 125.393 61.1949 125.773 61.0952C125.992 61.0353 126.192 60.9555 126.512 60.9954C126.911 61.0353 127.171 61.0154 127.33 60.9755C127.33 60.9755 127.47 60.5167 127.43 60.4169C127.39 60.2773 127.251 60.1377 127.011 60.0778C126.911 60.0579 126.791 60.0579 126.651 60.1377C126.612 60.1776 126.512 60.2773 126.372 60.4768Z" fill="white"/>
<path fill-rule="evenodd" clip-rule="evenodd" d="M123.434 59.6989C123.574 59.4795 124.053 59.7189 124.213 59.9782L125.171 58.7414C125.171 58.7414 125.112 58.522 125.052 58.4023C124.812 57.8637 124.233 57.5445 123.674 57.7241L123.754 57.5445L122.595 57.0259L120.398 61.6339L122.116 62.4318C122.116 62.4119 123.035 60.3373 123.434 59.6989Z" fill="#0B0B0B"/>
<path fill-rule="evenodd" clip-rule="evenodd" d="M121.879 61.6735L121.16 61.3743L122.858 57.7637L123.497 58.0828L123.277 58.5417C123.537 58.3821 123.716 58.2424 123.776 58.2225C123.916 58.1626 124.076 58.2025 124.156 58.2424C124.336 58.3422 124.455 58.4419 124.515 58.6613L123.916 59.3994C123.876 59.2598 123.756 59.1401 123.657 59.1002C123.557 59.0603 123.157 59.1401 122.997 59.3994C122.918 59.559 121.879 61.6735 121.879 61.6735Z" fill="white"/>
</g>
<defs>
<clipPath id="clip0_258_3324">
<rect width="283" height="74" fill="white"/>
</clipPath>
</defs>
</svg>
