<svg width="32" height="32" viewBox="0 0 32 32" fill="none" xmlns="http://www.w3.org/2000/svg">
<circle cx="16" cy="16" r="16" fill="#EDEDED"/>
<path d="M19.1818 12.2877L13.6131 17.8561L14.1433 18.3864L19.7121 12.818C20.2967 12.2337 21.2484 12.233 21.8334 12.818C22.4184 13.403 22.4184 14.3547 21.8334 14.9394L20.5074 16.265L20.5071 16.2646L18.2447 18.5274L16.2647 20.507L16.2651 20.5074C14.9488 21.8236 12.8083 21.8232 11.4921 20.5077C10.1762 19.1919 10.1766 17.051 11.4924 15.7347L17.3256 9.90086L16.7953 9.37061L10.9622 15.2049C9.35381 16.8132 9.35381 19.4304 10.9618 21.0384C11.7662 21.8427 12.8222 22.2444 13.8782 22.2444C14.9342 22.2444 15.9909 21.8424 16.7949 21.038L18.7746 19.058L22.3633 15.4696C23.2404 14.5921 23.2404 13.1649 22.3633 12.2877C21.4862 11.4106 20.0589 11.411 19.1818 12.2877Z" fill="#0B0B0B" stroke="#0B0B0B" stroke-width="0.6"/>
</svg>
