<svg width="283" height="74" viewBox="0 0 283 74" fill="none" xmlns="http://www.w3.org/2000/svg">
<path fill-rule="evenodd" clip-rule="evenodd" d="M185 39.3402V20H181.654L174.713 31.1664C174.082 32.2093 173.532 33.4382 173.532 33.4382H173.478C173.478 33.4382 173.532 32.0764 173.532 30.8475V20H170.104V39.3402H173.287L180.392 27.8782C181.05 26.8088 181.572 25.6064 181.572 25.6064H181.627C181.627 25.6064 181.572 26.915 181.572 28.1174V39.3369H185V39.3402ZM167.908 39.3402L164.889 32.6875C164.036 30.8176 162.75 29.4824 160.912 28.785L167.686 20H163.218L156.989 28.7086H156.935V20H153.067V39.3402H156.935V30.3128C158.828 30.3128 160.253 31.5417 160.942 33.1459L163.576 39.3435H167.908V39.3402ZM146.258 33.5976C146.258 35.6269 144.914 36.8027 142.418 36.8027C141.568 36.8027 140.719 36.6399 140.224 36.4805V30.6316C140.692 30.5253 141.486 30.4157 142.199 30.4157C144.86 30.4191 146.258 31.6214 146.258 33.5976ZM150.102 33.6773C150.102 30.0172 147.496 27.6125 142.585 27.6125C141.677 27.6125 140.746 27.7188 140.224 27.855V23.152H147.988V20H136.52V38.6194C137.918 39.2073 140.224 39.6624 142.476 39.6624C147.633 39.6624 150.102 37.2577 150.102 33.6773ZM133.832 20H129.742C129.302 23.979 128.098 27.5859 126.615 30.7113H126.56C124.807 27.5328 123.405 23.9524 122.883 20H118.797C119.373 24.9422 121.706 29.7249 124.64 33.8666L121.403 39.3435H125.765L128.975 33.6275C131.226 29.6186 133.338 24.6731 133.832 20ZM111.692 36.3742H102.912C105.19 33.9696 106.231 29.1071 106.671 25.2344L106.916 23.0955H110.262L111.692 36.3742ZM116.849 36.7761L115.45 36.1882L113.612 20H103.679L103.076 24.8624C102.554 29.1636 101.428 34.212 98 36.7761L98.2183 43.2394H100.879L100.988 39.3402H113.881L113.991 43.2394H116.651L116.849 36.7761Z" fill="#0B0B0B"/>
<path fill-rule="evenodd" clip-rule="evenodd" d="M100.952 52.1518V47.9575H98V52.1518H98.825V48.6288H100.125V52.1518H100.952V52.1518ZM104.596 49.2317C104.596 48.4137 104.014 47.8872 102.962 47.8872C102.482 47.8872 102.06 47.9736 101.737 48.1123V52.1498H102.545V50.5219C102.639 50.54 102.797 50.5501 102.938 50.5501C104.033 50.5521 104.596 49.9894 104.596 49.2317ZM103.787 49.2257C103.787 49.6658 103.476 49.9331 102.897 49.9331C102.763 49.9331 102.629 49.923 102.545 49.9049V48.5785C102.645 48.5424 102.81 48.5142 102.972 48.5142C103.506 48.5142 103.787 48.7453 103.787 49.2257ZM108.344 50.0557C108.344 48.8318 107.816 47.8872 106.705 47.8872C105.591 47.8872 105.065 48.8318 105.065 50.0537C105.065 51.2756 105.591 52.2201 106.705 52.2201C107.816 52.2221 108.344 51.2776 108.344 50.0557ZM107.517 50.0557C107.517 50.9178 107.241 51.4986 106.703 51.4986C106.164 51.4986 105.89 50.9198 105.89 50.0557C105.89 49.1915 106.164 48.6127 106.703 48.6127C107.243 48.6127 107.517 49.1915 107.517 50.0557ZM112.819 51.5951L112.52 51.4665L112.128 47.9575H110.007L109.879 49.0126C109.767 49.9451 109.527 51.0404 108.796 51.5971L108.842 52.9999H109.411L109.434 52.1538H112.187L112.209 52.9999H112.778L112.819 51.5951ZM111.719 51.5087H109.844C110.33 50.9882 110.553 49.9331 110.647 49.093L110.699 48.6288H111.415L111.719 51.5087ZM116.446 47.9575H115.572C115.478 48.8217 115.22 49.6035 114.905 50.2808H114.893C114.519 49.5914 114.221 48.8157 114.109 47.9575H113.237C113.361 49.0287 113.859 50.0657 114.485 50.9641L113.794 52.1518H114.725L115.411 50.9118C115.889 50.0436 116.34 48.9704 116.446 47.9575ZM120.188 52.1518L119.544 50.7088C119.363 50.3029 119.087 50.0135 118.695 49.8627L120.142 47.9575H119.187L117.858 49.8467H117.846V47.9575H117.019V52.1518H117.846V50.1943C118.25 50.1943 118.555 50.4596 118.701 50.8093L119.264 52.1538H120.188V52.1518ZM123.057 48.6408V47.9575H120.444V48.6408H121.34V52.1518H122.165V48.6408H123.057ZM127.755 47.9575H126.93V52.1518H127.755V47.9575ZM126.485 50.8716C126.485 50.1019 125.929 49.5392 124.858 49.5392C124.705 49.5392 124.531 49.5613 124.437 49.5854V47.9575H123.634V51.995C123.958 52.1337 124.372 52.2201 124.854 52.2201C125.906 52.2221 126.485 51.6875 126.485 50.8716ZM125.67 50.8716C125.67 51.3519 125.39 51.5951 124.856 51.5951C124.691 51.5951 124.535 51.567 124.435 51.5308V50.2044C124.516 50.1823 124.681 50.1582 124.817 50.1582C125.372 50.1582 125.67 50.4194 125.67 50.8716ZM133.156 50.0557C133.156 48.8318 132.63 47.8892 131.516 47.8892C130.403 47.8892 129.876 48.8338 129.876 50.0557C129.876 51.2776 130.403 52.2221 131.516 52.2221C132.63 52.2221 133.156 51.2776 133.156 50.0557ZM132.331 50.0557C132.331 50.9178 132.055 51.4986 131.516 51.4986C130.978 51.4986 130.703 50.9198 130.703 50.0557C130.703 49.1915 130.98 48.6127 131.516 48.6127C132.055 48.6127 132.331 49.1915 132.331 50.0557ZM136.22 48.6408V47.9575H133.607V48.6408H134.503V52.1518H135.33V48.6408H136.22ZM141.064 52.1518V47.9575H138.112V52.1518H138.937V48.6288H140.237V52.1518H141.064V52.1518ZM144.707 49.2317C144.707 48.4137 144.126 47.8872 143.074 47.8872C142.592 47.8872 142.172 47.9736 141.848 48.1123V52.1498H142.657V50.5219C142.751 50.538 142.909 50.5501 143.049 50.5501C144.145 50.5521 144.707 49.9894 144.707 49.2317ZM143.899 49.2257C143.899 49.6658 143.588 49.9331 143.009 49.9331C142.875 49.9331 142.738 49.923 142.657 49.9049V48.5785C142.757 48.5424 142.921 48.5142 143.084 48.5142C143.618 48.5122 143.899 48.7453 143.899 49.2257ZM148.456 50.0537C148.456 48.8318 147.928 47.8872 146.816 47.8872C145.703 47.8872 145.177 48.8318 145.177 50.0537C145.177 51.2776 145.703 52.2201 146.816 52.2201C147.928 52.2201 148.456 51.2776 148.456 50.0537ZM147.629 50.0537C147.629 50.9178 147.353 51.4966 146.814 51.4966C146.276 51.4966 146.002 50.9178 146.002 50.0537C146.002 49.1915 146.276 48.6107 146.814 48.6107C147.355 48.6127 147.629 49.1915 147.629 50.0537ZM152.299 52.1518V47.9575H151.583L150.102 50.3792C149.968 50.6043 149.85 50.8716 149.85 50.8716H149.838C149.838 50.8716 149.85 50.5762 149.85 50.3089V47.9575H149.119V52.1518H149.797L151.313 49.6658C151.453 49.4347 151.565 49.1734 151.565 49.1734H151.577C151.577 49.1734 151.565 49.4568 151.565 49.718V52.1518H152.299V52.1518ZM155.73 50.946C155.73 50.3551 155.279 50.0416 154.847 49.9029V49.8929C155.233 49.7422 155.584 49.3945 155.584 48.9704C155.584 48.3153 155.109 47.8872 154.162 47.8872C153.717 47.8872 153.294 47.9736 152.92 48.1203L153.16 48.7453C153.424 48.6348 153.751 48.5584 154.05 48.5584C154.513 48.5584 154.753 48.7373 154.753 49.0347C154.753 49.4005 154.29 49.6658 153.552 49.6899V50.2868H153.652C154.361 50.2868 154.887 50.5058 154.887 50.942C154.887 51.2997 154.589 51.5388 154.056 51.5388C153.68 51.5388 153.369 51.4685 153.107 51.364L152.843 51.989C153.201 52.1337 153.615 52.2201 154.068 52.2201C155.117 52.2201 155.73 51.7177 155.73 50.946ZM159.339 51.0103C159.339 50.4134 158.906 50.0838 158.565 49.9733V49.9612C158.904 49.8688 159.227 49.5151 159.227 49.0347C159.227 48.3675 158.723 47.8872 157.647 47.8872C157.161 47.8872 156.685 47.9797 156.368 48.1123V51.995C156.661 52.1216 157.177 52.2201 157.657 52.2201C158.766 52.2201 159.339 51.7639 159.339 51.0103ZM158.443 49.1111C158.443 49.3181 158.362 49.493 158.238 49.5914C158.114 49.6899 157.961 49.7301 157.675 49.7301H157.153V48.5765C157.265 48.5363 157.458 48.5062 157.644 48.5062C158.191 48.5082 158.443 48.7333 158.443 49.1111ZM158.526 50.958C158.526 51.3921 158.234 51.6011 157.653 51.6011C157.478 51.6011 157.271 51.573 157.155 51.5308V50.3089H157.687C157.974 50.3089 158.12 50.3551 158.262 50.4415C158.431 50.548 158.526 50.7249 158.526 50.958ZM163.135 50.0537C163.135 48.8318 162.606 47.8872 161.495 47.8872C160.381 47.8872 159.855 48.8318 159.855 50.0537C159.855 51.2776 160.381 52.2201 161.495 52.2201C162.608 52.2201 163.135 51.2776 163.135 50.0537ZM162.31 50.0537C162.31 50.9178 162.033 51.4966 161.495 51.4966C160.956 51.4966 160.68 50.9178 160.68 50.0537C160.68 49.1915 160.956 48.6107 161.495 48.6107C162.033 48.6107 162.31 49.1915 162.31 50.0537ZM167.611 51.5951L167.312 51.4665L166.92 47.9555H164.799L164.671 49.0106C164.559 49.9431 164.319 51.0384 163.588 51.5951L163.635 52.9979H164.203L164.226 52.1518H166.979L167.001 52.9979H167.57L167.611 51.5951ZM166.508 51.5087H164.634C165.12 50.9882 165.343 49.9331 165.437 49.093L165.49 48.6308H166.205L166.508 51.5087ZM171.423 52.1518V47.9575H170.708L169.226 50.3792C169.092 50.6043 168.974 50.8716 168.974 50.8716H168.962C168.962 50.8716 168.974 50.5762 168.974 50.3089V47.9575H168.243V52.1518H168.922L170.437 49.6658C170.578 49.4347 170.689 49.1734 170.689 49.1734H170.699C170.699 49.1734 170.689 49.4568 170.689 49.718V52.1518H171.423V52.1518ZM174.611 48.6408V47.9575H171.998V48.6408H172.894V52.1518H173.721V48.6408H174.611ZM177.439 52.1518V51.4685H175.993V50.3632H177.299V49.6899H175.993V48.6408H177.439V47.9575H175.184V52.1518H177.439V52.1518ZM181.475 52.1518L181.005 47.9575H178.815L178.644 49.5854C178.551 50.4998 178.392 51.1851 177.766 51.5489L178.012 52.2623C179.032 51.8343 179.331 50.8133 179.447 49.6718L179.552 48.6288H180.262L180.631 52.1518H181.475ZM185 52.1518V48.1123C184.667 47.9696 184.197 47.8872 183.718 47.8872C182.647 47.8872 182.096 48.3635 182.096 49.1513C182.096 49.7542 182.478 50.0738 182.915 50.1943V50.2064C182.694 50.327 182.545 50.548 182.43 50.8214L181.861 52.1538H182.728L183.261 50.8676C183.366 50.6124 183.547 50.4496 183.84 50.4496H184.191V52.1538H185V52.1518ZM184.193 49.8688H183.714C183.192 49.8688 182.905 49.6598 182.905 49.1975C182.905 48.7574 183.151 48.5082 183.702 48.5082C183.889 48.5082 184.084 48.5363 184.193 48.5785V49.8688Z" fill="#0B0B0B"/>
</svg>
