<svg width="17" height="16" viewBox="0 0 17 16" fill="none" xmlns="http://www.w3.org/2000/svg">
<path fill-rule="evenodd" clip-rule="evenodd" d="M1.16397 7.01356C5.72643 5.03215 8.76373 3.71555 10.2889 3.07681C14.6298 1.26486 15.5422 0.952 16.1289 0.938965C16.2592 0.938965 16.546 0.965036 16.7415 1.12146C16.898 1.25182 16.9371 1.42128 16.9631 1.55164C16.9892 1.682 17.0153 1.95574 16.9892 2.16431C16.7546 4.64108 15.7378 10.6505 15.2164 13.414C14.9948 14.5873 14.5646 14.9783 14.1474 15.0174C13.2349 15.0956 12.5441 14.4178 11.6707 13.8442C10.2889 12.9448 9.5198 12.3842 8.17713 11.4978C6.62589 10.481 7.62963 9.9205 8.51605 9.00801C8.75069 8.77337 12.7526 5.1234 12.8308 4.79751C12.8439 4.7584 12.8439 4.60197 12.7526 4.52376C12.6614 4.44554 12.531 4.47162 12.4267 4.49769C12.2833 4.52376 10.0934 5.98375 5.83072 8.86462C5.20501 9.29479 4.64448 9.50336 4.13609 9.49033C3.57556 9.47729 2.50664 9.17747 1.69843 8.91676C0.720757 8.60391 -0.0613799 8.43444 0.0037982 7.88695C0.042905 7.60016 0.433973 7.31338 1.16397 7.01356Z" fill="white"/>
</svg>
