<svg width="283" height="74" viewBox="0 0 283 74" fill="none" xmlns="http://www.w3.org/2000/svg">
<path d="M99.0969 51.0716H93.537V28.088H87.7645V22.5281H99.0969V51.0716Z" fill="#0B0B0B"/>
<path d="M85.6394 22.5281H70.5531V28.1235H85.6394V22.5281Z" fill="#0B0B0B"/>
<path d="M91.3764 30.2124H70.5531V35.8078H91.3764V30.2124Z" fill="#0B0B0B"/>
<path d="M91.3764 37.9343H70.5531V43.3881H91.3764V37.9343Z" fill="#0B0B0B"/>
<path d="M91.3764 45.5474H70.5531V51.0719H91.3764V45.5474Z" fill="#0B0B0B"/>
<path d="M207.007 40.4475C204.705 40.4475 202.722 41.8641 202.722 44.343C202.722 46.822 204.776 47.8136 204.776 47.8136L202.509 51.0717H204.988L206.83 48.2386H209.911V51.0717H212V40.4475C211.965 40.4475 209.308 40.4475 207.007 40.4475ZM209.875 46.3616C209.875 46.3616 208.069 46.3616 206.9 46.3616C205.732 46.3616 204.811 45.5825 204.811 44.3784C204.811 43.1744 205.696 42.289 206.9 42.289C208.14 42.289 209.84 42.289 209.84 42.289V46.3616H209.875Z" fill="#0B0B0B"/>
<path d="M111.885 45.4763L108.237 40.4475H106.077V51.0717H108.166V43.6702L111.389 48.3094H112.239L115.426 43.7056V51.0717H117.622V40.4475H115.426L111.885 45.4763Z" fill="#0B0B0B"/>
<path d="M122.332 46.4679H128.175V44.5201H122.296V42.3599H128.812V40.4475H120.136V51.0717H129.096V49.1239H122.332V46.4679Z" fill="#0B0B0B"/>
<path d="M145.032 46.4679H150.521V44.5201H144.997V42.3599H151.159V40.4475H142.837V51.0717H151.442V49.1239H145.032V46.4679Z" fill="#0B0B0B"/>
<path d="M136.922 43.9884C135.045 43.9884 133.558 43.9884 133.558 43.9884V42.2886H139.614V40.4116H131.398V51.0358C131.398 51.0358 135.081 51.0358 136.993 51.0358C138.941 51.0358 140.676 49.69 140.676 47.3527C140.676 45.0154 138.799 43.9884 136.922 43.9884ZM136.816 49.1588C135.895 49.1588 133.558 49.1588 133.558 49.1588V45.9008C133.558 45.9008 135.825 45.9008 136.781 45.9008C137.737 45.9008 138.587 46.3611 138.587 47.4236C138.587 48.5568 137.737 49.1588 136.816 49.1588Z" fill="#0B0B0B"/>
<path d="M155.763 47.8845C155.657 48.6991 155.409 49.2303 154.736 49.2303C154.028 49.2303 153.638 49.0178 153.638 49.0178L153.178 50.7177C153.178 50.7177 153.426 51.1426 155.055 51.1426C156.684 51.1426 157.498 50.151 157.711 48.8407C157.923 47.495 158.596 42.36 158.596 42.36H162.315V51.1072H164.404V40.4831H156.826C156.79 40.4476 155.869 47.07 155.763 47.8845Z" fill="#0B0B0B"/>
<path d="M171.805 43.4223C170.176 43.4223 169.043 43.4223 169.043 43.4223V40.4475H166.918V51.0717C166.918 51.0717 170.283 51.0717 171.947 51.0717C173.611 51.0717 176.02 50.1155 176.02 47.0345C176.02 44.1305 173.434 43.4223 171.805 43.4223ZM171.982 49.1593C170.778 49.1593 169.078 49.1593 169.078 49.1593V45.2992C169.078 45.2992 170.743 45.2992 171.947 45.2992C173.116 45.2992 173.966 45.9721 173.966 47.0699C173.966 48.3094 173.186 49.1593 171.982 49.1593Z" fill="#0B0B0B"/>
<path d="M185.511 44.4493H180.305V40.4475H178.18V51.0717H180.305V46.3616H185.511V51.0717H187.635V40.4475H185.511V44.4493Z" fill="#0B0B0B"/>
<path d="M194.257 40.4475L189.689 51.0717H191.956L192.735 49.1593H198.259L199.038 51.0717H201.34L196.843 40.4475H194.257ZM193.478 47.247L195.214 42.3953H195.745L197.48 47.247H193.478Z" fill="#0B0B0B"/>
<path d="M132.496 30.0712C132.496 30.0712 133.948 30.0712 135.577 30.0712C137.17 30.0712 139.72 29.3984 139.72 26.4944C139.72 23.4488 137.383 22.5281 135.718 22.5281C134.089 22.5281 130.442 22.5281 130.442 22.5281V33.0106H132.531V30.0712H132.496ZM132.496 24.4404C132.496 24.4404 134.55 24.4404 135.718 24.4404C136.887 24.4404 137.631 25.2549 137.631 26.4944C137.631 27.5923 136.816 28.2297 135.648 28.2297C134.479 28.2297 132.496 28.2297 132.496 28.2297V24.4404Z" fill="#0B0B0B"/>
<path d="M108.32 24.4404H114.446V33.1168H116.606V22.5281H106.159V33.1168H108.32V24.4404Z" fill="#0B0B0B"/>
<path d="M151.23 29.965C151.23 27.8047 149.53 27.2735 149.53 27.2735C149.53 27.2735 150.627 26.9902 150.627 25.1487C150.627 23.2364 148.821 22.5281 147.086 22.5281C145.351 22.5281 141.845 22.5281 141.845 22.5281V33.3293C141.845 33.3293 145.174 33.3293 147.369 33.3293C149.565 33.3293 151.23 32.1252 151.23 29.965ZM143.97 24.405C143.97 24.405 146.59 24.405 147.263 24.405C147.936 24.405 148.609 24.7237 148.609 25.4674C148.609 26.2111 148.149 26.6007 147.476 26.6007C146.767 26.6007 144.005 26.6007 144.005 26.6007V24.405H143.97ZM143.97 28.4776C143.97 28.4776 146.484 28.4776 147.546 28.4776C148.609 28.4776 149.176 29.0442 149.176 29.9296C149.176 30.8149 148.573 31.4169 147.653 31.4169C146.732 31.4169 143.97 31.4169 143.97 31.4169V28.4776Z" fill="#0B0B0B"/>
<path d="M128.104 31.2045H121.305V28.5484H127.148V26.6007H121.269V24.4404H127.786V22.5281H119.109V33.1522H128.104V31.2045Z" fill="#0B0B0B"/>
<path d="M167.307 33.1522L169.149 30.3191H172.23V33.1522H174.319V22.5281C174.319 22.5281 171.663 22.5281 169.361 22.5281C167.06 22.5281 165.076 23.9446 165.076 26.4236C165.076 28.9026 167.13 29.8942 167.13 29.8942L164.864 33.1522H167.307ZM169.255 24.405C170.495 24.405 172.195 24.405 172.195 24.405V28.4422C172.195 28.4422 170.388 28.4422 169.22 28.4422C168.051 28.4422 167.13 27.6631 167.13 26.459C167.166 25.2904 168.051 24.405 169.255 24.405Z" fill="#0B0B0B"/>
<path d="M155.054 31.2399H160.579L161.358 33.1522H163.66L159.127 22.5281H156.577L152.009 33.1522H154.275L155.054 31.2399ZM157.569 24.4758H158.1L159.835 29.3275H155.833L157.569 24.4758Z" fill="#0B0B0B"/>
</svg>
