<svg width="283" height="44" viewBox="0 0 283 44" fill="none" xmlns="http://www.w3.org/2000/svg">
<g clip-path="url(#clip0_258_3277)">
<path d="M136.934 16.9763C135.413 16.9763 134.155 17.4834 133.161 18.4976C132.188 19.4915 131.66 20.7897 131.66 22.311C131.66 23.8931 132.208 25.171 133.283 26.1649C134.358 27.1589 135.758 27.6457 137.482 27.6457C138.821 27.6457 140.139 27.3008 141.315 26.7735V24.7248C140.18 25.3739 138.841 25.7187 137.482 25.7187C135.798 25.7187 134.196 24.9885 133.851 23.0412H141.741C141.802 22.8587 141.843 22.3313 141.843 21.8445C141.843 20.8708 141.599 19.6538 140.585 18.5382C139.693 17.524 138.374 16.9763 136.934 16.9763ZM136.873 18.9844C138.171 18.9844 139.551 19.7755 139.754 21.3577H133.871C134.175 19.7349 135.494 18.9844 136.873 18.9844Z" fill="#0B0B0B"/>
<path d="M171.49 17.0735C170.435 17.0735 169.177 17.5197 168.407 18.3108V17.2763H166.297V27.4183H168.407V22.327C168.407 19.9538 169.887 19.1424 171.611 19.1424C171.713 19.1424 171.855 19.1627 171.997 19.183V17.1141C171.814 17.0938 171.591 17.0735 171.49 17.0735Z" fill="#0B0B0B"/>
<path d="M148.245 22.2059L152.018 17.2566H149.462L145.75 22.2464L149.686 27.3986H152.181L148.205 22.2262L148.245 22.2059Z" fill="#0B0B0B"/>
<path d="M145.672 13.1389H143.562V27.3985H145.672V13.1389Z" fill="#0B0B0B"/>
<path d="M118.274 20.3936V19.846H111.661V21.8541H116.063V24.8155C115.089 25.2009 114.035 25.4037 112.939 25.4037C111.418 25.4037 110.16 24.8966 109.166 23.923C108.233 22.9697 107.747 21.7932 107.747 20.2922C107.747 18.8115 108.213 17.635 109.166 16.6614C110.12 15.708 111.601 15.1807 113.487 15.1807C114.968 15.1807 116.388 15.5255 117.605 16.1746V13.8622C116.327 13.2942 114.947 12.99 113.487 12.99C111.093 13.0103 108.903 13.7608 107.584 15.0995C106.205 16.4788 105.455 18.2435 105.455 20.2922C105.455 22.3409 106.205 24.1056 107.584 25.5052C108.964 26.8845 110.809 27.5944 112.919 27.5944C114.846 27.5944 116.672 27.0467 118.254 26.0934V25.1806V20.3936H118.274Z" fill="#0B0B0B"/>
<path d="M128.857 18.457C127.945 17.5037 126.667 16.9763 125.267 16.9763C123.746 16.9763 122.488 17.4834 121.494 18.4976C120.521 19.4915 119.993 20.7897 119.993 22.311C119.993 23.8931 120.541 25.171 121.616 26.1649C121.941 26.4489 122.285 26.7126 122.671 26.9155C123.563 27.4023 124.618 27.6457 125.835 27.6457C127.174 27.6457 128.492 27.3008 129.669 26.7735V24.7248C129.405 24.8668 129.141 25.0088 128.878 25.1102C127.945 25.5159 126.89 25.6984 125.835 25.6984C124.151 25.6984 122.549 24.9682 122.204 23.0209H128.857H130.074C130.135 22.8384 130.176 22.311 130.176 21.8242C130.176 20.8506 129.932 19.6335 128.918 18.5179C128.898 18.5179 128.878 18.4976 128.857 18.457ZM128.066 21.3577H122.184C122.508 19.7552 123.827 18.9844 125.186 18.9844C126.484 18.9844 127.863 19.7755 128.066 21.3577Z" fill="#0B0B0B"/>
<path d="M187.737 17.2566H185.627V27.3986H187.737V17.2566Z" fill="#0B0B0B"/>
<path d="M186.682 12.8345C186.297 12.8345 185.972 12.9562 185.729 13.2198C185.465 13.4835 185.343 13.8079 185.343 14.1933C185.343 14.5786 185.465 14.9031 185.729 15.1667C185.992 15.4304 186.297 15.5521 186.682 15.5521C187.067 15.5521 187.392 15.4304 187.635 15.1667C187.899 14.9031 188.02 14.5786 188.02 14.1933C188.02 13.8079 187.899 13.4835 187.635 13.2198C187.392 12.9562 187.067 12.8345 186.682 12.8345Z" fill="#0B0B0B"/>
<path d="M208.57 24.5791C208.57 23.9503 208.408 23.4635 208.103 23.0578C207.474 22.1653 206.257 21.7191 204.919 21.3742C204.371 21.2322 203.763 21.0903 203.316 20.8468C202.951 20.6237 202.769 20.4006 202.769 19.9949H202.728H202.769C202.769 19.3053 203.621 18.9807 204.655 18.9807C205.892 18.9807 207.069 19.2647 208.103 19.8327V17.7231C207.028 17.2566 205.852 17.0132 204.655 17.0132C203.58 17.0132 202.464 17.2566 201.734 17.8245C201.004 18.3925 200.7 19.143 200.7 20.0963C200.7 22.0639 202.404 22.8144 204.351 23.3012C204.898 23.4432 205.507 23.5852 205.953 23.8286C206.318 24.0517 206.501 24.2748 206.501 24.6805C206.501 25.3904 205.75 25.7353 204.513 25.7353C203.195 25.7353 201.957 25.5122 200.842 25.1065V27.074C201.998 27.4594 203.235 27.6825 204.513 27.6825C205.669 27.6825 206.704 27.3986 207.495 26.8509C207.758 26.6683 207.961 26.4452 208.124 26.2221C208.428 25.7556 208.57 25.2079 208.57 24.5791Z" fill="#0B0B0B"/>
<path d="M162.611 19.934C163.544 19.2241 163.99 18.3519 163.99 17.1551C163.99 16.0395 163.544 15.0456 162.753 14.2951C161.962 13.5446 160.765 13.1592 159.629 13.1592H153.625V27.3985H160.136C161.333 27.3985 162.509 27.0131 163.341 26.2423C164.152 25.4918 164.578 24.4776 164.578 23.3214C164.578 21.9016 163.868 20.6034 162.611 19.934ZM155.795 15.1064H159.852C160.988 15.1064 161.84 15.9989 161.84 17.1348C161.84 18.291 160.968 19.1632 159.852 19.1632H155.795V15.1064ZM160.237 25.4715H155.795V21.0902H160.237C161.414 21.0902 162.347 22.0435 162.347 23.2809C162.347 24.4979 161.414 25.4715 160.237 25.4715Z" fill="#0B0B0B"/>
<path d="M194.651 18.9399C195.625 18.9399 196.253 19.2848 196.639 19.8121C197.024 20.3395 197.105 21.0089 197.105 21.5566V27.3983H199.215V21.4754C199.215 20.2381 198.911 19.1833 198.201 18.372C198.18 18.3517 198.18 18.3517 198.16 18.3314C197.45 17.5403 196.497 16.9927 195.199 16.9927C193.961 16.9927 192.947 17.4389 192.217 18.0272V17.2564H190.107V27.3983H192.217V21.5566C192.217 21.0089 192.359 20.4004 192.744 19.8933C192.927 19.6702 193.109 19.4673 193.353 19.3253C193.698 19.0819 194.124 18.9399 194.651 18.9399Z" fill="#0B0B0B"/>
<path d="M181.147 18.23C180.255 17.3984 178.997 16.9927 177.74 16.9927C176.279 16.9927 175.042 17.4998 174.007 18.5343C173.723 18.8182 173.48 19.1022 173.277 19.4267C173.237 19.4876 173.196 19.5687 173.155 19.6296C172.689 20.4207 172.466 21.3334 172.466 22.3274C172.466 23.8081 172.973 25.086 174.007 26.1204C175.042 27.1549 176.279 27.662 177.74 27.662C179.017 27.662 180.275 27.2563 181.147 26.4044V27.3983H183.257V17.2564H181.147V18.23ZM180.194 24.7411C179.565 25.3699 178.774 25.6742 177.841 25.6742C176.908 25.6742 176.117 25.3699 175.488 24.7411C174.859 24.0921 174.555 23.301 174.555 22.3476C174.555 21.3943 174.859 20.6032 175.488 19.9744C176.117 19.3253 176.908 19.0211 177.841 19.0211C178.774 19.0211 179.565 19.3253 180.194 19.9744C180.823 20.6032 181.127 21.3943 181.127 22.3476C181.127 23.301 180.823 24.0921 180.194 24.7411Z" fill="#0B0B0B"/>
<path d="M88.6047 12.0675C88.2104 12.6053 87.9432 13.4726 87.9432 14.7103V16.3068C87.9432 16.8255 88.1197 17.3287 88.4437 17.7337L89.9978 19.6764C90.0727 19.6651 90.1493 19.6592 90.2273 19.6592C91.0683 19.6592 91.75 20.341 91.75 21.1819C91.75 22.0229 91.0683 22.7047 90.2273 22.7047C89.3863 22.7047 88.7045 22.0229 88.7045 21.1819C88.7045 20.9863 88.7414 20.7993 88.8087 20.6274L87.2546 18.6849C86.7146 18.0099 86.4205 17.1712 86.4205 16.3068V14.7103C86.4205 13.2833 86.7243 12.0569 87.3768 11.1671C88.0515 10.247 89.0466 9.76147 90.2273 9.76147C92.1372 9.76147 93.7719 10.9331 94.4546 12.5956C96.1919 13.1059 97.4602 14.711 97.4602 16.6137C97.4602 16.9983 97.4523 17.409 97.3394 17.8177C98.5434 18.4568 99.3636 19.723 99.3636 21.1819C99.3636 22.6409 98.5433 23.9071 97.3393 24.5462C97.4522 24.9549 97.4601 25.3655 97.4601 25.75C97.4601 27.6527 96.1917 29.2578 94.4545 29.7682C93.7717 31.4306 92.1371 32.6022 90.2272 32.6022C89.7298 32.6022 89.2496 32.5225 88.7995 32.3745L89.2751 30.9279C89.5736 31.0261 89.8934 31.0795 90.2272 31.0795C91.6052 31.0795 92.7713 30.1636 93.1463 28.9057L93.2804 28.4557L93.7427 28.3735C94.9902 28.1519 95.9374 27.0608 95.9374 25.75C95.9374 25.0881 95.8861 24.846 95.702 24.6223C95.4505 24.3167 95.1114 24.2022 94.7434 24.2415C94.3577 24.2826 93.9563 24.4962 93.6826 24.8384L92.7879 25.9568C92.8551 26.1287 92.892 26.3158 92.892 26.5115C92.892 27.3525 92.2103 28.0342 91.3693 28.0342C90.5283 28.0342 89.8466 27.3525 89.8466 26.5115C89.8466 25.6705 90.5283 24.9887 91.3693 24.9887C91.4472 24.9887 91.5238 24.9946 91.5985 25.0059L92.4936 23.8871C93.014 23.2366 93.7813 22.8128 94.5818 22.7273C95.2387 22.6573 95.9255 22.8173 96.488 23.2685C97.2855 22.912 97.8409 22.1111 97.8409 21.1819C97.8409 20.2527 97.2855 19.4518 96.4879 19.0954C95.9254 19.5465 95.2387 19.7065 94.5818 19.6364C93.7813 19.5509 93.0141 19.1271 92.4937 18.4766L91.5987 17.3579C91.5239 17.3692 91.4473 17.3751 91.3693 17.3751C90.5283 17.3751 89.8466 16.6934 89.8466 15.8524C89.8466 15.0114 90.5283 14.3297 91.3693 14.3297C92.2103 14.3297 92.892 15.0114 92.892 15.8524C92.892 16.048 92.8551 16.2351 92.7879 16.4069L93.6827 17.5254C93.9564 17.8675 94.3578 18.0811 94.7435 18.1222C95.1115 18.1615 95.4506 18.0471 95.7021 17.7415C95.8862 17.5178 95.9375 17.2757 95.9375 16.6137C95.9375 15.3029 94.9903 14.2118 93.7429 13.9902L93.2805 13.908L93.1464 13.458C92.7715 12.2001 91.6053 11.2842 90.2273 11.2842C89.5046 11.2842 88.9769 11.56 88.6047 12.0675Z" fill="#0B0B0B"/>
<path d="M81.5757 25.957C81.5085 26.1288 81.4716 26.3158 81.4716 26.5115C81.4716 27.3525 82.1533 28.0342 82.9943 28.0342C83.8353 28.0342 84.517 27.3525 84.517 26.5115C84.517 25.6705 83.8353 24.9887 82.9943 24.9887C82.9163 24.9887 82.8397 24.9946 82.7649 25.0059L81.87 23.8873C81.3496 23.2368 80.5824 22.813 79.7818 22.7275C79.125 22.6574 78.4382 22.8173 77.8757 23.2685C77.0781 22.912 76.5227 22.1111 76.5227 21.1819C76.5227 20.2527 77.0781 19.4519 77.8757 19.0954C78.4381 19.5466 79.1249 19.7066 79.7818 19.6365C80.5824 19.5511 81.3497 19.1273 81.8701 18.4767L82.7651 17.358C82.8399 17.3693 82.9164 17.3751 82.9943 17.3751C83.8353 17.3751 84.517 16.6934 84.517 15.8524C84.517 15.0114 83.8353 14.3297 82.9943 14.3297C82.1533 14.3297 81.4716 15.0114 81.4716 15.8524C81.4716 16.0481 81.5085 16.2352 81.5758 16.4071L80.681 17.5255C80.4073 17.8676 80.0059 18.0812 79.6202 18.1224C79.2522 18.1616 78.9131 18.0472 78.6616 17.7416C78.4776 17.5179 78.4263 17.2758 78.4263 16.6139C78.4263 15.3031 79.3735 14.2119 80.6209 13.9903L81.0833 13.9082L81.2174 13.4582C81.5923 12.2002 82.7584 11.2843 84.1365 11.2843C84.4702 11.2843 84.79 11.3378 85.0886 11.4359L85.5641 9.98935C85.114 9.84137 84.6338 9.76162 84.1365 9.76162C82.2265 9.76162 80.5919 10.9333 79.9092 12.5957C78.1719 13.106 76.9035 14.7112 76.9035 16.6139C76.9035 16.9983 76.9114 17.409 77.0243 17.8176C75.8203 18.4568 75 19.7229 75 21.1819C75 22.6409 75.8203 23.907 77.0242 24.5462C76.9113 24.9549 76.9034 25.3656 76.9034 25.7501C76.9034 27.6528 78.1718 29.258 79.909 29.7683C80.5918 31.4307 82.2264 32.6024 84.1364 32.6024C85.3171 32.6024 86.3122 32.1168 86.9868 31.1968C87.6394 30.307 87.9432 29.0805 87.9432 27.6535V26.057C87.9432 25.1926 87.649 24.3539 87.109 23.6789L85.555 21.7364C85.6222 21.5646 85.6591 21.3776 85.6591 21.1819C85.6591 20.341 84.9773 19.6592 84.1364 19.6592C83.2954 19.6592 82.6136 20.341 82.6136 21.1819C82.6136 22.0229 83.2954 22.7047 84.1364 22.7047C84.2143 22.7047 84.291 22.6988 84.3658 22.6875L85.9199 24.6302C86.2439 25.0352 86.4205 25.5384 86.4205 26.057V27.6535C86.4205 28.8913 86.1532 29.7586 85.7589 30.2963C85.3867 30.8039 84.8591 31.0797 84.1364 31.0797C82.7583 31.0797 81.5922 30.1638 81.2173 28.9058L81.0831 28.4558L80.6208 28.3737C79.3734 28.1521 78.4261 27.0609 78.4261 25.7501C78.4261 25.0881 78.4775 24.8461 78.6616 24.6224C78.9131 24.3168 79.2522 24.2023 79.6202 24.2416C80.0058 24.2828 80.4072 24.4964 80.6809 24.8385L81.5757 25.957Z" fill="#0B0B0B"/>
</g>
<defs>
<clipPath id="clip0_258_3277">
<rect width="283" height="44" fill="white"/>
</clipPath>
</defs>
</svg>
