<svg width="283" height="74" viewBox="0 0 283 74" fill="none" xmlns="http://www.w3.org/2000/svg">
<path d="M95.8563 45.4353C93.5708 45.7426 91.2854 46.0755 89 46.4212C89.3702 46.8479 89.6113 47.3666 89.6961 47.9193C90.3135 51.7606 90.9177 55.5251 91.535 59.328C91.6277 59.8752 91.5688 60.4367 91.3642 60.9542L94.6347 60.4548C94.2624 60.0309 94.025 59.5102 93.9517 58.9567C93.3738 55.2178 92.809 51.4917 92.2311 47.7529L94.3195 47.4584C94.9476 47.342 95.5974 47.4274 96.1715 47.7016L95.8563 45.4353ZM113.246 45.8066C113.929 48.1626 114.56 50.5186 115.243 52.8746L112.616 53.0923C112.826 50.6595 113.041 48.2309 113.26 45.8066H113.246ZM189.322 45.2048C188.925 45.1928 188.535 45.0972 188.179 44.9247C187.823 44.7521 187.51 44.5067 187.261 44.2051C187.011 43.9036 186.831 43.553 186.734 43.1775C186.636 42.8019 186.623 42.4103 186.695 42.0293L188.928 42.3366C188.429 43.0921 188.718 43.6939 189.506 43.8091C190.294 43.9243 190.741 43.425 190.491 42.5287L192.724 42.8488C192.683 43.2335 192.558 43.6052 192.357 43.9384C192.156 44.2717 191.883 44.5587 191.558 44.7799C191.232 45.0011 190.862 45.1513 190.471 45.2202C190.081 45.2891 189.68 45.2751 189.296 45.1792L189.322 45.2048ZM126.749 42.7207C124.437 42.8232 122.139 42.9384 119.84 43.0793C120.165 43.5372 120.356 44.0728 120.392 44.6286C120.641 48.4699 120.878 52.3112 121.14 56.1525C121.186 56.7137 121.073 57.2764 120.812 57.7787L124.109 57.5866C123.777 57.1331 123.589 56.5942 123.57 56.0373C123.347 52.2728 123.137 48.4955 122.927 44.731L125.028 44.6286C125.66 44.5684 126.296 44.7076 126.841 45.0255C126.841 44.2701 126.841 43.5018 126.749 42.7463V42.7207ZM158.351 54.5136C158.143 54.8527 157.851 55.1358 157.503 55.3371C157.154 55.5384 156.759 55.6514 156.354 55.666C154.423 55.5763 153.832 52.7594 153.937 50.0192C154.043 47.023 154.988 44.4493 156.775 44.539C157.204 44.5881 157.615 44.74 157.97 44.9813C158.326 45.2226 158.614 45.5456 158.81 45.9218L159.086 43.361C158.434 42.8626 157.641 42.572 156.814 42.5287C153.596 42.3878 151.455 45.4609 151.324 50.0833C151.192 54.3087 152.637 57.4074 155.711 57.5354C156.652 57.5943 157.585 57.3216 158.338 56.7672V54.5136H158.351ZM164.025 44.7438C164.065 44.1889 164.266 43.6563 164.603 43.2073C163.46 43.1177 162.304 43.0536 161.161 42.9896C161.423 43.4826 161.541 44.0363 161.503 44.5902L160.794 56.1141C160.765 56.6673 160.583 57.2026 160.268 57.6635L163.552 57.8683C163.291 57.3754 163.177 56.8208 163.224 56.2678L163.578 51.146H164.09C165.076 51.2357 165.483 51.6838 165.706 52.7466C165.929 53.8093 166.021 55.2178 166.192 56.255C166.298 56.8809 166.483 57.4917 166.744 58.0732L169.541 58.3037C169.173 57.754 168.915 57.1415 168.78 56.4983C168.583 55.602 168.399 53.7709 168.123 52.3112C168.06 51.7258 167.823 51.1711 167.44 50.7159C167.057 50.2607 166.545 49.925 165.969 49.7503C167.028 48.2138 168.114 46.6816 169.226 45.1536C169.602 44.5817 170.089 44.086 170.658 43.6939C169.463 43.5914 168.267 43.489 167.059 43.4122C167.059 43.4122 167.624 43.9115 166.941 44.9743C165.995 46.4468 165.062 47.9193 164.143 49.4046H163.71L164.025 44.8079V44.7438ZM116.254 56.4983C116.439 57.0079 116.439 57.5636 116.254 58.0732L119.59 57.7787C119.165 57.3659 118.873 56.8407 118.75 56.2678C117.725 52.4265 116.666 48.5851 115.571 44.7438C115.389 44.2823 115.389 43.7713 115.571 43.3097C114.126 43.4122 112.695 43.5274 111.25 43.6555C111.523 44.0784 111.617 44.5877 111.513 45.0767C111.132 48.6364 110.777 52.1832 110.449 55.7428C110.411 56.7161 110.179 57.6728 109.766 58.5598L112.629 58.3037C112.387 57.4189 112.329 56.4961 112.458 55.5892C112.458 55.3331 112.458 55.077 112.458 54.8209L115.729 54.552L116.254 56.4983ZM149.419 44.0908C149.43 43.5305 149.603 42.9847 149.918 42.5159H146.477C146.751 43.002 146.891 43.549 146.884 44.1036L146.792 48.6236C145.597 48.6236 144.389 48.6236 143.18 48.6236C143.18 47.087 143.18 45.5633 143.18 44.0396C143.181 43.4617 143.354 42.8966 143.679 42.4134H140.225C140.524 42.8872 140.683 43.4321 140.685 43.9884C140.685 47.8297 140.685 51.671 140.685 55.5123C140.689 56.0774 140.53 56.6323 140.225 57.1129H143.522C143.221 56.6362 143.071 56.0843 143.088 55.5251C143.088 53.8093 143.088 52.0808 143.088 50.4034C144.284 50.4034 145.492 50.4034 146.687 50.4034C146.687 52.1192 146.687 53.8478 146.595 55.5251C146.599 56.0803 146.444 56.6256 146.149 57.1001L149.445 57.1641C149.154 56.6849 149.012 56.133 149.038 55.5763C149.13 51.735 149.222 47.8937 149.327 44.0524L149.419 44.0908ZM102.45 50.6338C101.996 52.1071 101.623 53.6031 101.333 55.1154C101.333 53.4636 100.992 50.5186 100.742 48.5723L100.467 46.4468C100.388 45.8968 100.475 45.3366 100.716 44.8335L97.2748 45.256C97.655 45.6801 97.8932 46.2072 97.9578 46.7669C98.47 50.6082 98.9954 54.4496 99.5077 58.2141C99.5773 58.7628 99.4957 59.3197 99.2713 59.8274L101.504 59.5457C101.875 58.8153 102.174 58.0521 102.397 57.2665C102.791 55.9861 103.172 54.616 103.566 53.2972C104.003 51.8221 104.363 50.3263 104.643 48.8156H104.762C104.762 50.4674 105.064 53.4124 105.287 55.3715C105.366 56.0757 105.458 56.78 105.536 57.497C105.585 58.0335 105.485 58.5728 105.247 59.0591L108.531 58.7134C108.18 58.2737 107.965 57.7448 107.914 57.1897C107.502 53.3655 107.091 49.5241 106.679 45.6657C106.626 45.107 106.731 44.5448 106.981 44.0396L104.643 44.2829C104.233 45.0259 103.899 45.8065 103.645 46.6133C103.238 47.8937 102.844 49.1741 102.45 50.5442V50.6338ZM132.804 48.4827C132.214 49.9097 131.705 51.3674 131.28 52.849C131.412 51.1972 131.359 48.2394 131.28 46.2804L131.201 44.142C131.175 43.587 131.312 43.0362 131.595 42.5543C130.453 42.5543 129.297 42.6183 128.154 42.6695C128.484 43.1281 128.667 43.6717 128.68 44.2317C128.837 48.073 128.982 51.9143 129.139 55.7556C129.155 56.3096 129.019 56.8575 128.745 57.3434L131.031 57.2793C131.465 56.5814 131.839 55.8489 132.147 55.0898C132.646 53.8093 133.159 52.5289 133.684 51.2485C134.209 49.968 134.813 48.265 135.234 46.8694H135.313C135.155 48.5211 135.168 51.4789 135.208 53.4508V55.5763C135.234 56.1314 135.097 56.6822 134.813 57.1641H138.11C137.781 56.6869 137.603 56.1259 137.598 55.5507C137.598 51.7094 137.506 47.8681 137.454 44.0268C137.452 43.4563 137.616 42.8969 137.926 42.4134H135.575C135.088 43.1097 134.683 43.857 134.367 44.6414L132.804 48.4827ZM187.68 51.5814C186.844 52.8887 186.089 54.2442 185.421 55.6404C185.815 54.0398 186.288 51.1076 186.564 49.1613C186.656 48.4571 186.761 47.7529 186.866 47.0486C186.93 46.4975 187.158 45.9767 187.523 45.5505L184.094 45.0895C184.349 45.593 184.441 46.1602 184.357 46.7157L182.82 58.1628C182.751 58.7141 182.528 59.2364 182.177 59.6738L184.41 59.9683C184.956 59.3475 185.448 58.6837 185.881 57.9836C186.603 56.7928 187.326 55.6148 188.061 54.4368C188.889 53.1226 189.648 51.7678 190.333 50.3778H190.412C189.979 51.9783 189.48 54.8977 189.178 56.78C189.072 57.4842 188.967 58.1884 188.849 58.8927C188.778 59.442 188.55 59.9609 188.192 60.3908C189.243 60.5317 190.294 60.6981 191.345 60.8646C191.202 60.3383 191.175 59.7884 191.266 59.2512C191.888 55.4526 192.501 51.6497 193.105 47.8425C193.195 47.3051 193.396 46.7912 193.696 46.3316L191.45 46.0883C190.845 46.6955 190.316 47.3703 189.874 48.0986C189.125 49.251 188.389 50.4162 187.68 51.5814ZM175.859 50.1601C175.076 51.4949 174.37 52.8714 173.744 54.2831C174.086 52.6569 174.441 49.7247 174.651 47.7657C174.651 47.0486 174.795 46.3444 174.861 45.6401C174.912 45.0872 175.122 44.5593 175.465 44.1164L172.024 43.7835C172.299 44.2764 172.413 44.8391 172.352 45.3969L171.249 56.9208C171.192 57.4764 170.983 58.007 170.645 58.4573L172.891 58.6622C173.416 58.0255 173.882 57.3441 174.283 56.6263C174.953 55.4227 175.596 54.2191 176.332 53.0155C177.067 51.8119 177.856 50.1985 178.46 48.8668H178.525C178.158 50.4802 177.764 53.4252 177.54 55.3715C177.462 56.0757 177.383 56.78 177.291 57.497C177.248 58.0658 177.033 58.6095 176.673 59.0591C177.777 59.1872 178.867 59.3024 179.957 59.4433C179.71 58.9239 179.623 58.3454 179.708 57.7787L181.126 46.2547C181.194 45.7008 181.422 45.177 181.783 44.7438L179.445 44.4749C178.867 45.0994 178.364 45.7869 177.947 46.5236C177.251 47.7144 176.634 48.9053 175.885 50.0961L175.859 50.1601Z" fill="#1D1D1F"/>
<path d="M146.122 28.4181C157.353 28.4181 166.993 30.3003 173.771 33.0789C173.074 25.0071 169.237 17.5005 163.047 12.0964C156.858 6.69236 148.783 3.79968 140.476 4.01079C132.17 4.22191 124.261 7.52083 118.368 13.232C112.475 18.9432 109.046 26.6344 108.781 34.7306C120.736 30.4509 133.387 28.3124 146.122 28.4181Z" fill="#1D1D1F"/>
<path d="M146.122 28.4181C154.362 28.3195 162.567 29.4862 170.434 31.8753C162.554 19.788 149.419 10.4023 149.419 10.4023C151.61 13.3714 152.836 16.9131 152.939 20.569C151.269 20.6019 149.635 21.0421 148.184 21.8495C148.861 20.7427 149.644 19.7009 150.522 18.738C147.186 19.5703 142.037 22.7074 138.885 25.4859C139.197 24.0783 139.891 22.7782 140.895 21.7214C140.895 21.7214 138.268 22.272 131.149 27.0865C131.149 27.0865 132.62 25.5884 134.774 23.4884C132.37 22.0173 129.817 20.7902 127.156 19.8264C128.089 21.1607 128.625 22.7206 128.706 24.3335C126.907 25.0227 125.208 25.9351 123.649 27.0481C123.649 27.0481 124.398 25.5628 124.884 24.7177C122.686 25.4358 120.569 26.3712 118.566 27.509L111.67 33.7064C122.784 30.1335 134.42 28.3475 146.122 28.4181Z" fill="#444444"/>
<path d="M118.566 27.509C120.566 26.3701 122.684 25.4388 124.884 24.7305C124.398 25.5628 123.649 27.0481 123.649 27.0481C125.21 25.9207 126.914 24.9953 128.719 24.2951C128.638 22.6822 128.102 21.1223 127.169 19.788L118.566 27.4706V27.509ZM131.162 27.0481C131.162 27.0481 145.072 13.0657 149.419 10.4023C151.61 13.3714 152.836 16.9131 152.939 20.569C151.269 20.6019 149.635 21.0421 148.184 21.8495C148.858 20.7404 149.641 19.6983 150.522 18.738C147.186 19.5703 142.037 22.7074 138.885 25.4859C139.189 24.0793 139.885 22.7814 140.895 21.7342C140.895 21.7342 138.268 22.272 131.149 27.0865L131.162 27.0481Z" fill="white"/>
<path d="M156.105 32.1697C161.004 32.0673 171.131 34.2056 180.837 37.0482C175.018 32.2338 162.186 28.3796 146.122 28.3796C127.484 28.3796 112.038 32.7203 103.343 37.0482C114.791 34.9076 126.415 33.789 138.071 33.7063C147.138 33.6591 156.187 34.5172 165.075 36.2672C162.449 33.4886 156.105 32.1697 156.105 32.1697Z" fill="#1D1D1F"/>
<path d="M113.969 63.3345H115.072L117.213 65.9466L119.249 63.3345H120.286V68.9172H119.196V64.8838L117.213 67.3551H117.055L115.072 64.9094V68.9172H113.969V63.3345Z" fill="#1D1D1F"/>
<path d="M125.238 68.086C124.968 68.0945 124.699 68.0503 124.447 67.9558C124.195 67.8614 123.965 67.7186 123.77 67.536C123.575 67.3534 123.42 67.1346 123.314 66.8926C123.207 66.6506 123.151 66.3902 123.15 66.1269C123.15 65.5869 123.37 65.0691 123.761 64.6873C124.153 64.3055 124.684 64.091 125.238 64.091C125.792 64.091 126.323 64.3055 126.715 64.6873C127.107 65.0691 127.327 65.5869 127.327 66.1269C127.337 66.3934 127.289 66.659 127.186 66.9062C127.084 67.1535 126.929 67.3769 126.732 67.5618C126.535 67.7467 126.3 67.889 126.042 67.9793C125.785 68.0696 125.511 68.106 125.238 68.086ZM125.238 63.2587C124.822 63.2118 124.401 63.2511 124.002 63.3741C123.603 63.4972 123.235 63.7011 122.922 63.9726C122.61 64.2441 122.359 64.5769 122.188 64.9493C122.017 65.3217 121.928 65.7252 121.928 66.1333C121.928 66.5414 122.017 66.9449 122.188 67.3173C122.359 67.6897 122.61 68.0225 122.922 68.294C123.235 68.5655 123.603 68.7694 124.002 68.8925C124.401 69.0155 124.822 69.0548 125.238 69.0079C125.648 69.0375 126.061 68.9855 126.45 68.855C126.839 68.7245 127.196 68.5182 127.501 68.2488C127.806 67.9793 128.051 67.6522 128.222 67.2875C128.393 66.9227 128.486 66.5278 128.496 66.1269C128.49 65.7253 128.399 65.3292 128.229 64.9633C128.06 64.5974 127.814 64.2695 127.508 64.0003C127.203 63.7311 126.843 63.5263 126.453 63.3987C126.062 63.2711 125.649 63.2234 125.238 63.2587Z" fill="#1D1D1F"/>
<path d="M133.657 64.2575H131.871L131.74 65.3075C131.372 68.547 130.558 69.072 129.336 68.9183V67.9452C129.809 67.9452 130.453 67.8171 130.728 64.4624L130.82 63.3484H134.761V68.9183H133.657V64.2575Z" fill="#1D1D1F"/>
<path d="M136.508 68.0219L137.112 67.3689C137.501 67.7693 138.031 68.0117 138.596 68.0475C139.2 68.0475 139.752 67.7914 139.752 67.228C139.752 66.6646 139.371 66.4854 138.649 66.4854H137.992V65.5763H138.609C138.718 65.5869 138.828 65.5763 138.932 65.5453C139.037 65.5143 139.134 65.4634 139.218 65.3955C139.303 65.3276 139.372 65.2442 139.423 65.1499C139.474 65.0557 139.506 64.9525 139.516 64.8464C139.516 64.3599 139.108 64.1294 138.596 64.1294C138.343 64.1164 138.091 64.1646 137.862 64.2696C137.633 64.3746 137.434 64.5331 137.283 64.7312L136.692 64.1806C136.945 63.9032 137.257 63.6828 137.606 63.5346C137.955 63.3865 138.334 63.3142 138.714 63.3227C139.818 63.3227 140.593 63.8605 140.593 64.8464C140.593 65.1159 140.514 65.3797 140.365 65.6067C140.216 65.8336 140.003 66.0142 139.752 66.1269C140.06 66.1787 140.34 66.3362 140.54 66.5709C140.739 66.8057 140.847 67.1023 140.842 67.4073C140.842 68.4317 139.791 69.0591 138.649 69.0591C138.233 69.0636 137.822 68.972 137.45 68.7917C137.078 68.6114 136.755 68.3476 136.508 68.0219Z" fill="#1D1D1F"/>
<path d="M144.165 66.5751L145.085 64.5904L146.004 66.5751H144.165ZM145.479 63.3228H144.52L141.893 68.9183H143.009L143.653 67.497H146.28L146.937 68.9183H148.106L145.479 63.3228Z" fill="#1D1D1F"/>
<path d="M151.376 68.0218C151.061 68.0218 150.798 68.0218 150.654 68.0218V66.5237H151.429C152.112 66.5237 152.519 66.7542 152.519 67.228C152.519 67.7017 152.112 68.0346 151.376 68.0346V68.0218ZM150.654 64.2445H151.337C151.928 64.2445 152.322 64.4878 152.322 64.936C152.322 65.3841 151.901 65.6786 151.389 65.6786H150.654V64.2701V64.2445ZM152.519 65.9603C152.791 65.8712 153.025 65.6978 153.186 65.4666C153.348 65.2354 153.427 64.9591 153.412 64.6799C153.412 63.9116 152.847 63.3098 151.35 63.3098C150.732 63.3098 149.905 63.3098 149.55 63.3098V68.8541C149.918 68.8541 150.719 68.8541 151.297 68.8541C152.611 68.8541 153.609 68.3291 153.609 67.1895C153.613 66.8845 153.506 66.5879 153.306 66.3532C153.106 66.1184 152.827 65.9609 152.519 65.9091V65.9603Z" fill="#1D1D1F"/>
<path d="M158.285 68.0859C158.015 68.0945 157.746 68.0502 157.494 67.9558C157.241 67.8613 157.011 67.7186 156.817 67.536C156.622 67.3534 156.467 67.1346 156.36 66.8926C156.254 66.6506 156.198 66.3902 156.196 66.1269C156.238 65.6131 156.477 65.1336 156.865 64.7839C157.254 64.4342 157.763 64.24 158.291 64.24C158.82 64.24 159.329 64.4342 159.717 64.7839C160.106 65.1336 160.345 65.6131 160.386 66.1269C160.394 66.394 160.345 66.6598 160.241 66.9071C160.137 67.1543 159.981 67.3775 159.783 67.5622C159.585 67.7469 159.349 67.889 159.091 67.9792C158.833 68.0694 158.558 68.1058 158.285 68.0859ZM158.285 63.2587C157.712 63.3133 157.168 63.5289 156.719 63.8793C156.27 64.2297 155.935 64.6998 155.755 65.2324C155.575 65.7651 155.557 66.3372 155.704 66.8794C155.851 67.4215 156.157 67.9103 156.584 68.2862C157.011 68.6621 157.541 68.909 158.109 68.9968C158.677 69.0846 159.259 69.0096 159.785 68.7808C160.31 68.5521 160.756 68.1795 161.068 67.7083C161.38 67.2371 161.545 66.6877 161.542 66.1269C161.535 65.7259 161.443 65.3306 161.272 64.9656C161.102 64.6006 160.856 64.2736 160.551 64.0047C160.246 63.7359 159.887 63.531 159.497 63.4027C159.107 63.2743 158.695 63.2253 158.285 63.2587Z" fill="#1D1D1F"/>
<path d="M166.744 68.022H164.117C164.601 67.1748 164.867 66.2257 164.892 65.2562L164.997 64.2831H166.717V68.022H166.744ZM167.807 68.022V63.3484H163.867V64.4624C163.901 65.7103 163.578 66.9429 162.935 68.022H162.265V69.9427H163.289V68.9183H167.65V69.9171H168.687V68.022H167.807Z" fill="#1D1D1F"/>
</svg>
