<svg width="206" height="30" viewBox="0 0 206 30" fill="none" xmlns="http://www.w3.org/2000/svg">
<g style="mix-blend-mode:exclusion">
<path fill-rule="evenodd" clip-rule="evenodd" d="M201.812 5.65499V16.1356H205.025V5.65499C205.025 3.04801 202.897 0.915039 200.312 0.915039H193.453V3.81425H199.977C200.986 3.81425 201.812 4.64959 201.812 5.65499ZM193.903 1.37061H200.311C202.651 1.37061 204.574 3.30281 204.574 5.65506V15.6801H204.575V5.65499C204.575 3.30274 202.652 1.37054 200.312 1.37054H193.903V1.37061Z" fill="white"/>
<path fill-rule="evenodd" clip-rule="evenodd" d="M54.7905 25.2718V14.8169H51.5859V25.2718C51.5859 27.8724 53.7078 30.0001 56.2873 30.0001H60.7901C63.3695 30.0001 65.4914 27.8724 65.4914 25.2718V14.8169H62.2869V25.2718C62.2869 26.2747 61.4626 27.108 60.4565 27.108H56.6209C55.6148 27.108 54.7905 26.2747 54.7905 25.2718ZM60.7664 27.541C60.665 27.5551 60.5616 27.5624 60.4565 27.5624H56.6209C55.3701 27.5624 54.3417 26.5288 54.3417 25.2718V15.2713H52.0347V15.2715H54.3402V25.272C54.3402 26.5291 55.3686 27.5626 56.6193 27.5626H60.455C60.5606 27.5626 60.6645 27.5553 60.7664 27.541ZM62.7357 15.2715H65.0411V25.272C65.0411 27.4189 63.4357 29.215 61.3744 29.5051C63.4365 29.2157 65.0427 27.4192 65.0427 25.2718V15.2713H62.7357V15.2715Z" fill="white"/>
<path fill-rule="evenodd" clip-rule="evenodd" d="M21.9506 25.2718V14.8169H18.7461V25.2718C18.7461 27.8724 20.868 30.0001 23.4475 30.0001H30.2891V27.108H23.781C22.7508 27.108 21.9506 26.2784 21.9506 25.2718ZM21.5018 15.2715V15.2713H19.1949V25.2718C19.1949 26.9561 20.183 28.4246 21.6043 29.1192C20.1833 28.4245 19.1953 26.9562 19.1953 25.272V15.2715H21.5018ZM29.8403 27.5626V27.5624H23.781C23.4203 27.5624 23.0816 27.4801 22.7814 27.3338C23.0817 27.4803 23.4205 27.5626 23.7814 27.5626H29.8403Z" fill="white"/>
<path fill-rule="evenodd" clip-rule="evenodd" d="M121.994 25.2718V14.8169H118.789V25.2718C118.789 27.8724 120.911 30.0001 123.49 30.0001H130.332V27.108H123.796C122.797 27.108 121.994 26.282 121.994 25.2718ZM121.545 15.2715V15.2713H119.238V25.2718C119.238 26.9561 120.226 28.4246 121.647 29.1192C120.226 28.4245 119.238 26.9562 119.238 25.272V15.2715H121.545ZM129.883 27.5626V27.5624H123.796C123.446 27.5624 123.115 27.4813 122.82 27.3368C123.115 27.4814 123.446 27.5626 123.797 27.5626H129.883Z" fill="white"/>
<path fill-rule="evenodd" clip-rule="evenodd" d="M135.958 25.2718V14.8169H132.781V25.2718C132.781 27.8724 134.903 30.0001 137.483 30.0001H144.324V27.108H137.788C136.782 27.108 135.958 26.2747 135.958 25.2718ZM136.801 27.3338C137.1 27.4801 137.435 27.5624 137.788 27.5624H143.875V27.5626H137.789C137.436 27.5626 137.1 27.4803 136.801 27.3338ZM135.639 29.1192C134.218 28.4246 133.23 26.9561 133.23 25.2718V15.2713H135.509V15.2715H133.23V25.272C133.23 26.9562 134.218 28.4245 135.639 29.1192Z" fill="white"/>
<path fill-rule="evenodd" clip-rule="evenodd" d="M114.396 14.8169H111.191V30.0001H114.396V14.8169ZM113.947 15.2715V15.2713H111.64V29.5458H111.641V15.2715H113.947Z" fill="white"/>
<path fill-rule="evenodd" clip-rule="evenodd" d="M5.1506 30.0001H14.4103V27.0801H5.48414C4.4781 27.0801 3.65375 26.2468 3.65375 25.2439V19.5452C3.65375 18.5423 4.4781 17.709 5.48414 17.709H9.40319C10.4092 17.709 11.2336 18.5423 11.2336 19.5452V21.4522H14.4103V19.5452C14.4103 16.9167 12.3162 14.8169 9.70893 14.8169H5.1506C2.57303 14.8169 0.449219 16.9148 0.449219 19.5452V25.2718C0.449219 27.8724 2.57111 30.0001 5.1506 30.0001ZM11.6828 20.9978V19.5455C11.6828 18.6431 11.1529 17.8559 10.3912 17.4835C11.1526 17.856 11.6824 18.643 11.6824 19.5452V20.9978H11.6828ZM9.70893 15.2713C10.3804 15.2713 11.0137 15.4247 11.5763 15.6989C11.0138 15.4248 10.3807 15.2715 9.70937 15.2715H5.15103C2.81627 15.2715 0.898438 17.171 0.898438 19.5455V25.272C0.898438 26.9562 1.8864 28.4245 3.30739 29.1192C1.88617 28.4246 0.898005 26.9561 0.898005 25.2718V19.5452C0.898005 17.1708 2.81584 15.2713 5.1506 15.2713H9.70893ZM13.9615 27.5345V27.5347H5.48457C5.13148 27.5347 4.79612 27.4523 4.49661 27.3058C4.79601 27.4522 5.13122 27.5345 5.48414 27.5345H13.9615Z" fill="white"/>
<path fill-rule="evenodd" clip-rule="evenodd" d="M41.9864 17.7017H38.0245C37.6247 17.7017 37.5568 17.7031 37.5182 17.7056C36.5379 17.768 35.7566 18.5591 35.6949 19.5516C35.6925 19.5907 35.6911 19.6594 35.6911 20.0642V24.7528C35.6911 25.1576 35.6925 25.2263 35.6949 25.2654C35.7566 26.2579 36.5379 27.049 37.5182 27.1114C37.5568 27.1139 37.6247 27.1153 38.0245 27.1153H41.9864C42.3862 27.1153 42.4541 27.1139 42.4927 27.1114C43.473 27.049 44.2543 26.2579 44.316 25.2654C44.3184 25.2263 44.3198 25.1576 44.3198 24.7528V20.0642C44.3198 19.6594 44.3184 19.5907 44.316 19.5516C44.2543 18.5591 43.473 17.768 42.4927 17.7056C42.4541 17.7031 42.3862 17.7017 41.9864 17.7017ZM32.8513 19.3705C32.8418 19.5228 32.8418 19.7033 32.8418 20.0642V24.7528C32.8418 25.1137 32.8418 25.2942 32.8513 25.4466C33.0031 27.8897 34.9263 29.8368 37.3393 29.9906C37.4898 30.0001 37.6681 30.0001 38.0245 30.0001H41.9864C42.3429 30.0001 42.5211 30.0001 42.6716 29.9906C45.0846 29.8368 47.0079 27.8897 47.1597 25.4466C47.1692 25.2942 47.1692 25.1137 47.1692 24.7528V20.0642C47.1692 19.7033 47.1692 19.5228 47.1597 19.3705C47.0079 16.9274 45.0846 14.9802 42.6716 14.8265C42.5211 14.8169 42.3429 14.8169 41.9864 14.8169H38.0245C37.6681 14.8169 37.4898 14.8169 37.3393 14.8265C34.9263 14.9802 33.0031 16.9274 32.8513 19.3705Z" fill="white"/>
<path fill-rule="evenodd" clip-rule="evenodd" d="M69.8945 14.8211H81.2918C81.2918 14.8211 82.8664 14.6693 84.366 16.1872C85.8656 17.705 85.7157 19.2987 85.7157 19.2987V25.7495C85.7157 25.7495 85.7907 27.1915 84.366 28.6334C82.9413 30.0753 81.5167 29.9995 81.5167 29.9995H71.6191V17.6291H69.8945V14.8211ZM80.332 17.6291H74.8433V27.1915H80.332C80.6663 27.1915 80.8335 27.1915 80.9734 27.169C81.7434 27.0456 82.3473 26.4341 82.4693 25.6545C82.4915 25.5129 82.4915 25.3436 82.4915 25.0051V19.8155C82.4915 19.477 82.4915 19.3077 82.4693 19.1661C82.3473 18.3865 81.7434 17.775 80.9734 17.6515C80.8335 17.6291 80.6663 17.6291 80.332 17.6291Z" fill="white"/>
<g clip-path="url(#clip0_238_1507)">
<path d="M103.736 15.2568C102.677 15.2568 101.827 15.8198 101.453 16.7655L101.449 16.7831C101.449 16.7831 101.449 16.7875 101.445 16.7875L99.9432 21.4058L98.559 25.659C98.5416 25.703 98.5156 25.7382 98.4375 25.7382C98.3594 25.7382 98.3334 25.6986 98.316 25.659L96.9318 21.4058L95.4303 16.7875C95.4303 16.7875 95.4303 16.7831 95.426 16.7831L95.4217 16.7655C95.0441 15.8198 94.1893 15.2568 93.1348 15.2568C91.8981 15.2568 90.5703 16.009 90.5703 17.6584V29.5604H92.8051V17.6584C92.8051 17.3549 92.9005 17.2009 93.0915 17.2009C93.1132 17.2009 93.1305 17.2009 93.1479 17.2053C93.1522 17.2053 93.1522 17.2053 93.1565 17.2053C93.1739 17.2097 93.1869 17.2185 93.1999 17.2273C93.2086 17.2361 93.2173 17.2405 93.226 17.2493C93.239 17.2581 93.2477 17.2757 93.2607 17.2889C93.2737 17.3065 93.2867 17.3285 93.2997 17.3549C93.3084 17.3769 93.3214 17.3989 93.3345 17.4252C93.3388 17.4428 93.3475 17.4604 93.3562 17.4824L93.4516 17.7771L96.5456 27.0577C96.8406 27.7307 97.5913 28.1793 98.4332 28.1793C99.275 28.1793 100.03 27.7307 100.321 27.0577L103.415 17.7771L103.51 17.4824C103.519 17.4604 103.528 17.4428 103.536 17.4252C103.549 17.3989 103.558 17.3769 103.571 17.3549C103.584 17.3285 103.597 17.3065 103.61 17.2889C103.619 17.2757 103.632 17.2581 103.64 17.2493C103.649 17.2405 103.658 17.2317 103.666 17.2273C103.679 17.2185 103.697 17.2097 103.71 17.2053C103.714 17.2053 103.714 17.2053 103.718 17.2053C103.736 17.2009 103.757 17.2009 103.775 17.2009C103.966 17.2009 104.061 17.3549 104.061 17.6584V29.5604H106.296V17.6584C106.3 16.009 104.973 15.2568 103.736 15.2568Z" fill="white"/>
<path d="M106.735 30.0001H103.632V18.5071L100.733 27.194C100.351 28.0692 99.4576 28.6146 98.4335 28.6146C97.4094 28.6146 96.5112 28.0692 96.1467 27.2292L93.2393 18.5071V29.9957H90.1367V17.6583C90.1367 15.7933 91.6468 14.8169 93.1352 14.8169C94.3762 14.8169 95.3786 15.4854 95.8212 16.6026L95.8473 16.6774L98.4378 24.6297L101.054 16.5982C101.506 15.4723 102.504 14.8169 103.736 14.8169C105.225 14.8169 106.735 15.7933 106.735 17.6583V30.0001ZM104.5 29.1205H105.867V17.6583C105.867 16.11 104.526 15.6966 103.736 15.6966C102.851 15.6966 102.165 16.1452 101.857 16.9281V16.9325L98.9672 25.8041C98.8674 26.0548 98.6722 26.1867 98.4378 26.1867C98.2035 26.1867 98.0082 26.0548 97.9171 25.8349L95.0098 16.9061C94.706 16.1452 94.0204 15.6966 93.1352 15.6966C92.3454 15.6966 91.0046 16.11 91.0046 17.6583V29.1205H92.3715V17.6583C92.3715 16.805 92.9703 16.761 93.0918 16.761C93.1352 16.761 93.1786 16.7654 93.2176 16.7698L93.274 16.783C93.3088 16.7874 93.3739 16.8182 93.4389 16.8577L93.5344 16.9369C93.5561 16.9545 93.5865 16.9897 93.6125 17.0293C93.6342 17.0645 93.6602 17.1041 93.6819 17.1524C93.695 17.1832 93.7123 17.214 93.7253 17.2492L93.7557 17.3152L93.8642 17.6407L96.9581 26.9169C97.1664 27.3919 97.7652 27.7394 98.4378 27.7394C99.1061 27.7394 99.7049 27.3919 99.9306 26.8817L103.146 17.2492C103.159 17.2184 103.176 17.1876 103.189 17.1568C103.215 17.1085 103.237 17.0689 103.259 17.0381C103.285 16.9985 103.315 16.9633 103.341 16.9369L103.432 16.8621C103.497 16.8182 103.563 16.7918 103.632 16.7786C103.693 16.7698 103.736 16.7654 103.78 16.7654C103.901 16.7654 104.5 16.8094 104.5 17.6627V29.1205Z" fill="white"/>
</g>
<path d="M144.414 14.5747H146.298C147.718 14.5747 148.792 13.8243 148.792 12.3172C148.792 10.7783 147.718 10.0598 146.298 10.0598H144.414V14.5747ZM146.273 11.1599C146.977 11.1599 147.485 11.5414 147.485 12.3172C147.485 13.0549 146.977 13.4682 146.273 13.4682H145.702V11.1599H146.273Z" fill="white"/>
<path d="M149.68 14.5747H150.967V10.0598H149.68V14.5747Z" fill="white"/>
<path d="M156.415 11.8403H153.941V12.8832H155.172V13.4491C155.077 13.4936 154.82 13.5636 154.437 13.5636C153.576 13.5636 153.155 13.0103 153.155 12.2854C153.155 11.5923 153.564 11.0772 154.198 11.0772C154.644 11.0772 154.864 11.2425 154.958 11.3443H156.321C156.22 10.8292 155.643 9.95801 154.198 9.95801C152.81 9.95801 151.855 10.9182 151.855 12.2854C151.855 13.7289 152.835 14.6637 154.405 14.6637C155.492 14.6637 156.214 14.2313 156.415 14.0596V11.8403Z" fill="white"/>
<path d="M157.414 14.5747H158.702V10.0598H157.414V14.5747Z" fill="white"/>
<path d="M159.514 11.1789H161.128V14.5747H162.41V11.1789H164.024V10.0598H159.514V11.1789Z" fill="white"/>
<path d="M167.674 14.5747H169.063L167.172 10.0598H165.784L163.881 14.5747H165.187L165.445 13.9388H167.417L167.674 14.5747ZM165.884 12.8704L166.431 11.5223L166.977 12.8704H165.884Z" fill="white"/>
<path d="M173.52 13.4428H171.008V10.0598H169.72V14.5747H173.52V13.4428Z" fill="white"/>
<path d="M144.414 20.9337H145.695V19.4838H147.152C148.189 19.4838 148.811 18.9624 148.811 17.9513C148.811 16.9402 148.183 16.4188 147.152 16.4188H144.414V20.9337ZM146.995 17.538C147.328 17.538 147.492 17.6779 147.492 17.9513C147.492 18.212 147.328 18.3646 146.995 18.3646H145.695V17.538H146.995Z" fill="white"/>
<path d="M149.649 20.9337H150.936V19.363H151.948L152.821 20.9337H154.177L153.21 19.2104C153.719 18.9878 154.02 18.5427 154.02 17.9068C154.02 16.9275 153.373 16.4188 152.381 16.4188H149.649V20.9337ZM152.218 17.5189C152.538 17.5189 152.701 17.627 152.701 17.9004C152.701 18.1548 152.538 18.282 152.218 18.282H150.936V17.5189H152.218Z" fill="white"/>
<path d="M157.119 21.01C158.457 21.01 159.512 20.0752 159.512 18.6762C159.512 17.2518 158.457 16.3425 157.119 16.3425C155.781 16.3425 154.726 17.2518 154.726 18.6762C154.726 20.0752 155.768 21.01 157.119 21.01ZM157.119 19.8526C156.441 19.8526 156.032 19.3376 156.032 18.6762C156.032 18.0149 156.447 17.4998 157.119 17.4998C157.797 17.4998 158.205 18.0149 158.205 18.6762C158.205 19.3376 157.797 19.8526 157.119 19.8526Z" fill="white"/>
<path d="M160.382 20.9337H162.267C163.686 20.9337 164.76 20.1833 164.76 18.6762C164.76 17.1373 163.686 16.4188 162.267 16.4188H160.382V20.9337ZM162.241 17.5189C162.945 17.5189 163.454 17.9004 163.454 18.6762C163.454 19.4139 162.945 19.8272 162.241 19.8272H161.67V17.5189H162.241Z" fill="white"/>
<path d="M167.828 19.8654C167.225 19.8654 166.898 19.4584 166.898 18.8416V16.4188H165.604V18.9242C165.604 20.1261 166.345 21.0418 167.828 21.0418C169.266 21.0418 170.032 20.1197 170.032 18.9242V16.4188H168.757V18.8416C168.757 19.4584 168.424 19.8654 167.828 19.8654Z" fill="white"/>
<path d="M173.196 21.01C174.779 21.01 175.256 19.8463 175.331 19.4266H174.031C173.962 19.5347 173.736 19.8463 173.196 19.8463C172.562 19.8463 172.185 19.3185 172.185 18.6762C172.185 18.034 172.562 17.5062 173.196 17.5062C173.723 17.5062 173.956 17.8241 174.025 17.9322H175.331C175.25 17.4235 174.722 16.3425 173.196 16.3425C171.82 16.3425 170.872 17.3218 170.872 18.6762C170.872 20.0307 171.82 21.01 173.196 21.01Z" fill="white"/>
<path d="M175.866 17.538H177.48V20.9337H178.761V17.538H180.375V16.4188H175.866V17.538Z" fill="white"/>
<path d="M181.187 20.9337H182.475V16.4188H181.187V20.9337Z" fill="white"/>
<path d="M185.756 21.01C187.093 21.01 188.149 20.0752 188.149 18.6762C188.149 17.2518 187.093 16.3425 185.756 16.3425C184.418 16.3425 183.363 17.2518 183.363 18.6762C183.363 20.0752 184.405 21.01 185.756 21.01ZM185.756 19.8526C185.077 19.8526 184.669 19.3376 184.669 18.6762C184.669 18.0149 185.084 17.4998 185.756 17.4998C186.434 17.4998 186.842 18.0149 186.842 18.6762C186.842 19.3376 186.434 19.8526 185.756 19.8526Z" fill="white"/>
<path d="M192.43 20.9337H193.51V16.4188H192.279V18.8288L190.457 16.4188H189.019V20.9337H190.282V18.1611L192.43 20.9337Z" fill="white"/>
</g>
<defs>
<clipPath id="clip0_238_1507">
<rect width="16.5979" height="15.1832" fill="white" transform="translate(90.1367 14.8169)"/>
</clipPath>
</defs>
</svg>
