<svg width="283" height="44" viewBox="0 0 283 44" fill="none" xmlns="http://www.w3.org/2000/svg">
<path fill-rule="evenodd" clip-rule="evenodd" d="M84 6.33545H114.281V36.5664H84V6.33545ZM107.909 10.3617C108.171 9.80777 108.698 9.34686 109.394 9.34686C110.307 9.30101 111.121 9.99876 111.191 11.0368C111.191 11.1817 111.119 11.6858 111.07 11.805L107.548 17.5219C107.19 18.1253 107.256 18.5844 107.403 19.0906L112.725 32.6873H90.8888C88.9462 32.6873 87.4322 31.1209 87.4322 29.1658L87.3594 11.1824C87.4328 8.79444 90.7676 8.79319 90.8888 11.1096V28.054C90.8888 28.5877 91.3646 29.1658 91.9412 29.1658H107.957L103.833 19.3291C103.691 19.0155 103.639 18.6752 103.639 18.29C103.639 17.859 103.831 17.2079 104.096 16.6284L107.909 10.3617ZM99.0365 11.1096C99.0365 9.9514 99.892 9.36068 100.749 9.35495C101.605 9.34921 102.465 9.92848 102.465 11.1096V23.3317C102.465 26.1268 100.381 27.9852 97.8182 27.9852C95.3229 27.9852 93.2323 26.1268 93.2323 23.3317V11.1096C93.2323 8.79319 96.6646 8.79319 96.6646 11.1096V23.2347C96.6646 24.8505 99.0365 24.9954 99.0365 23.2347V11.1096Z" fill="#0B0B0B"/>
<path d="M120.21 9.88867V17.8871C120.21 19.8862 120.006 20.9976 118.376 20.9976C118.071 20.9976 117.867 20.9976 117.562 20.8876V24.3301C118.172 24.5539 118.58 24.5539 119.09 24.5539C123.673 24.5539 123.877 21.1095 123.877 19.1085V13.3331H126.525V24.3301H130.189V9.88867H120.21Z" fill="#0B0B0B"/>
<path d="M131.414 9.88867L136.405 20.3319L134.572 24.3301H138.544L144.45 9.88867H140.479L138.34 15.998L135.793 9.88867H131.414Z" fill="#0B0B0B"/>
<path d="M145.574 24.3301H149.241V18.109L153.009 24.3301H157.693L152.5 16.8875L157.592 9.88867H153.212L149.241 15.998V9.88867H145.574V24.3301Z" fill="#0B0B0B"/>
<path d="M163.699 24.7754C168.586 24.7754 170.826 20.9972 170.826 17.109C170.826 13.3326 168.586 9.55444 163.699 9.55444C158.912 9.55444 156.672 13.3326 156.672 17.109C156.672 20.9972 158.912 24.7754 163.699 24.7754ZM163.699 21.331C162.068 21.331 160.439 19.8858 160.439 17.109C160.439 14.3322 162.068 12.9988 163.699 12.9988C165.43 12.9988 167.059 14.3322 167.059 17.109C167.059 19.8858 165.43 21.331 163.699 21.331Z" fill="#0B0B0B"/>
<path d="M172.66 9.88823V24.3297H176.224L181.316 15.6656V24.3297H184.881V9.88823H181.316L176.224 18.5542V9.88823H172.66ZM178.872 9.11058C180.399 9.11058 181.927 8.55486 182.641 6.88769L180.502 6C180.196 7.11145 179.279 7.22149 178.872 7.22149C178.567 7.22149 177.548 7.11145 177.344 6L175.207 6.88769C175.816 8.55486 177.447 9.11058 178.872 9.11058Z" fill="#0B0B0B"/>
<path d="M188.751 9.88867V17.8871C188.751 19.8862 188.545 20.9976 186.917 20.9976C186.612 20.9976 186.408 20.9976 186.102 20.8876V24.3301C186.713 24.5539 187.121 24.5539 187.629 24.5539C192.212 24.5539 192.416 21.1095 192.416 19.1085V13.3331H195.064V24.3301H198.73V9.88867H188.751Z" fill="#0B0B0B"/>
<path d="M117.594 32.4344H118.11V29.7548H121.123V32.4344H121.639V27.1816H121.123V29.333H118.11V27.1816H117.594V32.4344Z" fill="#0B0B0B"/>
<path d="M122.953 32.4344H125.779V32.0126H123.469V29.7035H125.687V29.2817H123.469V27.6053H125.779V27.1816H122.953V32.4344Z" fill="#0B0B0B"/>
<path d="M129.177 32.4346H129.687V31.712H129.902C131.602 31.712 132.306 30.7069 132.306 29.6542C132.306 28.4217 131.393 27.6055 129.902 27.6055H129.687V26.9746H129.177V27.6055H128.969C127.469 27.6055 126.559 28.4217 126.559 29.6542C126.559 30.7069 127.262 31.712 128.969 31.712H129.177V32.4346ZM129.687 28.0274C131.393 28.0494 131.768 28.8454 131.768 29.6542C131.768 30.916 130.929 31.2443 129.687 31.2883V28.0274ZM129.177 31.2883C127.936 31.2443 127.097 30.916 127.097 29.6542C127.097 28.8454 127.469 28.0494 129.177 28.0274V31.2883Z" fill="#0B0B0B"/>
<path d="M134.171 32.4344H134.666V27.6053H136.066V27.1816H132.773V27.6053H134.171V32.4344Z" fill="#0B0B0B"/>
<path d="M136.68 32.4344H137.26L138.659 30.1272H139.103V32.4344H139.621V27.1816H138.407C136.815 27.1816 136.586 28.2362 136.586 28.7021C136.586 29.5898 137.282 30.1272 138.101 30.0978L136.68 32.4344ZM139.103 29.7035H138.358C137.935 29.7035 137.096 29.654 137.096 28.6507C137.096 27.6768 137.985 27.6053 138.407 27.6053H139.103V29.7035Z" fill="#0B0B0B"/>
<path d="M140.938 32.4344H141.454V29.7548H144.467V32.4344H144.983V27.1816H144.467V29.333H141.454V27.1816H140.938V32.4344Z" fill="#0B0B0B"/>
<path d="M145.73 32.4349H146.248L146.972 30.7292H149.188L149.913 32.4349H150.429L148.07 27.0464L145.73 32.4349ZM147.159 30.3147L148.07 28.1652L149.002 30.3147H147.159Z" fill="#0B0B0B"/>
<path d="M151.035 32.4344H151.615L153.014 30.1272H153.459V32.4344H153.975V27.1816H152.763C151.171 27.1816 150.941 28.2362 150.941 28.7021C150.941 29.5898 151.637 30.1272 152.454 30.0978L151.035 32.4344ZM153.459 29.7035H152.713C152.289 29.7035 151.45 29.654 151.45 28.6507C151.45 27.6768 152.341 27.6053 152.763 27.6053H153.459V29.7035Z" fill="#0B0B0B"/>
<path d="M157.031 32.4344H157.547V29.8906L159.907 32.4344H160.58L158.034 29.7255L160.538 27.1816H159.907L157.547 29.632V27.1816H157.031V32.4344Z" fill="#0B0B0B"/>
<path d="M163.912 32.6C165.476 32.6 166.76 31.4757 166.76 29.8195C166.76 28.1652 165.476 27.0464 163.912 27.0464C162.369 27.0464 161.086 28.1652 161.086 29.8195C161.086 31.4757 162.369 32.6 163.912 32.6ZM163.912 32.1561C162.628 32.1561 161.624 31.1951 161.624 29.8195C161.624 28.4439 162.628 27.4627 163.912 27.4627C165.197 27.4627 166.222 28.4439 166.222 29.8195C166.222 31.1951 165.197 32.1561 163.912 32.1561Z" fill="#0B0B0B"/>
<path d="M167.473 32.4346H167.968L168.455 28.5574L170.392 32.6712L172.307 28.5574L172.825 32.4346H173.289L172.566 26.9746L170.392 31.668L168.196 26.9746L167.473 32.4346Z" fill="#0B0B0B"/>
<path d="M174.262 27.1816V32.4344H174.778V27.6053H177.791V32.4344H178.307V27.1816H174.262Z" fill="#0B0B0B"/>
<path d="M179.059 32.4347H179.575L180.298 30.729H182.516L183.24 32.4347H183.756L181.396 27.0461L179.059 32.4347ZM180.485 30.3145L181.396 28.1649L182.329 30.3145H180.485Z" fill="#0B0B0B"/>
<path d="M184.488 32.4344H185.004V29.7548H188.017V32.4344H188.535V27.1816H188.017V29.333H185.004V27.1816H184.488V32.4344Z" fill="#0B0B0B"/>
<path d="M189.844 27.1819V32.6712L193.446 28.2786V32.4346H193.955V26.9746L190.362 31.3379V27.1819H189.844Z" fill="#0B0B0B"/>
<path d="M195.113 32.4344H195.693L197.092 30.1272H197.537V32.4344H198.055V27.1816H196.843C195.249 27.1816 195.02 28.2362 195.02 28.7021C195.02 29.5898 195.715 30.1272 196.534 30.0978L195.113 32.4344ZM197.537 29.7035H196.791C196.369 29.7035 195.53 29.654 195.53 28.6507C195.53 27.6768 196.419 27.6053 196.843 27.6053H197.537V29.7035Z" fill="#0B0B0B"/>
</svg>
