<svg width="283" height="44" viewBox="0 0 283 44" fill="none" xmlns="http://www.w3.org/2000/svg">
<g clip-path="url(#clip0_257_2484)">
<path d="M146.28 29.7084V14.9529H156.506V18.3772H150.541V29.7084H146.28Z" fill="#0B0B0B"/>
<path d="M169.367 29.7084V23.9294H163.032V29.7084H158.771V14.9529H163.032V20.4586H169.367V14.9529H173.628V29.7084H169.367Z" fill="#0B0B0B"/>
<path d="M198.367 29.7084V18.3772H193.385V14.9529H207.63V18.3772H202.629V29.7084H198.367Z" fill="#0B0B0B"/>
<path d="M187.114 29.7084V21.2958L180.326 29.7084H176.76V14.9529H181.028V23.2724L187.694 14.9529H191.375V29.7084H187.114Z" fill="#0B0B0B"/>
<path d="M121.782 29.7084V20.9353L117.528 25.5689L113.273 20.9353V29.7084H109.011V14.9529H113.215L117.528 20.0283L121.84 14.9529H126.044V29.7084H121.782Z" fill="#0B0B0B"/>
<path d="M134.14 24.5166H138.101L136.117 19.8655L134.14 24.5166ZM140.321 29.7084L139.434 27.6386H132.8L131.92 29.7084H127.626L134.21 14.9529H138.152L144.704 29.7084H140.321Z" fill="#0B0B0B"/>
<path d="M76 17.9486C76 16.1575 76.7654 14.471 78.1624 13.1975C79.5593 11.9239 81.4092 11.2261 83.3738 11.2261H100.405V14.6455H83.3738C82.4107 14.6455 81.5048 14.9886 80.816 15.6167C80.1271 16.2447 79.7507 17.0763 79.7507 17.9544L79.7252 23.6942C79.553 25.2178 78.29 26.4448 76.6634 26.6716L76 26.7588V17.9486Z" fill="#0B0B0B"/>
<path d="M76 33.4349V30.0154H93.0312C93.9944 30.0154 94.9066 29.6665 95.5891 29.0443C96.278 28.4162 96.6544 27.5905 96.6544 26.7123L96.6608 21.2692C96.6608 19.6467 97.9875 18.2394 99.7417 17.9952L100.405 17.9021V26.7123C100.405 28.5035 99.6332 30.1899 98.2427 31.4635C96.8457 32.7371 94.9959 33.4349 93.0312 33.4349H76Z" fill="#0B0B0B"/>
<path d="M90.4224 26.7706V22.3567L88.2026 24.7701L85.9827 22.3567V26.7706H83.0421V18.0767H85.8297L88.2026 20.8739L90.5818 18.0767H93.363V26.7706H90.4224Z" fill="#0B0B0B"/>
</g>
<defs>
<clipPath id="clip0_257_2484">
<rect width="132" height="22.5789" fill="white" transform="translate(76 11)"/>
</clipPath>
</defs>
</svg>
