<svg width="283" height="74" viewBox="0 0 283 74" fill="none" xmlns="http://www.w3.org/2000/svg">
<path d="M141.237 27.7376C141.237 28.1356 141.045 28.1356 140.847 28.1356H139.968C139.762 28.1356 139.57 28.1356 139.57 27.7376V20.6339C139.57 20.4306 139.57 20.2388 139.968 20.2388H140.97C141.055 20.2438 141.137 20.2711 141.208 20.3179C141.279 20.3646 141.336 20.4292 141.374 20.5051L142.594 22.9445C142.625 23.0247 142.674 23.1364 142.731 23.1364C142.789 23.1364 142.82 23.0133 142.857 22.956L144.071 20.5423C144.106 20.455 144.165 20.3798 144.242 20.3259C144.319 20.2719 144.41 20.2417 144.504 20.2388H145.449C145.847 20.2388 145.847 20.4306 145.847 20.6339V27.7376C145.847 28.1356 145.655 28.1356 145.449 28.1356H144.567C144.177 28.1356 144.177 27.9409 144.177 27.7376V23.7291C144.177 23.6833 144.177 23.6604 144.129 23.6604C144.08 23.6604 144.106 23.6604 144.094 23.6833L143.218 25.8049C143.169 25.9309 143.095 26.0913 142.915 26.0913H142.528C142.402 26.0913 142.302 25.9911 142.225 25.8049L141.32 23.5802C141.32 23.5372 141.237 23.5601 141.237 23.5945V27.7376Z" fill="#0B0B0B"/>
<path d="M147.642 28.1352C147.333 28.1352 147.324 27.9634 147.324 27.8203V22.1796C147.324 21.8733 147.496 21.8618 147.642 21.8618H148.541C148.687 21.8618 148.856 21.8618 148.856 22.1796V23.8375C148.855 23.8542 148.857 23.8711 148.863 23.8868C148.869 23.9026 148.878 23.9168 148.89 23.9286C148.902 23.9403 148.917 23.9493 148.933 23.9548C148.948 23.9604 148.965 23.9623 148.982 23.9606H149.603C149.886 23.9424 150.169 23.9842 150.434 24.0834C150.699 24.1825 150.941 24.3367 151.142 24.5358C151.343 24.7349 151.5 24.9744 151.602 25.2385C151.704 25.5026 151.749 25.7853 151.734 26.0679C151.734 27.1073 151.046 28.1352 149.334 28.1352H147.642ZM148.87 26.6435C148.871 26.6766 148.885 26.7083 148.908 26.7317C148.932 26.7552 148.963 26.7687 148.996 26.7694H149.346C149.445 26.7738 149.544 26.757 149.637 26.7202C149.729 26.6834 149.813 26.6275 149.882 26.5561C149.951 26.4847 150.004 26.3994 150.038 26.3059C150.072 26.2124 150.086 26.1127 150.079 26.0135C150.083 25.915 150.068 25.8165 150.033 25.7241C149.998 25.6318 149.945 25.5476 149.876 25.4768C149.807 25.4059 149.725 25.3499 149.634 25.3122C149.542 25.2745 149.444 25.256 149.346 25.2576H148.996C148.98 25.2559 148.963 25.2579 148.947 25.2634C148.931 25.2689 148.917 25.2779 148.904 25.2896C148.892 25.3014 148.883 25.3157 148.877 25.3314C148.871 25.3471 148.869 25.364 148.87 25.3808V26.6435ZM153.686 27.8203C153.686 28.1209 153.52 28.1352 153.374 28.1352H152.467C152.326 28.1352 152.152 28.1209 152.152 27.8203V22.1796C152.152 21.8733 152.326 21.8618 152.467 21.8618H153.374C153.52 21.8618 153.686 21.8618 153.686 22.1796V27.8203Z" fill="#0B0B0B"/>
<path d="M157.547 27.8203C157.547 28.1209 157.381 28.1352 157.232 28.1352H156.327C156.181 28.1352 156.012 28.1209 156.012 27.8203V23.3278C156.012 23.2047 155.955 23.1932 155.88 23.1932H155.042C154.898 23.1932 154.727 23.1932 154.727 22.8783V22.1796C154.727 21.8733 154.898 21.8618 155.042 21.8618H158.518C158.664 21.8618 158.832 21.8618 158.832 22.1796V22.8783C158.832 23.0243 158.818 23.1932 158.518 23.1932H157.681C157.604 23.1932 157.547 23.1932 157.547 23.3278V27.8203Z" fill="#0B0B0B"/>
<path d="M160.221 28.1352C159.918 28.1352 159.906 27.9634 159.906 27.8203V22.1796C159.906 21.8733 160.081 21.8618 160.221 21.8618H161.08C161.226 21.8618 161.395 21.8618 161.395 22.1796V24.7709C161.395 24.8282 161.395 24.8625 161.438 24.8625C161.456 24.8628 161.473 24.8574 161.488 24.8471C161.502 24.8367 161.513 24.8221 161.518 24.8052L162.535 22.1796C162.658 21.8733 162.821 21.8618 162.953 21.8618H163.846C163.989 21.8618 164.158 21.8618 164.158 22.1796V27.8203C164.158 28.1209 163.989 28.1352 163.846 28.1352H162.987C162.841 28.1352 162.672 28.1209 162.672 27.8203V25.2433C162.672 25.1889 162.652 25.166 162.615 25.166C162.578 25.166 162.549 25.1889 162.54 25.2433L161.524 27.8632C161.424 28.1323 161.278 28.1495 161.14 28.1495L160.221 28.1352Z" fill="#0B0B0B"/>
<path d="M166.834 21.8618C166.98 21.8618 167.152 21.8618 167.152 22.1796V26.7609C167.149 26.7792 167.15 26.798 167.156 26.8157C167.162 26.8333 167.172 26.8494 167.185 26.8625C167.198 26.8757 167.214 26.8855 167.232 26.8912C167.249 26.8969 167.268 26.8984 167.286 26.8954H167.999C168.018 26.8979 168.036 26.8961 168.053 26.8901C168.071 26.8842 168.086 26.8743 168.099 26.8612C168.112 26.8481 168.121 26.8322 168.127 26.8148C168.133 26.7974 168.134 26.7789 168.131 26.7609V22.1796C168.131 21.8733 168.3 21.8618 168.446 21.8618H169.348C169.5 21.8618 169.669 21.8618 169.669 22.1796V26.7294C169.669 26.7866 169.669 26.8983 169.815 26.8983H170.51C170.529 26.9005 170.547 26.8986 170.565 26.8927C170.582 26.8868 170.598 26.877 170.612 26.864C170.625 26.8511 170.635 26.8354 170.641 26.818C170.647 26.8007 170.65 26.7821 170.648 26.7637V22.1825C170.648 21.8761 170.82 21.8647 170.963 21.8647H171.868C172.014 21.8647 172.18 21.8647 172.18 22.1825V26.7294C172.18 26.7866 172.18 26.8983 172.329 26.8983H172.486C172.632 26.8983 172.801 26.8983 172.801 27.2132V29.1316C172.801 29.2777 172.787 29.4466 172.486 29.4466H171.656C171.501 29.4466 171.335 29.4466 171.335 29.1316V28.3156C171.335 28.2354 171.335 28.1352 171.152 28.1352H165.932C165.646 28.1352 165.617 27.9634 165.617 27.8203V22.1796C165.617 21.8733 165.786 21.8618 165.932 21.8618H166.834Z" fill="#0B0B0B"/>
<path d="M174.226 28.1352C173.92 28.1352 173.914 27.9634 173.914 27.8203V22.1796C173.914 21.8733 174.08 21.8618 174.226 21.8618H175.071C175.22 21.8618 175.386 21.8618 175.386 22.1796V24.7709C175.386 24.8282 175.4 24.8625 175.434 24.8625C175.452 24.8631 175.469 24.8578 175.483 24.8474C175.497 24.837 175.507 24.8221 175.512 24.8052L176.531 22.1796C176.651 21.8733 176.817 21.8618 176.949 21.8618H177.834C177.983 21.8618 178.149 21.8618 178.149 22.1796V27.8203C178.149 28.1209 177.983 28.1352 177.834 28.1352H176.992C176.843 28.1352 176.677 28.1209 176.677 27.8203V25.2433C176.677 25.1889 176.651 25.166 176.62 25.166C176.599 25.1667 176.58 25.175 176.565 25.1892C176.55 25.2035 176.541 25.2228 176.54 25.2433L175.526 27.8632C175.42 28.1323 175.274 28.1495 175.142 28.1495L174.226 28.1352Z" fill="#0B0B0B"/>
<path d="M179.633 22.1796C179.633 21.8733 179.802 21.8618 179.948 21.8618H180.847C180.996 21.8618 181.162 21.8618 181.162 22.1796V23.9835C181.159 24.0024 181.161 24.0215 181.168 24.0395C181.174 24.0575 181.184 24.0738 181.198 24.0871C181.211 24.1004 181.228 24.1104 181.246 24.1163C181.264 24.1221 181.283 24.1237 181.302 24.1209H182.092C182.111 24.1228 182.129 24.1205 182.147 24.1142C182.164 24.1079 182.18 24.0978 182.193 24.0846C182.206 24.0714 182.215 24.0554 182.221 24.0379C182.227 24.0204 182.229 24.0018 182.227 23.9835V22.1796C182.227 21.8733 182.393 21.8618 182.539 21.8618H183.444C183.593 21.8618 183.759 21.8618 183.759 22.1796V27.8203C183.759 27.9634 183.744 28.1352 183.444 28.1352H182.539C182.393 28.1352 182.227 28.1209 182.227 27.8203V25.5841C182.23 25.5656 182.228 25.5468 182.223 25.529C182.217 25.5112 182.207 25.495 182.194 25.4817C182.181 25.4684 182.165 25.4583 182.147 25.4522C182.13 25.4461 182.111 25.4442 182.092 25.4466H181.302C181.283 25.4438 181.264 25.4454 181.246 25.4513C181.228 25.4571 181.211 25.4671 181.198 25.4804C181.184 25.4938 181.174 25.51 181.168 25.528C181.161 25.546 181.159 25.5652 181.162 25.5841V27.8174C181.162 28.118 180.996 28.1324 180.847 28.1324H179.948C179.644 28.1324 179.633 27.9606 179.633 27.8174V22.1796Z" fill="#0B0B0B"/>
<path d="M186.701 25.8349C186.701 26.1613 186.727 26.7913 187.56 26.7913C187.73 26.7867 187.898 26.7675 188.064 26.734C188.195 26.7028 188.328 26.6818 188.462 26.671C188.657 26.671 188.663 26.817 188.663 26.8943V27.7963C188.663 27.9767 188.663 28.2258 187.443 28.2258C185.129 28.2258 185.152 26.6996 185.152 25.9351V23.9853C185.152 22.9574 185.37 21.772 187.443 21.772C188.674 21.772 188.663 22.0211 188.663 22.2015V23.1063C188.663 23.1836 188.663 23.3296 188.462 23.3296C188.11 23.3296 187.987 23.2065 187.56 23.2065C186.779 23.2065 186.701 23.7476 186.701 24.1657V25.8349Z" fill="#0B0B0B"/>
<path d="M190.333 28.1352C190.03 28.1352 190.016 27.9634 190.016 27.8202V22.1796C190.016 21.8732 190.185 21.8618 190.333 21.8618H191.247C191.393 21.8618 191.562 21.8618 191.562 22.1796V24.0865C191.562 24.1638 191.562 24.2182 191.696 24.2182H191.805C191.943 24.2182 192.203 24.1839 192.203 23.6685V22.9355C192.192 22.7926 192.211 22.6488 192.26 22.5141C192.31 22.3794 192.387 22.2569 192.488 22.155C192.589 22.0531 192.711 21.9741 192.845 21.9235C192.979 21.8729 193.122 21.8518 193.265 21.8618H193.864C194.01 21.8618 194.176 21.8618 194.176 22.1796V22.6978C194.179 22.7308 194.176 22.7641 194.165 22.7954C194.154 22.8267 194.136 22.8552 194.113 22.8788C194.089 22.9023 194.061 22.9204 194.03 22.9317C193.999 22.943 193.966 22.9472 193.933 22.9441H193.844C193.787 22.9441 193.663 22.967 193.663 23.1932V23.9491C193.677 24.1686 193.616 24.3863 193.492 24.5675C193.389 24.6935 193.28 24.6821 193.28 24.7708C193.28 24.9312 194.027 24.9999 194.027 25.8875V27.8202C194.027 28.1209 193.852 28.1352 193.706 28.1352H192.802C192.658 28.1352 192.487 28.1209 192.487 27.8202V26.1939C192.487 25.9076 192.432 25.4609 191.945 25.4609H191.688C191.67 25.4585 191.651 25.4604 191.634 25.4664C191.616 25.4723 191.6 25.4821 191.587 25.4951C191.574 25.5081 191.565 25.5239 191.559 25.5413C191.553 25.5587 191.551 25.5772 191.553 25.5955V27.8202C191.553 28.1209 191.384 28.1352 191.238 28.1352H190.333Z" fill="#0B0B0B"/>
<path d="M195.843 28.1352C195.543 28.1352 195.531 27.9634 195.531 27.8203V22.1796C195.531 21.8733 195.697 21.8618 195.843 21.8618H196.702C196.851 21.8618 197.017 21.8618 197.017 22.1796V24.7709C197.017 24.8282 197.032 24.8625 197.06 24.8625C197.078 24.8632 197.096 24.858 197.11 24.8476C197.125 24.8373 197.135 24.8224 197.14 24.8052L198.16 22.1796C198.283 21.8733 198.446 21.8618 198.572 21.8618H199.46C199.614 21.8618 199.777 21.8618 199.777 22.1796V27.8203C199.777 28.1209 199.614 28.1352 199.46 28.1352H198.618C198.472 28.1352 198.306 28.1209 198.306 27.8203V25.2433C198.306 25.1889 198.283 25.166 198.246 25.166C198.226 25.1668 198.207 25.1752 198.193 25.1896C198.179 25.2041 198.171 25.2233 198.171 25.2433L197.152 27.8632C197.049 28.1323 196.908 28.1495 196.768 28.1495L195.843 28.1352Z" fill="#0B0B0B"/>
<path d="M201.548 28.1365C201.262 28.1365 201.23 27.9647 201.23 27.8215V22.1809C201.23 21.8745 201.402 21.8631 201.548 21.8631H202.407C202.553 21.8631 202.728 21.8631 202.728 22.1809V24.7722C202.728 24.8294 202.728 24.8638 202.771 24.8638C202.788 24.8629 202.805 24.857 202.819 24.8468C202.834 24.8367 202.845 24.8227 202.851 24.8065L203.862 22.1809C203.988 21.8745 204.148 21.8631 204.283 21.8631H205.17C205.316 21.8631 205.488 21.8631 205.488 22.1809V27.8215C205.488 28.1222 205.316 28.1365 205.17 28.1365H204.311C204.171 28.1365 203.996 28.1222 203.996 27.8215V25.2446C203.996 25.1902 203.976 25.1673 203.942 25.1673C203.922 25.1685 203.902 25.177 203.888 25.1912C203.873 25.2053 203.864 25.2243 203.862 25.2446L202.848 27.8645C202.742 28.1336 202.602 28.1508 202.465 28.1508L201.548 28.1365ZM202.539 21.3878C202.451 21.3909 202.364 21.3754 202.283 21.3425C202.202 21.3095 202.129 21.2598 202.068 21.1965C202.008 21.1332 201.961 21.0579 201.932 20.9754C201.902 20.8929 201.891 20.8051 201.898 20.7178V20.5059C201.896 20.4889 201.898 20.4718 201.903 20.4557C201.909 20.4395 201.918 20.4247 201.929 20.4123C201.941 20.3998 201.955 20.39 201.971 20.3834C201.987 20.3768 202.004 20.3737 202.021 20.3742H202.639C202.731 20.3742 202.774 20.4171 202.774 20.5059V20.5775C202.774 20.7693 202.991 20.7808 203.126 20.7808H203.601C203.736 20.7808 203.948 20.7808 203.948 20.5775V20.5059C203.948 20.4171 203.991 20.3742 204.082 20.3742H204.698C204.715 20.3733 204.732 20.3761 204.748 20.3825C204.765 20.3889 204.779 20.3987 204.791 20.4112C204.803 20.4237 204.812 20.4386 204.818 20.4549C204.823 20.4713 204.826 20.4887 204.824 20.5059V20.7178C204.83 20.8055 204.817 20.8935 204.786 20.9759C204.756 21.0584 204.708 21.1334 204.646 21.1961C204.585 21.2588 204.51 21.3078 204.428 21.3398C204.347 21.3719 204.259 21.3863 204.171 21.3821L202.539 21.3878Z" fill="#0B0B0B"/>
<path d="M141.237 41.3792C141.237 41.7743 141.045 41.7743 140.844 41.7743H139.968C139.765 41.7743 139.57 41.7743 139.57 41.3792V34.2754C139.57 34.0721 139.57 33.8774 139.968 33.8774H140.965C141.051 33.883 141.134 33.9107 141.206 33.9579C141.278 34.005 141.337 34.07 141.377 34.1466L142.594 36.5861C142.625 36.6634 142.674 36.7751 142.731 36.7751C142.789 36.7751 142.82 36.6548 142.852 36.5975L144.068 34.1752C144.105 34.091 144.166 34.0191 144.242 33.9684C144.319 33.9176 144.409 33.89 144.501 33.8889H145.449C145.841 33.8889 145.841 34.0836 145.841 34.2869V41.3792C145.841 41.7743 145.649 41.7743 145.449 41.7743H144.567C144.172 41.7743 144.172 41.5825 144.172 41.3792V37.3706C144.172 37.3248 144.172 37.3019 144.123 37.3019C144.11 37.3074 144.099 37.3151 144.089 37.3248L143.215 39.4465C143.167 39.5725 143.084 39.7328 142.909 39.7328H142.525C142.396 39.7328 142.296 39.6297 142.219 39.4465L141.317 37.2332C141.317 37.1902 141.234 37.2131 141.234 37.2475L141.237 41.3792Z" fill="#0B0B0B"/>
<path d="M147.246 37.6801C147.246 36.8211 147.478 35.4124 149.391 35.4124C151.304 35.4124 151.533 36.8239 151.533 37.6801V39.5956C151.533 40.4546 151.309 41.8633 149.391 41.8633C147.472 41.8633 147.246 40.4546 147.246 39.5956V37.6801ZM148.784 39.859C148.784 40.4316 149.11 40.6006 149.391 40.6006C149.671 40.6006 150.004 40.4431 150.004 39.859V37.4224C150.004 36.8354 149.674 36.6779 149.391 36.6779C149.107 36.6779 148.784 36.8354 148.784 37.4224V39.859Z" fill="#0B0B0B"/>
<path d="M157.085 35.5041C157.231 35.5041 157.4 35.5041 157.4 35.8191V41.4597C157.4 41.6057 157.4 41.7747 157.085 41.7747H156.186C156.04 41.7747 155.862 41.7747 155.862 41.4597V36.9701C155.866 36.9507 155.864 36.9308 155.858 36.912C155.853 36.8932 155.843 36.876 155.829 36.8618C155.815 36.8476 155.798 36.8368 155.78 36.8302C155.761 36.8237 155.741 36.8216 155.722 36.8241H155.235C155.155 36.8241 155.124 36.867 155.124 36.9472L155.101 37.9408C155.04 40.5005 154.949 41.8634 153.114 41.8634C152.764 41.8634 152.492 41.8634 152.492 41.5771V40.8842C152.492 40.5778 152.664 40.5664 152.813 40.5664H152.939C153.529 40.5664 153.589 39.799 153.623 37.7031L153.643 35.8076C153.643 35.6616 153.643 35.4927 153.958 35.4927L157.085 35.5041Z" fill="#0B0B0B"/>
<path d="M158.793 37.6801C158.793 36.8211 159.019 35.4124 160.935 35.4124C162.85 35.4124 163.079 36.8239 163.079 37.6801V39.5956C163.079 40.4546 162.85 41.8633 160.935 41.8633C159.019 41.8633 158.793 40.4546 158.793 39.5956V37.6801ZM160.316 39.859C160.316 40.4316 160.646 40.6006 160.926 40.6006C161.207 40.6006 161.536 40.4431 161.536 39.859V37.4224C161.536 36.8354 161.21 36.6779 160.926 36.6779C160.643 36.6779 160.316 36.8354 160.316 37.4224V39.859Z" fill="#0B0B0B"/>
<path d="M164.328 35.8184C164.328 35.5149 164.503 35.5034 164.649 35.5034H165.551C165.694 35.5034 165.866 35.5034 165.866 35.8184V37.8484C165.866 37.9401 165.851 38.4898 166.395 38.4898C166.47 38.4928 166.543 38.4797 166.612 38.4514C166.68 38.423 166.742 38.3802 166.792 38.3257C166.843 38.2713 166.881 38.2065 166.904 38.136C166.927 38.0655 166.934 37.9908 166.925 37.9171V35.8184C166.925 35.5149 167.097 35.5034 167.243 35.5034H168.145C168.291 35.5034 168.46 35.5034 168.46 35.8184V41.459C168.46 41.7625 168.291 41.774 168.145 41.774H167.249C166.939 41.774 166.931 41.605 166.931 41.459V39.7897C166.931 39.7325 166.911 39.7067 166.854 39.7067C166.662 39.7067 166.504 39.8928 165.837 39.8928C164.405 39.8928 164.334 38.6931 164.334 37.9744L164.328 35.8184Z" fill="#0B0B0B"/>
<path d="M169.938 35.8184C169.938 35.5149 170.109 35.5034 170.255 35.5034H171.157C171.303 35.5034 171.475 35.5034 171.475 35.8184V37.6251C171.473 37.6433 171.475 37.6618 171.481 37.6792C171.486 37.6966 171.496 37.7124 171.509 37.7254C171.522 37.7384 171.538 37.7483 171.556 37.7542C171.573 37.7601 171.591 37.762 171.61 37.7597H172.4C172.492 37.7597 172.532 37.7139 172.532 37.6251V35.8184C172.532 35.5149 172.706 35.5034 172.852 35.5034H173.754C173.9 35.5034 174.066 35.5034 174.066 35.8184V41.459C174.066 41.605 174.066 41.774 173.754 41.774H172.852C172.706 41.774 172.532 41.774 172.532 41.459V39.2257C172.532 39.134 172.492 39.0911 172.4 39.0911H171.61C171.591 39.0881 171.573 39.0896 171.555 39.0953C171.537 39.101 171.521 39.1108 171.508 39.124C171.495 39.1371 171.485 39.1532 171.479 39.1709C171.474 39.1885 171.472 39.2073 171.475 39.2257V41.459C171.475 41.7625 171.303 41.774 171.157 41.774H170.255C169.955 41.774 169.938 41.605 169.938 41.459V35.8184Z" fill="#0B0B0B"/>
<path d="M175.854 41.774C175.548 41.774 175.539 41.605 175.539 41.459V35.8184C175.539 35.5149 175.708 35.5034 175.854 35.5034H176.756C176.902 35.5034 177.068 35.5034 177.068 35.8184V37.4791C177.067 37.4959 177.07 37.5127 177.076 37.5283C177.082 37.5439 177.092 37.558 177.104 37.5694C177.117 37.5809 177.131 37.5896 177.147 37.5947C177.163 37.5999 177.18 37.6015 177.197 37.5993H177.815C178.098 37.5807 178.382 37.6222 178.647 37.7212C178.913 37.8202 179.154 37.9743 179.356 38.1734C179.557 38.3726 179.714 38.6122 179.817 38.8765C179.919 39.1408 179.964 39.4237 179.948 39.7067C179.948 40.746 179.261 41.774 177.546 41.774H175.854ZM177.068 40.2851C177.069 40.3185 177.084 40.3501 177.108 40.3735C177.131 40.3969 177.163 40.4103 177.197 40.411H177.546C177.645 40.4149 177.744 40.3979 177.836 40.3609C177.928 40.3239 178.012 40.2679 178.081 40.1966C178.149 40.1252 178.203 40.0401 178.236 39.9468C178.27 39.8535 178.284 39.7541 178.276 39.6551C178.282 39.5565 178.267 39.4577 178.233 39.3651C178.198 39.2724 178.145 39.1878 178.077 39.1166C178.008 39.0454 177.926 38.9891 177.834 38.9512C177.743 38.9133 177.645 38.8946 177.546 38.8964H177.197C177.18 38.8946 177.163 38.8967 177.146 38.9024C177.13 38.9081 177.115 38.9172 177.103 38.9292C177.091 38.9413 177.081 38.9558 177.075 38.9719C177.069 38.988 177.067 39.0052 177.068 39.0224V40.2851ZM181.884 41.459C181.884 41.7625 181.718 41.774 181.575 41.774H180.67C180.518 41.774 180.352 41.774 180.352 41.459V35.8184C180.352 35.5149 180.518 35.5034 180.67 35.5034H181.575C181.718 35.5034 181.884 35.5034 181.884 35.8184V41.459Z" fill="#0B0B0B"/>
<path d="M183.669 41.7744C183.366 41.7744 183.352 41.6055 183.352 41.4595V35.8189C183.352 35.5154 183.523 35.5039 183.669 35.5039H184.528C184.674 35.5039 184.84 35.5039 184.84 35.8189V38.413C184.84 38.4702 184.84 38.5046 184.892 38.5046C184.908 38.5024 184.924 38.4959 184.937 38.4859C184.95 38.4758 184.96 38.4625 184.966 38.4473L185.977 35.8189C186.106 35.5154 186.263 35.5039 186.398 35.5039H187.289C187.44 35.5039 187.606 35.5039 187.606 35.8189V41.4595C187.606 41.763 187.44 41.7744 187.289 41.7744H186.43C186.289 41.7744 186.117 41.7744 186.117 41.4595V38.8825C186.117 38.8281 186.095 38.8052 186.06 38.8052C186.04 38.8075 186.022 38.8163 186.007 38.8303C185.993 38.8443 185.983 38.8626 185.98 38.8825L184.964 41.5024C184.863 41.7716 184.72 41.7887 184.58 41.7887L183.669 41.7744ZM184.657 35.0343C184.569 35.039 184.481 35.0249 184.399 34.9931C184.317 34.9612 184.243 34.9122 184.181 34.8494C184.119 34.7866 184.072 34.7113 184.041 34.6287C184.011 34.5461 183.998 34.4579 184.004 34.3701V34.1467C184.002 34.1296 184.004 34.1123 184.009 34.096C184.015 34.0796 184.023 34.0646 184.035 34.052C184.047 34.0395 184.061 34.0297 184.077 34.0233C184.093 34.0168 184.11 34.014 184.128 34.015H184.746C184.764 34.0123 184.783 34.0137 184.8 34.0193C184.818 34.0249 184.834 34.0344 184.847 34.0471C184.86 34.0598 184.87 34.0754 184.877 34.0927C184.883 34.11 184.885 34.1284 184.883 34.1467V34.2183C184.883 34.4073 185.095 34.4216 185.233 34.4216H185.705C185.843 34.4216 186.054 34.4216 186.054 34.2183V34.1467C186.052 34.1289 186.054 34.1107 186.06 34.0937C186.065 34.0766 186.075 34.0611 186.088 34.0484C186.101 34.0357 186.116 34.026 186.133 34.0202C186.15 34.0144 186.168 34.0127 186.186 34.015H186.813C186.83 34.0145 186.847 34.0177 186.863 34.0242C186.879 34.0308 186.893 34.0406 186.905 34.0531C186.916 34.0655 186.925 34.0803 186.931 34.0965C186.936 34.1126 186.938 34.1297 186.936 34.1467V34.3643C186.943 34.452 186.931 34.5401 186.901 34.6228C186.871 34.7055 186.824 34.781 186.763 34.8442C186.702 34.9075 186.628 34.9571 186.546 34.9899C186.465 35.0227 186.377 35.0378 186.289 35.0343H184.657Z" fill="#0B0B0B"/>
<path d="M139.639 46.6481C139.639 46.4334 139.719 46.2559 141.137 46.2559C142.156 46.2559 143.714 46.379 143.714 48.4405C143.714 49.5572 143.184 49.9065 142.886 50.0525V50.0869C143.805 50.4505 143.834 51.3983 143.834 52.0425C143.834 53.0418 143.665 54.3331 141.369 54.3331C139.705 54.3331 139.582 54.1527 139.582 53.8464V52.8414C139.582 52.7555 139.582 52.6295 139.777 52.6295C139.925 52.6423 140.071 52.6682 140.215 52.7068C140.474 52.7655 140.739 52.7962 141.005 52.7984C141.947 52.7984 142.03 52.0998 142.03 51.8306C142.03 50.8256 141.311 50.7454 141.005 50.7454H140.51C140.306 50.7454 140.112 50.7454 140.112 50.3503V49.6374C140.112 49.4341 140.112 49.2451 140.51 49.2451H141.082C141.546 49.2451 141.927 49.0418 141.927 48.5608C141.927 48.1971 141.735 47.7677 140.822 47.7677C140.617 47.762 140.413 47.7774 140.212 47.8135C140.101 47.8411 139.988 47.8565 139.874 47.8593C139.702 47.8593 139.648 47.8249 139.648 47.5501L139.639 46.6481Z" fill="#0B0B0B"/>
<path d="M149.237 53.8434V53.9808C149.237 54.1039 149.156 54.2414 148.893 54.2414H147.942C147.753 54.2414 147.733 54.1698 147.733 54.1154C147.733 54.061 147.733 53.9808 147.645 53.9808C147.625 53.9821 147.605 53.9879 147.588 53.9979C147.571 54.0078 147.556 54.0215 147.544 54.0381C147.273 54.2286 146.948 54.3288 146.617 54.3244C145.804 54.3244 145.082 53.7059 145.082 52.3487C145.082 50.6136 146.359 50.1612 147.307 49.8004L147.593 49.6974C147.63 49.6846 147.661 49.6599 147.682 49.6271C147.703 49.5944 147.712 49.5556 147.708 49.517C147.708 49.1934 147.315 49.0989 146.986 49.0989C146.726 49.097 146.467 49.1357 146.219 49.2135C146.043 49.28 145.862 49.3326 145.678 49.371C145.65 49.3725 145.622 49.3684 145.596 49.3589C145.57 49.3494 145.546 49.3348 145.525 49.3158C145.505 49.2968 145.489 49.2739 145.478 49.2484C145.466 49.2229 145.46 49.1955 145.46 49.1677V48.469C145.46 48.2886 145.577 47.8706 147.124 47.8706C149.051 47.8706 149.245 48.8412 149.245 49.6544L149.237 53.8434ZM147.699 51.1061C147.699 51.0231 147.625 51.003 147.544 51.0488L147.35 51.1719C147.145 51.2699 146.973 51.4255 146.855 51.6198C146.737 51.8141 146.678 52.0385 146.685 52.2657C146.685 52.6608 146.817 52.9643 147.181 52.9643C147.305 52.9764 147.428 52.9394 147.525 52.8612C147.622 52.7831 147.685 52.67 147.699 52.5463V51.1061Z" fill="#0B0B0B"/>
<path d="M150.699 48.2822C150.699 47.9787 150.871 47.9673 151.017 47.9673H152.99C154.244 47.9673 154.774 48.726 154.774 49.502C154.782 49.7435 154.725 49.9828 154.609 50.1948C154.493 50.4069 154.323 50.5839 154.115 50.7074C154.061 50.7418 154.061 50.7647 154.098 50.7761C154.177 50.8262 154.259 50.8711 154.344 50.9107C154.693 51.1255 155.037 51.532 155.037 52.3423C155.037 54.2006 153.236 54.2493 152.778 54.2493H150.96C150.699 54.2493 150.699 54.0202 150.699 53.9343V48.2822ZM152.24 50.1663C152.24 50.2693 152.288 50.2808 152.346 50.2808H152.609C152.683 50.2809 152.756 50.266 152.824 50.2368C152.891 50.2077 152.953 50.165 153.003 50.1113C153.054 50.0577 153.093 49.9943 153.118 49.9249C153.144 49.8556 153.154 49.7818 153.15 49.7081C153.149 49.632 153.133 49.5569 153.101 49.4875C153.07 49.4181 153.025 49.3559 152.968 49.3048C152.912 49.2537 152.845 49.2149 152.773 49.1907C152.701 49.1664 152.625 49.1574 152.549 49.1641H152.346C152.288 49.1641 152.24 49.1784 152.24 49.2758V50.1663ZM152.24 52.8978C152.24 52.9866 152.265 53.0324 152.343 53.0324H152.6C152.807 53.0362 153.007 52.9578 153.155 52.8144C153.304 52.671 153.39 52.4745 153.394 52.2679C153.397 52.0613 153.319 51.8617 153.176 51.713C153.032 51.5643 152.836 51.4786 152.629 51.4748H152.368C152.24 51.4748 152.24 51.6008 152.24 51.6351V52.8978Z" fill="#0B0B0B"/>
<path d="M156.312 50.1439C156.312 49.2849 156.541 47.8762 158.457 47.8762C160.373 47.8762 160.602 49.2849 160.602 50.1439V52.0623C160.602 52.9213 160.378 54.33 158.457 54.33C156.536 54.33 156.312 52.9184 156.312 52.0623V50.1439ZM157.85 52.32C157.85 52.8926 158.179 53.0673 158.457 53.0673C158.735 53.0673 159.067 52.907 159.067 52.32V49.8862C159.067 49.2993 158.74 49.1389 158.457 49.1389C158.174 49.1389 157.85 49.2993 157.85 49.8862V52.32Z" fill="#0B0B0B"/>
<path d="M166.045 47.9673C166.185 47.9673 166.357 47.9673 166.357 48.2822V52.8291C166.357 52.8864 166.357 52.998 166.503 52.998H166.617C166.763 52.998 166.932 52.998 166.932 53.313V55.2314C166.932 55.5377 166.763 55.5463 166.617 55.5463H165.758C165.455 55.5463 165.44 55.3774 165.44 55.2314V54.4211C165.44 54.338 165.44 54.2407 165.26 54.2407H163.256C163.173 54.2407 163.075 54.2407 163.075 54.4211V55.2314C163.075 55.5377 162.906 55.5463 162.758 55.5463H161.921C161.775 55.5463 161.609 55.5463 161.609 55.2314V53.313C161.609 53.2471 161.609 52.998 161.844 52.998H161.97C162.256 52.998 162.274 52.726 162.351 52.4454C162.623 51.1814 162.766 49.893 162.778 48.6001V48.2822C162.778 48.1391 162.778 47.9673 163.09 47.9673H166.045ZM164.312 49.25C164.269 49.25 164.203 49.25 164.192 49.376L164.169 49.7511C163.989 52.852 163.74 52.6144 163.74 52.9007C163.74 52.9137 163.742 52.9267 163.748 52.9386C163.753 52.9505 163.761 52.9612 163.77 52.9699C163.78 52.9786 163.792 52.985 163.804 52.9889C163.817 52.9928 163.83 52.9939 163.843 52.9923H164.687C164.816 52.9923 164.819 52.9121 164.819 52.832V49.3875C164.819 49.2643 164.819 49.25 164.696 49.25H164.312Z" fill="#0B0B0B"/>
<path d="M96.0281 33.5107C94.9668 33.5168 93.9507 33.941 93.2003 34.6915C92.4498 35.4419 92.0255 36.458 92.0195 37.5193V55.2715H100.045V37.5193C100.04 36.4563 99.6148 35.4385 98.8623 34.6876C98.1098 33.9368 97.0911 33.5138 96.0281 33.5107Z" fill="#0B0B0B"/>
<path d="M109.243 33.5107C108.181 33.5153 107.164 33.939 106.413 34.6898C105.663 35.4406 105.239 36.4576 105.234 37.5193V55.2715H113.257V37.5193C113.257 36.9924 113.153 36.4707 112.952 35.984C112.75 35.4973 112.454 35.0551 112.081 34.6828C111.708 34.3105 111.266 34.0153 110.779 33.8142C110.292 33.6131 109.77 33.51 109.243 33.5107Z" fill="#0B0B0B"/>
<path d="M77 19V55.2718H86.8439V37.5196C86.8445 36.4793 86.4407 35.4796 85.7178 34.7316C84.9949 33.9836 84.0095 33.5459 82.9699 33.511V28.4287C84.1807 28.4462 85.3757 28.7063 86.4842 29.1937C87.5927 29.6811 88.5923 30.3858 89.4237 31.2662C90.2726 30.3674 91.2961 29.6514 92.4314 29.1621C93.5667 28.6727 94.79 28.4203 96.0263 28.4203C97.2627 28.4203 98.486 28.6727 99.6213 29.1621C100.757 29.6514 101.78 30.3674 102.629 31.2662C103.478 30.3682 104.502 29.6528 105.637 29.1639C106.773 28.6751 107.996 28.4229 109.232 28.4229C110.468 28.4229 111.691 28.6751 112.826 29.1639C113.961 29.6528 114.985 30.3682 115.834 31.2662C116.667 30.3877 117.667 29.6847 118.775 29.1983C119.884 28.712 121.078 28.4523 122.288 28.4344V33.5224C121.249 33.5574 120.263 33.9951 119.54 34.7431C118.817 35.4911 118.414 36.4908 118.414 37.531V55.2832H128.252V19H77Z" fill="#0B0B0B"/>
</svg>
