<svg width="283" height="44" viewBox="0 0 283 44" fill="none" xmlns="http://www.w3.org/2000/svg">
<path d="M156.526 15.2144H154.703V29.1765H156.526V22.9441H157.923L162.762 29.1765H164.99L159.462 22.074L164.544 15.2144H162.479L157.923 21.4062H156.526V15.2144ZM165.782 26.465C165.782 28.1647 166.895 29.3788 169.224 29.3788C170.662 29.3788 171.836 28.8527 172.585 27.8005V29.1765H174.205V22.681C174.205 20.0505 172.747 18.8971 170.196 18.8971C167.705 18.8971 166.308 20.0505 166.126 22.1347H167.847C167.989 20.779 168.859 20.2529 170.196 20.2529C171.694 20.2529 172.484 20.8194 172.484 22.6608V23.106L169.609 23.3893C166.895 23.6523 165.782 24.5224 165.782 26.465ZM169.528 28.104C168.232 28.104 167.503 27.5981 167.503 26.6471V26.2019C167.503 25.089 168.211 24.7045 169.69 24.5427L172.484 24.2594V25.2711C172.484 27.2137 171.148 28.104 169.528 28.104ZM185.127 26.1412H183.406C183.203 27.5779 182.292 28.0231 180.935 28.0231C179.234 28.0231 178.303 26.9506 178.303 24.7652V23.5107C178.303 21.4062 179.153 20.2529 180.935 20.2529C182.251 20.2529 183.163 20.7385 183.345 22.2156H185.066C184.823 19.7267 183.244 18.8971 180.935 18.8971C177.898 18.8971 176.501 20.7587 176.501 24.1582C176.501 27.6386 177.958 29.3788 180.935 29.3788C183.223 29.3788 184.783 28.4682 185.127 26.1412ZM195.412 26.1412H193.691C193.489 27.5779 192.578 28.0231 191.221 28.0231C189.52 28.0231 188.588 26.9506 188.588 24.7652V23.5107C188.588 21.4062 189.439 20.2529 191.221 20.2529C192.537 20.2529 193.448 20.7385 193.63 22.2156H195.352C195.109 19.7267 193.529 18.8971 191.221 18.8971C188.183 18.8971 186.786 20.7587 186.786 24.1582C186.786 27.6386 188.244 29.3788 191.221 29.3788C193.509 29.3788 195.068 28.4682 195.412 26.1412ZM197.033 26.465C197.033 28.1647 198.147 29.3788 200.476 29.3788C201.913 29.3788 203.088 28.8527 203.837 27.8005V29.1765H205.457V22.681C205.457 20.0505 203.999 18.8971 201.448 18.8971C198.957 18.8971 197.56 20.0505 197.378 22.1347H199.099C199.241 20.779 200.111 20.2529 201.448 20.2529C202.946 20.2529 203.736 20.8194 203.736 22.6608V23.106L200.861 23.3893C198.147 23.6523 197.033 24.5224 197.033 26.465ZM200.78 28.104C199.484 28.104 198.755 27.5981 198.755 26.6471V26.2019C198.755 25.089 199.463 24.7045 200.942 24.5427L203.736 24.2594V25.2711C203.736 27.2137 202.399 28.104 200.78 28.104Z" fill="#0B0B0B"/>
<path fill-rule="evenodd" clip-rule="evenodd" d="M78 23.8028C78 26.9819 79.7861 30.1879 83.7855 30.1879C87.7814 30.1879 89.5711 26.9819 89.5711 23.8028C89.5711 21.6312 88.8372 19.1305 87.6123 17.1107C86.4211 15.1602 84.9898 14 83.7855 14C82.578 14 81.146 15.1602 79.9652 17.1107C78.7344 19.1305 78 21.6312 78 23.8028Z" fill="#0B0B0B"/>
<path fill-rule="evenodd" clip-rule="evenodd" d="M119.069 18.7695H115.02V14.8672H127.458V18.7695H123.409V29.3206H119.069V18.7695Z" fill="#0B0B0B"/>
<path fill-rule="evenodd" clip-rule="evenodd" d="M136.723 18.7697H143.087V14.8672H136.723C130.876 14.8672 127.754 17.7724 127.754 22.094C127.754 26.4156 130.876 29.3208 136.723 29.3208H143.087V25.4183H136.723C134.017 25.4183 132.238 24.4517 132.238 22.094C132.238 19.7362 134.017 18.7697 136.723 18.7697Z" fill="#0B0B0B"/>
<path fill-rule="evenodd" clip-rule="evenodd" d="M103.885 23.4944L106.199 14.8672H113.866V29.3208H109.527V17.5569L106.373 29.3208H101.398L98.2454 17.5643L98.2453 29.3208H93.9062V14.8672H101.572L103.885 23.4944Z" fill="#0B0B0B"/>
</svg>
