<svg width="283" height="74" viewBox="0 0 283 74" fill="none" xmlns="http://www.w3.org/2000/svg">
<path fill-rule="evenodd" clip-rule="evenodd" d="M175.347 56.3964H168.674C168.674 56.3964 165.468 63.6586 160.98 63.6586H121.217C116.727 63.6586 113.522 56.3964 113.522 56.3964C113.522 56.3964 109.541 55.9433 106.849 55.9433C104.158 55.9433 100.76 52.0176 100.76 52.0176V33.2544C100.76 28.8839 104.291 28.1136 104.291 28.1136L111.216 27.8541C111.301 26.7904 111.561 25.7481 111.985 24.7688C112.626 23.4836 115.961 21.0409 117.371 20.1388C118.782 19.2367 127.374 19.3685 127.374 19.3685C127.374 19.3685 127.374 18.5982 131.221 14.7385C135.069 10.8787 140.455 10.1125 140.455 10.1125H142.761C145.924 10.5374 148.855 12.006 151.089 14.2853C154.936 18.1451 154.029 19.3685 154.029 19.3685C154.029 19.3685 160.402 18.2316 164.938 20.1388C167.974 21.4157 170.136 23.4836 170.778 24.7688C171.419 26.054 171.094 27.8541 171.094 27.8541L178.925 28.1713C178.925 28.1713 181.55 28.8839 181.55 33.2544V50.7531C181.55 50.7531 178.359 56.3964 175.347 56.3964Z" fill="#0B0B0B"/>
<path fill-rule="evenodd" clip-rule="evenodd" d="M179.917 54.8185C178.599 56.1037 176.741 56.495 174.661 56.4909H169.023L169.029 56.5486C169.029 59.7204 165.245 63.9756 161.665 64.1156H120.775C117.196 63.9756 113.411 59.7204 113.411 56.5486L113.417 56.4909H107.785C105.699 56.495 103.841 56.1037 102.524 54.8185C101.848 54.146 101.315 53.3433 100.958 52.459C100.601 51.5746 100.427 50.6271 100.447 49.6736V32.4098C100.433 31.7489 100.552 31.0919 100.797 30.4778C101.042 29.8637 101.407 29.3049 101.871 28.8343C102.851 27.9076 104.158 27.4056 105.506 27.4378H111.067C111.019 26.9891 110.995 26.5381 110.995 26.0868C110.995 24.4226 111.974 23.1003 113.202 22.1446C114.542 21.1602 116.026 20.3878 117.601 19.8543C120.014 19.0366 122.482 18.3896 124.986 17.9183C125.967 17.6948 126.961 17.5352 127.963 17.4405L128.593 17.3416C129.305 15.7763 130.305 14.3593 131.542 13.1647C134.163 10.7011 137.624 9.32959 141.221 9.32959C144.818 9.32959 148.279 10.7011 150.9 13.1647C152.137 14.3593 153.137 15.7763 153.849 17.3416C154.059 17.3745 154.275 17.4075 154.48 17.4405C155.481 17.5352 156.475 17.6948 157.456 17.9183C159.96 18.3889 162.428 19.0359 164.842 19.8543C166.416 20.3879 167.9 21.1603 169.24 22.1446C170.468 23.1003 171.447 24.4226 171.447 26.0868C171.447 26.5381 171.423 26.9891 171.375 27.4378H176.936C178.285 27.4057 179.591 27.9076 180.571 28.8343C181.035 29.3051 181.401 29.8639 181.646 30.4779C181.891 31.092 182.011 31.7488 181.999 32.4098V49.6736C182.017 50.6273 181.843 51.575 181.485 52.4593C181.127 53.3436 180.594 54.1462 179.917 54.8185ZM180.973 32.3809C180.973 30.0865 179.352 28.4883 177.001 28.4883H170.196L170.312 27.6397C170.391 27.1162 170.428 26.5873 170.423 26.0579C170.401 24.6409 169.422 23.4463 167.817 22.4371L167.701 22.4C167.585 22.3135 167.458 22.227 167.325 22.1446C166.431 21.6528 165.498 21.2341 164.537 20.8924C162.447 20.2709 160.277 19.9655 158.097 19.9861C156.563 19.9814 155.032 20.1276 153.527 20.4228C153.031 17.9851 151.803 15.7566 150.009 14.0338C147.676 11.7072 144.515 10.4007 141.22 10.4007C137.925 10.4007 134.765 11.7072 132.432 14.0338C130.641 15.7583 129.416 17.9864 128.919 20.4228C127.412 20.128 125.88 19.9817 124.344 19.9861C122.164 19.9655 119.993 20.2709 117.904 20.8924C116.943 21.2351 116.01 21.6538 115.116 22.1446C114.983 22.227 114.856 22.3135 114.74 22.4L114.623 22.4371C113.019 23.4463 112.04 24.6409 112.018 26.0579C112.012 26.5873 112.049 27.1162 112.128 27.6397L112.245 28.4883H105.44C103.092 28.4883 101.473 30.0865 101.473 32.3809V49.6447C101.473 53.212 104.051 55.3828 107.719 55.3828H114.496C114.275 57.6814 116.133 63.0199 121.738 63.0199H160.703C166.305 63.0199 168.166 57.6814 167.945 55.3828H174.722C178.39 55.3828 180.973 53.212 180.973 49.6447V32.3809ZM118.983 40.776C119.381 40.776 120.892 40.7842 121.356 40.743C121.37 40.7827 121.378 40.8245 121.378 40.8666V40.8954C121.154 41.1479 120.964 41.4291 120.814 41.7316C119.73 44.0178 119.16 46.1969 118.43 47.9888C117.441 50.3985 116.329 52.3758 113.943 52.7877C113.701 52.8415 113.453 52.8568 113.207 52.833C112.537 52.6929 112.106 52.4953 112.245 51.7867C112.383 51.0782 114.114 51.8526 114.906 51.5849C115.536 51.3748 116.1 50.6704 116.433 50.0896C116.6 49.8325 116.703 49.5384 116.731 49.2328C117.052 47.9023 116.466 46.9013 115.979 45.1877C115.675 44.1126 115.326 43.0498 114.977 42.1188C115.357 41.9224 115.701 41.6634 115.995 41.3527C116.643 43.0786 117.161 44.8507 117.544 46.6541C117.544 46.6541 119.01 43.0745 118.983 40.776ZM109.771 41.7522C109.218 41.8358 108.66 41.873 108.101 41.8634C108.101 40.5082 108.089 39.2065 108.089 38.9965C108.051 37.4106 108.029 36.4755 108.007 35.767C108.016 35.4422 107.988 35.1175 107.925 34.7989C107.704 34.5664 107.408 34.4204 107.089 34.387V33.9256H109.169C109.717 33.905 110.248 33.8597 110.729 33.8185L110.802 33.8103C111.499 33.7527 112.157 33.7774 112.788 33.7774C113.62 33.7435 114.448 33.9058 115.205 34.2511C116.373 34.8401 117.003 36.0759 116.926 37.6453C116.832 39.5155 116.007 41.0808 114.259 41.8388C113.541 42.1262 112.788 42.3147 112.019 42.399C111.302 42.496 110.579 42.5427 109.856 42.539H109.793C109.857 44.5077 110.029 46.4714 110.307 48.4213H107.618C107.921 47.3024 108.079 46.1492 108.089 44.99C108.1 44.6193 108.105 43.6759 108.105 42.6461C107.987 42.6263 107.866 42.6221 107.746 42.6337C106.971 42.7408 106.85 43.1775 106.85 43.1775C106.85 43.1775 106.434 44.3679 105.71 43.9148C104.952 43.1981 106.357 42.5555 106.357 42.5555L106.672 42.4401C107.204 42.2873 107.752 42.196 108.304 42.1683C108.432 42.1559 108.57 42.1394 108.714 42.123C109.057 42.0859 109.433 42.0612 109.782 42.0323L110.794 41.9335C111.004 41.9154 111.213 41.8852 111.419 41.8429C112.135 41.7473 112.81 41.4498 113.363 40.9852C113.917 40.5205 114.327 39.9079 114.545 39.2189C115.071 37.6248 114.916 36.0677 113.942 35.1903C113.336 34.6848 112.561 34.4273 111.773 34.4694C111.469 34.4694 111.148 34.5683 110.799 34.5806C110.606 34.5889 109.732 34.6095 109.732 34.6095L109.726 34.663C109.604 36.1212 109.759 41.4433 109.759 41.4433C109.759 41.4433 109.766 41.5545 109.771 41.7522ZM174.827 38.5392C174.732 38.6396 174.626 38.7294 174.511 38.807C174.396 38.888 174.274 38.9583 174.146 39.0171C174.011 39.0796 173.873 39.1332 173.731 39.1777C173.582 39.223 173.433 39.2642 173.278 39.2972C173.121 39.3303 172.962 39.3551 172.802 39.3713C172.633 39.3913 172.463 39.401 172.293 39.4001C172.118 39.3992 171.942 39.3883 171.768 39.3672C171.585 39.3507 171.397 39.3219 171.209 39.293C171.021 39.2642 170.822 39.2313 170.622 39.1983C170.423 39.1653 170.219 39.1324 170.014 39.0994L170.019 39.0912C170.103 38.8735 170.223 38.6715 170.374 38.4939C170.471 38.3789 170.589 38.2838 170.722 38.2138C170.839 38.1491 170.97 38.1137 171.104 38.1108C171.237 38.1355 171.364 38.1644 171.491 38.1891C171.618 38.2138 171.751 38.2344 171.873 38.255C171.995 38.2756 172.127 38.292 172.255 38.3044C172.382 38.3168 172.502 38.3292 172.625 38.3374C172.749 38.3456 172.869 38.3456 172.991 38.3456C173.113 38.3456 173.234 38.3415 173.356 38.3374C173.474 38.3326 173.592 38.3215 173.709 38.3044C173.825 38.2912 173.939 38.272 174.053 38.2467C174.273 38.1986 174.489 38.1339 174.7 38.0531C174.899 37.9767 175.092 37.8845 175.277 37.7772L175.271 37.8348C175.172 38.0973 175.021 38.3369 174.827 38.5392ZM168.907 40.9037L168.802 40.6565C168.802 40.6565 169.499 40.6236 170.218 40.5577C170.348 40.5433 170.48 40.5579 170.603 40.6007C170.726 40.6434 170.839 40.7132 170.932 40.8048C171.067 41.1083 171.113 41.4441 171.064 41.7728C171.02 43.2887 170.727 46.1475 171.375 47.1237C171.453 47.2827 171.569 47.4205 171.711 47.5255C171.854 47.6306 172.02 47.6997 172.195 47.7271C172.371 47.7546 172.55 47.7396 172.718 47.6833C172.886 47.627 173.038 47.5312 173.162 47.4039C173.588 46.9348 173.831 46.328 173.847 45.6944C173.814 44.1867 173.842 41.917 173.715 40.846L173.72 40.7595C173.876 40.6747 174.052 40.6361 174.229 40.6483C174.567 40.6483 175.17 40.6607 175.474 40.6648C175.463 43.1569 175.147 46.72 175.684 48.5984C175.568 48.5984 175.308 48.6067 175.203 48.6149H175.175C174.362 48.6643 174.08 48.2153 174.041 47.9023L174.047 47.5892V47.1897C173.604 48.0918 172.984 48.8044 171.778 48.8167C170.218 48.8373 169.648 47.7334 169.493 46.2669C169.329 44.6316 169.72 41.2703 169.399 40.9655C169.326 40.9225 169.244 40.8949 169.16 40.8843C169.075 40.8737 168.989 40.8803 168.907 40.9037ZM173.266 54.1553H109.175C105.734 54.1553 103.333 51.3789 103.333 48.7714V32.5622C103.333 31.483 104.461 30.3172 106.299 30.3172C106.299 30.3172 109.756 30.3254 110.563 30.3254C113.684 30.3254 115.476 29.8847 115.078 29.0938C114.679 28.3029 113.86 27.1454 114.121 25.5347C114.381 23.9241 115.958 22.816 116.931 22.3918C119.278 21.3863 121.879 21.1302 124.378 21.6586C128.217 22.3877 126.297 24.0683 123.985 24.5049C121.672 24.9416 121.849 24.6573 121.849 24.6573C123.299 24.0271 123.592 22.8161 121.805 22.4824C120.018 22.1488 116.743 22.3506 115.343 24.196C113.944 26.0414 116.218 28.2658 117.224 29.3533C118.148 30.346 115.535 30.828 110.486 30.8733C110.033 30.8774 106.791 30.8774 106.299 30.8774C104.988 30.8774 103.853 31.6724 103.853 32.5622V48.7714C103.853 51.1812 105.989 53.6733 109.175 53.6733H173.267C176.453 53.6733 178.589 51.1812 178.589 48.7714V32.5622C178.589 31.6724 177.455 30.795 176.143 30.795C175.649 30.795 172.41 30.7909 171.956 30.7909C166.905 30.7456 164.294 30.346 165.218 29.3533C166.225 28.2658 168.499 26.0414 167.099 24.196C165.699 22.3506 162.429 22.1529 160.637 22.4824C158.845 22.812 159.143 24.0271 160.593 24.6573C160.593 24.6573 160.775 24.9416 158.457 24.5049C156.139 24.0683 154.225 22.3877 158.065 21.6586C160.563 21.1302 163.164 21.3862 165.511 22.3918C166.485 22.816 168.056 23.9241 168.321 25.5347C168.587 27.1454 167.763 28.2988 167.365 29.0938C166.966 29.8888 168.759 30.3254 171.879 30.3254C172.687 30.3254 176.143 30.3172 176.143 30.3172C177.98 30.3172 179.114 31.483 179.114 32.5622V48.7714C179.113 51.3789 176.707 54.1553 173.266 54.1553ZM161.671 40.9037L161.565 40.6565C161.565 40.6565 162.263 40.6236 162.982 40.5577C163.112 40.5428 163.243 40.5572 163.367 40.6C163.49 40.6428 163.603 40.7128 163.696 40.8048C163.831 41.1083 163.877 41.4441 163.828 41.7728C163.784 43.2887 163.491 46.1475 164.133 47.1237C164.212 47.2828 164.328 47.4206 164.471 47.5255C164.615 47.6305 164.781 47.6996 164.957 47.727C165.132 47.7544 165.312 47.7394 165.48 47.6832C165.649 47.627 165.801 47.5312 165.925 47.4039C166.35 46.9335 166.593 46.3275 166.611 45.6944C166.578 44.1867 166.605 41.917 166.479 40.846L166.484 40.7595C166.64 40.6747 166.816 40.6361 166.993 40.6483C167.33 40.6483 167.933 40.6607 168.238 40.6648C168.232 43.1569 167.906 46.72 168.453 48.5984C168.338 48.5984 168.072 48.6067 167.961 48.6149H167.939C167.126 48.6643 166.843 48.2153 166.805 47.9023L166.81 47.5892V47.1897C166.368 48.0918 165.748 48.8044 164.542 48.8167C162.982 48.8373 162.412 47.7334 162.263 46.2669C162.091 44.6316 162.484 41.2703 162.163 40.9655C162.089 40.9226 162.008 40.8949 161.923 40.8843C161.839 40.8737 161.753 40.8803 161.671 40.9037ZM155.436 40.9078C155.956 40.8584 156.808 40.7595 157.278 40.6648C157.339 41.4845 157.339 43.6965 157.35 44.026C158.127 43.4064 158.844 42.7155 159.492 41.9623C159.884 41.4845 160.084 40.9407 159.924 40.8295L161.334 40.6235C161.406 40.8707 160.587 41.6039 160.587 41.6039C160.587 41.6039 159.171 43.2105 158.457 43.8572C158.922 44.4998 159.271 45.1959 159.796 45.9168C160.51 46.9054 161.079 47.8281 162.203 48.7714C162.148 48.7797 162.087 48.792 162.014 48.8044C161.684 48.8865 161.338 48.8863 161.007 48.8038C160.676 48.7212 160.371 48.5587 160.117 48.3307C159.15 47.0926 158.25 45.8028 157.423 44.4668C157.359 45.4789 157.35 46.4937 157.395 47.5068C157.421 47.9197 157.503 48.327 157.639 48.7179H155.591C156.028 48.2977 155.885 45.266 155.88 43.021C155.874 42.2938 155.723 41.5752 155.434 40.9078H155.436ZM152.752 47.9229C153.162 47.953 153.573 47.8888 153.953 47.7353C154.334 47.5817 154.675 47.343 154.949 47.0372C155.104 48.3472 153.405 48.9815 152.487 48.965C150.252 48.9321 148.986 47.1278 148.945 45.0106C148.884 42.0982 151.196 39.9892 154.61 40.9078V42.0406C154.572 42.0647 154.529 42.0792 154.485 42.0828C154.441 42.0864 154.396 42.079 154.355 42.0612C154.102 41.7197 153.737 41.4769 153.325 41.374C152.912 41.2711 152.477 41.3145 152.092 41.4968C149.87 42.4607 150.158 47.6469 152.752 47.9229ZM147.049 41.468C147.75 42.4041 148.125 43.5443 148.117 44.714C148.161 46.7901 147.325 48.928 144.581 48.8703C144.068 48.8856 143.555 48.8146 143.065 48.6602C142.691 48.5441 142.353 48.3332 142.085 48.0481C141.817 47.7631 141.626 47.4134 141.533 47.0331C141.485 46.8314 141.454 46.6261 141.439 46.4194C141.345 44.7966 141.334 43.1701 141.405 41.5463C141.361 40.7831 141.37 40.0178 141.433 39.256C141.46 38.8746 141.558 38.5016 141.721 38.1561C141.86 37.7742 142.085 37.4299 142.381 37.151C142.866 36.6556 143.479 36.3035 144.152 36.1336C144.607 35.9929 145.093 35.9885 145.55 36.121C146.007 36.2535 146.415 36.5171 146.724 36.8792C146.965 37.2506 147.08 37.6895 147.053 38.1313C147.027 38.5732 146.859 38.9947 146.575 39.3342C146.153 39.8444 145.576 40.2031 144.932 40.3558C143.875 40.6359 143.222 40.3764 143.239 40.2982C143.233 40.1705 143.847 40.0798 144.578 39.6308C144.972 39.4214 145.302 39.1098 145.535 38.7287C145.641 38.5564 145.7 38.3594 145.707 38.1572C145.714 37.9549 145.668 37.7544 145.573 37.5753C145.214 37.0398 144.124 37.0233 143.427 37.6288C143.388 37.6783 143.349 37.7236 143.327 37.7483C142.94 38.1108 142.956 38.844 142.946 39.3301C142.915 40.1902 142.937 41.0514 143.012 41.9087C143.69 40.6812 145.831 40.0222 147.049 41.468ZM143.724 47.857C143.937 48.0594 144.209 48.1886 144.5 48.2256C144.792 48.2627 145.088 48.2057 145.345 48.0629C146.971 47.1443 146.955 40.8789 144.161 41.7152C143.885 41.8428 143.648 42.0419 143.475 42.2919C142.839 43.3876 143.032 47.0825 143.724 47.857ZM141.129 33.8845C138.146 33.8845 135.164 32.9535 132.89 30.7456C131.81 29.7079 130.951 28.4625 130.364 27.0842C129.777 25.706 129.476 24.2233 129.477 22.7254C129.478 21.2035 129.786 19.6975 130.384 18.298C130.982 16.8985 131.857 15.6344 132.956 14.5817C135.197 12.412 138.197 11.203 141.316 11.2122C144.385 11.1997 147.339 12.3849 149.548 14.5158C150.628 15.5548 151.487 16.801 152.075 18.1797C152.662 19.5584 152.966 21.0414 152.967 22.5401C152.963 24.0621 152.653 25.5677 152.054 26.967C151.455 28.3662 150.58 29.6303 149.482 30.6838C147.225 32.8045 144.225 33.9539 141.129 33.8845H141.129ZM131.819 17.8483C130.997 19.3423 130.565 21.0199 130.563 22.7254C130.564 24.0752 130.837 25.411 131.367 26.6525C131.896 27.8941 132.671 29.0159 133.645 29.9506C135.704 31.9484 138.408 32.7847 141.13 32.7847C143.539 32.8475 145.899 32.1021 147.835 30.6674C146.504 31.5787 144.954 32.1203 143.345 32.2368C142.61 32.3213 141.869 32.3296 141.132 32.2615C139.268 32.1626 137.569 31.7672 136.053 30.6797C135.422 30.2747 134.833 29.8083 134.294 29.2874C131.071 26.1403 130.208 21.465 131.818 17.8483H131.819ZM139.426 15.6032V15.5703L139.47 15.5332C139.659 15.5291 140.483 15.5126 140.687 15.5044C141.092 15.4879 141.473 15.4715 141.827 15.4715C142.718 15.4715 143.642 15.5621 144.367 16.2335C145.512 17.2839 145.689 19.1458 145.075 21.0489C144.797 21.9737 144.226 22.7833 143.448 23.3557C143.276 23.4868 143.09 23.6 142.895 23.6935C142.491 23.9017 142.062 24.0554 141.618 24.1507C141.212 24.2578 140.799 24.3377 140.382 24.3896C139.813 24.4555 139.082 24.5585 138.407 24.575C138.081 24.5832 137.782 24.5997 137.522 24.6203V24.6368C137.458 24.6327 137.393 24.6327 137.329 24.6368C136.913 24.6738 136.587 24.7191 136.34 24.7644C136.173 24.8022 136.008 24.849 135.846 24.9045L135.475 25.0405C135.475 25.0405 133.827 25.8107 134.717 26.6717C135.569 27.2113 136.056 25.786 136.056 25.786C136.056 25.786 136.2 25.2629 137.101 25.1352C137.242 25.121 137.383 25.1265 137.522 25.1517C137.522 26.3833 137.516 27.512 137.505 27.9569C137.485 28.8784 137.403 29.7977 137.262 30.7085C138.124 31.1914 139.064 31.5204 140.039 31.6807C139.751 29.9135 139.591 26.787 139.514 25.0198C140.387 25.0386 141.261 24.9821 142.125 24.851C143.022 24.7507 143.901 24.5261 144.736 24.1837C146.789 23.2774 147.751 21.4073 147.856 19.1705C147.951 17.2922 147.214 15.8092 145.843 15.109C144.96 14.6945 143.99 14.4994 143.016 14.5405C142.324 14.5405 141.615 14.6146 140.863 14.664C140.332 14.7011 139.27 14.7382 138.733 14.7506C137.659 14.7979 136.582 14.7566 135.514 14.627V14.6352L135.519 14.9812C135.53 15.0966 135.547 15.0966 135.58 15.0966H135.718L135.823 15.0925C135.894 15.0925 135.964 15.0966 136.034 15.1048C136.153 15.1147 136.271 15.134 136.388 15.1625C136.505 15.1958 136.618 15.2413 136.725 15.2984C136.831 15.3579 136.924 15.4361 137.002 15.5291C137.093 15.6434 137.162 15.7732 137.208 15.9122C137.28 16.1269 137.327 16.3495 137.346 16.5754L137.423 17.2921C137.44 18.0954 137.468 19.1541 137.506 20.7853C137.512 21.0283 137.517 22.4865 137.523 24.0477C138.021 24.0065 138.745 23.9612 139.476 23.9365C139.47 23.7923 139.47 23.7099 139.47 23.7099C139.47 23.7099 139.287 17.3416 139.425 15.6032H139.426ZM148.804 15.3108C146.793 13.3764 144.108 12.3009 141.318 12.312C139.772 12.3123 138.243 12.638 136.831 13.2677C138.782 12.6151 140.874 12.5105 142.88 12.9652C144.885 13.4199 146.728 14.4165 148.206 15.8463C152.151 19.6978 152.411 25.8725 149.052 29.5634C150.862 27.6723 151.874 25.1575 151.88 22.5401C151.88 21.1899 151.608 19.8535 151.079 18.6113C150.55 17.369 149.775 16.2464 148.802 15.3108H148.804ZM136.024 39.2725C136.018 39.1475 136.05 39.0237 136.115 38.917C136.18 38.8103 136.276 38.7256 136.39 38.6737C136.504 38.6219 136.63 38.6054 136.754 38.6263C136.877 38.6471 136.991 38.7045 137.082 38.7909C137.172 38.8772 137.235 38.9887 137.261 39.111C137.288 39.2332 137.277 39.3606 137.23 39.4767C137.184 39.5928 137.103 39.6922 137 39.7623C136.896 39.8323 136.774 39.8698 136.649 39.8697C136.569 39.8719 136.488 39.8582 136.413 39.8293C136.338 39.8004 136.27 39.757 136.211 39.7014C136.153 39.6459 136.107 39.5795 136.074 39.5058C136.042 39.4322 136.024 39.3529 136.022 39.2725H136.024ZM138.818 39.8697C138.701 39.8641 138.589 39.8244 138.495 39.7556C138.401 39.6869 138.329 39.592 138.288 39.4828C138.247 39.3736 138.24 39.2548 138.266 39.1412C138.292 39.0275 138.35 38.924 138.435 38.8435C138.519 38.7629 138.625 38.7089 138.74 38.688C138.854 38.6671 138.973 38.6803 139.08 38.7259C139.187 38.7716 139.279 38.8477 139.343 38.9448C139.408 39.042 139.442 39.1559 139.443 39.2725C139.441 39.3529 139.423 39.4321 139.391 39.5057C139.359 39.5793 139.312 39.6458 139.254 39.7013C139.196 39.7569 139.127 39.8003 139.052 39.8292C138.977 39.8581 138.897 39.8719 138.817 39.8697H138.818ZM140.162 47.1773C140.26 47.1512 140.362 47.1498 140.461 47.1732C139.974 48.9568 137.141 49.2781 135.78 48.2112C134.419 47.1443 134.231 44.9611 134.574 43.3752C134.727 42.6127 135.131 41.9235 135.722 41.4179C136.313 40.9123 137.056 40.6196 137.833 40.5865C138.22 40.5591 138.609 40.6181 138.971 40.7594C139.333 40.9007 139.658 41.1206 139.925 41.4033C140.191 41.686 140.391 42.0243 140.511 42.3938C140.63 42.7634 140.666 43.1549 140.616 43.54C139.504 43.6883 137.147 43.5688 136.029 43.6265C135.232 47.3215 138.219 48.8291 140.161 47.1773H140.162ZM139.299 43.0828C139.515 41.8099 138.663 41.3197 137.789 41.431C137.355 41.4877 136.953 41.6889 136.648 42.0021C136.343 42.3152 136.152 42.722 136.107 43.1569C136.659 43.058 138.944 43.2887 139.298 43.0828H139.299ZM132.201 40.706C132.981 43.3958 133.684 46.6706 134.945 48.6396C134.635 48.6561 134.121 48.6726 133.651 48.6602C133.405 48.6721 133.16 48.618 132.942 48.5037C132.871 48.4374 132.816 48.3556 132.782 48.2648C132.582 47.7375 132.173 46.3741 131.93 45.5008C131.603 44.3391 131.27 43.1281 130.945 42.0365C130.259 44.0096 128.583 48.6726 128.583 48.6726H127.724C128.98 46.2834 129.854 43.4906 130.734 40.706H132.201H132.201ZM126.276 38.5351C123.521 38.9223 123.183 39.8944 123.161 41.5421C124.057 40.5659 125.955 40.1787 127.094 41.468C127.822 42.3925 128.212 43.5376 128.201 44.714C128.245 46.4976 127.604 48.3183 125.612 48.7632L125.488 48.7797C122.485 49.2081 122.003 47.1567 121.809 46.3246C121.771 46.1373 121.747 45.9472 121.738 45.7562C121.616 45.0128 121.561 44.2601 121.573 43.507C121.578 41.2703 121.982 40.1458 123.603 38.3992C124.378 37.5712 125.251 37.1016 126.812 36.9615C127.498 36.8997 128.123 36.665 128.123 36.2118H128.593L128.212 37.1964C127.818 38.222 127.127 38.4115 126.275 38.5351H126.276ZM123.272 46.3164C123.272 46.3164 123.272 48.0794 124.738 48.0794C125.023 48.1129 125.311 48.0443 125.551 47.8858L125.607 47.8363L125.617 47.8281C126.995 46.374 126.807 40.9325 124.085 41.7152L124.068 41.7234C123.958 41.7811 123.266 42.1724 123.222 43.4782C123.171 44.8993 123.271 46.3164 123.271 46.3164H123.272Z" fill="white"/>
<path fill-rule="evenodd" clip-rule="evenodd" d="M161.856 61.99H121.098C119.444 61.99 118.276 60.5854 118.276 58.7523C118.276 56.9192 119.444 55.3416 121.098 55.3416H161.856C163.51 55.3416 164.677 56.9151 164.677 58.7523C164.677 60.5895 163.51 61.99 161.856 61.99ZM123.891 58.2003C124.039 58.1715 124.172 58.0943 124.271 57.9808C124.37 57.8674 124.427 57.7243 124.435 57.5742C124.435 56.9975 123.935 56.8822 123.474 56.8822C123.342 56.8822 122.994 56.8986 122.611 56.8986C122.239 56.8986 122.028 56.8822 121.911 56.8822C121.894 56.9386 121.894 56.9988 121.911 57.0552C121.998 57.0592 122.084 57.0759 122.166 57.1046C122.21 57.1194 122.248 57.1494 122.272 57.1894C122.297 57.2294 122.306 57.2767 122.299 57.3229C122.308 57.5907 122.308 57.8873 122.308 58.4022C122.308 58.9665 122.308 59.3537 122.299 59.4814C122.305 59.5274 122.296 59.574 122.274 59.6147C122.251 59.6553 122.217 59.688 122.175 59.708C122.074 59.743 121.968 59.7651 121.861 59.7739C121.84 59.8292 121.838 59.8904 121.856 59.9469C122.19 59.9469 123.004 59.9716 123.22 59.9716C123.506 59.9786 123.792 59.9281 124.058 59.8233C124.233 59.7619 124.383 59.6474 124.489 59.4959C124.594 59.3444 124.649 59.1635 124.647 58.9789C124.647 58.5381 124.333 58.3198 123.892 58.2291C123.889 58.2275 123.887 58.2254 123.886 58.2229C123.885 58.2204 123.884 58.2177 123.884 58.2149C123.884 58.212 123.885 58.2092 123.886 58.2067C123.887 58.2042 123.889 58.202 123.891 58.2003ZM126.878 59.3661C126.876 59.3586 126.872 59.3517 126.867 59.346C126.862 59.3402 126.856 59.3358 126.848 59.3331C126.704 59.4612 126.517 59.5316 126.324 59.5308C126.22 59.536 126.117 59.5145 126.024 59.4683C125.931 59.4222 125.852 59.3529 125.794 59.2672C125.69 59.0945 125.638 58.896 125.642 58.6946C125.642 58.3074 125.794 58.0767 126.01 58.0767C126.229 58.1313 126.421 58.2666 126.545 58.4557C126.568 58.4668 126.594 58.4697 126.619 58.464C126.718 58.3812 126.797 58.277 126.85 58.1592C126.859 58.1269 126.859 58.0926 126.85 58.0603C126.812 57.9928 126.751 57.9415 126.678 57.9161C126.543 57.866 126.4 57.8436 126.256 57.8502C125.998 57.86 125.747 57.9336 125.525 58.0644C125.375 58.157 125.252 58.2859 125.165 58.4394C125.079 58.5928 125.032 58.7657 125.031 58.9418C125.021 59.1923 125.095 59.4389 125.242 59.6421C125.327 59.7567 125.44 59.8485 125.569 59.9096C125.698 59.9706 125.841 59.999 125.983 59.9922C126.152 59.9892 126.317 59.948 126.467 59.8717C126.617 59.7953 126.747 59.6858 126.848 59.5515C126.875 59.4936 126.885 59.4294 126.878 59.3661ZM127.907 57.0552C127.883 57.032 127.853 57.0142 127.821 57.0028C127.789 56.9915 127.755 56.9868 127.721 56.9893C127.607 56.9898 127.496 57.029 127.407 57.1005C127.381 57.1688 127.375 57.2428 127.388 57.3147C127.397 57.3555 127.414 57.3941 127.438 57.4281C127.463 57.4621 127.494 57.4907 127.53 57.5124C127.629 57.5302 127.731 57.5202 127.824 57.4836C127.862 57.4506 127.891 57.41 127.912 57.3645C127.932 57.319 127.942 57.2697 127.942 57.22C127.94 57.1634 127.929 57.1075 127.907 57.0552ZM128.79 57.0552C128.737 57.0095 128.669 56.9859 128.599 56.9893C128.485 56.9909 128.375 57.03 128.285 57.1005C128.262 57.1693 128.255 57.2427 128.265 57.3147C128.288 57.3955 128.338 57.4656 128.408 57.5124C128.506 57.5302 128.608 57.5202 128.702 57.4836C128.74 57.4513 128.771 57.4109 128.791 57.3652C128.811 57.3196 128.821 57.2699 128.819 57.22C128.82 57.1637 128.81 57.1077 128.79 57.0552ZM128.932 58.5793C128.917 58.3822 128.829 58.1978 128.685 58.0628C128.54 57.9278 128.35 57.8519 128.153 57.8502C127.945 57.8548 127.742 57.9129 127.564 58.0191C127.417 58.1195 127.298 58.2551 127.218 58.4134C127.137 58.5718 127.098 58.7478 127.103 58.9253C127.088 59.2281 127.194 59.5245 127.397 59.7492C127.485 59.8325 127.588 59.897 127.701 59.9388C127.814 59.9806 127.934 59.9988 128.055 59.9922C128.229 59.9838 128.4 59.9383 128.555 59.8588C128.711 59.7792 128.848 59.6674 128.957 59.5308C128.972 59.4773 128.981 59.4218 128.981 59.3661C128.977 59.3527 128.969 59.3412 128.957 59.3331C128.798 59.4631 128.598 59.5318 128.393 59.5267C128.308 59.532 128.223 59.5198 128.142 59.4907C128.062 59.4617 127.989 59.4164 127.927 59.3578C127.819 59.2458 127.754 59.1004 127.741 58.9459C127.74 58.9275 127.748 58.9097 127.76 58.8965C128.168 58.8855 128.574 58.8484 128.976 58.7853C128.996 58.7425 129.006 58.6962 129.006 58.6493C128.974 58.6361 128.947 58.6111 128.932 58.5793ZM131.242 57.8831C131.24 57.8734 131.234 57.8649 131.226 57.8589C131.218 57.8529 131.208 57.8498 131.198 57.8502C131.039 57.907 130.887 57.983 130.747 58.0767C130.741 58.0836 130.738 58.0917 130.736 58.1003C130.734 58.1089 130.735 58.1177 130.737 58.1262C130.759 58.1618 130.771 58.2025 130.773 58.2443C130.775 58.2862 130.766 58.3278 130.747 58.3651C130.619 58.7153 130.438 59.2013 130.34 59.4155C130.323 59.5145 130.272 59.6045 130.196 59.67C130.12 59.7354 130.023 59.7722 129.923 59.7739C129.905 59.8304 129.907 59.8915 129.928 59.9469C130.016 59.9469 130.202 59.9304 130.34 59.9304C130.457 59.9304 130.722 59.9469 130.806 59.9469C130.834 59.894 130.845 59.8332 130.835 59.7739C130.763 59.7604 130.692 59.7397 130.624 59.7121C130.561 59.6833 130.536 59.6297 130.57 59.4979C130.611 59.3537 130.752 58.9212 130.845 58.6617C130.846 58.6594 130.848 58.6575 130.85 58.6562C130.852 58.6549 130.855 58.6542 130.857 58.6542C130.86 58.6542 130.862 58.6549 130.864 58.6562C130.866 58.6575 130.868 58.6594 130.869 58.6617C130.963 58.88 131.164 59.4031 131.24 59.6338C131.26 59.7039 131.24 59.7203 131.221 59.7286C131.179 59.747 131.137 59.7621 131.093 59.7739C131.085 59.8323 131.092 59.8918 131.113 59.9469C131.206 59.9387 131.451 59.9304 131.598 59.9304C131.745 59.9304 132.113 59.9387 132.25 59.9469C132.271 59.8915 132.274 59.8312 132.26 59.7739C132.171 59.7761 132.083 59.748 132.012 59.6942C131.941 59.6403 131.89 59.5638 131.868 59.4773C131.752 59.2095 131.394 58.3033 131.242 57.8831ZM136.597 59.7739C136.549 59.7599 136.5 59.7489 136.45 59.7409C136.428 59.7376 136.408 59.7301 136.389 59.7188C136.371 59.7074 136.354 59.6925 136.342 59.6749C136.329 59.6573 136.32 59.6373 136.315 59.6161C136.31 59.5949 136.309 59.5729 136.312 59.5515C136.307 59.4238 136.302 59.1725 136.302 58.9006C136.298 58.6781 136.302 58.4022 136.307 58.2704C136.304 58.2513 136.305 58.2316 136.309 58.2128C136.314 58.194 136.323 58.1764 136.335 58.1612C136.347 58.146 136.362 58.1335 136.38 58.1247C136.397 58.1158 136.416 58.1107 136.435 58.1097C136.469 58.1015 136.523 58.085 136.559 58.0809C136.568 58.0222 136.568 57.9624 136.559 57.9038C136.377 57.9079 136.201 57.9202 135.999 57.9202C135.862 57.9202 135.524 57.9079 135.445 57.9079C135.429 57.9627 135.426 58.0204 135.435 58.0767C135.476 58.0819 135.516 58.093 135.553 58.1097C135.585 58.1137 135.615 58.1301 135.635 58.1555C135.655 58.181 135.665 58.2133 135.661 58.2456C135.666 58.4104 135.666 58.6782 135.666 58.8553C135.603 58.8782 135.537 58.8894 135.47 58.8883C135.427 58.8937 135.383 58.8888 135.342 58.874C135.301 58.8592 135.264 58.8349 135.235 58.8032C135.205 58.7714 135.183 58.7331 135.171 58.6913C135.159 58.6495 135.157 58.6055 135.166 58.5628C135.16 58.4406 135.161 58.3182 135.171 58.1962C135.175 58.1221 135.195 58.1015 135.313 58.0767C135.332 58.0207 135.332 57.9598 135.313 57.9038C135.272 57.9038 135.097 57.9202 134.842 57.9202C134.548 57.9202 134.366 57.9038 134.298 57.9038C134.295 57.9091 134.293 57.9146 134.291 57.9202C134.291 57.9161 134.291 57.9079 134.288 57.9038C134.141 57.9079 133.974 57.9202 133.812 57.9202C133.631 57.9202 133.469 57.9038 133.366 57.9038C133.348 57.9597 133.34 58.0181 133.342 58.0767C133.418 58.0821 133.492 58.1002 133.562 58.1303C133.579 58.1355 133.594 58.144 133.607 58.1551C133.62 58.1663 133.631 58.1799 133.638 58.1953C133.646 58.2107 133.651 58.2274 133.652 58.2445C133.653 58.2617 133.65 58.2789 133.645 58.2951C133.571 58.599 133.469 58.8954 133.341 59.1807H133.321C133.262 59.0407 133.022 58.4351 132.953 58.2168C132.948 58.1994 132.949 58.1808 132.955 58.1638C132.961 58.1468 132.973 58.1322 132.988 58.122C133.035 58.1008 133.084 58.0856 133.135 58.0767C133.142 58.0189 133.138 57.9604 133.125 57.9038C132.983 57.9079 132.845 57.9202 132.556 57.9202C132.237 57.9202 131.987 57.9038 131.923 57.9038C131.905 57.9596 131.895 58.0179 131.894 58.0767C131.954 58.0856 132.013 58.1008 132.07 58.122C132.208 58.1715 132.252 58.2498 132.394 58.5999C132.575 59.0283 132.757 59.4814 132.875 59.7657C132.895 59.8098 132.918 59.8524 132.943 59.8933C132.749 60.2342 132.519 60.5532 132.257 60.8449C132.245 60.8794 132.243 60.9166 132.252 60.952C132.347 61.0361 132.465 61.0893 132.59 61.1044L132.649 61.0879C132.683 61.022 132.762 60.882 132.821 60.7625C133.232 60.009 133.593 59.2288 133.9 58.4269C133.911 58.3651 133.936 58.3066 133.972 58.2553C134.009 58.2041 134.056 58.1615 134.111 58.1303C134.168 58.1034 134.229 58.0854 134.292 58.0767V58.0726C134.335 58.0803 134.378 58.0914 134.42 58.1056C134.451 58.1123 134.48 58.1301 134.499 58.1557C134.519 58.1814 134.529 58.2133 134.527 58.2456C134.527 58.4104 134.523 58.5381 134.523 58.6493C134.516 58.7213 134.526 58.7938 134.552 58.861C134.579 58.9283 134.621 58.9884 134.675 59.0366C134.807 59.1304 134.968 59.1755 135.131 59.1642C135.317 59.1601 135.501 59.1166 135.67 59.0366C135.67 59.2425 135.675 59.432 135.665 59.572C135.671 59.6049 135.664 59.6386 135.647 59.6673C135.63 59.6959 135.604 59.7176 135.572 59.7286C135.503 59.7492 135.439 59.7574 135.356 59.7739C135.34 59.831 135.343 59.8921 135.366 59.9469C135.444 59.9387 135.802 59.9304 135.969 59.9304C136.146 59.9304 136.44 59.9469 136.577 59.9469C136.6 59.8923 136.607 59.8323 136.597 59.7739H136.597ZM140.255 59.7739C140.205 59.7599 140.155 59.7489 140.103 59.7409C140.082 59.7376 140.062 59.7299 140.043 59.7185C140.025 59.7071 140.009 59.692 139.997 59.6744C139.984 59.6567 139.976 59.6366 139.971 59.6155C139.967 59.5944 139.967 59.5726 139.971 59.5515V58.8841C139.971 58.6617 139.966 58.3898 139.976 58.2621C139.971 58.2445 139.97 58.2261 139.974 58.2081C139.977 58.1902 139.984 58.1732 139.995 58.1586C140.006 58.1439 140.02 58.1318 140.036 58.1234C140.052 58.1149 140.07 58.1102 140.088 58.1097C140.134 58.0977 140.18 58.088 140.226 58.0809C140.238 58.0225 140.238 57.9622 140.226 57.9038C140.044 57.9079 139.868 57.9202 139.667 57.9202C139.529 57.9202 139.211 57.9079 139.132 57.9079C139.111 57.9647 139.106 58.0257 139.117 58.085C139.161 58.0932 139.21 58.1015 139.244 58.1097C139.269 58.1141 139.291 58.1275 139.306 58.1473C139.322 58.1671 139.329 58.1919 139.327 58.2168C139.337 58.3198 139.337 58.7482 139.337 58.8965C139.337 59.1972 139.337 59.6421 139.332 59.6874C139.329 59.6932 139.325 59.6983 139.32 59.7019C139.315 59.7056 139.309 59.7077 139.303 59.708H138.861C138.851 59.7052 138.842 59.6992 138.836 59.691C138.83 59.6829 138.827 59.6729 138.827 59.6627C138.817 59.4732 138.817 59.1478 138.817 58.88C138.817 58.6576 138.817 58.3981 138.822 58.2663C138.816 58.2352 138.82 58.203 138.835 58.1751C138.85 58.1472 138.875 58.1256 138.904 58.1138L139.012 58.0809C139.024 58.0225 139.024 57.9622 139.012 57.9038C138.831 57.9079 138.708 57.9202 138.512 57.9202C138.262 57.9202 138.056 57.9079 137.977 57.9079C137.961 57.9641 137.957 58.0232 137.967 58.0809L138.08 58.1056C138.095 58.1079 138.109 58.1133 138.123 58.1215C138.136 58.1297 138.147 58.1405 138.156 58.1533C138.164 58.166 138.17 58.1805 138.173 58.1957C138.176 58.2108 138.176 58.2264 138.173 58.2415C138.178 58.3198 138.183 58.7441 138.183 58.8883C138.183 59.3002 138.178 59.6421 138.168 59.6874C138.167 59.6932 138.164 59.6985 138.159 59.7023C138.155 59.7061 138.149 59.7082 138.143 59.708C137.972 59.708 137.736 59.708 137.702 59.7039C137.695 59.7023 137.688 59.6988 137.683 59.6937C137.678 59.6886 137.674 59.6821 137.673 59.675C137.663 59.5432 137.663 59.1766 137.663 58.8841C137.663 58.7523 137.668 58.4104 137.668 58.2663C137.668 58.1592 137.692 58.1221 137.756 58.1056L137.854 58.0809C137.874 58.0235 137.874 57.9611 137.854 57.9038C137.815 57.9038 137.689 57.9202 137.339 57.9202C137.045 57.9202 136.863 57.9038 136.795 57.9038C136.77 57.9551 136.765 58.0136 136.78 58.0685C136.826 58.0777 136.872 58.0901 136.917 58.1056C136.949 58.1122 136.977 58.13 136.997 58.1557C137.017 58.1814 137.027 58.2133 137.025 58.2456C137.03 58.4434 137.03 58.6782 137.03 58.88C137.03 59.1066 137.03 59.3908 137.025 59.5473C137.03 59.5696 137.03 59.5927 137.026 59.6151C137.022 59.6375 137.013 59.6589 137 59.6778C136.987 59.6967 136.97 59.7127 136.951 59.725C136.932 59.7373 136.91 59.7455 136.888 59.7492C136.843 59.7535 136.799 59.7618 136.756 59.7739C136.741 59.8306 136.741 59.8902 136.756 59.9469C136.819 59.9469 137.025 59.9304 137.28 59.9304H139.634C139.811 59.9304 140.095 59.9469 140.233 59.9469C140.254 59.892 140.262 59.8326 140.256 59.7739H140.255ZM142.34 58.5793C142.325 58.3822 142.236 58.1979 142.092 58.0629C141.947 57.9279 141.758 57.852 141.56 57.8502C141.352 57.8547 141.15 57.9129 140.971 58.0191C140.825 58.1195 140.706 58.2551 140.625 58.4134C140.545 58.5717 140.505 58.7478 140.51 58.9253C140.495 59.2281 140.601 59.5244 140.804 59.7492C140.891 59.8325 140.995 59.897 141.108 59.9388C141.221 59.9806 141.341 59.9988 141.461 59.9922C141.636 59.9838 141.807 59.9383 141.962 59.8588C142.118 59.7792 142.255 59.6674 142.364 59.5308C142.38 59.4773 142.388 59.4218 142.389 59.3661C142.384 59.3527 142.376 59.3411 142.364 59.3331C142.205 59.4632 142.005 59.5319 141.8 59.5267C141.715 59.532 141.63 59.5197 141.55 59.4907C141.469 59.4616 141.396 59.4164 141.334 59.3578C141.226 59.246 141.161 59.1005 141.148 58.9459C141.148 58.9275 141.155 58.9098 141.167 58.8965C141.575 58.8855 141.981 58.8484 142.384 58.7853C142.403 58.7425 142.413 58.6962 142.413 58.6493C142.381 58.6359 142.355 58.6109 142.34 58.5793H142.34ZM144.517 58.5793C144.502 58.3823 144.413 58.198 144.269 58.063C144.125 57.928 143.935 57.8521 143.737 57.8502C143.53 57.8547 143.327 57.9129 143.149 58.0191C143.002 58.1195 142.883 58.2551 142.803 58.4134C142.722 58.5717 142.683 58.7478 142.688 58.9253C142.673 59.2281 142.778 59.5244 142.982 59.7492C143.069 59.8327 143.173 59.8974 143.286 59.9392C143.4 59.981 143.52 59.999 143.641 59.9922C143.815 59.9838 143.986 59.9383 144.142 59.8587C144.297 59.7792 144.434 59.6674 144.543 59.5308C144.559 59.4773 144.567 59.4218 144.568 59.3661C144.563 59.3527 144.555 59.3411 144.543 59.3331C144.384 59.4632 144.184 59.5319 143.979 59.5267C143.894 59.532 143.809 59.5197 143.729 59.4907C143.648 59.4616 143.575 59.4164 143.513 59.3578C143.406 59.246 143.34 59.1005 143.327 58.9459C143.327 58.9275 143.334 58.9098 143.346 58.8965C143.754 58.8855 144.16 58.8484 144.563 58.7853C144.582 58.7425 144.592 58.6962 144.592 58.6493C144.559 58.6361 144.533 58.6112 144.518 58.5793H144.517ZM148.121 59.7739C148.048 59.7533 148.004 59.7492 147.935 59.7244C147.901 59.7104 147.874 59.6848 147.858 59.6523C147.842 59.6198 147.838 59.5825 147.847 59.5473C147.837 59.2466 147.832 58.4887 147.837 58.2621C147.832 58.2351 147.837 58.2073 147.849 58.1829C147.861 58.1584 147.881 58.1386 147.906 58.1262C147.963 58.1055 148.022 58.0904 148.082 58.0809C148.102 58.0234 148.102 57.9612 148.082 57.9038C147.979 57.9038 147.852 57.9202 147.538 57.9202C147.224 57.9202 147.097 57.9038 146.989 57.9038C146.966 57.96 146.961 58.0217 146.974 58.0809C147.019 58.0883 147.063 58.0993 147.106 58.1138C147.14 58.1278 147.167 58.1533 147.183 58.1859C147.2 58.2184 147.204 58.2557 147.195 58.2909C147.194 58.3227 147.185 58.3538 147.17 58.3816C147.038 58.571 146.724 58.9541 146.586 59.1024C146.581 59.1107 146.562 59.1107 146.562 59.0901C146.567 58.7935 146.567 58.431 146.572 58.2621C146.569 58.2442 146.569 58.2258 146.573 58.208C146.577 58.1902 146.584 58.1733 146.594 58.1583C146.605 58.1434 146.618 58.1307 146.634 58.1209C146.649 58.1112 146.666 58.1046 146.684 58.1015L146.808 58.0685C146.828 58.014 146.828 57.9542 146.808 57.8996C146.769 57.8996 146.602 57.9161 146.254 57.9161C145.959 57.9161 145.778 57.8996 145.709 57.8996C145.685 57.9511 145.68 58.0095 145.694 58.0644C145.741 58.0736 145.787 58.086 145.832 58.1015C145.865 58.108 145.894 58.1263 145.914 58.1529C145.933 58.1795 145.943 58.2125 145.94 58.2456C145.945 58.4104 145.95 58.5999 145.95 58.7935C145.95 59.02 145.945 59.2466 145.945 59.4608C145.945 59.6214 145.945 59.7039 145.821 59.7451C145.772 59.7533 145.743 59.7656 145.684 59.7739C145.669 59.8306 145.669 59.8902 145.684 59.9469C145.782 59.9469 146.022 59.9304 146.213 59.9304C146.478 59.9304 146.704 59.9469 146.783 59.9469C146.806 59.8923 146.813 59.8322 146.802 59.7739C146.752 59.7659 146.703 59.7549 146.655 59.7409C146.581 59.7121 146.567 59.6874 146.567 59.5062C146.568 59.4732 146.576 59.4409 146.591 59.4114C146.719 59.2301 147.057 58.8388 147.185 58.6782C147.195 58.6576 147.214 58.6782 147.214 58.6987C147.214 59.0242 147.224 59.3702 147.214 59.6133C147.209 59.6998 147.146 59.7203 147.003 59.7904C146.995 59.8424 146.997 59.8955 147.008 59.9469C147.116 59.9345 147.307 59.9304 147.523 59.9304C147.749 59.9304 147.969 59.9387 148.102 59.9469C148.12 59.8912 148.127 59.8323 148.122 59.7739H148.121ZM149.941 58.3527C149.941 58.0191 149.622 57.8502 149.195 57.8502C148.946 57.8593 148.7 57.9051 148.465 57.9861C148.455 58.0932 148.411 58.4022 148.406 58.4887C148.454 58.52 148.51 58.5358 148.568 58.534C148.581 58.4194 148.63 58.3119 148.707 58.2263C148.785 58.1407 148.887 58.0812 148.999 58.0562C149.048 58.0587 149.096 58.0718 149.139 58.0945C149.182 58.1172 149.22 58.149 149.25 58.1878C149.28 58.2265 149.301 58.2713 149.312 58.319C149.323 58.3666 149.323 58.4161 149.313 58.464C149.318 58.5045 149.313 58.5456 149.3 58.5841C149.287 58.6226 149.265 58.6577 149.236 58.6866C149.207 58.7155 149.172 58.7375 149.134 58.751C149.095 58.7646 149.054 58.7692 149.014 58.7647C148.955 58.7652 148.896 58.761 148.837 58.7523C148.824 58.8397 148.806 58.9263 148.783 59.0118C148.845 59.0047 148.907 59.002 148.97 59.0036C149.023 59.001 149.076 59.0095 149.125 59.0287C149.175 59.0479 149.22 59.0773 149.257 59.1149C149.295 59.1526 149.324 59.1977 149.343 59.2474C149.362 59.297 149.37 59.3501 149.367 59.4032C149.377 59.4482 149.378 59.4949 149.368 59.54C149.358 59.5852 149.338 59.6276 149.31 59.6642C149.282 59.7008 149.246 59.7307 149.205 59.7518C149.164 59.7729 149.119 59.7847 149.073 59.7862C148.872 59.7862 148.685 59.6833 148.494 59.2672C148.433 59.2716 148.376 59.2963 148.332 59.3373C148.346 59.5213 148.389 59.702 148.46 59.8727C148.643 59.9539 148.842 59.9947 149.043 59.9922C149.465 59.9922 150.058 59.8274 150.058 59.3166C150.046 59.1834 149.985 59.0593 149.887 58.9676C149.79 58.8758 149.662 58.8227 149.529 58.8182C149.526 58.8153 149.525 58.8116 149.525 58.8079C149.525 58.8042 149.526 58.8006 149.529 58.7976C149.638 58.7813 149.738 58.7285 149.813 58.6476C149.888 58.5668 149.933 58.4627 149.941 58.3527H149.941ZM153.898 59.7739L153.741 59.7409C153.721 59.7366 153.701 59.7283 153.684 59.7164C153.667 59.7046 153.652 59.6894 153.64 59.6718C153.629 59.6542 153.621 59.6345 153.617 59.6139C153.613 59.5932 153.613 59.572 153.618 59.5515C153.603 59.1478 153.598 58.5381 153.603 58.258C153.6 58.2429 153.6 58.2273 153.603 58.2122C153.606 58.197 153.612 58.1826 153.62 58.1699C153.629 58.1571 153.64 58.1463 153.653 58.1381C153.667 58.1299 153.681 58.1244 153.696 58.122C153.75 58.1016 153.806 58.0878 153.863 58.0809C153.883 58.0234 153.883 57.9612 153.863 57.9038C153.731 57.9038 153.5 57.9202 153.299 57.9202C153.197 57.9215 153.096 57.9174 152.995 57.9079C152.871 58.2659 152.727 58.6165 152.564 58.9583C152.563 58.9601 152.561 58.9616 152.56 58.9627C152.558 58.9638 152.556 58.9643 152.554 58.9643C152.552 58.9643 152.55 58.9638 152.548 58.9627C152.546 58.9616 152.545 58.9601 152.544 58.9583C152.456 58.8059 152.259 58.3857 152.122 58.1015C152.093 58.0358 152.069 57.9684 152.048 57.8996C151.959 57.9119 151.869 57.9174 151.779 57.9161C151.582 57.9161 151.264 57.8996 151.195 57.8996C151.17 57.9509 151.165 58.0095 151.18 58.0644C151.229 58.0736 151.276 58.086 151.322 58.1015C151.355 58.1095 151.384 58.1287 151.404 58.1559C151.423 58.183 151.433 58.2163 151.43 58.2498C151.44 58.5999 151.416 59.2714 151.401 59.5062C151.391 59.6668 151.362 59.7203 151.092 59.7739C151.08 59.8309 151.08 59.8899 151.092 59.9469C151.156 59.9469 151.367 59.9304 151.504 59.9304C151.656 59.9304 151.838 59.9469 151.99 59.9469C152.012 59.8919 152.016 59.831 151.999 59.7739C151.935 59.7621 151.871 59.747 151.808 59.7286C151.765 59.7154 151.726 59.6888 151.699 59.6525C151.672 59.6162 151.657 59.5722 151.656 59.5267C151.641 59.2631 151.651 58.8347 151.651 58.4805C151.651 58.4681 151.671 58.4681 151.676 58.4763C151.882 58.9459 152.098 59.5144 152.253 59.9181C152.315 59.9091 152.378 59.8967 152.439 59.881C152.601 59.469 152.861 58.7688 152.979 58.4887C152.979 58.487 152.98 58.4856 152.981 58.4846C152.983 58.4836 152.984 58.483 152.986 58.483C152.988 58.483 152.989 58.4836 152.991 58.4846C152.992 58.4856 152.993 58.487 152.993 58.4887C152.988 58.9006 152.993 59.4361 152.979 59.6421C152.974 59.6997 152.938 59.745 152.748 59.7739C152.731 59.8313 152.736 59.8932 152.763 59.9469C152.826 59.9387 153.072 59.9304 153.337 59.9304C153.543 59.9304 153.783 59.9469 153.876 59.9469C153.892 59.9212 153.902 59.8926 153.906 59.8628C153.91 59.833 153.907 59.8027 153.899 59.7739H153.898ZM156.34 59.7739C156.289 59.7675 156.238 59.7579 156.189 59.7451C156.149 59.7397 156.113 59.7191 156.088 59.6875C156.063 59.656 156.052 59.616 156.056 59.5762C156.046 59.4608 156.046 59.1601 156.046 58.8841C156.046 58.6082 156.046 58.3157 156.051 58.1921C156.048 58.1741 156.052 58.1556 156.062 58.1404C156.072 58.1251 156.087 58.1142 156.105 58.1097C156.165 58.0968 156.226 58.0872 156.287 58.0809C156.315 58.0264 156.325 57.9644 156.316 57.9038C156.144 57.8996 155.737 57.8873 155.477 57.8873C155.209 57.8732 154.941 57.9024 154.683 57.9738C154.569 58.0046 154.469 58.0716 154.397 58.1645C154.326 58.2575 154.286 58.3713 154.285 58.4887C154.29 58.6287 154.347 58.7619 154.445 58.8619C154.543 58.9618 154.675 59.0212 154.815 59.0283C154.818 59.0312 154.819 59.0349 154.819 59.0386C154.819 59.0424 154.818 59.046 154.815 59.0489C154.712 59.0907 154.622 59.1607 154.555 59.2508C154.486 59.3249 154.418 59.4237 154.334 59.5226C154.295 59.5926 154.239 59.652 154.172 59.6957C154.104 59.7395 154.027 59.7663 153.947 59.7739C153.933 59.8004 153.925 59.8302 153.925 59.8604C153.925 59.8907 153.933 59.9204 153.947 59.9469C154.016 59.9556 154.084 59.9597 154.153 59.9593C154.378 59.99 154.606 59.9435 154.801 59.8274C154.963 59.6535 155.104 59.4598 155.218 59.2508C155.236 59.2043 155.265 59.1629 155.303 59.1299C155.34 59.097 155.385 59.0734 155.433 59.0612C155.433 59.2672 155.433 59.3702 155.429 59.5885C155.431 59.6075 155.429 59.6267 155.424 59.6451C155.419 59.6635 155.41 59.6806 155.398 59.6955C155.386 59.7105 155.372 59.7229 155.355 59.7321C155.338 59.7413 155.32 59.7471 155.301 59.7492C155.259 59.7603 155.217 59.7685 155.174 59.7739C155.156 59.8302 155.156 59.8905 155.174 59.9469C155.34 59.9387 155.576 59.9304 155.747 59.9304C155.919 59.9304 156.159 59.9469 156.326 59.9469C156.345 59.8912 156.35 59.8318 156.34 59.7739ZM158.429 59.3661C158.428 59.3585 158.424 59.3516 158.419 59.3459C158.414 59.3401 158.407 59.3357 158.4 59.3331C158.255 59.4613 158.069 59.5316 157.875 59.5308C157.772 59.536 157.669 59.5145 157.576 59.4683C157.483 59.4222 157.404 59.3529 157.346 59.2672C157.242 59.0945 157.189 58.896 157.194 58.6946C157.194 58.3074 157.346 58.0767 157.561 58.0767C157.781 58.1313 157.972 58.2666 158.097 58.4557C158.12 58.4668 158.146 58.4697 158.171 58.464C158.27 58.3813 158.349 58.277 158.401 58.1592C158.411 58.1269 158.411 58.0925 158.401 58.0603C158.364 57.9928 158.303 57.9414 158.23 57.9161C158.095 57.866 157.951 57.8436 157.808 57.8502C157.55 57.86 157.299 57.9336 157.077 58.0644C156.927 58.157 156.803 58.286 156.717 58.4394C156.63 58.5929 156.584 58.7657 156.583 58.9418C156.573 59.1923 156.647 59.4388 156.794 59.6421C156.879 59.7566 156.992 59.8484 157.121 59.9094C157.25 59.9705 157.392 59.9989 157.535 59.9922C157.703 59.9892 157.869 59.948 158.019 59.8717C158.168 59.7953 158.299 59.6858 158.4 59.5515C158.427 59.4936 158.437 59.4294 158.43 59.3661H158.429ZM160.587 59.5968C160.535 59.614 160.48 59.6223 160.425 59.6215C160.404 59.6187 160.383 59.6115 160.364 59.6002C160.346 59.589 160.329 59.5739 160.317 59.5561C160.305 59.5382 160.296 59.518 160.292 59.4966C160.288 59.4752 160.288 59.4532 160.293 59.432C160.293 59.226 160.303 58.9006 160.303 58.6617C160.311 58.4845 160.268 58.3087 160.179 58.155C160.116 58.0591 160.029 57.9808 159.927 57.9275C159.825 57.8743 159.711 57.8477 159.596 57.8502C159.316 57.892 159.052 58.0024 158.826 58.1715C158.775 58.2743 158.741 58.3839 158.723 58.4969C158.744 58.5232 158.771 58.5446 158.802 58.5595C158.832 58.5744 158.865 58.5826 158.899 58.5834C158.946 58.4806 159 58.3814 159.061 58.2868C159.13 58.2345 159.216 58.2096 159.301 58.2168C159.366 58.2139 159.429 58.2266 159.488 58.2539C159.546 58.2812 159.596 58.3222 159.635 58.3734C159.688 58.4494 159.713 58.5406 159.708 58.6329C159.709 58.655 159.708 58.677 159.704 58.6987C159.702 58.7102 159.697 58.721 159.691 58.7303C159.684 58.7397 159.675 58.7472 159.664 58.7523C159.483 58.8347 158.875 58.9789 158.733 59.0695C158.687 59.1637 158.659 59.2657 158.65 59.3702C158.647 59.4619 158.663 59.5532 158.695 59.6389C158.728 59.7245 158.778 59.8026 158.842 59.8687C158.922 59.9469 159.029 59.9912 159.141 59.9922C159.339 59.9538 159.525 59.8707 159.685 59.7492C159.685 59.7451 159.705 59.7451 159.705 59.7533C159.711 59.7827 159.719 59.8117 159.729 59.8398C159.756 59.8945 159.799 59.9392 159.853 59.9674C159.907 59.9955 159.968 60.0057 160.029 59.9963C160.224 59.9913 160.412 59.9218 160.564 59.7986C160.584 59.7332 160.591 59.6649 160.587 59.5968H160.587ZM159.665 59.5885C159.634 59.6118 159.596 59.6221 159.557 59.6173C159.512 59.6161 159.467 59.6055 159.425 59.586C159.384 59.5665 159.347 59.5387 159.317 59.5042C159.287 59.4697 159.265 59.4294 159.251 59.3857C159.238 59.3421 159.233 59.2962 159.238 59.2508C159.241 59.1939 159.254 59.138 159.278 59.086C159.41 59.0208 159.548 58.9671 159.689 58.9253C159.694 58.9281 159.697 58.9318 159.7 58.936C159.702 58.9403 159.704 58.9451 159.704 58.95C159.704 59.0365 159.704 59.3414 159.694 59.4979C159.696 59.5142 159.695 59.5307 159.69 59.5463C159.685 59.5619 159.676 59.5763 159.666 59.5885H159.665ZM154.928 58.4516C154.926 58.4045 154.933 58.3573 154.95 58.3134C154.968 58.2694 154.994 58.2297 155.028 58.1969C155.062 58.1641 155.103 58.139 155.147 58.1232C155.192 58.1074 155.239 58.1015 155.286 58.1056C155.324 58.1046 155.362 58.1074 155.399 58.1138C155.409 58.1203 155.417 58.1296 155.422 58.1405C155.428 58.1514 155.43 58.1636 155.428 58.1756C155.433 58.3568 155.428 58.6617 155.428 58.88C155.366 58.8902 155.303 58.8868 155.242 58.8699C155.182 58.853 155.126 58.8231 155.078 58.7823C155.031 58.7414 154.993 58.6907 154.967 58.6336C154.941 58.5765 154.928 58.5143 154.928 58.4516H154.928ZM143.345 58.6617C143.337 58.6605 143.331 58.657 143.326 58.6519C143.32 58.6467 143.317 58.6401 143.315 58.6329C143.315 58.2951 143.423 58.0479 143.59 58.0479C143.776 58.0479 143.884 58.2827 143.899 58.604C143.899 58.6136 143.896 58.6231 143.891 58.6311C143.886 58.6392 143.878 58.6455 143.87 58.6493C143.695 58.6682 143.52 58.6723 143.345 58.6617H143.345ZM141.167 58.6617C141.16 58.6605 141.153 58.657 141.148 58.6519C141.143 58.6467 141.139 58.6401 141.138 58.6329C141.138 58.2951 141.246 58.0479 141.412 58.0479C141.599 58.0479 141.707 58.2827 141.722 58.604C141.722 58.6136 141.719 58.6231 141.714 58.6311C141.708 58.6392 141.701 58.6455 141.692 58.6493C141.518 58.6682 141.343 58.6723 141.168 58.6617H141.167ZM127.76 58.6617C127.753 58.6605 127.746 58.6571 127.741 58.652C127.735 58.6468 127.732 58.6402 127.73 58.6329C127.73 58.2951 127.838 58.0479 128.005 58.0479C128.191 58.0479 128.299 58.2827 128.314 58.604C128.314 58.6136 128.311 58.6229 128.306 58.631C128.301 58.639 128.293 58.6454 128.285 58.6493C128.111 58.6682 127.935 58.6723 127.76 58.6617H127.76ZM123.394 59.7739C123.275 59.7702 123.161 59.7233 123.075 59.6421C123.036 59.597 123.012 59.5408 123.006 59.4814C122.992 59.2507 122.996 58.7935 122.996 58.431C122.996 58.4275 122.997 58.4239 122.998 58.4205C122.999 58.4171 123 58.414 123.003 58.4113C123.005 58.4086 123.008 58.4065 123.011 58.4049C123.014 58.4033 123.018 58.4024 123.021 58.4022C123.06 58.3981 123.119 58.3981 123.173 58.3981C123.268 58.3865 123.364 58.3962 123.455 58.4265C123.546 58.4568 123.629 58.5069 123.698 58.5731C123.767 58.6393 123.82 58.7201 123.854 58.8095C123.888 58.8989 123.902 58.9948 123.894 59.0901C123.896 59.5309 123.695 59.7739 123.396 59.7739H123.394ZM123.251 58.1838C123.144 58.1838 123.065 58.1838 123.021 58.1797C123.015 58.1796 123.008 58.177 123.004 58.1724C122.999 58.1678 122.997 58.1616 122.996 58.155C122.996 57.8255 122.996 57.3271 123.006 57.1788C123.01 57.1536 123.022 57.1304 123.041 57.1128C123.076 57.103 123.112 57.0975 123.148 57.0964C123.233 57.0878 123.318 57.0984 123.398 57.1272C123.477 57.1561 123.55 57.2025 123.609 57.263C123.668 57.3235 123.713 57.3967 123.74 57.4769C123.768 57.5572 123.777 57.6425 123.766 57.7266C123.775 57.8057 123.763 57.8858 123.73 57.9583C123.697 58.0309 123.646 58.0931 123.58 58.1385C123.476 58.177 123.364 58.1924 123.254 58.1838H123.251Z" fill="white"/>
</svg>
