<svg width="283" height="74" viewBox="0 0 283 74" fill="none" xmlns="http://www.w3.org/2000/svg">
<path d="M157.015 37.6332C156.934 34.4614 154.341 31.9155 151.15 31.9155C148.013 31.9155 145.453 34.3715 145.292 37.4687C145.292 37.4687 147.477 37.7633 148.898 36.3425C149.461 35.7793 149.889 35.2825 151.148 35.2718C151.148 35.2718 151.162 35.2694 151.158 35.2694C152.543 35.273 153.666 36.3969 153.666 37.7846V38.6246H149.941C147.166 38.6281 144.918 40.8794 144.918 43.6548C144.918 46.4066 147.128 48.6413 149.869 48.6827L151.03 48.6816C152.303 48.6378 153.395 47.8866 153.925 46.8076C153.94 46.7816 153.955 46.7544 153.97 46.726C154.5 47.8807 155.665 48.6827 157.018 48.6827V45.3288V37.6332H157.015ZM149.947 45.3312C149.021 45.3312 148.271 44.58 148.271 43.6548C148.271 42.7297 149.022 41.9785 149.947 41.9785H153.664V45.33C153.664 45.3312 153.664 45.3312 153.664 45.3324H149.947V45.3312Z" fill="#0B0B0B"/>
<path d="M137.745 41.957C138.953 41.9593 139.48 42.7212 139.48 43.5837C139.48 44.0297 139.354 45.3239 137.024 45.3239C135.902 45.3239 135.35 44.8933 134.78 44.3242C133.359 42.9034 131.151 43.1388 131.151 43.1388C131.151 46.0041 133.856 48.6814 137.023 48.6814C140.561 48.6814 142.811 46.2195 142.811 43.5825C142.811 40.2924 140.487 38.6196 138.053 38.6196L136.218 38.6184C135.01 38.6161 134.484 37.8542 134.484 36.9918C134.484 36.5458 134.744 35.2515 136.94 35.2515C138.061 35.2515 138.614 35.6821 139.184 36.2512C140.605 37.672 142.812 37.4366 142.812 37.4366C142.812 34.5713 140.108 31.894 136.941 31.894C133.402 31.894 131.152 34.3559 131.152 36.9929C131.152 40.283 133.477 41.9558 135.91 41.9558L137.745 41.957Z" fill="#0B0B0B"/>
<path d="M160.375 25.2087V45.3299C160.375 47.1825 161.876 48.6838 163.729 48.6838V28.5627C163.728 26.71 162.226 25.2087 160.375 25.2087Z" fill="#0B0B0B"/>
<path d="M167.082 31.9155V45.33C167.082 47.1827 168.583 48.6839 170.435 48.6839V35.2694C170.434 33.4168 168.933 31.9155 167.082 31.9155Z" fill="#0B0B0B"/>
<path d="M185.522 37.6332C185.441 34.4614 182.848 31.9155 179.657 31.9155C176.467 31.9155 173.872 34.4626 173.793 37.6332H173.789V45.3288C173.789 47.1815 175.291 48.6827 177.143 48.6827V37.7834C177.143 36.3945 178.269 35.2683 179.658 35.2683C181.047 35.2683 182.173 36.3945 182.173 37.7834V45.3288C182.173 47.1815 183.675 48.6827 185.527 48.6827L185.522 37.6332Z" fill="#0B0B0B"/>
<path d="M192.58 27.6405C193.041 26.528 192.513 25.2525 191.4 24.7917C190.288 24.3308 189.012 24.8591 188.551 25.9717C188.091 27.0842 188.619 28.3597 189.731 28.8205C190.844 29.2813 192.119 28.753 192.58 27.6405Z" fill="#0B0B0B"/>
<path d="M169.113 28.9593C170.302 28.7664 171.109 27.6464 170.916 26.4578C170.723 25.2691 169.604 24.462 168.415 24.6549C167.226 24.8478 166.419 25.9677 166.612 27.1564C166.805 28.345 167.925 29.1522 169.113 28.9593Z" fill="#0B0B0B"/>
<path d="M188.879 31.9155V45.33C188.879 47.1827 190.38 48.6839 192.233 48.6839V35.2694C192.232 33.4168 190.73 31.9155 188.879 31.9155Z" fill="#0B0B0B"/>
<path d="M112.742 31.9285H111.749C110.381 31.9285 109.27 30.833 109.238 29.4713L109.237 28.422C109.156 25.2502 106.563 22.7043 103.373 22.7043C100.184 22.7043 97.5896 25.2514 97.5103 28.422L97.5091 29.4122C97.5091 30.8011 96.3829 31.9297 94.994 31.9297H93.9955C90.825 32.0101 88.2791 34.6034 88.2791 37.794C88.2791 40.9847 90.825 43.5791 93.9955 43.6583H94.994C96.3628 43.6583 97.4736 44.755 97.5056 46.1167L97.5068 47.1661C97.5872 50.3378 100.18 52.8837 103.37 52.8837C106.559 52.8837 109.154 50.3366 109.233 47.1661L109.234 45.3986V46.1759C109.234 44.787 110.36 43.6572 111.749 43.6572H112.742C115.913 43.5767 118.458 40.9835 118.458 37.7928C118.458 34.6022 115.913 32.0078 112.742 31.9285ZM112.592 40.308C110.739 40.308 109.238 41.8057 109.238 43.6572H109.234C107.383 43.6583 105.883 45.1632 105.883 47.0146V47.0158C105.883 48.4047 104.756 49.531 103.368 49.531C101.979 49.531 100.854 48.4047 100.852 47.0158V47.0146C100.852 45.1644 99.3547 43.6607 97.5056 43.6583H97.4961C97.4961 41.8069 95.9948 40.308 94.1434 40.308H94.1422C92.7533 40.308 91.6271 39.1817 91.6271 37.7928C91.6271 36.404 92.7533 35.2777 94.141 35.2777H94.1422C95.9937 35.2777 97.4937 33.78 97.4949 31.9285H97.5044C99.3559 31.9273 100.856 30.4237 100.856 28.5722V28.571C100.856 27.1821 101.982 26.0559 103.371 26.0559C104.76 26.0559 105.885 27.1821 105.886 28.571V28.5722C105.886 30.4225 107.384 31.925 109.233 31.9273H109.237C109.238 33.7788 110.738 35.2777 112.589 35.2777H112.591C113.979 35.2777 115.106 36.404 115.106 37.7928C115.106 39.1817 113.979 40.308 112.592 40.308Z" fill="#0B0B0B"/>
<path d="M103.367 40.3093C104.757 40.3093 105.883 39.1833 105.883 37.7942C105.883 36.4051 104.757 35.2791 103.367 35.2791C101.978 35.2791 100.852 36.4051 100.852 37.7942C100.852 39.1833 101.978 40.3093 103.367 40.3093Z" fill="#0B0B0B"/>
</svg>
