<svg width="283" height="55" viewBox="0 0 283 55" fill="none" xmlns="http://www.w3.org/2000/svg">
<path d="M108.35 22.5561V18.1068C108.35 16.5532 107.949 15.6601 106.765 15.6601C105.454 15.6601 105.18 16.5532 105.18 18.1068C105.18 23.4439 114.422 25.0027 114.422 34.7892C114.422 40.7445 111.78 43.5029 106.744 43.5029C102.855 43.5029 99.108 41.9018 99.108 36.4326V30.5618H105.148V36.031C105.148 37.9016 105.624 38.4353 106.733 38.4353C107.716 38.4353 108.318 37.9069 108.318 36.031C108.35 28.8708 99.108 28.7387 99.108 18.5189C99.108 12.7696 102.199 10.5925 106.86 10.5925C110.934 10.5925 114.39 12.2835 114.39 17.573V22.5561H108.35Z" fill="#0B0B0B"/>
<path d="M115.627 26.4446V24.0667C115.627 18.9515 119.12 17.1284 122.581 17.1284C126.042 17.1284 129.53 18.9515 129.53 24.0667V42.8839H123.78V39.9036H123.706C123.014 41.7267 121.963 43.1957 119.669 43.1957C117.159 43.1957 115.627 41.3251 115.627 37.9907V34.2072C115.627 27.5384 123.78 28.3363 123.78 23.6386C123.78 22.6188 123.527 21.7733 122.581 21.7733C121.635 21.7733 121.376 22.6188 121.376 23.6386V26.4446H115.627ZM121.376 33.5836V36.342C121.376 37.235 121.904 37.6789 122.433 37.6789C123.632 37.6789 123.78 36.7013 123.78 34.4291V30.0273C122.649 31.0049 121.376 31.5862 121.376 33.5836Z" fill="#0B0B0B"/>
<path d="M136.515 20.6002H136.589C137.118 18.3755 138.518 17.1284 140.775 17.1284C143.359 17.1284 144.664 19.3108 144.664 22.9411V42.8839H138.914V25.2239C138.914 24.1142 138.84 22.9094 137.752 22.9094C136.663 22.9094 136.515 24.1142 136.515 25.2239V42.8839H130.766V17.4613H136.515V20.6002Z" fill="#0B0B0B"/>
<path d="M154.017 15.8396C152.601 15.8396 152.379 16.4155 152.379 17.4248H154.017V22.0486H152.379V42.8686H146.63V22.0644H145.356V17.4618H146.63V15.7973C146.63 13.8368 147.687 11.2158 150.329 11.2158H154.028L154.017 15.8396Z" fill="#0B0B0B"/>
<path d="M168.861 24.2899V36.4437C168.861 41.1573 165.59 43.2076 161.912 43.2076C158.234 43.2076 154.963 41.1467 154.963 36.4331V24.2793C154.963 19.6979 157.436 17.1191 161.912 17.1191C166.387 17.1191 168.861 19.7084 168.861 24.2899ZM160.712 23.5342V36.7872C160.712 37.7225 161.003 38.568 161.912 38.568C162.821 38.568 163.111 37.7225 163.111 36.7872V23.5342C163.111 22.6042 162.821 21.7587 161.912 21.7587C161.003 21.7587 160.712 22.6042 160.712 23.5342Z" fill="#0B0B0B"/>
<path d="M175.852 20.7746H175.957C176.724 18.5552 177.997 17.1284 180.105 17.1284C183.017 17.1284 184 19.4852 184 22.1115V31.2004H178.251V25.002C178.251 23.9821 177.997 22.8883 177.051 22.8883C176.105 22.8883 175.852 23.9451 175.852 25.002V42.8839H170.097V17.4613H175.852V20.7746Z" fill="#0B0B0B"/>
</svg>
