<svg width="283" height="55" viewBox="0 0 283 55" fill="none" xmlns="http://www.w3.org/2000/svg">
<path d="M75.1982 36.4072C74.4676 29.7753 78.7952 22.6938 84.1906 18.6473C81.0433 15.2189 77.3901 12.4088 73.9618 11.1161C65.981 8.13742 58.0565 11.1161 58.0003 20.1085C57.9441 29.9439 65.8686 39.1049 74.1866 43.4325C77.5025 45.1186 81.3243 45.6244 84.6402 44.8938C79.8068 45.2872 75.8164 42.0836 75.1982 36.4072Z" fill="#494949"/>
<path d="M86.8322 16.9605C85.9329 17.4663 85.0337 18.0283 84.1907 18.6465C88.3496 23.2551 91.6094 28.9878 92.1714 33.9336C92.902 40.1721 89.3613 43.769 84.6403 44.8368C85.9329 44.7244 87.2818 44.3872 88.6869 43.7128C95.5435 40.4531 100.377 32.0789 100.265 24.7164C100.208 16.7357 93.0706 13.5883 86.8322 16.9605Z" fill="#0B0B0B"/>
<path d="M92.1715 33.9894C91.6095 29.0436 88.3498 23.2548 84.1908 18.7024C78.7954 22.749 74.4678 29.8305 75.1984 36.4623C75.8166 42.0826 79.807 45.2861 84.6966 44.8927C89.3614 43.8248 92.9021 40.2279 92.1715 33.9894Z" fill="#0B0B0B"/>
<path d="M113.81 35.2251H114.596V38.2038H113.81V35.2251ZM115.496 36.6302L116.788 38.2038H115.777L114.596 36.6864L115.664 35.2251H116.62L115.496 36.6302Z" fill="#0B0B0B"/>
<path d="M119.373 36.0129H118.586V36.3501C118.418 37.9799 118.024 38.3172 117.238 38.3172L117.181 37.5865C117.462 37.5865 117.8 37.3617 117.856 36.2377L117.912 35.2822H120.16V38.261H119.373V36.0129Z" fill="#0B0B0B"/>
<path d="M121.003 38.2038V35.2251H121.79V37.136L123.139 35.2251H123.925V38.2038H123.139V36.3491L121.79 38.2038H121.003Z" fill="#0B0B0B"/>
<path d="M126.849 37.0798H125.556V38.2038H124.769V35.2251H125.556V36.3491H126.849V35.2251H127.635V38.2038H126.849V37.0798Z" fill="#0B0B0B"/>
<path d="M128.478 38.2038V35.2251H129.265V37.136L130.67 35.2251H131.401V38.2038H130.67V36.3491L129.265 38.2038H128.478Z" fill="#0B0B0B"/>
<path d="M132.3 35.2251H133.087V38.2038H132.3V35.2251ZM133.986 36.6302L135.279 38.2038H134.267L133.087 36.6864L134.154 35.2251H135.11L133.986 36.6302Z" fill="#0B0B0B"/>
<path d="M135.728 35.4522C136.009 35.2835 136.403 35.1711 136.796 35.1711C137.695 35.1711 137.976 35.6208 137.976 36.4076V38.2061H137.302V37.8689C137.133 38.0937 136.852 38.2623 136.403 38.2623C135.841 38.2623 135.447 37.9251 135.447 37.363C135.447 36.6886 135.953 36.4076 136.515 36.4076C136.796 36.4076 137.021 36.52 137.19 36.5762C137.19 36.0704 137.077 35.7894 136.628 35.7894C136.29 35.7894 136.065 35.9018 135.841 36.0142L135.728 35.4522ZM137.246 37.363V37.0258C137.133 36.9134 136.965 36.8572 136.74 36.8572C136.515 36.8572 136.29 36.9696 136.29 37.2506C136.29 37.4754 136.459 37.5878 136.74 37.5878C137.021 37.644 137.19 37.4754 137.246 37.363Z" fill="#0B0B0B"/>
<path d="M140.168 35.2273C140.449 35.2273 140.899 35.1711 141.348 35.1711C142.192 35.1711 142.697 35.396 142.697 35.958C142.697 36.2952 142.416 36.5762 142.135 36.6324C142.529 36.7448 142.754 36.9696 142.754 37.3068C142.754 37.9251 142.304 38.2061 141.348 38.2061C140.955 38.2061 140.449 38.1499 140.168 38.1499V35.2273ZM140.955 35.8456V36.52H141.461C141.686 36.52 141.91 36.4076 141.91 36.1828C141.91 35.958 141.742 35.8456 141.405 35.8456C141.236 35.8456 141.011 35.8456 140.955 35.8456ZM140.955 36.9696V37.644C141.067 37.644 141.292 37.644 141.461 37.644C141.798 37.644 142.023 37.5316 142.023 37.3068C142.023 37.082 141.798 36.9696 141.461 36.9696H140.955Z" fill="#0B0B0B"/>
<path d="M145.563 37.0798H144.271V38.2038H143.484V35.2251H144.271V36.3491H145.563V35.2251H146.35V38.2038H145.563V37.0798Z" fill="#0B0B0B"/>
<path d="M147.193 38.2038V35.2251H147.98V37.136L149.385 35.2251H150.116V38.2038H149.385V36.3491L147.98 38.2038H147.193Z" fill="#0B0B0B"/>
<path d="M151.016 35.2251H151.69L152.702 36.4616L153.657 35.2251H154.332V38.2038H153.545V36.4053L152.702 37.5294H152.645L151.746 36.4053V38.2038H151.016V35.2251Z" fill="#0B0B0B"/>
<path d="M155.23 35.4522C155.511 35.2835 155.905 35.1711 156.298 35.1711C157.198 35.1711 157.479 35.6208 157.479 36.4076V38.2061H156.804V37.8689C156.636 38.0937 156.355 38.2623 155.905 38.2623C155.343 38.2623 154.949 37.9251 154.949 37.363C154.949 36.6886 155.455 36.4076 156.017 36.4076C156.298 36.4076 156.523 36.52 156.692 36.5762C156.692 36.0704 156.579 35.7894 156.13 35.7894C155.792 35.7894 155.568 35.9018 155.343 36.0142L155.23 35.4522ZM156.748 37.363V37.0258C156.636 36.9134 156.467 36.8572 156.242 36.8572C156.017 36.8572 155.792 36.9696 155.792 37.2506C155.792 37.4754 155.961 37.5878 156.242 37.5878C156.523 37.644 156.692 37.4754 156.748 37.363Z" fill="#0B0B0B"/>
<path d="M157.984 35.2251H160.738V36.0119H159.726V38.2038H158.996V36.0119H157.984V35.2251Z" fill="#0B0B0B"/>
<path d="M163.886 37.9251C163.604 38.1499 163.155 38.3185 162.761 38.3185C161.806 38.3185 161.132 37.7002 161.132 36.7448C161.132 35.9018 161.75 35.1711 162.705 35.1711C163.492 35.1711 164.11 35.7332 164.11 36.5762C164.11 36.7448 164.11 36.8572 164.054 36.9696H161.918C161.975 37.4192 162.368 37.644 162.818 37.644C163.155 37.644 163.492 37.5316 163.661 37.363L163.886 37.9251ZM161.862 36.4638H163.323C163.323 36.1266 163.099 35.7894 162.649 35.7894C162.199 35.7894 161.975 36.0704 161.862 36.4638Z" fill="#0B0B0B"/>
<path d="M166.639 36.0129H165.853V36.3501C165.684 37.9799 165.291 38.3172 164.504 38.3172L164.448 37.5865C164.729 37.5865 165.066 37.3617 165.122 36.2377L165.178 35.2822H167.426V38.261H166.639V36.0129Z" fill="#0B0B0B"/>
<path d="M168.27 35.2251H169.056V36.0681H169.45C170.461 36.0681 170.742 36.574 170.742 37.0798C170.742 37.6418 170.405 38.2038 169.394 38.2038H168.27V35.2251ZM169.056 36.6864V37.5856H169.394C169.787 37.5856 169.956 37.417 169.956 37.136C169.956 36.855 169.787 36.6864 169.394 36.6864H169.056Z" fill="#0B0B0B"/>
<path d="M173.44 37.0798H172.147V38.2038H171.36V35.2251H172.147V36.3491H173.44V35.2251H174.227V38.2038H173.44V37.0798Z" fill="#0B0B0B"/>
<path d="M176.531 35.1711C177.543 35.1711 178.161 35.8456 178.161 36.7448C178.161 37.644 177.543 38.3185 176.531 38.3185C175.52 38.3185 174.901 37.644 174.901 36.7448C174.901 35.8456 175.52 35.1711 176.531 35.1711ZM176.531 37.5878C176.981 37.5878 177.374 37.2506 177.374 36.7448C177.374 36.239 177.037 35.9018 176.531 35.9018C176.082 35.9018 175.744 36.239 175.744 36.7448C175.688 37.2506 176.082 37.5878 176.531 37.5878Z" fill="#0B0B0B"/>
<path d="M178.836 38.2056V35.2269H179.623V37.1378L181.028 35.2269H181.814V38.2056H181.028V36.2947L179.623 38.2056H178.836ZM179.96 33.7656C179.96 33.9904 180.072 34.2714 180.297 34.2714C180.522 34.2714 180.634 34.0466 180.634 33.7656H181.309C181.309 34.3276 180.971 34.7773 180.297 34.7773C179.566 34.7773 179.229 34.3276 179.229 33.7656H179.96Z" fill="#0B0B0B"/>
<path d="M184.006 35.2251H184.681L185.692 36.4616L186.648 35.2251H187.322V38.2038H186.592V36.4053L185.692 37.5294L184.737 36.4053V38.2038H184.006V35.2251Z" fill="#0B0B0B"/>
<path d="M190.75 37.9251C190.469 38.1499 190.019 38.3185 189.626 38.3185C188.671 38.3185 187.996 37.7002 187.996 36.7448C187.996 35.9018 188.614 35.1711 189.57 35.1711C190.357 35.1711 190.975 35.7332 190.975 36.5762C190.975 36.7448 190.975 36.8572 190.919 36.9696H188.783C188.839 37.4192 189.233 37.644 189.682 37.644C190.019 37.644 190.357 37.5316 190.525 37.363L190.75 37.9251ZM188.783 36.4638H190.244C190.244 36.1266 190.019 35.7894 189.57 35.7894C189.12 35.7894 188.895 36.0704 188.783 36.4638Z" fill="#0B0B0B"/>
<path d="M191.312 37.5294H191.706C191.931 37.2484 192.099 36.6302 192.099 35.9557L192.155 35.2251H194.347V37.4732H194.853V38.8783H194.122V38.2038H191.987V38.8783H191.256V37.5294H191.312ZM192.493 37.5294H193.617V35.9557H192.886V36.2367C192.774 36.9112 192.605 37.3046 192.493 37.5294Z" fill="#0B0B0B"/>
<path d="M195.415 38.2038V35.2251H196.202V37.136L197.607 35.2251H198.338V38.2038H197.607V36.3491L196.202 38.2038H195.415Z" fill="#0B0B0B"/>
<path d="M199.237 35.2251H199.968V37.5294H201.204V35.2251H201.991V37.5294H202.497V38.9345H201.766V38.2038H199.237V35.2251Z" fill="#0B0B0B"/>
<path d="M203.059 38.2038V35.2251H203.845V37.136L205.194 35.2251H205.981V38.2038H205.194V36.3491L203.845 38.2038H203.059Z" fill="#0B0B0B"/>
<path d="M208.904 37.0798H207.611V38.2038H206.824V35.2251H207.611V36.3491H208.904V35.2251H209.691V38.2038H208.904V37.0798Z" fill="#0B0B0B"/>
<path d="M210.534 35.2251H211.321V36.0681H211.714C212.726 36.0681 213.007 36.574 213.007 37.0798C213.007 37.6418 212.669 38.2038 211.658 38.2038H210.59V35.2251H210.534ZM211.321 36.6864V37.5856H211.602C211.995 37.5856 212.164 37.417 212.164 37.136C212.164 36.855 211.995 36.6864 211.602 36.6864H211.321ZM213.4 35.2251H214.187V38.2038H213.4V35.2251Z" fill="#0B0B0B"/>
<path d="M120.891 27.6415C120.216 28.2035 119.43 28.5408 118.53 28.5408C117.463 28.5408 116.62 28.2035 115.945 27.5853C115.271 26.9671 114.933 26.0679 114.933 25C114.933 23.9884 115.271 23.1453 115.945 22.4709C116.62 21.7965 117.406 21.4593 118.362 21.4593C119.317 21.4593 120.104 21.6279 120.666 22.0775C121.003 22.3023 121.397 22.2461 121.678 21.9651C121.79 21.8527 121.846 21.6841 121.846 21.5155C121.846 21.2907 121.734 21.122 121.565 20.9534C120.666 20.3352 119.598 20.0542 118.193 20.0542C116.844 20.0542 115.72 20.56 114.821 21.4593C113.922 22.4147 113.472 23.5949 113.472 25C113.472 26.5175 113.922 27.6977 114.877 28.597C115.776 29.4962 117.013 29.9458 118.474 29.9458C119.823 29.9458 120.947 29.4962 121.903 28.597C122.015 28.4846 122.127 28.2597 122.127 28.0911C122.127 27.9225 122.071 27.7539 121.903 27.6415C121.622 27.3605 121.172 27.3605 120.891 27.6415Z" fill="#0B0B0B"/>
<path d="M127.017 24.7739L130.558 21.3455C130.726 21.1769 130.783 21.0083 130.783 20.8397C130.783 20.5025 130.502 20.1653 130.164 20.1653C129.939 20.1653 129.715 20.2777 129.434 20.5587L125.781 24.2119H125.05V20.8959C125.05 20.5025 124.713 20.1653 124.319 20.1653C123.87 20.1653 123.589 20.4463 123.589 20.8959V29.1577C123.589 29.3825 123.701 29.5511 123.813 29.7197C124.207 30.0569 125.05 29.8883 125.05 29.1577V25.6731H125.949L129.771 29.4949C130.052 29.7759 130.277 29.8883 130.502 29.8883C130.895 29.8883 131.176 29.6073 131.176 29.2139C131.176 28.9891 131.064 28.7642 130.895 28.6518L127.017 24.7739Z" fill="#0B0B0B"/>
<path d="M140.505 20.8389C139.493 20.2769 138.369 19.9958 137.077 19.9958C135.559 19.9958 134.323 20.4455 133.311 21.4009C132.3 22.3563 131.794 23.5366 131.794 24.9417C131.794 26.4029 132.243 27.6394 133.086 28.5386C133.929 29.4378 135.11 29.8875 136.515 29.8875C137.526 29.8875 138.594 29.4941 139.381 28.8196V29.1006C139.381 29.3254 139.493 29.4941 139.606 29.6627C139.999 29.9999 140.842 29.8313 140.842 29.1006V21.5695C140.898 21.2885 140.73 21.0075 140.505 20.8389ZM139.437 22.0191V27.246C138.875 27.8642 137.807 28.5386 136.74 28.5386C134.66 28.5386 133.367 27.1898 133.367 25.0541C133.367 24.0424 133.705 23.1994 134.435 22.525C135.166 21.8505 136.065 21.5133 137.077 21.5133C137.92 21.4009 138.707 21.6257 139.437 22.0191Z" fill="#0B0B0B"/>
<path d="M151.127 20.1653C150.678 20.1653 150.397 20.4463 150.397 20.8959V24.2119H144.889V20.8959C144.889 20.5025 144.552 20.1653 144.158 20.1653C143.709 20.1653 143.427 20.4463 143.427 20.8959V29.1577C143.427 29.5511 143.765 29.8883 144.158 29.8883C144.608 29.8883 144.889 29.6073 144.889 29.1577V25.6731H150.397V29.1577C150.397 29.3825 150.509 29.5511 150.621 29.7197C151.015 30.0569 151.858 29.8883 151.858 29.1577V20.8959C151.858 20.5025 151.521 20.1653 151.127 20.1653Z" fill="#0B0B0B"/>
<path d="M162.986 28.372H162.199V20.9533C162.199 20.5599 161.862 20.2227 161.469 20.2227H156.692C156.242 20.2227 155.961 20.5599 155.961 20.9533L155.849 22.9766C155.68 25.5619 155.062 27.529 154.443 28.372H153.938C153.544 28.372 153.207 28.7092 153.207 29.1026V31.4069C153.207 32.25 154.612 32.25 154.612 31.4069V29.7771H162.312V31.4069C162.312 31.8565 162.649 32.0814 163.042 32.0814C163.38 32.0814 163.773 31.8565 163.773 31.4069V29.1026C163.717 28.7092 163.38 28.372 162.986 28.372ZM160.682 21.6277V28.372H156.017C156.242 27.9786 156.467 27.4166 156.692 26.6859C156.973 25.7305 157.141 24.6626 157.254 23.4262L157.366 21.6277H160.682Z" fill="#0B0B0B"/>
<path d="M172.878 20.1653C172.54 20.1653 172.203 20.3339 171.922 20.7273L166.471 27.4716V20.8959C166.471 20.5025 166.133 20.1653 165.74 20.1653C165.29 20.1653 165.009 20.4463 165.009 20.8959V29.0453C165.009 29.5511 165.29 29.8321 165.796 29.8321C166.021 29.8321 166.414 29.7197 166.695 29.3263L172.147 22.582V29.1015C172.147 29.4949 172.484 29.8321 172.878 29.8321C173.327 29.8321 173.608 29.5511 173.608 29.1015V20.8959C173.608 20.4463 173.327 20.1653 172.878 20.1653Z" fill="#0B0B0B"/>
<path d="M183.837 20.1653C183.387 20.1653 183.106 20.4463 183.106 20.8959V24.2119H177.598V20.8959C177.598 20.5025 177.261 20.1653 176.868 20.1653C176.418 20.1653 176.137 20.4463 176.137 20.8959V29.1577C176.137 29.5511 176.474 29.8883 176.868 29.8883C177.317 29.8883 177.598 29.6073 177.598 29.1577V25.6731H183.106V29.1577C183.106 29.3825 183.219 29.5511 183.331 29.7197C183.725 30.0569 184.568 29.8883 184.568 29.1577V20.8959C184.568 20.5025 184.287 20.1653 183.837 20.1653Z" fill="#0B0B0B"/>
<path d="M195.134 20.8389C194.123 20.2769 192.999 19.9958 191.706 19.9958C190.188 19.9958 188.952 20.4455 187.94 21.4009C186.929 22.3563 186.423 23.5366 186.423 24.9417C186.423 26.4029 186.872 27.6394 187.716 28.5386C188.559 29.4378 189.739 29.8875 191.144 29.8875C192.155 29.8875 193.223 29.4941 194.01 28.8196V29.1006C194.01 29.3254 194.123 29.4941 194.235 29.6627C194.628 29.9999 195.471 29.8313 195.471 29.1006V21.5695C195.584 21.2885 195.415 21.0075 195.134 20.8389ZM194.123 22.0191V27.246C193.561 27.8642 192.493 28.5386 191.425 28.5386C189.345 28.5386 188.053 27.1898 188.053 25.0541C188.053 24.0424 188.39 23.1994 189.121 22.525C189.851 21.8505 190.75 21.5133 191.762 21.5133C192.549 21.4009 193.336 21.6257 194.123 22.0191Z" fill="#0B0B0B"/>
<path d="M203.901 24.7722C204.688 24.3788 205.194 23.592 205.194 22.6927C205.194 20.9505 203.901 20.1074 201.204 20.1074C200.923 20.1074 200.136 20.1074 198.787 20.1636C198.394 20.1636 198.056 20.5008 198.056 20.8943V28.9874C198.056 29.3808 198.394 29.718 198.787 29.718C200.248 29.7742 201.035 29.7742 201.26 29.7742C204.126 29.7742 205.531 28.8188 205.531 26.9641C205.531 25.8963 205.025 25.1656 203.901 24.7722ZM201.766 24.2664H199.574V21.5687C200.136 21.5687 200.754 21.5125 201.372 21.5125C203.677 21.5125 203.677 22.5241 203.677 22.8051C203.677 23.7044 202.946 24.2664 201.766 24.2664ZM204.014 26.9079C204.014 27.8633 203.115 28.3692 201.372 28.3692C200.867 28.3692 200.304 28.3692 199.686 28.313H199.518V25.5028H201.485C204.014 25.559 204.014 26.5707 204.014 26.9079Z" fill="#0B0B0B"/>
<path d="M215.424 20.1653C215.086 20.1653 214.749 20.3339 214.468 20.7273L209.016 27.4716V20.8959C209.016 20.5025 208.679 20.1653 208.286 20.1653C207.836 20.1653 207.555 20.4463 207.555 20.8959V29.0453C207.555 29.5511 207.836 29.8321 208.342 29.8321C208.567 29.8321 208.96 29.7197 209.241 29.3263L214.693 22.582V29.1015C214.693 29.4949 215.03 29.8321 215.424 29.8321C215.873 29.8321 216.154 29.5511 216.154 29.1015V20.8959C216.154 20.4463 215.873 20.1653 215.424 20.1653Z" fill="#0B0B0B"/>
<path d="M224.584 20.2227H222.392C219.807 20.2227 218.345 21.3467 218.345 23.3138C218.345 24.775 219.301 25.7305 220.369 26.0677L218.233 28.7654C218.121 28.8778 218.064 29.0464 218.064 29.215C218.064 29.6084 218.345 29.8895 218.739 29.8895C219.02 29.8895 219.245 29.7209 219.47 29.4398L221.83 26.4049H223.797V29.1588C223.797 29.5522 224.134 29.8895 224.528 29.8895C224.977 29.8895 225.258 29.6084 225.258 29.1588V20.9533C225.315 20.5599 224.977 20.2227 224.584 20.2227ZM223.853 21.6277V24.9437H221.661C221.212 24.9437 220.818 24.775 220.425 24.494C220.032 24.213 219.863 23.8196 219.863 23.3138C219.863 22.1897 220.706 21.6277 222.167 21.6277H223.853Z" fill="#0B0B0B"/>
</svg>
