<svg width="283" height="55" viewBox="0 0 283 55" fill="none" xmlns="http://www.w3.org/2000/svg">
<path d="M108.84 20.4753H105.971C105.971 20.2517 105.428 18.6195 103.123 18.6195C101.434 18.6195 101.077 19.5139 101.077 20.0952C101.077 21.4658 103.364 21.7431 104.726 22.0896C106.266 22.4787 109.283 23.2836 109.283 26.3178C109.283 26.9809 109.129 27.6349 108.833 28.2282C108.536 28.8215 108.106 29.3379 107.577 29.7365C106.519 30.5593 105.043 30.9819 103.313 30.9819C99.0353 30.9819 97.1639 28.5358 96.9626 26.1926H100.225C100.285 26.7158 100.956 28.4486 103.416 28.4486C105.524 28.4486 105.779 27.3306 105.779 26.8678C105.779 25.5397 103.921 25.2266 102.284 24.7996C100.594 24.3524 97.6983 23.6391 97.6983 20.5155C97.6983 18.217 99.3663 16.0862 103.288 16.0862C108.288 16.0862 108.838 19.7218 108.838 20.4753" fill="#0B0B0B"/>
<path d="M121.001 27.2051C120.851 27.9943 119.829 30.9793 115.858 30.9793C114.085 30.9793 112.777 30.2839 111.975 29.4835C111.237 28.7456 110.436 27.4354 110.436 25.4119C110.429 23.0597 111.483 21.7181 112.328 21.0026C113.322 20.1805 114.583 19.7523 115.872 19.7997C117.918 19.7997 119.205 20.7276 119.923 21.5884C120.578 22.3688 121.166 23.6544 121.166 25.47V26.0178H113.799C113.799 27.4331 114.345 28.8664 115.999 28.8664C116.489 28.8768 116.968 28.7163 117.353 28.4123C117.737 28.1084 118.004 27.6799 118.108 27.2006L121.001 27.2051ZM117.949 24.2291C117.949 23.7058 117.712 21.9082 115.923 21.9082C114.134 21.9082 113.808 23.4845 113.808 24.2291H117.949Z" fill="#0B0B0B"/>
<path d="M126.792 20.01H129.028V22.2258H126.792V27.0577C126.792 27.4355 126.792 27.9006 127.13 28.2583C127.261 28.3747 127.415 28.463 127.582 28.5176C127.749 28.5722 127.925 28.592 128.1 28.5758H129.258V30.7916C128.49 30.9048 127.716 30.9675 126.94 30.9795C126.159 30.9795 125.104 30.8118 124.406 30.0717C123.606 29.231 123.648 28.1734 123.648 27.1404V22.2214H121.96V20.01H123.648L123.943 16.7188H126.792V20.01Z" fill="#0B0B0B"/>
<path d="M149.174 30.7694H147.401L146.875 29.1887C146.517 29.6617 146.073 30.0623 145.565 30.3692C144.735 30.7921 143.813 31.0019 142.882 30.9796C141.574 30.9796 139.93 30.7068 138.558 29.1909C137.292 27.7979 136.637 25.6134 136.637 23.7263C136.637 21.8056 137.185 19.6547 138.453 18.1969C139.951 16.4685 141.827 16.0884 143.322 16.0884C147.691 16.0884 148.923 18.9951 149.136 21.1952H145.86C145.796 20.6275 145.594 20.084 145.272 19.6122C145.045 19.2933 144.742 19.0359 144.391 18.863C144.04 18.6901 143.651 18.6072 143.26 18.6217C142.437 18.6217 141.471 18.9593 140.834 20.1868C140.666 20.5222 140.266 21.4099 140.266 23.5184C140.266 24.7638 140.411 26.1344 140.937 27.022C141.176 27.4602 141.53 27.825 141.961 28.0775C142.392 28.3299 142.883 28.4605 143.383 28.4553C143.721 28.4632 144.057 28.404 144.372 28.2812C144.687 28.1584 144.975 27.9744 145.218 27.7398C145.697 27.2231 145.962 26.5437 145.959 25.8392V25.4748H143.076V23.0153H149.174V30.7694Z" fill="#0B0B0B"/>
<path d="M151.508 30.7697V20.0104H154.251V22.3894H154.294C154.372 21.7624 154.642 21.1747 155.065 20.7058C155.338 20.416 155.669 20.1867 156.036 20.0326C156.403 19.8785 156.798 19.8032 157.196 19.8114C157.387 19.8155 157.577 19.8296 157.766 19.8539V22.6689H157.261C156.758 22.652 156.261 22.7767 155.826 23.0289C154.793 23.6818 154.645 24.6947 154.645 25.8327V30.7697H151.508Z" fill="#0B0B0B"/>
<path d="M167.709 21.2712C168.234 21.8131 168.646 22.4539 168.921 23.1563C169.196 23.8588 169.328 24.6088 169.31 25.3629C169.31 27.0935 168.64 28.6363 167.624 29.6112C166.614 30.4963 165.317 30.9842 163.974 30.9842C162.631 30.9842 161.334 30.4963 160.324 29.6112C159.313 28.6497 158.643 27.098 158.643 25.3674C158.624 24.6127 158.755 23.8616 159.03 23.1583C159.304 22.455 159.716 21.8134 160.241 21.2712C161.254 20.3232 162.589 19.7957 163.975 19.7957C165.362 19.7957 166.697 20.3232 167.709 21.2712ZM162.475 22.7491C161.968 23.5295 161.927 24.5625 161.927 25.3629C161.927 26.8208 162.151 27.5161 162.412 27.9588C162.567 28.2384 162.794 28.4715 163.069 28.6337C163.344 28.796 163.658 28.8816 163.978 28.8816C164.297 28.8816 164.611 28.796 164.886 28.6337C165.161 28.4715 165.388 28.2384 165.543 27.9588C165.798 27.5318 166.021 26.8252 166.021 25.3674C166.021 24.567 165.979 23.534 165.473 22.7536C165.317 22.4958 165.097 22.2827 164.835 22.1348C164.572 21.9868 164.276 21.9091 163.974 21.9091C163.673 21.9091 163.377 21.9868 163.114 22.1348C162.851 22.2827 162.631 22.4958 162.475 22.7536" fill="#0B0B0B"/>
<path d="M174.001 20.01V26.4942C174.001 26.8944 174.001 27.6546 174.357 28.1175C174.485 28.2772 174.65 28.4044 174.837 28.4887C175.023 28.573 175.228 28.6121 175.432 28.6027C175.708 28.6015 175.979 28.5361 176.225 28.4114C176.471 28.2868 176.684 28.1065 176.848 27.8849C177.201 27.3722 177.372 26.7557 177.333 26.1342V20.01H180.474V30.7693H177.568V28.8486H177.527C177.273 29.4931 176.826 30.0435 176.247 30.4248C175.669 30.8061 174.987 30.9998 174.294 30.9794C173.48 31.0082 172.684 30.736 172.058 30.2148C171.001 29.3204 170.851 28.104 170.851 26.9861V20.01H174.001Z" fill="#0B0B0B"/>
<path d="M182.773 34.2396V20.0102H185.679V21.7408C185.99 21.145 186.46 20.6476 187.037 20.3047C187.615 19.9618 188.277 19.787 188.948 19.8C191.587 19.8 193 22.1008 193 25.2847C193 29.334 190.909 30.9818 188.821 30.9818C187.536 30.9818 186.567 30.4542 185.914 29.3988V34.2396H182.773ZM185.921 26.4653C185.921 27.9633 186.614 28.8711 187.754 28.8711C189.319 28.8711 189.715 27.1629 189.715 25.3473C189.715 22.9012 188.957 21.9085 187.754 21.9085C186.636 21.9085 185.921 22.8587 185.921 24.1444V26.4653Z" fill="#0B0B0B"/>
<path d="M134.799 14.7581H131.602V30.7427H134.799V14.7581Z" fill="#0B0B0B"/>
<path d="M90 5.17261V49.9268H134.803V33.9936H131.604V46.725H93.2421L93.2309 8.38563L131.604 8.37445V11.5785H134.803V5.17261H90Z" fill="#0B0B0B"/>
</svg>
