<svg width="283" height="74" viewBox="0 0 283 74" fill="none" xmlns="http://www.w3.org/2000/svg">
<g clip-path="url(#clip0_258_3322)">
<path fill-rule="evenodd" clip-rule="evenodd" d="M109.823 42.4501C109.84 42.8531 109.75 43.2535 109.563 43.6108C109.375 43.9681 109.097 44.2695 108.755 44.4846C108.061 44.9132 107.255 45.1246 106.439 45.0919C106.248 45.0919 105.885 45.0919 105.334 45.0637C105.021 45.0637 104.73 45.0637 104.499 45.0637C104.267 45.0637 103.682 45.0637 102.62 45.095L102.564 45.0512V44.6161L102.624 44.5566C102.861 44.5501 103.099 44.5302 103.334 44.4971C103.386 44.4853 103.434 44.4575 103.469 44.4178C103.505 44.378 103.528 44.3281 103.534 44.2749C103.608 43.6518 103.635 43.024 103.616 42.3968V39.2135C103.635 38.5864 103.608 37.9586 103.534 37.3355C103.497 37.0945 103.306 37.0725 103.093 37.0632C102.996 37.0632 102.52 37.0412 102.62 37.0412L102.539 36.9035V36.5905L102.614 36.481C102.893 36.481 103.187 36.5091 103.462 36.531C103.998 36.5592 104.977 36.531 105.403 36.5592H105.441H105.888H108.392C108.677 36.5592 108.915 36.531 109.112 36.5091L109.184 36.5717C109.132 36.8684 109.104 37.1689 109.1 37.4701V38.4999L109.04 38.5593H108.652L108.593 38.503C108.593 38.2745 108.571 38.0397 108.555 37.8081C108.511 37.4951 108.408 37.3104 108.242 37.251C107.835 37.187 107.423 37.1649 107.012 37.1852H105.425C105.394 38.1837 105.378 38.7972 105.378 39.032V40.1807C106.168 40.1623 106.958 40.2052 107.741 40.3091C109.14 40.5595 109.845 41.2731 109.845 42.4501H109.823ZM133.881 39.32L133.915 39.3544L133.946 39.3826V39.7676L133.909 39.7989L133.871 39.827C133.712 39.8293 133.553 39.8408 133.396 39.8615C133.311 39.8659 133.228 39.8861 133.151 39.9209C133.105 39.9534 133.072 40.0011 133.058 40.0555C133.034 40.1464 133.023 40.2402 133.026 40.3341V40.6002V40.8725C133.026 40.9601 133.026 41.1135 133.026 41.3201V42.1151C133.026 42.4281 133.026 42.7412 133.026 42.9947C133.026 43.2482 133.026 43.4893 133.026 43.6958C133.026 43.9024 133.026 44.0621 133.048 44.181C133.051 44.2534 133.063 44.325 133.086 44.3939C133.099 44.4226 133.118 44.4482 133.142 44.469C133.17 44.4903 133.199 44.5091 133.23 44.5253C133.301 44.5424 133.373 44.5549 133.446 44.5629L133.893 44.5911L133.928 44.6161L133.959 44.6505V45.0199L133.928 45.048L133.9 45.0793C133.709 45.0793 133.474 45.0543 133.195 45.048C132.917 45.0418 132.607 45.048 132.256 45.048C131.906 45.048 131.63 45.048 131.339 45.048C131.048 45.048 130.823 45.048 130.61 45.0793L130.582 45.048L130.55 45.0199V44.6505L130.582 44.6161L130.61 44.5911C130.801 44.5911 130.948 44.5723 131.064 44.5566C131.137 44.5542 131.21 44.5415 131.28 44.5191C131.312 44.5063 131.341 44.4883 131.367 44.4658C131.391 44.4439 131.409 44.4172 131.421 44.3876C131.442 44.3229 131.454 44.2554 131.455 44.1873C131.455 44.084 131.471 43.94 131.477 43.7616C131.483 43.5832 131.477 43.3578 131.477 43.0855C131.477 42.8132 131.477 42.4908 131.477 42.1277V39.9961L130.359 41.0008C129.934 41.3858 129.42 41.8428 128.763 42.4313C128.746 42.5966 128.739 42.7628 128.741 42.929C128.741 43.1794 128.741 43.4611 128.741 43.5988C128.741 43.7365 128.741 43.8586 128.741 44.0057C128.742 44.1387 128.759 44.2711 128.791 44.4001C128.802 44.4288 128.82 44.4538 128.844 44.4721C128.872 44.4964 128.904 44.5145 128.938 44.5253C129.009 44.5503 129.083 44.564 129.157 44.566C129.264 44.566 129.411 44.5879 129.596 44.5911L129.63 44.6255L129.661 44.6505V45.0261L129.636 45.0574L129.602 45.0856C129.411 45.0856 129.176 45.0637 128.904 45.0543C128.632 45.0449 128.312 45.0543 127.946 45.0543C127.58 45.0543 127.32 45.0543 127.035 45.0543C126.75 45.0543 126.513 45.0731 126.3 45.0856L126.275 45.0574L126.24 45.0261V44.6537L126.268 44.6255L126.293 44.6004L126.732 44.5723C126.803 44.566 126.874 44.5545 126.944 44.5378C126.977 44.5279 127.008 44.512 127.035 44.4909C127.06 44.4736 127.08 44.4512 127.095 44.4252C127.115 44.3685 127.129 44.3097 127.135 44.2499C127.135 44.1591 127.151 44.037 127.154 43.8868C127.157 43.7365 127.154 43.5925 127.173 43.4705C127.192 43.3484 127.173 43.2482 127.173 43.1575C127.173 42.5033 127.173 41.9649 127.173 41.5392C127.173 41.1135 127.173 40.8161 127.173 40.6283C127.173 40.4405 127.173 40.3153 127.151 40.1933C127.151 40.1221 127.136 40.0517 127.107 39.9867C127.091 39.9561 127.066 39.931 127.035 39.9147C127.007 39.8917 126.974 39.8756 126.938 39.8677C126.867 39.8544 126.795 39.845 126.722 39.8396C126.616 39.8396 126.475 39.8396 126.306 39.8176L126.275 39.7863L126.246 39.7519V39.3763L126.275 39.3481L126.306 39.3168C126.497 39.3168 126.732 39.3387 127.01 39.3481C127.289 39.3575 127.599 39.3481 127.949 39.3481C128.3 39.3481 128.635 39.3481 128.913 39.3481C129.192 39.3481 129.42 39.3481 129.605 39.3168L129.633 39.3481L129.665 39.3763V39.7457L129.633 39.7801L129.599 39.8114C129.42 39.8114 129.286 39.8114 129.17 39.8396C129.098 39.8389 129.026 39.8495 128.957 39.8709C128.926 39.8808 128.896 39.8956 128.869 39.9147C128.844 39.9266 128.823 39.9464 128.81 39.971C128.787 40.0222 128.774 40.0775 128.772 40.1338C128.772 40.2246 128.751 40.3466 128.744 40.4969C128.729 40.7535 128.722 40.9226 128.722 41.0916C128.722 41.2606 128.722 41.4296 128.722 41.6863L130.106 40.475C130.475 40.162 130.829 39.8333 131.38 39.32C131.521 39.32 131.674 39.3419 131.849 39.3481C132.025 39.3544 132.203 39.3481 132.403 39.3481C132.604 39.3481 132.829 39.3481 133.073 39.3481L133.859 39.32H133.881ZM108.004 42.5627C108.02 42.3186 107.982 42.074 107.895 41.8456C107.807 41.6171 107.672 41.4101 107.497 41.2387C107.167 40.9567 106.748 40.8003 106.314 40.7974C106.114 40.7974 105.791 40.7974 105.356 40.7974V44.4001C105.583 44.4301 105.812 44.4447 106.042 44.4439C106.379 44.4563 106.717 44.4194 107.043 44.3344C107.357 44.2122 107.615 43.9795 107.769 43.6802C107.937 43.3323 108.018 42.9488 108.004 42.5627ZM112.03 39.8176C112.712 39.329 113.538 39.0812 114.377 39.1134C115.215 39.0748 116.039 39.3355 116.703 39.8489C117.021 40.1152 117.274 40.4516 117.44 40.8317C117.607 41.2118 117.684 41.6254 117.664 42.04C117.676 42.6324 117.539 43.2183 117.263 43.7428C116.988 44.2619 116.547 44.674 116.011 44.9135C115.44 45.1738 114.82 45.3052 114.192 45.2985C112.893 45.2985 111.958 44.854 111.375 43.9494C111.041 43.3912 110.882 42.7458 110.918 42.0964C110.901 41.6552 110.99 41.2164 111.18 40.8177C111.37 40.4191 111.654 40.0726 112.008 39.8083L112.03 39.8176ZM112.602 42.1214C112.58 42.7224 112.687 43.3212 112.915 43.8774C113.014 44.1562 113.198 44.3968 113.442 44.5653C113.685 44.7338 113.975 44.8217 114.271 44.8164C115.426 44.8164 115.998 43.9181 115.998 42.1245C116.033 41.4784 115.878 40.8363 115.551 40.2778C115.406 40.0538 115.203 39.8729 114.964 39.7537C114.725 39.6345 114.459 39.5814 114.192 39.5999C113.926 39.6184 113.669 39.7079 113.449 39.859C113.229 40.0101 113.053 40.2174 112.94 40.4593C112.696 40.9795 112.579 41.5503 112.599 42.1245L112.602 42.1214ZM125.47 41.5549C125.47 42.9603 124.941 43.9901 123.905 44.6286C123.284 44.9962 122.573 45.1827 121.852 45.167C121.516 45.1641 121.181 45.1263 120.853 45.0543V46.7101C120.842 47.0028 120.855 47.2959 120.891 47.5866C120.9 47.6277 120.92 47.6658 120.949 47.697C120.977 47.7282 121.013 47.7516 121.054 47.765C121.317 47.8152 121.584 47.8393 121.852 47.837L121.911 47.8964V48.272L121.846 48.3284H121.567C121.104 48.3065 120.609 48.2971 120.074 48.2971C119.661 48.2971 119.135 48.3127 118.478 48.3409L118.418 48.2783V47.9058L118.478 47.8464C118.7 47.8465 118.923 47.8244 119.141 47.7806C119.179 47.7644 119.212 47.74 119.238 47.7091C119.265 47.6782 119.284 47.6416 119.294 47.6022C119.33 47.3094 119.342 47.0143 119.332 46.7195V41.2325C119.345 40.9344 119.33 40.6358 119.288 40.3404C119.279 40.3023 119.261 40.2669 119.236 40.2375C119.21 40.208 119.178 40.1853 119.141 40.1713C118.915 40.1273 118.686 40.1053 118.456 40.1056L118.387 40.0461V39.7081L118.446 39.6486C119.222 39.5607 119.985 39.3907 120.725 39.1415L120.853 39.2167V40.2433C121.126 39.921 121.465 39.6619 121.848 39.4841C122.23 39.3062 122.647 39.2139 123.069 39.2135C123.48 39.211 123.885 39.3042 124.253 39.4859C124.622 39.6608 124.933 39.9405 125.145 40.2903C125.361 40.6714 125.469 41.1043 125.458 41.5423L125.47 41.5549ZM123.905 42.3405C123.905 41.4015 123.633 40.7442 123.101 40.4061C122.834 40.2336 122.523 40.1423 122.205 40.1432C121.954 40.1168 121.701 40.1708 121.482 40.2973C121.263 40.4239 121.09 40.6164 120.988 40.8474C120.878 41.1716 120.831 41.5137 120.85 41.8553V43.9149C121.026 44.1178 121.241 44.2825 121.483 44.3988C121.724 44.5151 121.988 44.5806 122.256 44.5911C122.579 44.5886 122.893 44.4785 123.148 44.278C123.403 44.0796 123.598 43.8141 123.711 43.5112C123.85 43.1347 123.916 42.7353 123.905 42.3342V42.3405ZM139.603 39.5829C139.434 40.065 139.329 40.5668 139.29 41.0759L139.233 41.1292H138.92L138.864 41.0697C138.776 40.4124 138.551 39.9929 138.238 39.8176C138.07 39.7292 137.883 39.684 137.693 39.6862C137.067 39.6862 136.626 40.0461 136.375 40.7598C136.241 41.1354 136.175 41.5317 136.178 41.9305C136.178 43.0416 136.516 43.8085 137.186 44.206C137.517 44.4117 137.899 44.5201 138.288 44.5191C138.687 44.5193 139.074 44.3896 139.393 44.1497L139.502 44.3626L139.189 44.8759C138.625 45.1688 137.997 45.3182 137.361 45.311C136.986 45.3272 136.611 45.2649 136.26 45.128C135.91 44.9911 135.592 44.7826 135.327 44.5159C135.067 44.2405 134.866 43.9157 134.735 43.5607C134.604 43.2058 134.545 42.8281 134.563 42.4501C134.545 41.9999 134.627 41.5514 134.802 41.1365C134.978 40.7215 135.242 40.3503 135.577 40.0493C136.264 39.4543 137.151 39.1421 138.059 39.176C138.572 39.1663 139.081 39.2733 139.546 39.489L139.596 39.5923L139.603 39.5829ZM146.304 45.0105L146.245 45.0731C145.894 45.0543 145.531 45.048 145.159 45.048C144.786 45.048 144.42 45.048 144.097 45.0731L144.038 45.0105L144.097 44.2561L144.004 44.2311C143.737 44.4752 143.559 44.6286 143.465 44.7037C143.317 44.8244 143.156 44.9293 142.986 45.0167C142.684 45.1605 142.351 45.2292 142.016 45.2171C140.991 45.2171 140.479 44.71 140.479 43.6958C140.465 43.4696 140.5 43.2429 140.582 43.0316C140.664 42.8203 140.792 42.6293 140.955 42.472C141.193 42.2466 141.728 42.0619 142.545 41.9086L144.016 41.6425C144.021 41.3672 143.989 41.0925 143.922 40.8255C143.839 40.5665 143.667 40.3449 143.437 40.1995C143.239 40.0787 143.011 40.0168 142.78 40.0211C142.547 40.0273 142.315 40.0566 142.088 40.1087L141.631 40.9852L141.546 41.029L141.293 40.9789L141.227 40.8975L141.293 40.0962C142.232 39.4702 142.964 39.1572 143.509 39.1572C144.273 39.1572 144.832 39.3972 145.187 39.8771C145.416 40.2311 145.525 40.6489 145.5 41.0697C145.5 41.2387 145.5 41.6581 145.468 42.3217C145.468 42.5909 145.468 42.8194 145.468 43.0135C145.468 43.9024 145.497 44.3939 145.556 44.469C145.616 44.5441 145.85 44.5879 146.26 44.6067L146.314 44.6662V45.0042L146.304 45.0105ZM144.032 42.9728V41.9962C143.662 42.1057 143.384 42.1871 143.187 42.2591C142.911 42.3363 142.648 42.4511 142.404 42.6003C142.272 42.6954 142.165 42.8217 142.093 42.9681C142.022 43.1145 141.988 43.2764 141.994 43.4392C141.99 43.555 142.009 43.6704 142.052 43.7782C142.094 43.8859 142.159 43.9837 142.241 44.0652C142.319 44.1478 142.413 44.2129 142.518 44.256C142.623 44.2992 142.735 44.3195 142.849 44.3156C143.032 44.3171 143.213 44.2747 143.376 44.192C143.539 44.1092 143.68 43.9884 143.788 43.8398C143.964 43.5878 144.047 43.2824 144.022 42.9759L144.032 42.9728Z" fill="#0B0B0B"/>
<path fill-rule="evenodd" clip-rule="evenodd" d="M164.229 36.5718C164.082 36.3527 163.428 36.5718 162.752 37.2197C162.439 37.5077 161.813 38.1932 162.016 38.4436C162.22 38.694 163.024 38.2308 163.45 37.8552C163.744 37.5985 164.502 36.9693 164.229 36.5718Z" fill="#0B0B0B"/>
<path fill-rule="evenodd" clip-rule="evenodd" d="M158.455 40.641C158.468 41.4637 158.289 42.278 157.933 43.0199C157.576 43.7649 156.995 44.3792 156.271 44.7759C155.516 45.1621 154.676 45.3506 153.829 45.3236C152.869 45.3126 151.922 45.0993 151.05 44.6976L150.777 43.9902L150.946 43.8556C151.539 44.2646 152.239 44.49 152.959 44.5036C153.435 44.5174 153.908 44.4325 154.349 44.2542C154.791 44.0758 155.19 43.808 155.523 43.4675C156.224 42.7508 156.613 41.7848 156.602 40.7819C155.109 40.7819 154.255 40.81 154.033 40.8789C153.81 40.9478 153.607 41.1919 153.551 41.5613C153.536 41.6898 153.514 41.8173 153.485 41.9431L153.444 42.0026H153.065L153.006 41.9431C153.006 41.6959 153.028 41.2326 153.028 40.5596C153.028 39.8867 153.028 39.4641 153 39.3076L153.053 39.2481H153.432L153.479 39.3076C153.513 39.4766 153.538 39.6456 153.573 39.8147C153.632 40.0369 153.72 40.1746 153.839 40.2153C153.958 40.256 154.89 40.303 156.581 40.303C156.586 39.4333 156.307 38.5858 155.786 37.8897C155.291 37.2793 154.559 36.9757 153.594 36.9757C153.049 36.9386 152.508 37.0924 152.064 37.4107C151.665 37.7893 151.399 38.2867 151.306 38.8287L151.259 38.8819H150.946L150.912 38.8224C150.946 38.4781 150.962 38.0368 150.962 37.4921C150.962 37.2855 150.962 37.0727 150.946 36.8661L150.984 36.7847C151.854 36.5298 152.757 36.4053 153.663 36.4154C155.377 36.4154 156.634 36.8525 157.435 37.7269C158.142 38.5358 158.509 39.5867 158.459 40.6598L158.455 40.641ZM171.574 40.1558V39.6988V39.5893C170.113 39.6936 169.383 40.569 169.383 42.2155C169.353 42.8381 169.522 43.4541 169.865 43.9746C170.144 44.3788 170.551 44.6775 171.02 44.8228C171.202 44.8712 171.389 44.9005 171.577 44.9105V40.1558H171.574ZM171.558 39.1949C171.565 38.8923 171.538 38.5899 171.477 38.2934C171.442 38.2089 171.355 38.162 171.214 38.1401C171.164 38.1401 170.985 38.1401 170.685 38.1119L170.625 38.0524V37.7081L170.685 37.6424C171.602 37.5078 172.25 36.8755 172.773 36.1556C172.802 36.1298 172.835 36.1077 172.87 36.0898C172.97 36.0898 173.214 36.1118 173.258 36.1086C173.288 36.1263 173.312 36.1524 173.327 36.1837C173.289 36.3027 173.198 37.0383 173.164 37.3826C173.129 37.7269 173.095 38.4875 173.089 39.1918C174.848 39.3045 176.018 39.8178 176.591 40.7287C176.869 41.1671 177.013 41.6775 177.004 42.1967C177.015 42.6194 176.928 43.0388 176.751 43.4226C176.573 43.8063 176.31 44.1441 175.981 44.4097C175.261 45.0044 174.288 45.3049 173.051 45.3049C173.051 45.8526 173.051 46.3284 173.051 46.7259C173.073 47.4177 173.111 47.7933 173.183 47.8653C173.216 47.9034 173.261 47.9297 173.311 47.9404C173.377 47.9404 173.574 47.9623 173.89 47.978L173.943 48.0437V48.4131L173.884 48.4694C173.317 48.4412 172.816 48.4318 172.381 48.4318C171.787 48.4318 171.226 48.4318 170.704 48.4694L170.638 48.4131V48.0437L170.704 47.978C170.921 47.9751 171.138 47.9521 171.352 47.9091C171.391 47.8941 171.425 47.8687 171.451 47.8356C171.477 47.8025 171.493 47.763 171.499 47.7213C171.536 47.4328 171.55 47.1419 171.542 46.8511C171.542 46.0342 171.542 45.5208 171.542 45.3049C170.334 45.3049 169.372 45.0065 168.656 44.4097C168.326 44.1454 168.06 43.808 167.882 43.4241C167.703 43.0401 167.616 42.62 167.627 42.1967C167.61 41.6631 167.757 41.1372 168.048 40.6896C168.339 40.242 168.76 39.8941 169.254 39.6926C169.979 39.3958 170.751 39.2315 171.533 39.2074L171.558 39.1949ZM173.098 39.5893C173.098 39.7208 173.098 39.8491 173.098 39.9743V44.9167C173.512 44.899 173.911 44.7632 174.25 44.5255C174.582 44.2984 174.85 43.9903 175.029 43.6303C175.229 43.1653 175.32 42.6612 175.295 42.156C175.295 40.5408 174.565 39.6853 173.104 39.5893H173.098ZM181.931 45.139H181.549C181.549 45.139 181.437 44.9073 181.202 44.4754L180.438 42.951C180.244 42.5629 180.041 42.1372 179.834 41.699L179.208 40.4031V43.48C179.196 43.7655 179.21 44.0515 179.249 44.3345C179.257 44.3792 179.276 44.4212 179.305 44.4567C179.333 44.4922 179.37 44.5201 179.412 44.538C179.631 44.5862 179.856 44.6093 180.081 44.6068L180.147 44.6663V45.0263L180.088 45.0858C179.656 45.0576 179.264 45.0419 178.914 45.0419C178.67 45.0419 178.288 45.0576 177.815 45.092L177.756 45.0325V44.6663L177.815 44.6068C178.035 44.6061 178.254 44.5841 178.469 44.5411C178.512 44.5286 178.55 44.5049 178.581 44.4724C178.611 44.4399 178.632 44.3999 178.641 44.3564C178.674 44.0613 178.686 43.7643 178.676 43.4675V41.2545V40.3155C178.692 40.1825 178.657 40.0485 178.579 39.9399C178.436 39.8562 178.271 39.82 178.106 39.8366C178.041 39.8366 177.947 39.8366 177.821 39.8366L177.762 39.7677V39.3921L177.821 39.3326C178.153 39.3545 178.541 39.3639 178.989 39.3639C179.437 39.3639 179.947 39.3639 180.426 39.3326C180.753 40.1339 181.379 41.4288 182.304 43.2171C182.598 42.6224 182.93 41.915 183.324 41.0855C183.719 40.256 183.972 39.6769 184.107 39.3326C184.46 39.3608 184.783 39.3702 185.09 39.3702C185.252 39.3702 185.716 39.3702 186.504 39.3326L186.564 39.3858V39.7677L186.498 39.8272C186.288 39.8286 186.079 39.8485 185.872 39.8867C185.83 39.8943 185.791 39.9132 185.759 39.9413C185.727 39.9694 185.703 40.0057 185.69 40.0463C185.655 40.3265 185.639 40.6089 185.644 40.8914C185.644 41.3797 185.625 41.8117 185.625 42.181C185.625 42.7851 185.625 43.2985 185.647 43.7242C185.644 43.9637 185.666 44.2029 185.712 44.4378C185.755 44.4966 185.817 44.5387 185.888 44.5568C186.094 44.5953 186.304 44.6131 186.514 44.61L186.573 44.6695V45.0263L186.514 45.0858C186.119 45.0576 185.575 45.0419 184.839 45.0419C184.269 45.0419 183.74 45.0576 183.249 45.0795L183.19 45.0263V44.6538L183.249 44.5912C183.453 44.5874 183.657 44.5728 183.859 44.5474C183.929 44.5326 183.993 44.4965 184.041 44.4441C184.089 44.3053 184.11 44.1588 184.104 44.0121C184.104 43.768 184.125 43.239 184.125 42.4158V40.5033C183.277 42.181 182.542 43.7304 181.934 45.139H181.931ZM193.168 45.0106L193.109 45.0732C192.761 45.0545 192.395 45.0482 192.026 45.0482C191.656 45.0482 191.29 45.0482 190.962 45.0732L190.902 45.0106L190.962 44.2563L190.871 44.2312C190.602 44.4754 190.423 44.6288 190.329 44.7039C190.181 44.8246 190.02 44.9295 189.85 45.0169C189.548 45.1607 189.215 45.2294 188.88 45.2172C187.858 45.2172 187.346 44.7101 187.346 43.696C187.333 43.4732 187.367 43.2501 187.447 43.0418C187.527 42.8334 187.651 42.6445 187.81 42.4878C188.051 42.2624 188.583 42.0777 189.4 41.9244L190.871 41.6583C190.875 41.3833 190.844 41.1088 190.78 40.8413C190.695 40.5829 190.524 40.3617 190.295 40.2153C190.096 40.0957 189.867 40.0339 189.634 40.0369C189.402 40.0433 189.17 40.0726 188.943 40.1245L188.486 41.001L188.404 41.0448L188.148 40.9947L188.082 40.9133L188.148 40.112C189.087 39.486 189.819 39.173 190.364 39.173C191.127 39.173 191.687 39.413 192.041 39.8929C192.272 40.2462 192.382 40.6646 192.354 41.0855C192.354 41.2545 192.354 41.6739 192.323 42.3375C192.323 42.6067 192.323 42.8352 192.323 43.0293C192.323 43.9182 192.351 44.4097 192.411 44.4848C192.47 44.5599 192.705 44.6037 193.115 44.6225L193.168 44.682V45.02V45.0106ZM190.896 42.9729V41.9963C190.526 42.1059 190.248 42.1873 190.054 42.2593C189.778 42.3365 189.513 42.4513 189.268 42.6005C189.136 42.6955 189.029 42.8219 188.958 42.9683C188.886 43.1147 188.852 43.2765 188.858 43.4393C188.854 43.555 188.875 43.6702 188.917 43.7779C188.96 43.8856 189.024 43.9834 189.105 44.0653C189.185 44.1504 189.282 44.2169 189.391 44.2602C189.499 44.3035 189.615 44.3224 189.731 44.3157C189.914 44.3165 190.095 44.2738 190.258 44.1911C190.422 44.1083 190.563 43.988 190.67 43.84C190.844 43.5869 190.926 43.282 190.902 42.9761L190.896 42.9729ZM201.444 45.0263L201.385 45.092C201.003 45.0576 200.446 45.0482 199.738 45.0482C199.031 45.0482 198.518 45.0482 198.095 45.092L198.036 45.0263V44.6601L198.076 44.6006C198.308 44.6018 198.539 44.5766 198.765 44.5255C198.804 44.5104 198.839 44.486 198.867 44.4544C198.895 44.4228 198.915 44.3849 198.925 44.3439C198.954 44.0528 198.965 43.76 198.956 43.4675V42.1059H196.189V43.4675C196.178 43.7604 196.193 44.0536 196.233 44.3439C196.24 44.3853 196.259 44.4239 196.286 44.4558C196.314 44.4877 196.349 44.5118 196.389 44.5255C196.615 44.5766 196.846 44.6018 197.078 44.6006L197.137 44.6601V45.0263L197.078 45.092C196.696 45.0576 196.139 45.0482 195.431 45.0482C194.724 45.0482 194.157 45.0482 193.776 45.092L193.716 45.0263V44.6601L193.782 44.6006C194.007 44.5987 194.232 44.5736 194.452 44.5255C194.492 44.5121 194.527 44.4881 194.555 44.4562C194.582 44.4242 194.601 44.3855 194.608 44.3439C194.643 44.0532 194.656 43.7602 194.646 43.4675V41.4674C194.646 40.5283 194.614 40.0338 194.555 39.9649C194.514 39.9193 194.461 39.8866 194.402 39.871C194.305 39.871 194.089 39.8397 193.776 39.8241L193.716 39.7615V39.3921L193.776 39.3326C194.164 39.3608 194.715 39.3764 195.422 39.3764C196.129 39.3764 196.696 39.3765 197.078 39.3326L197.137 39.3921V39.7677L197.072 39.8272C196.839 39.8192 196.607 39.8413 196.38 39.8929C196.338 39.9105 196.302 39.939 196.275 39.9753C196.248 40.0116 196.231 40.0545 196.226 40.0995C196.196 40.4241 196.185 40.7502 196.195 41.0761V41.6458H198.962V41.2389C198.962 40.7568 198.962 40.4376 198.962 40.2998C198.94 40.0651 198.865 39.9242 198.74 39.8867C198.533 39.8516 198.324 39.8328 198.114 39.8303L198.048 39.7646V39.3921L198.114 39.3326C198.496 39.3608 199.053 39.3764 199.763 39.3764C200.474 39.3764 200.984 39.3765 201.41 39.3326L201.469 39.3921V39.7677L201.41 39.8272C201.179 39.8186 200.949 39.8407 200.724 39.8929C200.682 39.9102 200.645 39.9384 200.617 39.9747C200.589 40.011 200.571 40.054 200.565 40.0995C200.536 40.4242 200.527 40.7503 200.537 41.0761V43.4738C200.526 43.7644 200.539 44.0555 200.577 44.3439C200.584 44.3861 200.602 44.4257 200.629 44.4583C200.657 44.4909 200.693 44.5152 200.734 44.5286C200.955 44.5794 201.182 44.6035 201.41 44.6006L201.469 44.6601V45.0263H201.444ZM208.043 45.0263L207.983 45.0889C207.629 45.0701 207.269 45.0638 206.894 45.0638C206.518 45.0638 206.158 45.0638 205.83 45.0889L205.77 45.0263L205.83 44.2719L205.742 44.2469C205.47 44.491 205.291 44.6444 205.204 44.7195C205.054 44.8389 204.894 44.9437 204.725 45.0325C204.42 45.1764 204.085 45.2451 203.748 45.2329C202.731 45.2329 202.217 44.7258 202.217 43.7116C202.203 43.4854 202.239 43.2587 202.321 43.0474C202.403 42.8361 202.53 42.6451 202.693 42.4878C202.931 42.2624 203.46 42.0777 204.283 41.9244L205.754 41.6583C205.761 41.3826 205.727 41.1073 205.654 40.8413C205.573 40.5828 205.404 40.3612 205.175 40.2153C204.977 40.0953 204.75 40.0335 204.518 40.0369C204.283 40.043 204.049 40.0724 203.82 40.1245L203.363 41.001L203.285 41.0448L203.025 40.9947L202.966 40.9133L203.025 40.112C203.964 39.486 204.703 39.173 205.247 39.173C206.011 39.173 206.571 39.414 206.919 39.8929C207.151 40.2456 207.261 40.6644 207.232 41.0855C207.232 41.2545 207.232 41.6739 207.207 42.3375C207.207 42.6067 207.188 42.8352 207.188 43.0293C207.188 43.9182 207.222 44.4097 207.282 44.4848C207.341 44.5599 207.576 44.6037 207.983 44.6225L208.033 44.682V45.02L208.043 45.0263ZM205.764 42.9886V41.9963C205.401 42.1059 205.116 42.1873 204.922 42.2593C204.646 42.3386 204.382 42.4533 204.136 42.6005C204.006 42.6968 203.901 42.8236 203.83 42.9698C203.76 43.116 203.726 43.2772 203.732 43.4393C203.728 43.5548 203.748 43.6699 203.79 43.7775C203.832 43.8852 203.895 43.9831 203.977 44.0653C204.054 44.1483 204.149 44.2136 204.255 44.2568C204.36 44.3 204.473 44.3201 204.587 44.3157C204.77 44.3165 204.951 44.2738 205.114 44.1911C205.277 44.1083 205.418 43.988 205.526 43.84C205.697 43.5859 205.778 43.2815 205.754 42.9761L205.764 42.9886Z" fill="#0B0B0B"/>
<path fill-rule="evenodd" clip-rule="evenodd" d="M110.496 24.2048C110.448 24.524 110.421 24.8461 110.415 25.1689V26.2237L110.349 26.2895H109.951L109.88 26.23C109.878 25.9159 109.856 25.6022 109.814 25.291C109.784 25.2064 109.729 25.1329 109.656 25.0804C109.584 25.0278 109.497 24.9986 109.407 24.9967C109.325 24.9811 108.928 24.9748 108.224 24.9748H107.366C107.366 25.1282 107.366 25.7104 107.366 26.734V30.3148C107.349 30.9701 107.376 31.6258 107.447 32.2774C107.455 32.3337 107.48 32.3862 107.52 32.4272C107.559 32.4683 107.611 32.4958 107.667 32.5059C107.91 32.547 108.156 32.5689 108.402 32.5716L108.468 32.6373V33.0568L108.402 33.1225C107.986 33.1006 107.338 33.0849 106.455 33.0849C105.572 33.0849 104.909 33.1006 104.511 33.1225L104.458 33.0661V32.6373L104.521 32.5716C104.767 32.5683 105.013 32.5463 105.256 32.5059C105.312 32.4954 105.363 32.4677 105.403 32.4267C105.442 32.3858 105.467 32.3335 105.475 32.2774C105.545 31.6256 105.572 30.9701 105.557 30.3148V26.7246C105.557 25.6854 105.557 25.0969 105.535 24.9654H104.612C104.171 24.9452 103.729 24.9693 103.294 25.0374C103.24 25.0525 103.193 25.0844 103.159 25.1282C103.103 25.2581 103.071 25.397 103.065 25.5383C103.031 25.7653 103.011 25.9942 103.006 26.2237L102.94 26.2895H102.543L102.477 26.2237V25.147C102.472 24.8326 102.446 24.5189 102.399 24.208L102.461 24.1422C102.705 24.186 103.616 24.208 105.172 24.208H107.729C109.173 24.208 110.079 24.186 110.446 24.1422L110.506 24.208L110.496 24.2048ZM118.434 30.969C118.339 31.6608 118.294 32.3585 118.299 33.0568L118.234 33.1225L113.626 33.0849C112.859 33.0849 112.321 33.0849 112.005 33.1225L111.942 33.0568V32.8815L111.977 32.8063C112.161 32.7065 112.33 32.5799 112.477 32.4307C112.539 32.1555 112.563 31.8734 112.549 31.5919L112.565 30.1739V26.9718C112.586 26.3165 112.558 25.6606 112.484 25.0093C112.475 24.9536 112.45 24.9017 112.413 24.86C112.375 24.8183 112.325 24.7885 112.271 24.7745C112.025 24.7414 111.777 24.7216 111.529 24.715L111.47 24.6493V24.2205L111.529 24.1641C111.955 24.1923 112.615 24.2048 113.501 24.2048C114.293 24.2048 115.795 24.2048 118.018 24.1641L118.083 24.2142L118.008 24.9185C117.98 25.1407 117.965 25.3317 117.955 25.4882L117.911 26.0735L117.846 26.1424H117.479L117.414 26.0766C117.44 25.7489 117.408 25.4191 117.317 25.1032C117.104 24.9999 116.87 24.9504 116.634 24.9592C116.234 24.9279 115.874 24.9122 115.567 24.9122C115.198 24.9122 114.825 24.9279 114.456 24.9561C114.399 25.5658 114.375 26.178 114.384 26.7903V28.0987C114.719 28.1206 114.985 28.13 115.191 28.13H116.021C116.406 28.13 116.625 28.0955 116.678 28.0361C116.782 27.7637 116.827 27.4725 116.81 27.1816L116.875 27.1158H117.267L117.326 27.1816C117.31 27.6542 117.304 28.0862 117.304 28.4774C117.304 28.8687 117.304 29.3664 117.326 29.8766L117.267 29.9329H116.841L116.778 29.8672C116.807 29.5764 116.773 29.2827 116.678 29.0064C116.609 28.9125 116.406 28.853 116.052 28.8249C115.795 28.8061 115.523 28.7936 115.232 28.7936C114.941 28.7936 114.64 28.7936 114.371 28.8249V30.753C114.371 31.3008 114.371 31.836 114.406 32.3525H115.26C116.493 32.3525 117.245 32.3087 117.523 32.2116C117.564 32.1983 117.6 32.1732 117.627 32.1396C117.687 32.0222 117.728 31.8951 117.745 31.764L117.899 30.9752L117.958 30.9095H118.343L118.409 30.969H118.434ZM129.358 33.0568L129.305 33.1225C128.366 33.1006 127.806 33.0849 127.615 33.0849C126.842 33.0849 126.122 33.1006 125.452 33.1225L125.399 33.0568V32.6592L125.461 32.5872L126.012 32.5591C126.241 32.5591 126.356 32.4683 126.356 32.3149C126.327 32.1082 126.268 31.9067 126.181 31.7171L125.665 30.3774C125.079 30.3774 124.491 30.3617 123.88 30.3617C123.567 30.3617 123.07 30.3617 122.416 30.3774L122.14 31.1443C121.994 31.4982 121.889 31.8679 121.827 32.2461C121.827 32.4026 121.93 32.5027 122.124 32.5309C122.338 32.5596 122.554 32.5773 122.769 32.5841L122.835 32.6436V33.0536L122.769 33.1131C121.99 33.0912 121.489 33.0755 121.27 33.0755C121.051 33.0755 120.666 33.0912 119.983 33.1131L119.924 33.0568V32.6498L119.99 32.5841C120.425 32.5559 120.688 32.4683 120.791 32.3212C120.894 32.1741 121.261 31.2976 121.902 29.6856L123.552 25.5602L124.106 24.1172H124.998L128.338 32.005C128.463 32.3181 128.582 32.4746 128.685 32.5059C128.879 32.5677 129.083 32.5952 129.286 32.5872L129.346 32.653V33.0568H129.358ZM125.352 29.6575L124.003 26.3458L122.704 29.6575C123.051 29.6575 123.499 29.6794 124.053 29.6794C124.607 29.6794 125.017 29.6794 125.348 29.6575H125.352ZM137.246 24.2048L137.187 24.1391C136.817 24.1829 135.913 24.2048 134.473 24.2048H131.906C130.341 24.2048 129.446 24.1829 129.192 24.1391L129.139 24.2048C129.184 24.5159 129.208 24.8296 129.211 25.1439L129.227 26.2206L129.292 26.2863H129.696L129.756 26.2206C129.762 25.9912 129.782 25.7623 129.815 25.5351C129.823 25.3945 129.854 25.256 129.906 25.1251C129.943 25.0831 129.99 25.0517 130.044 25.0343C130.481 24.9664 130.925 24.9423 131.368 24.9623H132.266C132.266 25.0938 132.288 25.6822 132.288 26.7214V30.3148C132.305 30.9701 132.278 31.6258 132.207 32.2774C132.199 32.3337 132.173 32.3862 132.134 32.4272C132.095 32.4683 132.043 32.4958 131.987 32.5059C131.744 32.547 131.498 32.5689 131.252 32.5716L131.189 32.6373V33.0661L131.249 33.1225C131.64 33.1006 132.288 33.0849 133.192 33.0849C134.097 33.0849 134.717 33.1006 135.133 33.1225L135.199 33.0568V32.6373L135.133 32.5716C134.887 32.5681 134.641 32.5461 134.398 32.5059C134.342 32.4954 134.291 32.4677 134.251 32.4267C134.212 32.3858 134.187 32.3335 134.178 32.2774C134.109 31.6256 134.082 30.9701 134.097 30.3148V26.7246C134.097 25.701 134.097 25.1188 134.097 24.9654H134.942C135.643 24.9654 136.044 24.9654 136.129 24.9874C136.218 24.9885 136.305 25.0175 136.377 25.0702C136.45 25.1229 136.504 25.1968 136.532 25.2816C136.578 25.5925 136.603 25.9063 136.604 26.2206L136.67 26.2801H137.102L137.165 26.2144V25.1595C137.17 24.8367 137.198 24.5147 137.246 24.1954V24.2048ZM145.384 26.1424C145.408 26.5284 145.34 26.9145 145.187 27.2696C145.033 27.6247 144.799 27.9387 144.502 28.1863C143.944 28.6645 143.233 28.9246 142.498 28.9188C142.24 28.9125 141.984 28.8768 141.735 28.8123C141.678 28.6532 141.603 28.5009 141.512 28.3585L141.647 28.2176C141.803 28.2731 141.967 28.3027 142.132 28.3053C142.324 28.315 142.516 28.2812 142.693 28.2064C142.87 28.1316 143.029 28.0177 143.156 27.8733C143.433 27.5111 143.568 27.0605 143.537 26.6056C143.537 25.435 143.008 24.8465 141.972 24.8465C141.717 24.8581 141.462 24.8832 141.209 24.9216C141.149 25.6085 141.13 26.2984 141.152 26.9875V30.3148C141.134 30.9702 141.162 31.626 141.237 32.2774C141.244 32.3339 141.269 32.3867 141.308 32.4287C141.347 32.4707 141.397 32.4998 141.453 32.5121C141.487 32.5121 141.766 32.5403 142.314 32.5779L142.386 32.6436V33.063L142.32 33.1256C141.747 33.1006 141.068 33.0849 140.251 33.0849C139.346 33.0849 138.686 33.1006 138.31 33.1256L138.244 33.0661V32.6436L138.316 32.5716C138.561 32.5681 138.805 32.5461 139.046 32.5059C139.1 32.4942 139.15 32.466 139.188 32.4251C139.226 32.3843 139.251 32.3327 139.259 32.2774C139.333 31.626 139.361 30.9701 139.34 30.3148V26.9718C139.36 26.3165 139.333 25.6606 139.259 25.0093C139.25 24.9536 139.225 24.9017 139.187 24.86C139.15 24.8183 139.1 24.7885 139.046 24.7745C138.802 24.7416 138.556 24.7218 138.31 24.715L138.244 24.6462V24.2236L138.316 24.1641C138.723 24.186 139.362 24.2048 140.216 24.2048C140.564 24.2048 141.077 24.2048 141.741 24.1829L142.893 24.1641C144.041 24.1641 144.793 24.4584 145.137 25.0437C145.323 25.3793 145.415 25.7589 145.403 26.1424H145.384Z" fill="#0B0B0B"/>
<path fill-rule="evenodd" clip-rule="evenodd" d="M158.63 30.3773C158.649 30.7996 158.555 31.2192 158.359 31.5936C158.163 31.968 157.871 32.2838 157.513 32.5089C156.786 32.9537 155.942 33.1717 155.09 33.1349C154.894 33.1349 154.509 33.1255 153.935 33.1067C153.588 33.091 153.309 33.0879 153.062 33.0879C152.815 33.0879 152.201 33.0879 151.102 33.1255L151.043 33.0817V32.6591L151.109 32.5934C151.538 32.5652 151.782 32.5433 151.844 32.5276C151.901 32.5166 151.952 32.4879 151.991 32.4457C152.03 32.4035 152.054 32.3499 152.06 32.2929C152.133 31.6435 152.161 30.9898 152.142 30.3366V26.9936C152.16 26.3383 152.133 25.6825 152.06 25.031C152.052 24.9747 152.027 24.9221 151.989 24.8801C151.95 24.8382 151.9 24.809 151.844 24.7963C151.6 24.763 151.355 24.7432 151.109 24.7368L151.043 24.6711V24.2423L151.109 24.1859L154.524 24.2235L157.128 24.2078C157.381 24.2062 157.634 24.1905 157.885 24.1609L157.954 24.2235C157.905 24.5342 157.878 24.848 157.873 25.1625V26.2393L157.807 26.305H157.403L157.338 26.2455C157.338 26.0045 157.316 25.7604 157.3 25.5162C157.256 25.2032 157.144 24.9966 156.962 24.9309C156.536 24.8633 156.103 24.8403 155.672 24.862H154.001C153.963 25.9075 153.941 26.5554 153.941 26.7964V28.0046C154.77 27.9852 155.599 28.0291 156.42 28.1361C157.881 28.3949 158.612 29.1429 158.612 30.3804L158.63 30.3773ZM156.724 30.4962C156.736 30.2432 156.695 29.9904 156.603 29.7543C156.512 29.5182 156.372 29.3039 156.192 29.1252C155.849 28.8274 155.41 28.6639 154.956 28.6651C154.743 28.6651 154.405 28.6651 153.948 28.6651V32.4525C154.187 32.4819 154.427 32.4966 154.668 32.4963C155.022 32.5108 155.377 32.4718 155.719 32.3805C156.047 32.2546 156.316 32.0129 156.477 31.7013C156.654 31.3363 156.738 30.9329 156.721 30.5275L156.724 30.4962ZM169.357 33.0691L169.304 33.1349C168.365 33.1067 167.805 33.0973 167.611 33.0973C166.834 33.0973 166.118 33.0973 165.451 33.1349L165.398 33.0691V32.681L165.457 32.609L166.008 32.5808C166.243 32.5808 166.355 32.4838 166.355 32.3367C166.323 32.1303 166.263 31.9292 166.177 31.7388L165.67 30.4086C165.088 30.4086 164.493 30.3929 163.889 30.3929C163.576 30.3929 163.072 30.3929 162.424 30.4086L162.139 31.1754C161.991 31.5288 161.886 31.8987 161.826 32.2772C161.826 32.4337 161.923 32.5339 162.139 32.5589C162.347 32.5889 162.556 32.6056 162.765 32.609L162.825 32.6747V33.0785L162.765 33.1443C161.986 33.1223 161.485 33.1067 161.263 33.1067C161.094 33.1067 160.662 33.1223 159.983 33.1443L159.917 33.0879V32.6747L159.986 32.609C160.418 32.5871 160.684 32.4995 160.784 32.3523C160.884 32.2052 161.256 31.3288 161.898 29.7168L163.545 25.5913C163.67 25.2783 163.858 24.7869 164.099 24.1421H165L168.343 32.0268C168.475 32.3398 168.593 32.4963 168.697 32.5276C168.891 32.5897 169.094 32.6173 169.298 32.609L169.351 32.6747V33.0785L169.357 33.0691ZM165.36 29.6792L164.017 26.3676L162.721 29.6792C163.069 29.6792 163.516 29.7011 164.067 29.7011C164.618 29.7011 165.038 29.7011 165.369 29.6792H165.36ZM179.574 33.1004L179.517 33.1443C178.794 33.1161 178.125 33.1067 177.508 33.1067C176.625 33.1067 175.993 33.1067 175.63 33.1443L175.577 33.1004V32.6591L175.636 32.5934C175.885 32.5863 176.132 32.5643 176.378 32.5276C176.433 32.516 176.482 32.4878 176.52 32.4469C176.559 32.406 176.583 32.3545 176.591 32.2991C176.662 31.6475 176.689 30.9918 176.672 30.3366V28.2018L176.65 25.103H176.491C176.275 25.463 175.946 26.0014 175.52 26.715L174.4 28.5931C173.765 29.603 173.188 30.648 172.672 31.7232C172.594 31.8776 172.541 32.0435 172.515 32.2146C172.515 32.3555 172.634 32.4588 172.891 32.5276C173.062 32.5642 173.234 32.5914 173.408 32.609L173.473 32.6747V33.1004L173.408 33.1443C172.782 33.1161 172.221 33.1067 171.692 33.1067C171.407 33.1067 170.944 33.1067 170.296 33.1443L170.23 33.1004V32.6591L170.296 32.5934L170.7 32.5182C170.807 32.4959 170.912 32.4645 171.013 32.4243C171.245 32.2394 171.442 32.0147 171.595 31.7608C172.118 31.0033 172.534 30.371 172.869 29.8514L175.811 25.2063C175.838 25.1679 175.858 25.1257 175.871 25.0811C175.871 24.981 175.311 24.862 174.184 24.7274L174.124 24.6711V24.2235L174.184 24.1859C174.384 24.1859 175.123 24.2078 176.391 24.2235C177.402 24.2235 178.093 24.2235 178.472 24.1859L178.553 24.236C178.553 24.3706 178.553 24.7963 178.525 25.5162C178.503 26.5742 178.497 27.4663 178.497 28.2018V30.3366C178.48 30.9918 178.507 31.6475 178.578 32.2991C178.586 32.3545 178.611 32.406 178.649 32.4469C178.687 32.4878 178.737 32.516 178.791 32.5276C179.037 32.5645 179.285 32.5865 179.533 32.5934L179.593 32.6591V33.1004H179.574ZM187.712 30.9908C187.617 31.6825 187.572 32.3803 187.578 33.0785L187.512 33.1443L182.923 33.1067C182.156 33.1067 181.618 33.1067 181.305 33.1443L181.239 33.0785V32.9032L181.273 32.8281C181.458 32.7282 181.627 32.6017 181.774 32.4525C181.838 32.183 181.867 31.9062 181.859 31.6293L181.874 30.2114V26.9936C181.895 26.3383 181.868 25.6824 181.793 25.031C181.784 24.9754 181.76 24.9235 181.722 24.8818C181.684 24.84 181.635 24.8103 181.58 24.7963C181.336 24.7634 181.091 24.7435 180.845 24.7368L180.779 24.6711V24.2423L180.845 24.1859C181.264 24.2078 181.925 24.2235 182.81 24.2235C183.602 24.2235 185.105 24.2078 187.327 24.1859L187.393 24.236L187.311 24.9371C187.283 25.1625 187.268 25.3534 187.255 25.5099L187.214 26.0921L187.149 26.1641H186.782L186.717 26.0984C186.744 25.7707 186.711 25.4408 186.62 25.1249C186.57 25.0592 186.347 25.0154 185.937 24.981C185.527 24.9465 185.177 24.934 184.87 24.934C184.501 24.934 184.128 24.934 183.759 24.9778C183.703 25.5875 183.679 26.1998 183.687 26.8121V28.1204C184.022 28.1424 184.288 28.1517 184.494 28.1517H185.302C185.687 28.1517 185.906 28.1173 185.959 28.0578C186.063 27.7855 186.108 27.4943 186.091 27.2033L186.15 27.1376H186.554L186.62 27.2033C186.604 27.676 186.598 28.1079 186.598 28.4992C186.598 28.8905 186.598 29.3913 186.62 29.8983L186.554 29.9547H186.135L186.072 29.8952C186.101 29.6024 186.067 29.3067 185.972 29.0282C185.903 28.9343 185.699 28.8811 185.346 28.8466C185.089 28.8247 184.817 28.8153 184.526 28.8153C184.235 28.8153 183.934 28.8153 183.665 28.8466V30.7779C183.665 31.3257 183.665 31.8672 183.699 32.3836H184.554C185.787 32.3836 186.538 32.3336 186.814 32.2365C186.857 32.2263 186.895 32.2007 186.92 32.1645C186.979 32.0464 187.02 31.9196 187.039 31.7889L187.193 31.0064L187.252 30.9344H187.637L187.703 30.9939L187.712 30.9908ZM197.034 24.2235C196.985 24.5437 196.958 24.8668 196.952 25.1907V26.2455L196.883 26.3081H196.486L196.42 26.2486C196.415 25.9345 196.391 25.6209 196.348 25.3096C196.32 25.2243 196.266 25.1499 196.194 25.097C196.121 25.0442 196.034 25.0156 195.944 25.0154C195.86 24.9997 195.459 24.9935 194.758 24.9935H193.913C193.913 25.1406 193.897 25.7291 193.897 26.7526V30.3366C193.88 30.9918 193.907 31.6475 193.979 32.2991C193.987 32.3553 194.012 32.4075 194.052 32.4485C194.091 32.4895 194.142 32.5171 194.198 32.5276C194.441 32.5651 194.687 32.5871 194.933 32.5934L194.999 32.6591V33.0785L194.933 33.1443C194.517 33.1161 193.869 33.1067 192.986 33.1067C192.104 33.1067 191.44 33.1067 191.049 33.1443L190.986 33.0879V32.6591L191.052 32.5934C191.298 32.5871 191.544 32.5651 191.787 32.5276C191.843 32.5171 191.894 32.4895 191.934 32.4485C191.973 32.4075 191.998 32.3553 192.007 32.2991C192.078 31.6475 192.105 30.9918 192.088 30.3366V26.7463C192.088 25.7071 192.088 25.1187 192.066 24.9872H191.155C190.715 24.9635 190.273 24.9876 189.837 25.0592C189.783 25.0739 189.735 25.1057 189.7 25.15C189.647 25.2806 189.616 25.4192 189.609 25.56C189.573 25.7868 189.553 26.0159 189.549 26.2455L189.484 26.3112H189.086L189.02 26.2455L189.005 25.1688C189 24.8544 188.973 24.5407 188.927 24.2297L188.986 24.1671C189.24 24.211 190.141 24.2297 191.7 24.2297H194.257C195.7 24.2297 196.605 24.211 196.974 24.1671L197.034 24.2297V24.2235ZM207.526 33.0785L207.472 33.1443C206.533 33.1161 205.973 33.1067 205.776 33.1067C205.003 33.1067 204.283 33.1067 203.619 33.1443L203.566 33.0785V32.681L203.626 32.609L204.176 32.5808C204.405 32.5808 204.524 32.4838 204.524 32.3367C204.492 32.1303 204.432 31.9292 204.345 31.7388L203.838 30.4086C203.253 30.4086 202.661 30.3929 202.051 30.3929C201.722 30.3929 201.237 30.3929 200.589 30.4086L200.314 31.1754C200.166 31.5288 200.061 31.8987 200.001 32.2772C200.001 32.4337 200.098 32.5339 200.295 32.5589C200.508 32.5892 200.722 32.6059 200.937 32.609L201.003 32.6747V33.0785L200.937 33.1443C200.164 33.1223 199.663 33.1067 199.437 33.1067C199.265 33.1067 198.84 33.1223 198.157 33.1443L198.092 33.0879V32.6747L198.164 32.609C198.595 32.5871 198.862 32.4995 198.959 32.3523C199.056 32.2052 199.434 31.3288 200.07 29.7168L201.722 25.5913C201.848 25.2783 202.035 24.7869 202.276 24.1421H203.175L206.521 32.0268C206.652 32.3398 206.765 32.4963 206.875 32.5276C207.069 32.5897 207.272 32.6173 207.476 32.609L207.529 32.6747V33.0785H207.526ZM203.513 29.6792L202.161 26.3676L200.871 29.6792C201.212 29.6792 201.666 29.7011 202.214 29.7011C202.762 29.7011 203.184 29.7011 203.513 29.6792Z" fill="#0B0B0B"/>
<path fill-rule="evenodd" clip-rule="evenodd" d="M166.835 39.32L166.866 39.3482L166.901 39.3826V39.7676L166.863 39.7958L166.826 39.8271C166.667 39.8293 166.508 39.8408 166.35 39.8615C166.266 39.8647 166.183 39.8827 166.106 39.9147C166.06 39.9505 166.027 39.9999 166.012 40.0556C165.988 40.1465 165.978 40.2403 165.981 40.3342V40.6002V40.8694C165.981 40.9602 165.981 41.1136 165.981 41.3202V42.1152C165.981 42.4282 165.981 42.7412 165.981 42.9885C165.981 43.2358 165.981 43.4893 165.981 43.6896C165.981 43.89 165.981 44.0621 166.002 44.1748C166.005 44.2493 166.017 44.323 166.04 44.3939C166.053 44.4226 166.073 44.4482 166.096 44.469C166.124 44.4903 166.153 44.5092 166.184 44.5254C166.255 44.5429 166.327 44.5533 166.4 44.5567C166.516 44.5567 166.663 44.5786 166.848 44.5911L166.879 44.6162L166.913 44.6506V45.0137L166.879 45.0481L166.835 45.0888C166.644 45.0888 166.409 45.0638 166.131 45.0575C165.852 45.0512 165.539 45.0575 165.192 45.0575C164.844 45.0575 164.566 45.0575 164.275 45.0575C163.984 45.0575 163.758 45.0575 163.545 45.0888L163.517 45.0575L163.486 45.0231V44.6506L163.517 44.6162L163.545 44.5911C163.736 44.5911 163.883 44.5692 163.996 44.5567C164.071 44.5544 164.144 44.5418 164.215 44.5191C164.247 44.5054 164.276 44.4875 164.303 44.4659C164.326 44.4418 164.344 44.413 164.356 44.3814C164.378 44.319 164.39 44.2535 164.39 44.1873C164.39 44.084 164.406 43.9401 164.412 43.7616C164.419 43.5832 164.412 43.3579 164.428 43.0793C164.444 42.8007 164.428 42.4908 164.428 42.1402V39.9961C164.084 40.3091 163.739 40.6221 163.311 41.0009C162.882 41.3796 162.372 41.8398 161.708 42.4282C161.708 42.4282 161.708 42.6661 161.708 42.9228C161.708 43.1794 161.708 43.4611 161.708 43.5989C161.708 43.7366 161.708 43.8555 161.708 44.0027C161.709 44.1366 161.726 44.27 161.758 44.4002C161.769 44.4293 161.787 44.4552 161.811 44.4753C161.84 44.4973 161.872 44.5152 161.905 44.5285C161.976 44.5468 162.048 44.5583 162.121 44.5629C162.231 44.5629 162.378 44.5849 162.562 44.5942L162.597 44.6224L162.628 44.6537V45.0199L162.603 45.0544L162.569 45.0857C162.378 45.0857 162.143 45.0575 161.871 45.0544C161.598 45.0512 161.279 45.0544 160.913 45.0544C160.547 45.0544 160.287 45.0544 160.002 45.0544C159.717 45.0544 159.479 45.0544 159.267 45.0857L159.241 45.0544L159.207 45.0199V44.6537L159.235 44.6224L159.26 44.5942C159.442 44.5942 159.573 44.5942 159.692 44.5661C159.766 44.5656 159.84 44.5551 159.911 44.5348C159.941 44.5234 159.969 44.5087 159.996 44.491C160.022 44.4725 160.044 44.4478 160.058 44.419C160.084 44.3639 160.098 44.3043 160.099 44.2437C160.099 44.1592 160.118 44.034 160.121 43.8806C160.124 43.7272 160.121 43.5926 160.14 43.4705V41.533C160.14 41.1073 160.14 40.81 160.14 40.6221C160.14 40.4343 160.14 40.2904 160.118 40.1808C160.113 40.1122 160.099 40.0447 160.074 39.9805C160.056 39.9504 160.031 39.9247 160.002 39.9054C159.971 39.8835 159.936 39.8685 159.899 39.8615C159.829 39.8443 159.758 39.8328 159.686 39.8271L159.273 39.8052L159.241 39.7739L159.213 39.7395V39.3764L159.241 39.3419L159.273 39.3169C159.464 39.3169 159.698 39.3388 159.977 39.3419C160.256 39.3451 160.565 39.3419 160.916 39.3419C161.267 39.3419 161.602 39.3419 161.874 39.3419C162.146 39.3419 162.381 39.3419 162.572 39.3169L162.6 39.3419L162.631 39.3764V39.7395L162.6 39.7739L162.566 39.8052L162.137 39.8334C162.065 39.8382 161.994 39.8497 161.924 39.8678C161.892 39.8796 161.861 39.8932 161.83 39.9085C161.808 39.9254 161.79 39.9467 161.777 39.9711C161.753 40.0222 161.741 40.0776 161.739 40.1339C161.739 40.2215 161.717 40.3467 161.705 40.4969C161.705 40.7536 161.705 40.9226 161.705 41.0917V41.6864C162.331 41.1355 162.722 40.8037 163.095 40.475C163.467 40.1464 163.815 39.8334 164.369 39.32C164.506 39.3325 164.663 39.3419 164.838 39.3482C165.007 39.3482 165.192 39.3482 165.392 39.3482C165.592 39.3482 165.818 39.3482 166.062 39.3482L166.848 39.32H166.835Z" fill="#0B0B0B"/>
<path fill-rule="evenodd" clip-rule="evenodd" d="M85.7458 15.716C85.3327 15.4436 84.378 16.3138 83.6643 17.8882C83.3356 18.6144 82.7253 20.2483 83.2762 20.5207C83.8271 20.793 84.8569 19.4408 85.3264 18.483C85.6394 17.835 86.497 16.2105 85.7458 15.716Z" fill="#0B0B0B"/>
<path fill-rule="evenodd" clip-rule="evenodd" d="M98.9384 26.6216C98.5221 26.3618 97.5705 27.2476 96.8569 28.8126C96.5438 29.5388 95.9178 31.1727 96.4687 31.445C97.0196 31.7174 98.0338 30.3652 98.5189 29.4073C98.832 28.7594 99.6896 27.1349 98.9384 26.6403V26.6216Z" fill="#0B0B0B"/>
<path fill-rule="evenodd" clip-rule="evenodd" d="M98.0693 16.8368C98.8112 16.7711 98.5608 17.2906 98.1445 17.3814C95.2084 18.6178 86.6664 20.8433 86.3002 23.9953C86.3002 25.31 87.4833 25.8734 88.1782 26.0768C89.1423 26.4086 89.2832 26.2459 90.122 26.5777C90.8576 26.8468 91.2238 27.8297 90.6197 28.3712C88.2127 30.4371 84.8728 31.7611 82.4814 34.3184C80.2904 36.6848 79.0383 39.9901 80.522 42.5787C81.9493 45.064 85.0387 46.266 88.1031 45.9092C89.4929 45.7339 90.4789 45.3677 91.6902 45.0484C92.1754 44.9482 92.2067 45.5054 91.6526 45.8591C90.7136 46.41 89.8247 46.9045 87.5585 47.2927C84.2312 47.5681 81.1105 46.3161 79.4359 44.2471C78.6846 43.2642 77.8958 42.0028 77.7487 40.5942C77.5926 39.0516 77.8769 37.4964 78.5688 36.1088C79.3276 34.5868 80.4277 33.2606 81.7834 32.2338C84.034 30.459 85.7086 29.7297 86.2532 28.8939C86.8511 27.9831 86.6288 27.3758 86.0873 26.659C85.599 26.0768 84.973 25.5885 84.613 25.0752C84.0621 24.2896 83.8336 23.4476 84.9261 22.3677C86.1643 21.2958 87.5427 20.3976 89.0234 19.6977C91.8935 18.3344 94.9372 17.3717 98.0693 16.8368Z" fill="#0B0B0B"/>
<path fill-rule="evenodd" clip-rule="evenodd" d="M72.7988 33.3352C72.1071 34.5653 71.8598 35.3322 72.0758 35.4636C72.2229 35.5513 72.4889 35.3729 72.7832 34.8752C73.0774 34.3775 73.5939 33.6513 74.2387 32.7686C76.3855 29.6983 79.2403 27.1903 82.5616 25.4567C82.8746 25.2877 82.7431 24.9997 82.6837 24.6272C82.5835 24.0607 82.6837 23.5724 82.0827 23.9417C78.2225 26.2092 75.0221 29.4463 72.7988 33.332V33.3352Z" fill="#0B0B0B"/>
<path fill-rule="evenodd" clip-rule="evenodd" d="M82.7542 39.082C81.5335 39.8175 81.0577 40.334 81.1891 40.5625C81.2705 40.7159 81.5366 40.7315 82.0405 40.4498C82.5445 40.1681 83.3583 39.78 84.3599 39.3261C88.1348 37.7047 91.3056 36.7719 94.129 36.6749C95.7879 36.6186 96.5798 37.398 96.727 38.5154C96.8741 39.6329 96.2543 40.8442 95.4029 41.7958C94.9813 42.2731 94.5101 42.7043 93.9975 43.0822C93.3715 43.5736 93.5343 43.943 93.9975 43.7802C94.4608 43.6175 95.2871 42.9727 96.0571 42.2715C97.353 41.129 98.411 39.4544 98.2701 37.9864C97.6441 31.5102 85.252 37.6734 82.7542 39.082Z" fill="#0B0B0B"/>
<path fill-rule="evenodd" clip-rule="evenodd" d="M86.2574 57.3436C84.8144 57.4469 84.1446 57.2842 84.1289 56.9367C84.1289 56.7239 84.3261 56.5204 84.902 56.4829C85.7619 56.4011 86.6166 56.2725 87.4625 56.0979C88.6676 55.8506 93.4441 55.0242 96.2768 53.0898C97.9452 51.9505 98.7997 50.2727 98.3364 48.5293C97.7104 46.1661 95.1343 45.7122 93.5818 45.4931C92.7962 45.3898 92.7242 44.8514 93.1999 44.7544C95.2251 44.3193 99.4758 44.8201 100.261 48.2789C101.235 52.5389 97.3786 55.0681 93.1186 56.173C90.8718 56.7709 88.5753 57.1628 86.2574 57.3436Z" fill="#0B0B0B"/>
<path fill-rule="evenodd" clip-rule="evenodd" d="M75.1218 53.0679C74.0607 55.1525 72.9495 57.6096 73.2657 57.9226C73.4441 58.1042 73.9355 57.9633 74.6335 56.7301C75.2595 55.6408 76.4208 53.6469 77.5633 51.772C79.0094 49.4901 81.2474 46.0846 86.0146 41.6837C90.0993 37.89 95.4925 34.4688 95.7335 34.0963C96.9856 32.2183 94.8289 33.1573 93.8304 33.7332C84.991 38.9448 79.9171 43.6243 75.1218 53.0679Z" fill="#0B0B0B"/>
</g>
<defs>
<clipPath id="clip0_258_3322">
<rect width="283" height="74" fill="white"/>
</clipPath>
</defs>
</svg>
