<svg width="32" height="32" viewBox="0 0 32 32" fill="none" xmlns="http://www.w3.org/2000/svg">
<circle cx="16" cy="16" r="16" fill="#EDEDED"/>
<path d="M18.25 8.5H13.75C12.925 8.5 12.25 9.175 12.25 10V11.875H9.625V12.625H10.75V22C10.75 22.825 11.425 23.5 12.25 23.5H19.75C20.575 23.5 21.25 22.825 21.25 22V12.625H22.375V11.875H19.75V10C19.75 9.175 19.075 8.5 18.25 8.5ZM13 10C13 9.58637 13.3364 9.25 13.75 9.25H18.25C18.6636 9.25 19 9.58637 19 10V11.875H13V10ZM20.5 22C20.5 22.4136 20.1636 22.75 19.75 22.75H12.25C11.8364 22.75 11.5 22.4136 11.5 22V12.625H20.5V22Z" fill="#0B0B0B" stroke="#0B0B0B" stroke-width="0.6"/>
<path d="M14.875 14.875H14.125V20.125H14.875V14.875Z" fill="#0B0B0B" stroke="#0B0B0B" stroke-width="0.6"/>
<path d="M17.875 14.875H17.125V20.125H17.875V14.875Z" fill="#0B0B0B" stroke="#0B0B0B" stroke-width="0.6"/>
</svg>
